<svg width="1300" height="350" viewBox="0 0 1300 350" fill="none" xmlns="http://www.w3.org/2000/svg">
<path d="M613.545 143.705V85.5227H627V89.9773H618.636V139.25H627V143.705H613.545Z" fill="#32C572"/>
<path d="M653.52 129.25V126.018L657.84 124.258V105.666C657.84 101.602 655.728 100.194 652.912 100.194C650.704 100.194 647.696 100.898 644.272 102.786V124.322L648.496 126.018V129.25H634V126.018L638.32 124.258V102.338L632.72 101.474V97.922L643.088 95.522L643.92 95.874V99.554C648.112 96.898 651.952 95.362 655.696 95.362C661.168 95.362 663.792 98.466 663.792 104.418V124.322L668.016 126.018V129.25H653.52Z" fill="#E6EBF9"/>
<path d="M685.636 85.5227V143.705H672.182V139.25H680.545V89.9773H672.182V85.5227H685.636Z" fill="#32C572"/>
<path d="M723.172 43.1094L723.172 65.6406L718.891 65.6406L718.891 47.4219L688.984 47.4219L688.984 43.1094L723.172 43.1094Z" fill="#32C572"/>
<path d="M718.891 65.6406L723.172 65.6406L723.172 100.578L718.891 100.578L718.891 65.6406Z" fill="#32C572"/>
<path d="M718.891 100.578L723.172 100.578L723.172 135.516L718.891 135.516L718.891 100.578Z" fill="#32C572"/>
<path d="M718.891 135.516L723.172 135.516L723.172 170.453L718.891 170.453L718.891 135.516Z" fill="#32C572"/>
<path d="M718.891 170.453L723.172 170.453L723.172 187.172L688.984 187.172L688.984 182.859L718.891 182.859L718.891 170.453Z" fill="#32C572"/>
<path d="M681.984 43.1094L681.984 47.4219L617.984 47.4219L617.984 43.1094L681.984 43.1094Z" fill="#32C572"/>
<path d="M681.984 182.859L681.984 187.172L617.984 187.172L617.984 182.859L681.984 182.859Z" fill="#32C572"/>
<path d="M610.984 43.1094L610.984 47.4219L581.172 47.4219L581.172 65.6406L576.891 65.6406L576.891 43.1094L610.984 43.1094Z" fill="#32C572"/>
<path d="M576.891 65.6406L581.172 65.6406L581.172 100.578L576.891 100.578L576.891 65.6406Z" fill="#32C572"/>
<path d="M576.891 100.578L581.172 100.578L581.172 135.516L576.891 135.516L576.891 100.578Z" fill="#32C572"/>
<path d="M576.891 135.516L581.172 135.516L581.172 170.453L576.891 170.453L576.891 135.516Z" fill="#32C572"/>
<path d="M576.891 170.453L581.172 170.453L581.172 182.859L610.984 182.859L610.984 187.172L576.891 187.172L576.891 170.453Z" fill="#32C572"/>
<path d="M514.92 252V250.6L516.8 250.32C517.227 250.24 517.507 250.08 517.64 249.84C517.773 249.573 517.84 249.093 517.84 248.4V235.84C517.84 234.907 517.76 234.28 517.6 233.96C517.44 233.64 517.067 233.453 516.48 233.4L514.56 233.16L514.76 231.76L521.12 231.32L521.48 231.6L521.64 235.32H521.72C522.387 233.96 523.347 232.907 524.6 232.16C525.853 231.413 527.2 231.04 528.64 231.04C530.053 231.04 531.24 231.307 532.2 231.84C533.16 232.347 533.88 233.12 534.36 234.16C534.84 235.173 535.08 236.427 535.08 237.92V248.68C535.08 249.293 535.16 249.707 535.32 249.92C535.48 250.133 535.813 250.28 536.32 250.36L538.12 250.6V252H528.08V250.64L529.76 250.4C530.267 250.293 530.587 250.133 530.72 249.92C530.88 249.707 530.96 249.307 530.96 248.72V238.56C530.96 237.307 530.84 236.32 530.6 235.6C530.36 234.853 529.96 234.32 529.4 234C528.867 233.68 528.12 233.52 527.16 233.52C526.147 233.52 525.24 233.747 524.44 234.2C523.667 234.627 523.053 235.253 522.6 236.08C522.173 236.88 521.96 237.84 521.96 238.96V248.56C521.96 249.147 522.027 249.56 522.16 249.8C522.293 250.04 522.56 250.2 522.96 250.28L524.96 250.64V252H514.92ZM560.656 252.56C558.656 252.56 556.909 252.147 555.416 251.32C553.949 250.467 552.816 249.28 552.016 247.76C551.216 246.213 550.816 244.373 550.816 242.24C550.816 239.893 551.242 237.893 552.096 236.24C552.949 234.56 554.149 233.28 555.696 232.4C557.269 231.493 559.109 231.04 561.216 231.04C563.162 231.04 564.856 231.453 566.296 232.28C567.736 233.08 568.842 234.253 569.616 235.8C570.416 237.32 570.816 239.147 570.816 241.28C570.816 243.573 570.389 245.573 569.536 247.28C568.709 248.96 567.536 250.267 566.016 251.2C564.496 252.107 562.709 252.56 560.656 252.56ZM561.256 250.72C562.349 250.72 563.269 250.413 564.016 249.8C564.789 249.187 565.362 248.253 565.736 247C566.109 245.747 566.296 244.147 566.296 242.2C566.296 240.653 566.162 239.293 565.896 238.12C565.656 236.92 565.282 235.933 564.776 235.16C564.269 234.387 563.656 233.813 562.936 233.44C562.242 233.04 561.442 232.84 560.536 232.84C559.416 232.84 558.469 233.133 557.696 233.72C556.922 234.28 556.322 235.173 555.896 236.4C555.496 237.6 555.296 239.147 555.296 241.04C555.296 243.2 555.536 245 556.016 246.44C556.522 247.853 557.216 248.92 558.096 249.64C558.976 250.36 560.029 250.72 561.256 250.72ZM584.139 252V250.6L586.019 250.28C586.445 250.2 586.725 250.04 586.859 249.8C586.992 249.533 587.059 249.053 587.059 248.36V235.88C587.059 234.947 586.979 234.32 586.819 234C586.659 233.653 586.285 233.453 585.699 233.4L583.779 233.2L583.979 231.76L590.259 231.32L590.619 231.6L590.899 235.36H590.979C591.645 233.973 592.499 232.907 593.539 232.16C594.579 231.413 595.699 231.04 596.899 231.04C598.179 231.04 599.192 231.387 599.939 232.08C600.685 232.747 601.059 233.64 601.059 234.76C601.059 235.427 600.952 236 600.739 236.48C600.552 236.933 600.245 237.293 599.819 237.56C599.419 237.8 598.912 237.92 598.299 237.92C597.499 237.92 596.885 237.747 596.459 237.4C596.059 237.053 595.859 236.613 595.859 236.08C595.859 235.84 595.899 235.6 595.979 235.36C596.059 235.12 596.179 234.84 596.339 234.52C596.499 234.2 596.699 233.84 596.939 233.44C596.325 233.2 595.672 233.173 594.979 233.36C594.312 233.547 593.685 233.92 593.099 234.48C592.539 235.013 592.072 235.693 591.699 236.52C591.352 237.32 591.179 238.187 591.179 239.12V248.44C591.179 249.08 591.245 249.52 591.379 249.76C591.512 249.973 591.792 250.107 592.219 250.16L595.539 250.6V252H584.139ZM613.076 252V250.56L615.236 250.24C615.716 250.187 616.022 250.027 616.156 249.76C616.289 249.493 616.356 249 616.356 248.28V235.96C616.356 235 616.276 234.36 616.116 234.04C615.956 233.72 615.569 233.52 614.956 233.44L613.076 233.24L613.236 231.76L620.116 231.44L620.516 231.64V248.44C620.516 249 620.582 249.427 620.716 249.72C620.849 249.987 621.169 250.16 621.676 250.24L623.836 250.6V252H613.076ZM617.876 227.28C617.049 227.28 616.369 227.027 615.836 226.52C615.302 226.013 615.036 225.347 615.036 224.52C615.036 223.72 615.302 223.067 615.836 222.56C616.369 222.027 617.049 221.76 617.876 221.76C618.756 221.76 619.449 222.013 619.956 222.52C620.489 223.027 620.756 223.693 620.756 224.52C620.756 225.32 620.489 225.987 619.956 226.52C619.422 227.027 618.729 227.28 617.876 227.28ZM636.235 260.64V259.24L638.115 258.96C638.488 258.907 638.755 258.747 638.915 258.48C639.102 258.24 639.195 257.773 639.195 257.08V235.92C639.195 234.907 639.102 234.24 638.915 233.92C638.755 233.6 638.382 233.413 637.795 233.36L635.955 233.16L636.155 231.72L642.475 231.32L642.915 231.56L643.035 235H643.155C643.715 234.067 644.328 233.32 644.995 232.76C645.688 232.173 646.448 231.747 647.275 231.48C648.128 231.187 649.035 231.04 649.995 231.04C651.675 231.04 653.102 231.427 654.275 232.2C655.475 232.973 656.395 234.107 657.035 235.6C657.702 237.093 658.035 238.933 658.035 241.12C658.035 243.467 657.662 245.507 656.915 247.24C656.195 248.947 655.115 250.267 653.675 251.2C652.235 252.107 650.488 252.56 648.435 252.56C647.528 252.56 646.608 252.44 645.675 252.2C644.742 251.987 643.968 251.68 643.355 251.28V257.04C643.355 257.68 643.435 258.133 643.595 258.4C643.782 258.693 644.128 258.867 644.635 258.92L647.075 259.24V260.64H636.235ZM648.195 250.6C649.315 250.6 650.275 250.293 651.075 249.68C651.902 249.067 652.528 248.093 652.955 246.76C653.382 245.427 653.595 243.693 653.595 241.56C653.595 239.667 653.395 238.12 652.995 236.92C652.622 235.72 652.062 234.84 651.315 234.28C650.595 233.72 649.702 233.44 648.635 233.44C647.542 233.44 646.595 233.667 645.795 234.12C645.022 234.573 644.422 235.213 643.995 236.04C643.568 236.867 643.355 237.853 643.355 239V248.84C643.862 249.32 644.555 249.733 645.435 250.08C646.342 250.427 647.262 250.6 648.195 250.6ZM677.594 252.56C675.861 252.56 674.487 252.08 673.474 251.12C672.461 250.133 671.954 248.813 671.954 247.16C671.954 245.72 672.314 244.56 673.034 243.68C673.754 242.8 674.941 242.133 676.594 241.68C678.274 241.2 680.527 240.893 683.354 240.76V237.16C683.354 236.067 683.207 235.187 682.914 234.52C682.647 233.853 682.207 233.36 681.594 233.04C681.007 232.72 680.234 232.56 679.274 232.56C678.501 232.56 677.727 232.68 676.954 232.92C676.207 233.16 675.647 233.467 675.274 233.84C675.621 234.32 675.901 234.733 676.114 235.08C676.327 235.427 676.474 235.72 676.554 235.96C676.634 236.2 676.674 236.4 676.674 236.56C676.674 237.067 676.461 237.507 676.034 237.88C675.634 238.227 675.087 238.4 674.394 238.4C673.647 238.4 673.074 238.213 672.674 237.84C672.274 237.467 672.074 236.933 672.074 236.24C672.074 235.333 672.421 234.48 673.114 233.68C673.834 232.88 674.781 232.24 675.954 231.76C677.154 231.28 678.447 231.04 679.834 231.04C681.567 231.04 682.994 231.307 684.114 231.84C685.261 232.347 686.114 233.147 686.674 234.24C687.234 235.307 687.514 236.667 687.514 238.32V248.24C687.514 248.907 687.661 249.387 687.954 249.68C688.274 249.973 688.701 250.12 689.234 250.12C689.527 250.12 689.821 250.093 690.114 250.04C690.434 249.96 690.781 249.853 691.154 249.72L691.474 250.8C690.914 251.387 690.287 251.827 689.594 252.12C688.901 252.413 688.221 252.56 687.554 252.56C686.354 252.56 685.434 252.253 684.794 251.64C684.181 251 683.807 250.08 683.674 248.88C683.194 249.733 682.661 250.427 682.074 250.96C681.487 251.493 680.821 251.893 680.074 252.16C679.354 252.427 678.527 252.56 677.594 252.56ZM679.354 250.16C680.127 250.16 680.807 249.987 681.394 249.64C682.007 249.267 682.487 248.773 682.834 248.16C683.181 247.52 683.354 246.8 683.354 246V242.28C681.701 242.28 680.341 242.44 679.274 242.76C678.207 243.053 677.421 243.52 676.914 244.16C676.434 244.8 676.194 245.64 676.194 246.68C676.194 247.773 676.474 248.627 677.034 249.24C677.594 249.853 678.367 250.16 679.354 250.16ZM702.602 260.64V259.24L704.482 258.96C704.856 258.907 705.122 258.747 705.282 258.48C705.469 258.24 705.562 257.773 705.562 257.08V235.92C705.562 234.907 705.469 234.24 705.282 233.92C705.122 233.6 704.749 233.413 704.162 233.36L702.322 233.16L702.522 231.72L708.842 231.32L709.282 231.56L709.402 235H709.522C710.082 234.067 710.696 233.32 711.362 232.76C712.056 232.173 712.816 231.747 713.642 231.48C714.496 231.187 715.402 231.04 716.362 231.04C718.042 231.04 719.469 231.427 720.642 232.2C721.842 232.973 722.762 234.107 723.402 235.6C724.069 237.093 724.402 238.933 724.402 241.12C724.402 243.467 724.029 245.507 723.282 247.24C722.562 248.947 721.482 250.267 720.042 251.2C718.602 252.107 716.856 252.56 714.802 252.56C713.896 252.56 712.976 252.44 712.042 252.2C711.109 251.987 710.336 251.68 709.722 251.28V257.04C709.722 257.68 709.802 258.133 709.962 258.4C710.149 258.693 710.496 258.867 711.002 258.92L713.442 259.24V260.64H702.602ZM714.562 250.6C715.682 250.6 716.642 250.293 717.442 249.68C718.269 249.067 718.896 248.093 719.322 246.76C719.749 245.427 719.962 243.693 719.962 241.56C719.962 239.667 719.762 238.12 719.362 236.92C718.989 235.72 718.429 234.84 717.682 234.28C716.962 233.72 716.069 233.44 715.002 233.44C713.909 233.44 712.962 233.667 712.162 234.12C711.389 234.573 710.789 235.213 710.362 236.04C709.936 236.867 709.722 237.853 709.722 239V248.84C710.229 249.32 710.922 249.733 711.802 250.08C712.709 250.427 713.629 250.6 714.562 250.6ZM747.561 252.56C745.641 252.56 743.961 252.147 742.521 251.32C741.108 250.493 740.015 249.307 739.241 247.76C738.468 246.187 738.081 244.32 738.081 242.16C738.081 239.84 738.495 237.853 739.321 236.2C740.148 234.52 741.308 233.24 742.801 232.36C744.295 231.48 746.028 231.04 748.001 231.04C749.495 231.04 750.801 231.333 751.921 231.92C753.041 232.507 753.908 233.347 754.521 234.44C755.161 235.507 755.481 236.773 755.481 238.24C755.481 238.747 755.441 239.267 755.361 239.8C755.308 240.333 755.228 240.893 755.121 241.48H742.521C742.521 243.24 742.775 244.72 743.281 245.92C743.815 247.093 744.548 247.987 745.481 248.6C746.415 249.187 747.508 249.48 748.761 249.48C749.855 249.48 750.881 249.28 751.841 248.88C752.828 248.48 753.775 247.853 754.681 247L755.721 248C754.735 249.52 753.535 250.667 752.121 251.44C750.735 252.187 749.215 252.56 747.561 252.56ZM742.521 239.8H751.241C751.268 239.533 751.281 239.24 751.281 238.92C751.308 238.6 751.321 238.267 751.321 237.92C751.321 236.053 751.015 234.707 750.401 233.88C749.788 233.053 748.855 232.64 747.601 232.64C746.615 232.64 745.761 232.893 745.041 233.4C744.348 233.907 743.788 234.693 743.361 235.76C742.935 236.8 742.655 238.147 742.521 239.8ZM768.709 252V250.6L770.589 250.28C771.016 250.2 771.296 250.04 771.429 249.8C771.562 249.533 771.629 249.053 771.629 248.36V235.88C771.629 234.947 771.549 234.32 771.389 234C771.229 233.653 770.856 233.453 770.269 233.4L768.349 233.2L768.549 231.76L774.829 231.32L775.189 231.6L775.469 235.36H775.549C776.216 233.973 777.069 232.907 778.109 232.16C779.149 231.413 780.269 231.04 781.469 231.04C782.749 231.04 783.762 231.387 784.509 232.08C785.256 232.747 785.629 233.64 785.629 234.76C785.629 235.427 785.522 236 785.309 236.48C785.122 236.933 784.816 237.293 784.389 237.56C783.989 237.8 783.482 237.92 782.869 237.92C782.069 237.92 781.456 237.747 781.029 237.4C780.629 237.053 780.429 236.613 780.429 236.08C780.429 235.84 780.469 235.6 780.549 235.36C780.629 235.12 780.749 234.84 780.909 234.52C781.069 234.2 781.269 233.84 781.509 233.44C780.896 233.2 780.242 233.173 779.549 233.36C778.882 233.547 778.256 233.92 777.669 234.48C777.109 235.013 776.642 235.693 776.269 236.52C775.922 237.32 775.749 238.187 775.749 239.12V248.44C775.749 249.08 775.816 249.52 775.949 249.76C776.082 249.973 776.362 250.107 776.789 250.16L780.109 250.6V252H768.709Z" fill="#BAC2DE"/>
<g opacity="0.8">
<path d="M358.488 304.388C361.74 304.388 363.612 305.564 363.708 308.06L361.644 308.204C361.488 306.8 360.408 306.08 358.332 306.08C356.46 306.08 355.284 306.632 355.284 307.796C355.284 308.852 356.28 309.284 359.028 309.848C362.316 310.52 363.852 311.276 363.852 313.424C363.852 315.74 362.016 317.276 358.392 317.276C354.984 317.276 353.04 316.304 352.488 313.424L354.576 313.16C355.152 315.32 356.724 315.524 358.5 315.524C360.708 315.524 361.584 314.648 361.584 313.676C361.584 312.596 360.552 312.212 357.624 311.612C354.66 311 353.112 310.112 353.112 308C353.112 305.804 354.78 304.388 358.488 304.388ZM375.435 304.388C378.447 304.388 380.211 305.384 380.211 308.288V314.396C380.211 315.284 380.547 315.512 381.675 315.344V317C381.111 317.168 380.595 317.24 380.139 317.24C378.651 317.24 378.159 316.448 378.075 315.464H377.859C376.863 316.364 375.603 317.288 373.611 317.288C371.331 317.288 369.879 316.064 369.879 313.964C369.879 310.52 373.755 310.076 377.943 310.1V308.42C377.943 306.44 376.827 305.996 375.195 306.008C373.635 306.02 372.447 306.464 372.423 308.108V308.636H370.299V307.988C370.299 305.876 371.751 304.388 375.435 304.388ZM372.255 313.688C372.255 314.912 373.143 315.572 374.631 315.572C375.927 315.572 376.935 315.068 377.943 314.336V311.432C377.559 311.396 377.163 311.372 376.803 311.372C373.971 311.372 372.255 311.996 372.255 313.688ZM398.178 317H395.91V308.78C395.91 306.776 394.866 306.248 393.618 306.248C392.178 306.248 391.026 306.956 390.102 308.024V317H387.834V304.676H389.754L389.958 306.44H390.258C391.23 305.396 392.514 304.388 394.602 304.388C396.798 304.388 398.178 305.504 398.178 308.18V317ZM404.276 310.82C404.276 306.656 406.76 304.388 410.552 304.388C414.044 304.388 416.084 306.212 416.084 309.836V310.916H406.604C406.64 313.916 408.068 315.428 410.48 315.428C412.052 315.428 413.24 314.792 413.828 313.388L416.036 313.76C415.196 316.064 413.18 317.288 410.468 317.288C406.784 317.288 404.276 315.056 404.276 310.82ZM406.724 309.404H413.864C413.852 307.208 412.412 306.248 410.48 306.248C408.464 306.248 407.12 307.316 406.724 309.404ZM438.842 310.868C438.842 306.848 440.666 304.388 443.774 304.388C445.586 304.388 446.81 305.216 447.602 306.308H447.758V298.64H450.026V317H448.106L447.926 315.38H447.614C446.726 316.472 445.466 317.3 443.678 317.3C440.558 317.3 438.842 314.78 438.842 310.868ZM441.182 310.868C441.182 313.844 442.37 315.368 444.602 315.368C445.706 315.368 446.726 314.984 447.758 313.952V307.712C446.75 306.68 445.718 306.308 444.638 306.308C442.442 306.308 441.182 307.796 441.182 310.868ZM456.125 310.82C456.125 306.656 458.609 304.388 462.401 304.388C465.893 304.388 467.933 306.212 467.933 309.836V310.916H458.453C458.489 313.916 459.917 315.428 462.329 315.428C463.901 315.428 465.089 314.792 465.677 313.388L467.885 313.76C467.045 316.064 465.029 317.288 462.317 317.288C458.633 317.288 456.125 315.056 456.125 310.82ZM458.573 309.404H465.713C465.701 307.208 464.261 306.248 462.329 306.248C460.313 306.248 458.969 307.316 458.573 309.404ZM485.432 300.092C484.508 299.876 483.68 299.744 482.684 299.744C480.596 299.744 479.384 300.32 479.384 303.284V304.676H484.988V306.512H479.384V315.164H483.752V317H473.852V315.164H477.116V306.512H473.156V304.676H477.116V303.488C477.116 299.216 479.192 297.728 482.624 297.728C483.596 297.728 484.532 297.848 485.432 298.112V300.092ZM496.414 304.388C499.426 304.388 501.19 305.384 501.19 308.288V314.396C501.19 315.284 501.526 315.512 502.654 315.344V317C502.09 317.168 501.574 317.24 501.118 317.24C499.63 317.24 499.138 316.448 499.054 315.464H498.838C497.842 316.364 496.582 317.288 494.59 317.288C492.31 317.288 490.858 316.064 490.858 313.964C490.858 310.52 494.734 310.076 498.922 310.1V308.42C498.922 306.44 497.806 305.996 496.174 306.008C494.614 306.02 493.426 306.464 493.402 308.108V308.636H491.278V307.988C491.278 305.876 492.73 304.388 496.414 304.388ZM493.234 313.688C493.234 314.912 494.122 315.572 495.61 315.572C496.906 315.572 497.914 315.068 498.922 314.336V311.432C498.538 311.396 498.142 311.372 497.782 311.372C494.95 311.372 493.234 311.996 493.234 313.688ZM508.813 304.676H511.081V312.884C511.081 314.9 512.125 315.416 513.373 315.416C514.813 315.416 515.965 314.72 516.889 313.652V304.676H519.157V317H517.237L517.033 315.236H516.733C515.761 316.268 514.477 317.276 512.389 317.276C510.193 317.276 508.813 316.16 508.813 313.496V304.676ZM525.76 317V315.164H530.128L530.14 300.44H525.76V298.64L532.108 298.376L532.408 298.652V315.164H536.776V317H525.76ZM545.863 312.884V306.512H542.287V304.676H545.863V300.812H548.143V304.676H553.807V306.512H548.143V313.028C548.143 314.732 548.887 315.488 550.147 315.488C551.467 315.488 552.175 314.66 552.175 313.028V312.428H553.891V312.872C553.891 315.752 552.727 317.276 549.871 317.276C547.207 317.276 545.863 315.968 545.863 312.884ZM565.882 304.388C569.134 304.388 571.006 305.564 571.102 308.06L569.038 308.204C568.882 306.8 567.802 306.08 565.726 306.08C563.854 306.08 562.678 306.632 562.678 307.796C562.678 308.852 563.674 309.284 566.422 309.848C569.71 310.52 571.246 311.276 571.246 313.424C571.246 315.74 569.41 317.276 565.786 317.276C562.378 317.276 560.434 316.304 559.882 313.424L561.97 313.16C562.546 315.32 564.118 315.524 565.894 315.524C568.102 315.524 568.978 314.648 568.978 313.676C568.978 312.596 567.946 312.212 565.018 311.612C562.054 311 560.506 310.112 560.506 308C560.506 305.804 562.174 304.388 565.882 304.388Z" fill="#A6E3A1"/>
<path d="M589.452 311.396C588.132 311.396 587.064 310.52 587.064 309.08C587.064 307.628 588.132 306.776 589.452 306.776C590.76 306.776 591.816 307.628 591.816 309.08C591.816 310.52 590.76 311.396 589.452 311.396Z" fill="#BAC2DE"/>
<path d="M606.932 317V315.164H611.3V306.476H606.932V304.676L613.28 304.4L613.58 304.688V315.164H617.948V317H606.932ZM610.316 300.02C610.316 299.06 611 298.484 611.996 298.484C612.98 298.484 613.664 299.06 613.664 300.02C613.664 300.98 612.98 301.568 611.996 301.568C611 301.568 610.316 300.98 610.316 300.02ZM634.895 317H632.627V308.78C632.627 306.776 631.583 306.248 630.335 306.248C628.895 306.248 627.743 306.956 626.819 308.024V317H624.551V304.676H626.471L626.675 306.44H626.975C627.947 305.396 629.231 304.388 631.319 304.388C633.515 304.388 634.895 305.504 634.895 308.18V317ZM647.054 304.388C650.306 304.388 652.178 305.564 652.274 308.06L650.21 308.204C650.054 306.8 648.974 306.08 646.898 306.08C645.026 306.08 643.85 306.632 643.85 307.796C643.85 308.852 644.846 309.284 647.594 309.848C650.882 310.52 652.418 311.276 652.418 313.424C652.418 315.74 650.582 317.276 646.958 317.276C643.55 317.276 641.606 316.304 641.054 313.424L643.142 313.16C643.718 315.32 645.29 315.524 647.066 315.524C649.274 315.524 650.15 314.648 650.15 313.676C650.15 312.596 649.118 312.212 646.19 311.612C643.226 311 641.678 310.112 641.678 308C641.678 305.804 643.346 304.388 647.054 304.388ZM664 304.388C667.012 304.388 668.776 305.384 668.776 308.288V314.396C668.776 315.284 669.112 315.512 670.24 315.344V317C669.676 317.168 669.16 317.24 668.704 317.24C667.216 317.24 666.724 316.448 666.64 315.464H666.424C665.428 316.364 664.168 317.288 662.176 317.288C659.896 317.288 658.444 316.064 658.444 313.964C658.444 310.52 662.32 310.076 666.508 310.1V308.42C666.508 306.44 665.392 305.996 663.76 306.008C662.2 306.02 661.012 306.464 660.988 308.108V308.636H658.864V307.988C658.864 305.876 660.316 304.388 664 304.388ZM660.82 313.688C660.82 314.912 661.708 315.572 663.196 315.572C664.492 315.572 665.5 315.068 666.508 314.336V311.432C666.124 311.396 665.728 311.372 665.368 311.372C662.536 311.372 660.82 311.996 660.82 313.688ZM686.743 317H684.475V308.78C684.475 306.776 683.431 306.248 682.183 306.248C680.743 306.248 679.591 306.956 678.667 308.024V317H676.399V304.676H678.319L678.523 306.44H678.823C679.795 305.396 681.079 304.388 683.167 304.388C685.363 304.388 686.743 305.504 686.743 308.18V317ZM692.842 310.82C692.842 306.656 695.326 304.388 699.118 304.388C702.61 304.388 704.65 306.212 704.65 309.836V310.916H695.17C695.206 313.916 696.634 315.428 699.046 315.428C700.618 315.428 701.806 314.792 702.394 313.388L704.602 313.76C703.762 316.064 701.746 317.288 699.034 317.288C695.35 317.288 692.842 315.056 692.842 310.82ZM695.29 309.404H702.43C702.418 307.208 700.978 306.248 699.046 306.248C697.03 306.248 695.686 307.316 695.29 309.404ZM739.3 313.244C738.616 315.968 736.372 317.288 733.564 317.288C729.928 317.288 727.408 315.08 727.408 310.808C727.408 306.512 729.976 304.388 733.684 304.388C736.696 304.388 738.988 305.792 739.3 308.756L737.056 308.948C736.768 307.052 735.424 306.248 733.624 306.248C731.08 306.248 729.748 307.856 729.748 310.808C729.748 313.928 731.236 315.428 733.576 315.428C735.364 315.428 736.6 314.564 737.104 312.896L739.3 313.244ZM745.53 304.676H747.798V312.884C747.798 314.9 748.842 315.416 750.09 315.416C751.53 315.416 752.682 314.72 753.606 313.652V304.676H755.874V317H753.954L753.75 315.236H753.45C752.478 316.268 751.194 317.276 749.106 317.276C746.91 317.276 745.53 316.16 745.53 313.496V304.676ZM768.033 304.388C771.285 304.388 773.157 305.564 773.253 308.06L771.189 308.204C771.033 306.8 769.953 306.08 767.877 306.08C766.005 306.08 764.829 306.632 764.829 307.796C764.829 308.852 765.825 309.284 768.573 309.848C771.861 310.52 773.397 311.276 773.397 313.424C773.397 315.74 771.561 317.276 767.937 317.276C764.529 317.276 762.585 316.304 762.033 313.424L764.121 313.16C764.697 315.32 766.269 315.524 768.045 315.524C770.253 315.524 771.129 314.648 771.129 313.676C771.129 312.596 770.097 312.212 767.169 311.612C764.205 311 762.657 310.112 762.657 308C762.657 305.804 764.325 304.388 768.033 304.388ZM782.58 312.884V306.512H779.004V304.676H782.58V300.812H784.86V304.676H790.524V306.512H784.86V313.028C784.86 314.732 785.604 315.488 786.864 315.488C788.184 315.488 788.892 314.66 788.892 313.028V312.428H790.608V312.872C790.608 315.752 789.444 317.276 786.588 317.276C783.924 317.276 782.58 315.968 782.58 312.884ZM808.563 310.856C808.563 315.176 805.863 317.288 802.551 317.288C799.251 317.288 796.539 315.176 796.539 310.856C796.539 306.548 799.251 304.388 802.551 304.388C805.863 304.388 808.563 306.548 808.563 310.856ZM798.867 310.856C798.867 314 800.391 315.428 802.551 315.428C804.711 315.428 806.223 314 806.223 310.856C806.223 307.712 804.711 306.248 802.551 306.248C800.391 306.248 798.867 307.712 798.867 310.856ZM821.91 317H819.774V307.856C819.774 306.632 819.102 306.308 818.418 306.308C817.53 306.308 816.822 306.872 816.318 307.676V317H814.206V304.676H815.982L816.162 306.452H816.342C816.942 305.252 818.01 304.4 819.438 304.4C820.746 304.4 821.634 305.06 821.838 306.452H821.934C822.534 305.252 823.566 304.4 825.006 304.4C826.494 304.4 827.454 305.264 827.466 307.124L827.478 317H825.342V307.856C825.342 306.632 824.67 306.308 823.974 306.308C823.086 306.308 822.39 306.86 821.886 307.652L821.91 317ZM833.745 317V315.176H837.045V306.476H833.745V304.676L839.025 304.4L839.325 304.688V315.176H842.625V317H833.745ZM836.073 300.068C836.073 299.108 836.757 298.532 837.753 298.532C838.737 298.532 839.421 299.108 839.421 300.068C839.421 301.028 838.737 301.616 837.753 301.616C836.757 301.616 836.073 301.028 836.073 300.068ZM849.023 304.676H859.307V306.008L852.119 315.164H859.775V317H849.023V315.656L856.199 306.512H849.023V304.676ZM871.394 304.388C874.406 304.388 876.17 305.384 876.17 308.288V314.396C876.17 315.284 876.506 315.512 877.634 315.344V317C877.07 317.168 876.554 317.24 876.098 317.24C874.61 317.24 874.118 316.448 874.034 315.464H873.818C872.822 316.364 871.562 317.288 869.57 317.288C867.29 317.288 865.838 316.064 865.838 313.964C865.838 310.52 869.714 310.076 873.902 310.1V308.42C873.902 306.44 872.786 305.996 871.154 306.008C869.594 306.02 868.406 306.464 868.382 308.108V308.636H866.258V307.988C866.258 305.876 867.71 304.388 871.394 304.388ZM868.214 313.688C868.214 314.912 869.102 315.572 870.59 315.572C871.886 315.572 872.894 315.068 873.902 314.336V311.432C873.518 311.396 873.122 311.372 872.762 311.372C869.93 311.372 868.214 311.996 868.214 313.688ZM886.277 312.884V306.512H882.701V304.676H886.277V300.812H888.557V304.676H894.221V306.512H888.557V313.028C888.557 314.732 889.301 315.488 890.561 315.488C891.881 315.488 892.589 314.66 892.589 313.028V312.428H894.305V312.872C894.305 315.752 893.141 317.276 890.285 317.276C887.621 317.276 886.277 315.968 886.277 312.884ZM900.74 317V315.164H905.108V306.476H900.74V304.676L907.088 304.4L907.388 304.688V315.164H911.756V317H900.74ZM904.124 300.02C904.124 299.06 904.808 298.484 905.804 298.484C906.788 298.484 907.472 299.06 907.472 300.02C907.472 300.98 906.788 301.568 905.804 301.568C904.808 301.568 904.124 300.98 904.124 300.02ZM929.543 310.856C929.543 315.176 926.843 317.288 923.531 317.288C920.231 317.288 917.519 315.176 917.519 310.856C917.519 306.548 920.231 304.388 923.531 304.388C926.843 304.388 929.543 306.548 929.543 310.856ZM919.847 310.856C919.847 314 921.371 315.428 923.531 315.428C925.691 315.428 927.203 314 927.203 310.856C927.203 307.712 925.691 306.248 923.531 306.248C921.371 306.248 919.847 307.712 919.847 310.856ZM945.985 317H943.717V308.78C943.717 306.776 942.673 306.248 941.425 306.248C939.985 306.248 938.833 306.956 937.909 308.024V317H935.641V304.676H937.561L937.765 306.44H938.065C939.037 305.396 940.321 304.388 942.409 304.388C944.605 304.388 945.985 305.504 945.985 308.18V317Z" fill="#94E2D5"/>
</g>
</svg>
