<svg width="1300" height="350" viewBox="0 0 1300 350" fill="none" xmlns="http://www.w3.org/2000/svg">
<path d="M613.545 143.705V85.5227H627V89.9773H618.636V139.25H627V143.705H613.545Z" fill="#32C572"/>
<path d="M653.52 129.25V126.018L657.84 124.258V105.666C657.84 101.602 655.728 100.194 652.912 100.194C650.704 100.194 647.696 100.898 644.272 102.786V124.322L648.496 126.018V129.25H634V126.018L638.32 124.258V102.338L632.72 101.474V97.922L643.088 95.522L643.92 95.874V99.554C648.112 96.898 651.952 95.362 655.696 95.362C661.168 95.362 663.792 98.466 663.792 104.418V124.322L668.016 126.018V129.25H653.52Z" fill="#282A3B"/>
<path d="M685.636 85.5227V143.705H672.182V139.25H680.545V89.9773H672.182V85.5227H685.636Z" fill="#32C572"/>
<path d="M723.172 43.1094L723.172 65.6406L718.891 65.6406L718.891 47.4219L688.984 47.4219L688.984 43.1094L723.172 43.1094Z" fill="#32C572"/>
<path d="M718.891 65.6406L723.172 65.6406L723.172 100.578L718.891 100.578L718.891 65.6406Z" fill="#32C572"/>
<path d="M718.891 100.578L723.172 100.578L723.172 135.516L718.891 135.516L718.891 100.578Z" fill="#32C572"/>
<path d="M718.891 135.516L723.172 135.516L723.172 170.453L718.891 170.453L718.891 135.516Z" fill="#32C572"/>
<path d="M718.891 170.453L723.172 170.453L723.172 187.172L688.984 187.172L688.984 182.859L718.891 182.859L718.891 170.453Z" fill="#32C572"/>
<path d="M681.984 43.1094L681.984 47.4219L617.984 47.4219L617.984 43.1094L681.984 43.1094Z" fill="#32C572"/>
<path d="M681.984 182.859L681.984 187.172L617.984 187.172L617.984 182.859L681.984 182.859Z" fill="#32C572"/>
<path d="M610.984 43.1094L610.984 47.4219L581.172 47.4219L581.172 65.6406L576.891 65.6406L576.891 43.1094L610.984 43.1094Z" fill="#32C572"/>
<path d="M576.891 65.6406L581.172 65.6406L581.172 100.578L576.891 100.578L576.891 65.6406Z" fill="#32C572"/>
<path d="M576.891 100.578L581.172 100.578L581.172 135.516L576.891 135.516L576.891 100.578Z" fill="#32C572"/>
<path d="M576.891 135.516L581.172 135.516L581.172 170.453L576.891 170.453L576.891 135.516Z" fill="#32C572"/>
<path d="M576.891 170.453L581.172 170.453L581.172 182.859L610.984 182.859L610.984 187.172L576.891 187.172L576.891 170.453Z" fill="#32C572"/>
<path d="M514.92 252V250.6L516.8 250.32C517.227 250.24 517.507 250.08 517.64 249.84C517.773 249.573 517.84 249.093 517.84 248.4V235.84C517.84 234.907 517.76 234.28 517.6 233.96C517.44 233.64 517.067 233.453 516.48 233.4L514.56 233.16L514.76 231.76L521.12 231.32L521.48 231.6L521.64 235.32H521.72C522.387 233.96 523.347 232.907 524.6 232.16C525.853 231.413 527.2 231.04 528.64 231.04C530.053 231.04 531.24 231.307 532.2 231.84C533.16 232.347 533.88 233.12 534.36 234.16C534.84 235.173 535.08 236.427 535.08 237.92V248.68C535.08 249.293 535.16 249.707 535.32 249.92C535.48 250.133 535.813 250.28 536.32 250.36L538.12 250.6V252H528.08V250.64L529.76 250.4C530.267 250.293 530.587 250.133 530.72 249.92C530.88 249.707 530.96 249.307 530.96 248.72V238.56C530.96 237.307 530.84 236.32 530.6 235.6C530.36 234.853 529.96 234.32 529.4 234C528.867 233.68 528.12 233.52 527.16 233.52C526.147 233.52 525.24 233.747 524.44 234.2C523.667 234.627 523.053 235.253 522.6 236.08C522.173 236.88 521.96 237.84 521.96 238.96V248.56C521.96 249.147 522.027 249.56 522.16 249.8C522.293 250.04 522.56 250.2 522.96 250.28L524.96 250.64V252H514.92ZM560.656 252.56C558.656 252.56 556.909 252.147 555.416 251.32C553.949 250.467 552.816 249.28 552.016 247.76C551.216 246.213 550.816 244.373 550.816 242.24C550.816 239.893 551.242 237.893 552.096 236.24C552.949 234.56 554.149 233.28 555.696 232.4C557.269 231.493 559.109 231.04 561.216 231.04C563.162 231.04 564.856 231.453 566.296 232.28C567.736 233.08 568.842 234.253 569.616 235.8C570.416 237.32 570.816 239.147 570.816 241.28C570.816 243.573 570.389 245.573 569.536 247.28C568.709 248.96 567.536 250.267 566.016 251.2C564.496 252.107 562.709 252.56 560.656 252.56ZM561.256 250.72C562.349 250.72 563.269 250.413 564.016 249.8C564.789 249.187 565.362 248.253 565.736 247C566.109 245.747 566.296 244.147 566.296 242.2C566.296 240.653 566.162 239.293 565.896 238.12C565.656 236.92 565.282 235.933 564.776 235.16C564.269 234.387 563.656 233.813 562.936 233.44C562.242 233.04 561.442 232.84 560.536 232.84C559.416 232.84 558.469 233.133 557.696 233.72C556.922 234.28 556.322 235.173 555.896 236.4C555.496 237.6 555.296 239.147 555.296 241.04C555.296 243.2 555.536 245 556.016 246.44C556.522 247.853 557.216 248.92 558.096 249.64C558.976 250.36 560.029 250.72 561.256 250.72ZM584.139 252V250.6L586.019 250.28C586.445 250.2 586.725 250.04 586.859 249.8C586.992 249.533 587.059 249.053 587.059 248.36V235.88C587.059 234.947 586.979 234.32 586.819 234C586.659 233.653 586.285 233.453 585.699 233.4L583.779 233.2L583.979 231.76L590.259 231.32L590.619 231.6L590.899 235.36H590.979C591.645 233.973 592.499 232.907 593.539 232.16C594.579 231.413 595.699 231.04 596.899 231.04C598.179 231.04 599.192 231.387 599.939 232.08C600.685 232.747 601.059 233.64 601.059 234.76C601.059 235.427 600.952 236 600.739 236.48C600.552 236.933 600.245 237.293 599.819 237.56C599.419 237.8 598.912 237.92 598.299 237.92C597.499 237.92 596.885 237.747 596.459 237.4C596.059 237.053 595.859 236.613 595.859 236.08C595.859 235.84 595.899 235.6 595.979 235.36C596.059 235.12 596.179 234.84 596.339 234.52C596.499 234.2 596.699 233.84 596.939 233.44C596.325 233.2 595.672 233.173 594.979 233.36C594.312 233.547 593.685 233.92 593.099 234.48C592.539 235.013 592.072 235.693 591.699 236.52C591.352 237.32 591.179 238.187 591.179 239.12V248.44C591.179 249.08 591.245 249.52 591.379 249.76C591.512 249.973 591.792 250.107 592.219 250.16L595.539 250.6V252H584.139ZM613.076 252V250.56L615.236 250.24C615.716 250.187 616.022 250.027 616.156 249.76C616.289 249.493 616.356 249 616.356 248.28V235.96C616.356 235 616.276 234.36 616.116 234.04C615.956 233.72 615.569 233.52 614.956 233.44L613.076 233.24L613.236 231.76L620.116 231.44L620.516 231.64V248.44C620.516 249 620.582 249.427 620.716 249.72C620.849 249.987 621.169 250.16 621.676 250.24L623.836 250.6V252H613.076ZM617.876 227.28C617.049 227.28 616.369 227.027 615.836 226.52C615.302 226.013 615.036 225.347 615.036 224.52C615.036 223.72 615.302 223.067 615.836 222.56C616.369 222.027 617.049 221.76 617.876 221.76C618.756 221.76 619.449 222.013 619.956 222.52C620.489 223.027 620.756 223.693 620.756 224.52C620.756 225.32 620.489 225.987 619.956 226.52C619.422 227.027 618.729 227.28 617.876 227.28ZM636.235 260.64V259.24L638.115 258.96C638.488 258.907 638.755 258.747 638.915 258.48C639.102 258.24 639.195 257.773 639.195 257.08V235.92C639.195 234.907 639.102 234.24 638.915 233.92C638.755 233.6 638.382 233.413 637.795 233.36L635.955 233.16L636.155 231.72L642.475 231.32L642.915 231.56L643.035 235H643.155C643.715 234.067 644.328 233.32 644.995 232.76C645.688 232.173 646.448 231.747 647.275 231.48C648.128 231.187 649.035 231.04 649.995 231.04C651.675 231.04 653.102 231.427 654.275 232.2C655.475 232.973 656.395 234.107 657.035 235.6C657.702 237.093 658.035 238.933 658.035 241.12C658.035 243.467 657.662 245.507 656.915 247.24C656.195 248.947 655.115 250.267 653.675 251.2C652.235 252.107 650.488 252.56 648.435 252.56C647.528 252.56 646.608 252.44 645.675 252.2C644.742 251.987 643.968 251.68 643.355 251.28V257.04C643.355 257.68 643.435 258.133 643.595 258.4C643.782 258.693 644.128 258.867 644.635 258.92L647.075 259.24V260.64H636.235ZM648.195 250.6C649.315 250.6 650.275 250.293 651.075 249.68C651.902 249.067 652.528 248.093 652.955 246.76C653.382 245.427 653.595 243.693 653.595 241.56C653.595 239.667 653.395 238.12 652.995 236.92C652.622 235.72 652.062 234.84 651.315 234.28C650.595 233.72 649.702 233.44 648.635 233.44C647.542 233.44 646.595 233.667 645.795 234.12C645.022 234.573 644.422 235.213 643.995 236.04C643.568 236.867 643.355 237.853 643.355 239V248.84C643.862 249.32 644.555 249.733 645.435 250.08C646.342 250.427 647.262 250.6 648.195 250.6ZM677.594 252.56C675.861 252.56 674.487 252.08 673.474 251.12C672.461 250.133 671.954 248.813 671.954 247.16C671.954 245.72 672.314 244.56 673.034 243.68C673.754 242.8 674.941 242.133 676.594 241.68C678.274 241.2 680.527 240.893 683.354 240.76V237.16C683.354 236.067 683.207 235.187 682.914 234.52C682.647 233.853 682.207 233.36 681.594 233.04C681.007 232.72 680.234 232.56 679.274 232.56C678.501 232.56 677.727 232.68 676.954 232.92C676.207 233.16 675.647 233.467 675.274 233.84C675.621 234.32 675.901 234.733 676.114 235.08C676.327 235.427 676.474 235.72 676.554 235.96C676.634 236.2 676.674 236.4 676.674 236.56C676.674 237.067 676.461 237.507 676.034 237.88C675.634 238.227 675.087 238.4 674.394 238.4C673.647 238.4 673.074 238.213 672.674 237.84C672.274 237.467 672.074 236.933 672.074 236.24C672.074 235.333 672.421 234.48 673.114 233.68C673.834 232.88 674.781 232.24 675.954 231.76C677.154 231.28 678.447 231.04 679.834 231.04C681.567 231.04 682.994 231.307 684.114 231.84C685.261 232.347 686.114 233.147 686.674 234.24C687.234 235.307 687.514 236.667 687.514 238.32V248.24C687.514 248.907 687.661 249.387 687.954 249.68C688.274 249.973 688.701 250.12 689.234 250.12C689.527 250.12 689.821 250.093 690.114 250.04C690.434 249.96 690.781 249.853 691.154 249.72L691.474 250.8C690.914 251.387 690.287 251.827 689.594 252.12C688.901 252.413 688.221 252.56 687.554 252.56C686.354 252.56 685.434 252.253 684.794 251.64C684.181 251 683.807 250.08 683.674 248.88C683.194 249.733 682.661 250.427 682.074 250.96C681.487 251.493 680.821 251.893 680.074 252.16C679.354 252.427 678.527 252.56 677.594 252.56ZM679.354 250.16C680.127 250.16 680.807 249.987 681.394 249.64C682.007 249.267 682.487 248.773 682.834 248.16C683.181 247.52 683.354 246.8 683.354 246V242.28C681.701 242.28 680.341 242.44 679.274 242.76C678.207 243.053 677.421 243.52 676.914 244.16C676.434 244.8 676.194 245.64 676.194 246.68C676.194 247.773 676.474 248.627 677.034 249.24C677.594 249.853 678.367 250.16 679.354 250.16ZM702.602 260.64V259.24L704.482 258.96C704.856 258.907 705.122 258.747 705.282 258.48C705.469 258.24 705.562 257.773 705.562 257.08V235.92C705.562 234.907 705.469 234.24 705.282 233.92C705.122 233.6 704.749 233.413 704.162 233.36L702.322 233.16L702.522 231.72L708.842 231.32L709.282 231.56L709.402 235H709.522C710.082 234.067 710.696 233.32 711.362 232.76C712.056 232.173 712.816 231.747 713.642 231.48C714.496 231.187 715.402 231.04 716.362 231.04C718.042 231.04 719.469 231.427 720.642 232.2C721.842 232.973 722.762 234.107 723.402 235.6C724.069 237.093 724.402 238.933 724.402 241.12C724.402 243.467 724.029 245.507 723.282 247.24C722.562 248.947 721.482 250.267 720.042 251.2C718.602 252.107 716.856 252.56 714.802 252.56C713.896 252.56 712.976 252.44 712.042 252.2C711.109 251.987 710.336 251.68 709.722 251.28V257.04C709.722 257.68 709.802 258.133 709.962 258.4C710.149 258.693 710.496 258.867 711.002 258.92L713.442 259.24V260.64H702.602ZM714.562 250.6C715.682 250.6 716.642 250.293 717.442 249.68C718.269 249.067 718.896 248.093 719.322 246.76C719.749 245.427 719.962 243.693 719.962 241.56C719.962 239.667 719.762 238.12 719.362 236.92C718.989 235.72 718.429 234.84 717.682 234.28C716.962 233.72 716.069 233.44 715.002 233.44C713.909 233.44 712.962 233.667 712.162 234.12C711.389 234.573 710.789 235.213 710.362 236.04C709.936 236.867 709.722 237.853 709.722 239V248.84C710.229 249.32 710.922 249.733 711.802 250.08C712.709 250.427 713.629 250.6 714.562 250.6ZM747.561 252.56C745.641 252.56 743.961 252.147 742.521 251.32C741.108 250.493 740.015 249.307 739.241 247.76C738.468 246.187 738.081 244.32 738.081 242.16C738.081 239.84 738.495 237.853 739.321 236.2C740.148 234.52 741.308 233.24 742.801 232.36C744.295 231.48 746.028 231.04 748.001 231.04C749.495 231.04 750.801 231.333 751.921 231.92C753.041 232.507 753.908 233.347 754.521 234.44C755.161 235.507 755.481 236.773 755.481 238.24C755.481 238.747 755.441 239.267 755.361 239.8C755.308 240.333 755.228 240.893 755.121 241.48H742.521C742.521 243.24 742.775 244.72 743.281 245.92C743.815 247.093 744.548 247.987 745.481 248.6C746.415 249.187 747.508 249.48 748.761 249.48C749.855 249.48 750.881 249.28 751.841 248.88C752.828 248.48 753.775 247.853 754.681 247L755.721 248C754.735 249.52 753.535 250.667 752.121 251.44C750.735 252.187 749.215 252.56 747.561 252.56ZM742.521 239.8H751.241C751.268 239.533 751.281 239.24 751.281 238.92C751.308 238.6 751.321 238.267 751.321 237.92C751.321 236.053 751.015 234.707 750.401 233.88C749.788 233.053 748.855 232.64 747.601 232.64C746.615 232.64 745.761 232.893 745.041 233.4C744.348 233.907 743.788 234.693 743.361 235.76C742.935 236.8 742.655 238.147 742.521 239.8ZM768.709 252V250.6L770.589 250.28C771.016 250.2 771.296 250.04 771.429 249.8C771.562 249.533 771.629 249.053 771.629 248.36V235.88C771.629 234.947 771.549 234.32 771.389 234C771.229 233.653 770.856 233.453 770.269 233.4L768.349 233.2L768.549 231.76L774.829 231.32L775.189 231.6L775.469 235.36H775.549C776.216 233.973 777.069 232.907 778.109 232.16C779.149 231.413 780.269 231.04 781.469 231.04C782.749 231.04 783.762 231.387 784.509 232.08C785.256 232.747 785.629 233.64 785.629 234.76C785.629 235.427 785.522 236 785.309 236.48C785.122 236.933 784.816 237.293 784.389 237.56C783.989 237.8 783.482 237.92 782.869 237.92C782.069 237.92 781.456 237.747 781.029 237.4C780.629 237.053 780.429 236.613 780.429 236.08C780.429 235.84 780.469 235.6 780.549 235.36C780.629 235.12 780.749 234.84 780.909 234.52C781.069 234.2 781.269 233.84 781.509 233.44C780.896 233.2 780.242 233.173 779.549 233.36C778.882 233.547 778.256 233.92 777.669 234.48C777.109 235.013 776.642 235.693 776.269 236.52C775.922 237.32 775.749 238.187 775.749 239.12V248.44C775.749 249.08 775.816 249.52 775.949 249.76C776.082 249.973 776.362 250.107 776.789 250.16L780.109 250.6V252H768.709Z" fill="#5C5F77"/>
<path d="M514.92 252V250.6L516.8 250.32C517.227 250.24 517.507 250.08 517.64 249.84C517.773 249.573 517.84 249.093 517.84 248.4V235.84C517.84 234.907 517.76 234.28 517.6 233.96C517.44 233.64 517.067 233.453 516.48 233.4L514.56 233.16L514.76 231.76L521.12 231.32L521.48 231.6L521.64 235.32H521.72C522.387 233.96 523.347 232.907 524.6 232.16C525.853 231.413 527.2 231.04 528.64 231.04C530.053 231.04 531.24 231.307 532.2 231.84C533.16 232.347 533.88 233.12 534.36 234.16C534.84 235.173 535.08 236.427 535.08 237.92V248.68C535.08 249.293 535.16 249.707 535.32 249.92C535.48 250.133 535.813 250.28 536.32 250.36L538.12 250.6V252H528.08V250.64L529.76 250.4C530.267 250.293 530.587 250.133 530.72 249.92C530.88 249.707 530.96 249.307 530.96 248.72V238.56C530.96 237.307 530.84 236.32 530.6 235.6C530.36 234.853 529.96 234.32 529.4 234C528.867 233.68 528.12 233.52 527.16 233.52C526.147 233.52 525.24 233.747 524.44 234.2C523.667 234.627 523.053 235.253 522.6 236.08C522.173 236.88 521.96 237.84 521.96 238.96V248.56C521.96 249.147 522.027 249.56 522.16 249.8C522.293 250.04 522.56 250.2 522.96 250.28L524.96 250.64V252H514.92ZM560.656 252.56C558.656 252.56 556.909 252.147 555.416 251.32C553.949 250.467 552.816 249.28 552.016 247.76C551.216 246.213 550.816 244.373 550.816 242.24C550.816 239.893 551.242 237.893 552.096 236.24C552.949 234.56 554.149 233.28 555.696 232.4C557.269 231.493 559.109 231.04 561.216 231.04C563.162 231.04 564.856 231.453 566.296 232.28C567.736 233.08 568.842 234.253 569.616 235.8C570.416 237.32 570.816 239.147 570.816 241.28C570.816 243.573 570.389 245.573 569.536 247.28C568.709 248.96 567.536 250.267 566.016 251.2C564.496 252.107 562.709 252.56 560.656 252.56ZM561.256 250.72C562.349 250.72 563.269 250.413 564.016 249.8C564.789 249.187 565.362 248.253 565.736 247C566.109 245.747 566.296 244.147 566.296 242.2C566.296 240.653 566.162 239.293 565.896 238.12C565.656 236.92 565.282 235.933 564.776 235.16C564.269 234.387 563.656 233.813 562.936 233.44C562.242 233.04 561.442 232.84 560.536 232.84C559.416 232.84 558.469 233.133 557.696 233.72C556.922 234.28 556.322 235.173 555.896 236.4C555.496 237.6 555.296 239.147 555.296 241.04C555.296 243.2 555.536 245 556.016 246.44C556.522 247.853 557.216 248.92 558.096 249.64C558.976 250.36 560.029 250.72 561.256 250.72ZM584.139 252V250.6L586.019 250.28C586.445 250.2 586.725 250.04 586.859 249.8C586.992 249.533 587.059 249.053 587.059 248.36V235.88C587.059 234.947 586.979 234.32 586.819 234C586.659 233.653 586.285 233.453 585.699 233.4L583.779 233.2L583.979 231.76L590.259 231.32L590.619 231.6L590.899 235.36H590.979C591.645 233.973 592.499 232.907 593.539 232.16C594.579 231.413 595.699 231.04 596.899 231.04C598.179 231.04 599.192 231.387 599.939 232.08C600.685 232.747 601.059 233.64 601.059 234.76C601.059 235.427 600.952 236 600.739 236.48C600.552 236.933 600.245 237.293 599.819 237.56C599.419 237.8 598.912 237.92 598.299 237.92C597.499 237.92 596.885 237.747 596.459 237.4C596.059 237.053 595.859 236.613 595.859 236.08C595.859 235.84 595.899 235.6 595.979 235.36C596.059 235.12 596.179 234.84 596.339 234.52C596.499 234.2 596.699 233.84 596.939 233.44C596.325 233.2 595.672 233.173 594.979 233.36C594.312 233.547 593.685 233.92 593.099 234.48C592.539 235.013 592.072 235.693 591.699 236.52C591.352 237.32 591.179 238.187 591.179 239.12V248.44C591.179 249.08 591.245 249.52 591.379 249.76C591.512 249.973 591.792 250.107 592.219 250.16L595.539 250.6V252H584.139ZM613.076 252V250.56L615.236 250.24C615.716 250.187 616.022 250.027 616.156 249.76C616.289 249.493 616.356 249 616.356 248.28V235.96C616.356 235 616.276 234.36 616.116 234.04C615.956 233.72 615.569 233.52 614.956 233.44L613.076 233.24L613.236 231.76L620.116 231.44L620.516 231.64V248.44C620.516 249 620.582 249.427 620.716 249.72C620.849 249.987 621.169 250.16 621.676 250.24L623.836 250.6V252H613.076ZM617.876 227.28C617.049 227.28 616.369 227.027 615.836 226.52C615.302 226.013 615.036 225.347 615.036 224.52C615.036 223.72 615.302 223.067 615.836 222.56C616.369 222.027 617.049 221.76 617.876 221.76C618.756 221.76 619.449 222.013 619.956 222.52C620.489 223.027 620.756 223.693 620.756 224.52C620.756 225.32 620.489 225.987 619.956 226.52C619.422 227.027 618.729 227.28 617.876 227.28ZM636.235 260.64V259.24L638.115 258.96C638.488 258.907 638.755 258.747 638.915 258.48C639.102 258.24 639.195 257.773 639.195 257.08V235.92C639.195 234.907 639.102 234.24 638.915 233.92C638.755 233.6 638.382 233.413 637.795 233.36L635.955 233.16L636.155 231.72L642.475 231.32L642.915 231.56L643.035 235H643.155C643.715 234.067 644.328 233.32 644.995 232.76C645.688 232.173 646.448 231.747 647.275 231.48C648.128 231.187 649.035 231.04 649.995 231.04C651.675 231.04 653.102 231.427 654.275 232.2C655.475 232.973 656.395 234.107 657.035 235.6C657.702 237.093 658.035 238.933 658.035 241.12C658.035 243.467 657.662 245.507 656.915 247.24C656.195 248.947 655.115 250.267 653.675 251.2C652.235 252.107 650.488 252.56 648.435 252.56C647.528 252.56 646.608 252.44 645.675 252.2C644.742 251.987 643.968 251.68 643.355 251.28V257.04C643.355 257.68 643.435 258.133 643.595 258.4C643.782 258.693 644.128 258.867 644.635 258.92L647.075 259.24V260.64H636.235ZM648.195 250.6C649.315 250.6 650.275 250.293 651.075 249.68C651.902 249.067 652.528 248.093 652.955 246.76C653.382 245.427 653.595 243.693 653.595 241.56C653.595 239.667 653.395 238.12 652.995 236.92C652.622 235.72 652.062 234.84 651.315 234.28C650.595 233.72 649.702 233.44 648.635 233.44C647.542 233.44 646.595 233.667 645.795 234.12C645.022 234.573 644.422 235.213 643.995 236.04C643.568 236.867 643.355 237.853 643.355 239V248.84C643.862 249.32 644.555 249.733 645.435 250.08C646.342 250.427 647.262 250.6 648.195 250.6ZM677.594 252.56C675.861 252.56 674.487 252.08 673.474 251.12C672.461 250.133 671.954 248.813 671.954 247.16C671.954 245.72 672.314 244.56 673.034 243.68C673.754 242.8 674.941 242.133 676.594 241.68C678.274 241.2 680.527 240.893 683.354 240.76V237.16C683.354 236.067 683.207 235.187 682.914 234.52C682.647 233.853 682.207 233.36 681.594 233.04C681.007 232.72 680.234 232.56 679.274 232.56C678.501 232.56 677.727 232.68 676.954 232.92C676.207 233.16 675.647 233.467 675.274 233.84C675.621 234.32 675.901 234.733 676.114 235.08C676.327 235.427 676.474 235.72 676.554 235.96C676.634 236.2 676.674 236.4 676.674 236.56C676.674 237.067 676.461 237.507 676.034 237.88C675.634 238.227 675.087 238.4 674.394 238.4C673.647 238.4 673.074 238.213 672.674 237.84C672.274 237.467 672.074 236.933 672.074 236.24C672.074 235.333 672.421 234.48 673.114 233.68C673.834 232.88 674.781 232.24 675.954 231.76C677.154 231.28 678.447 231.04 679.834 231.04C681.567 231.04 682.994 231.307 684.114 231.84C685.261 232.347 686.114 233.147 686.674 234.24C687.234 235.307 687.514 236.667 687.514 238.32V248.24C687.514 248.907 687.661 249.387 687.954 249.68C688.274 249.973 688.701 250.12 689.234 250.12C689.527 250.12 689.821 250.093 690.114 250.04C690.434 249.96 690.781 249.853 691.154 249.72L691.474 250.8C690.914 251.387 690.287 251.827 689.594 252.12C688.901 252.413 688.221 252.56 687.554 252.56C686.354 252.56 685.434 252.253 684.794 251.64C684.181 251 683.807 250.08 683.674 248.88C683.194 249.733 682.661 250.427 682.074 250.96C681.487 251.493 680.821 251.893 680.074 252.16C679.354 252.427 678.527 252.56 677.594 252.56ZM679.354 250.16C680.127 250.16 680.807 249.987 681.394 249.64C682.007 249.267 682.487 248.773 682.834 248.16C683.181 247.52 683.354 246.8 683.354 246V242.28C681.701 242.28 680.341 242.44 679.274 242.76C678.207 243.053 677.421 243.52 676.914 244.16C676.434 244.8 676.194 245.64 676.194 246.68C676.194 247.773 676.474 248.627 677.034 249.24C677.594 249.853 678.367 250.16 679.354 250.16ZM702.602 260.64V259.24L704.482 258.96C704.856 258.907 705.122 258.747 705.282 258.48C705.469 258.24 705.562 257.773 705.562 257.08V235.92C705.562 234.907 705.469 234.24 705.282 233.92C705.122 233.6 704.749 233.413 704.162 233.36L702.322 233.16L702.522 231.72L708.842 231.32L709.282 231.56L709.402 235H709.522C710.082 234.067 710.696 233.32 711.362 232.76C712.056 232.173 712.816 231.747 713.642 231.48C714.496 231.187 715.402 231.04 716.362 231.04C718.042 231.04 719.469 231.427 720.642 232.2C721.842 232.973 722.762 234.107 723.402 235.6C724.069 237.093 724.402 238.933 724.402 241.12C724.402 243.467 724.029 245.507 723.282 247.24C722.562 248.947 721.482 250.267 720.042 251.2C718.602 252.107 716.856 252.56 714.802 252.56C713.896 252.56 712.976 252.44 712.042 252.2C711.109 251.987 710.336 251.68 709.722 251.28V257.04C709.722 257.68 709.802 258.133 709.962 258.4C710.149 258.693 710.496 258.867 711.002 258.92L713.442 259.24V260.64H702.602ZM714.562 250.6C715.682 250.6 716.642 250.293 717.442 249.68C718.269 249.067 718.896 248.093 719.322 246.76C719.749 245.427 719.962 243.693 719.962 241.56C719.962 239.667 719.762 238.12 719.362 236.92C718.989 235.72 718.429 234.84 717.682 234.28C716.962 233.72 716.069 233.44 715.002 233.44C713.909 233.44 712.962 233.667 712.162 234.12C711.389 234.573 710.789 235.213 710.362 236.04C709.936 236.867 709.722 237.853 709.722 239V248.84C710.229 249.32 710.922 249.733 711.802 250.08C712.709 250.427 713.629 250.6 714.562 250.6ZM747.561 252.56C745.641 252.56 743.961 252.147 742.521 251.32C741.108 250.493 740.015 249.307 739.241 247.76C738.468 246.187 738.081 244.32 738.081 242.16C738.081 239.84 738.495 237.853 739.321 236.2C740.148 234.52 741.308 233.24 742.801 232.36C744.295 231.48 746.028 231.04 748.001 231.04C749.495 231.04 750.801 231.333 751.921 231.92C753.041 232.507 753.908 233.347 754.521 234.44C755.161 235.507 755.481 236.773 755.481 238.24C755.481 238.747 755.441 239.267 755.361 239.8C755.308 240.333 755.228 240.893 755.121 241.48H742.521C742.521 243.24 742.775 244.72 743.281 245.92C743.815 247.093 744.548 247.987 745.481 248.6C746.415 249.187 747.508 249.48 748.761 249.48C749.855 249.48 750.881 249.28 751.841 248.88C752.828 248.48 753.775 247.853 754.681 247L755.721 248C754.735 249.52 753.535 250.667 752.121 251.44C750.735 252.187 749.215 252.56 747.561 252.56ZM742.521 239.8H751.241C751.268 239.533 751.281 239.24 751.281 238.92C751.308 238.6 751.321 238.267 751.321 237.92C751.321 236.053 751.015 234.707 750.401 233.88C749.788 233.053 748.855 232.64 747.601 232.64C746.615 232.64 745.761 232.893 745.041 233.4C744.348 233.907 743.788 234.693 743.361 235.76C742.935 236.8 742.655 238.147 742.521 239.8ZM768.709 252V250.6L770.589 250.28C771.016 250.2 771.296 250.04 771.429 249.8C771.562 249.533 771.629 249.053 771.629 248.36V235.88C771.629 234.947 771.549 234.32 771.389 234C771.229 233.653 770.856 233.453 770.269 233.4L768.349 233.2L768.549 231.76L774.829 231.32L775.189 231.6L775.469 235.36H775.549C776.216 233.973 777.069 232.907 778.109 232.16C779.149 231.413 780.269 231.04 781.469 231.04C782.749 231.04 783.762 231.387 784.509 232.08C785.256 232.747 785.629 233.64 785.629 234.76C785.629 235.427 785.522 236 785.309 236.48C785.122 236.933 784.816 237.293 784.389 237.56C783.989 237.8 783.482 237.92 782.869 237.92C782.069 237.92 781.456 237.747 781.029 237.4C780.629 237.053 780.429 236.613 780.429 236.08C780.429 235.84 780.469 235.6 780.549 235.36C780.629 235.12 780.749 234.84 780.909 234.52C781.069 234.2 781.269 233.84 781.509 233.44C780.896 233.2 780.242 233.173 779.549 233.36C778.882 233.547 778.256 233.92 777.669 234.48C777.109 235.013 776.642 235.693 776.269 236.52C775.922 237.32 775.749 238.187 775.749 239.12V248.44C775.749 249.08 775.816 249.52 775.949 249.76C776.082 249.973 776.362 250.107 776.789 250.16L780.109 250.6V252H768.709Z" fill="black" fill-opacity="0.25"/>
<g opacity="0.8">
<path d="M358.512 304.22C361.86 304.22 363.756 305.444 363.78 307.952L361.368 308.132C361.224 306.812 360.264 306.152 358.332 306.152C356.592 306.152 355.536 306.668 355.536 307.712C355.536 308.72 356.556 309.092 359.196 309.668C362.268 310.328 363.984 311.048 363.984 313.328C363.984 315.728 362.052 317.276 358.308 317.276C354.852 317.276 352.956 316.256 352.428 313.4L354.876 313.1C355.38 315.02 356.712 315.296 358.44 315.296C360.504 315.296 361.308 314.516 361.308 313.628C361.308 312.608 360.252 312.26 357.468 311.66C354.636 311.06 352.992 310.136 352.992 307.928C352.992 305.648 354.744 304.22 358.512 304.22ZM375.375 304.22C378.483 304.22 380.355 305.24 380.355 308.156V314.132C380.355 314.984 380.655 315.2 381.735 315.068V317C381.123 317.168 380.559 317.252 380.043 317.252C378.459 317.252 377.955 316.472 377.859 315.464H377.595C376.647 316.412 375.363 317.288 373.467 317.288C371.223 317.288 369.771 316.028 369.771 313.928C369.771 310.424 373.779 309.956 377.691 310.004V308.3C377.691 306.512 376.659 306.068 375.171 306.08C373.707 306.08 372.639 306.548 372.627 308L372.615 308.504H370.191V307.868C370.191 305.732 371.643 304.22 375.375 304.22ZM372.543 313.58C372.543 314.696 373.371 315.32 374.739 315.32C375.867 315.32 376.815 314.888 377.691 314.252V311.492C377.355 311.456 377.019 311.432 376.683 311.432C374.079 311.432 372.543 312.056 372.543 313.58ZM398.37 317H395.706V308.672C395.706 306.86 394.782 306.38 393.63 306.38C392.31 306.38 391.218 307.028 390.306 308V317H387.642V304.508H389.934L390.126 306.32H390.474C391.542 305.18 392.826 304.22 394.866 304.22C397.062 304.22 398.37 305.324 398.37 307.976V317ZM404.156 310.736C404.156 306.452 406.724 304.22 410.552 304.22C414.104 304.22 416.18 306.08 416.18 309.824V310.964H406.868C406.94 313.736 408.224 315.152 410.456 315.152C411.884 315.152 412.988 314.576 413.552 313.28L416.132 313.676C415.268 316.148 413.084 317.288 410.444 317.288C406.724 317.288 404.156 315.044 404.156 310.736ZM407 309.284H413.576C413.576 307.256 412.28 306.344 410.468 306.344C408.644 306.344 407.384 307.292 407 309.284ZM438.722 310.784C438.722 306.824 440.426 304.232 443.618 304.232C445.442 304.232 446.654 305.06 447.398 306.116H447.554V298.64H450.218V317H447.926L447.746 315.404H447.41C446.558 316.46 445.322 317.3 443.522 317.3C440.354 317.3 438.722 314.672 438.722 310.784ZM441.446 310.784C441.446 313.664 442.55 315.056 444.686 315.056C445.682 315.056 446.63 314.756 447.554 313.94V307.568C446.63 306.752 445.67 306.452 444.71 306.452C442.598 306.452 441.446 307.844 441.446 310.784ZM456.005 310.736C456.005 306.452 458.573 304.22 462.401 304.22C465.953 304.22 468.029 306.08 468.029 309.824V310.964H458.717C458.789 313.736 460.073 315.152 462.305 315.152C463.733 315.152 464.837 314.576 465.401 313.28L467.981 313.676C467.117 316.148 464.933 317.288 462.293 317.288C458.573 317.288 456.005 315.044 456.005 310.736ZM458.849 309.284H465.425C465.425 307.256 464.129 306.344 462.317 306.344C460.493 306.344 459.233 307.292 458.849 309.284ZM485.504 300.344C484.568 300.128 483.728 299.996 482.756 299.996C480.692 299.996 479.672 300.596 479.672 303.272V304.508H485.084V306.668H479.672V314.84H483.836V317H473.876V314.84H477.008V306.668H473.156V304.508H477.008V303.692C477.008 299.276 479.012 297.668 482.66 297.668C483.68 297.668 484.616 297.8 485.504 298.052V300.344ZM496.354 304.22C499.462 304.22 501.334 305.24 501.334 308.156V314.132C501.334 314.984 501.634 315.2 502.714 315.068V317C502.102 317.168 501.538 317.252 501.022 317.252C499.438 317.252 498.934 316.472 498.838 315.464H498.574C497.626 316.412 496.342 317.288 494.446 317.288C492.202 317.288 490.75 316.028 490.75 313.928C490.75 310.424 494.758 309.956 498.67 310.004V308.3C498.67 306.512 497.638 306.068 496.15 306.08C494.686 306.08 493.618 306.548 493.606 308L493.594 308.504H491.17V307.868C491.17 305.732 492.622 304.22 496.354 304.22ZM493.522 313.58C493.522 314.696 494.35 315.32 495.718 315.32C496.846 315.32 497.794 314.888 498.67 314.252V311.492C498.334 311.456 497.998 311.432 497.662 311.432C495.058 311.432 493.522 312.056 493.522 313.58ZM508.621 304.508H511.285V312.824C511.285 314.648 512.209 315.128 513.361 315.128C514.693 315.128 515.785 314.492 516.685 313.508V304.508H519.349V317H517.057L516.865 315.176H516.517C515.461 316.328 514.177 317.276 512.137 317.276C509.929 317.276 508.621 316.172 508.621 313.532V304.508ZM525.664 317V314.84H529.936L529.948 300.776H525.676V298.64L532.276 298.352L532.612 298.676L532.6 314.84H536.872V317H525.664ZM545.719 312.92V306.668H542.287V304.508H545.719V300.764H548.383V304.508H553.807V306.668H548.383V313.028C548.383 314.564 549.103 315.2 550.183 315.2C551.299 315.2 551.995 314.516 551.995 313.04V312.368H553.939V312.908C553.939 315.812 552.655 317.276 549.811 317.276C547.087 317.276 545.719 315.968 545.719 312.92ZM565.906 304.22C569.254 304.22 571.15 305.444 571.174 307.952L568.762 308.132C568.618 306.812 567.658 306.152 565.726 306.152C563.986 306.152 562.93 306.668 562.93 307.712C562.93 308.72 563.95 309.092 566.59 309.668C569.662 310.328 571.378 311.048 571.378 313.328C571.378 315.728 569.446 317.276 565.702 317.276C562.246 317.276 560.35 316.256 559.822 313.4L562.27 313.1C562.774 315.02 564.106 315.296 565.834 315.296C567.898 315.296 568.702 314.516 568.702 313.628C568.702 312.608 567.646 312.26 564.862 311.66C562.03 311.06 560.386 310.136 560.386 307.928C560.386 305.648 562.138 304.22 565.906 304.22Z" fill="#40A02B"/>
<path d="M589.452 311.396C588.132 311.396 587.064 310.52 587.064 309.08C587.064 307.628 588.132 306.776 589.452 306.776C590.76 306.776 591.816 307.628 591.816 309.08C591.816 310.52 590.76 311.396 589.452 311.396Z" fill="#BAC2DE"/>
<path d="M606.836 317V314.84H611.108V306.644H606.836V304.508L613.448 304.22L613.772 304.544V314.84H618.044V317H606.836ZM610.088 299.996C610.088 298.928 610.856 298.28 611.96 298.28C613.076 298.28 613.832 298.928 613.832 299.996C613.832 301.064 613.076 301.736 611.96 301.736C610.856 301.736 610.088 301.064 610.088 299.996ZM635.087 317H632.423V308.672C632.423 306.86 631.499 306.38 630.347 306.38C629.027 306.38 627.935 307.028 627.023 308V317H624.359V304.508H626.651L626.843 306.32H627.191C628.259 305.18 629.543 304.22 631.583 304.22C633.779 304.22 635.087 305.324 635.087 307.976V317ZM647.078 304.22C650.426 304.22 652.322 305.444 652.346 307.952L649.934 308.132C649.79 306.812 648.83 306.152 646.898 306.152C645.158 306.152 644.102 306.668 644.102 307.712C644.102 308.72 645.122 309.092 647.762 309.668C650.834 310.328 652.55 311.048 652.55 313.328C652.55 315.728 650.618 317.276 646.874 317.276C643.418 317.276 641.522 316.256 640.994 313.4L643.442 313.1C643.946 315.02 645.278 315.296 647.006 315.296C649.07 315.296 649.874 314.516 649.874 313.628C649.874 312.608 648.818 312.26 646.034 311.66C643.202 311.06 641.558 310.136 641.558 307.928C641.558 305.648 643.31 304.22 647.078 304.22ZM663.94 304.22C667.048 304.22 668.92 305.24 668.92 308.156V314.132C668.92 314.984 669.22 315.2 670.3 315.068V317C669.688 317.168 669.124 317.252 668.608 317.252C667.024 317.252 666.52 316.472 666.424 315.464H666.16C665.212 316.412 663.928 317.288 662.032 317.288C659.788 317.288 658.336 316.028 658.336 313.928C658.336 310.424 662.344 309.956 666.256 310.004V308.3C666.256 306.512 665.224 306.068 663.736 306.08C662.272 306.08 661.204 306.548 661.192 308L661.18 308.504H658.756V307.868C658.756 305.732 660.208 304.22 663.94 304.22ZM661.108 313.58C661.108 314.696 661.936 315.32 663.304 315.32C664.432 315.32 665.38 314.888 666.256 314.252V311.492C665.92 311.456 665.584 311.432 665.248 311.432C662.644 311.432 661.108 312.056 661.108 313.58ZM686.935 317H684.271V308.672C684.271 306.86 683.347 306.38 682.195 306.38C680.875 306.38 679.783 307.028 678.871 308V317H676.207V304.508H678.499L678.691 306.32H679.039C680.107 305.18 681.391 304.22 683.431 304.22C685.627 304.22 686.935 305.324 686.935 307.976V317ZM692.722 310.736C692.722 306.452 695.29 304.22 699.118 304.22C702.67 304.22 704.746 306.08 704.746 309.824V310.964H695.434C695.506 313.736 696.79 315.152 699.022 315.152C700.45 315.152 701.554 314.576 702.118 313.28L704.698 313.676C703.834 316.148 701.65 317.288 699.01 317.288C695.29 317.288 692.722 315.044 692.722 310.736ZM695.566 309.284H702.142C702.142 307.256 700.846 306.344 699.034 306.344C697.21 306.344 695.95 307.292 695.566 309.284ZM739.396 313.136C738.688 316.028 736.312 317.288 733.528 317.288C729.796 317.288 727.288 315.044 727.288 310.736C727.288 306.308 729.964 304.22 733.66 304.22C736.768 304.22 739.096 305.66 739.396 308.708L736.792 308.936C736.516 307.184 735.304 306.344 733.588 306.344C731.236 306.344 730.012 307.892 730.012 310.736C730.012 313.724 731.356 315.152 733.552 315.152C735.256 315.152 736.36 314.3 736.828 312.764L739.396 313.136ZM745.338 304.508H748.002V312.824C748.002 314.648 748.926 315.128 750.078 315.128C751.41 315.128 752.502 314.492 753.402 313.508V304.508H756.066V317H753.774L753.582 315.176H753.234C752.178 316.328 750.894 317.276 748.854 317.276C746.646 317.276 745.338 316.172 745.338 313.532V304.508ZM768.057 304.22C771.405 304.22 773.301 305.444 773.325 307.952L770.913 308.132C770.769 306.812 769.809 306.152 767.877 306.152C766.137 306.152 765.081 306.668 765.081 307.712C765.081 308.72 766.101 309.092 768.741 309.668C771.813 310.328 773.529 311.048 773.529 313.328C773.529 315.728 771.597 317.276 767.853 317.276C764.397 317.276 762.501 316.256 761.973 313.4L764.421 313.1C764.925 315.02 766.257 315.296 767.985 315.296C770.049 315.296 770.853 314.516 770.853 313.628C770.853 312.608 769.797 312.26 767.013 311.66C764.181 311.06 762.537 310.136 762.537 307.928C762.537 305.648 764.289 304.22 768.057 304.22ZM782.436 312.92V306.668H779.004V304.508H782.436V300.764H785.1V304.508H790.524V306.668H785.1V313.028C785.1 314.564 785.82 315.2 786.9 315.2C788.016 315.2 788.712 314.516 788.712 313.04V312.368H790.656V312.908C790.656 315.812 789.372 317.276 786.528 317.276C783.804 317.276 782.436 315.968 782.436 312.92ZM808.683 310.784C808.683 315.224 805.923 317.288 802.551 317.288C799.191 317.288 796.419 315.224 796.419 310.784C796.419 306.344 799.191 304.22 802.551 304.22C805.923 304.22 808.683 306.344 808.683 310.784ZM799.131 310.784C799.131 313.892 800.559 315.152 802.551 315.152C804.555 315.152 805.971 313.892 805.971 310.784C805.971 307.664 804.555 306.344 802.551 306.344C800.559 306.344 799.131 307.664 799.131 310.784ZM822.042 317H819.594V307.868C819.594 306.764 819.006 306.452 818.358 306.452C817.578 306.452 816.942 306.92 816.462 307.568V317H814.026V304.508H816.102L816.282 306.368H816.486C817.074 305.144 818.154 304.232 819.618 304.232C820.938 304.232 821.802 304.916 821.994 306.368H822.102C822.678 305.144 823.722 304.232 825.186 304.232C826.698 304.232 827.61 305.12 827.61 307.028L827.622 317H825.174V307.868C825.174 306.764 824.586 306.452 823.926 306.452C823.146 306.452 822.51 306.908 822.03 307.544L822.042 317ZM833.613 317V314.84H836.841V306.644H833.613V304.508L839.169 304.22L839.505 304.544V314.84H842.721V317H833.613ZM835.833 300.068C835.833 299 836.601 298.352 837.705 298.352C838.821 298.352 839.577 299 839.577 300.068C839.577 301.136 838.821 301.808 837.705 301.808C836.601 301.808 835.833 301.136 835.833 300.068ZM848.915 304.508H859.463V306.092L852.539 314.84H859.895V317H848.915V315.404L855.827 306.668H848.915V304.508ZM871.334 304.22C874.442 304.22 876.314 305.24 876.314 308.156V314.132C876.314 314.984 876.614 315.2 877.694 315.068V317C877.082 317.168 876.518 317.252 876.002 317.252C874.418 317.252 873.914 316.472 873.818 315.464H873.554C872.606 316.412 871.322 317.288 869.426 317.288C867.182 317.288 865.73 316.028 865.73 313.928C865.73 310.424 869.738 309.956 873.65 310.004V308.3C873.65 306.512 872.618 306.068 871.13 306.08C869.666 306.08 868.598 306.548 868.586 308L868.574 308.504H866.15V307.868C866.15 305.732 867.602 304.22 871.334 304.22ZM868.502 313.58C868.502 314.696 869.33 315.32 870.698 315.32C871.826 315.32 872.774 314.888 873.65 314.252V311.492C873.314 311.456 872.978 311.432 872.642 311.432C870.038 311.432 868.502 312.056 868.502 313.58ZM886.133 312.92V306.668H882.701V304.508H886.133V300.764H888.797V304.508H894.221V306.668H888.797V313.028C888.797 314.564 889.517 315.2 890.597 315.2C891.713 315.2 892.409 314.516 892.409 313.04V312.368H894.353V312.908C894.353 315.812 893.069 317.276 890.225 317.276C887.501 317.276 886.133 315.968 886.133 312.92ZM900.644 317V314.84H904.916V306.644H900.644V304.508L907.256 304.22L907.58 304.544V314.84H911.852V317H900.644ZM903.896 299.996C903.896 298.928 904.664 298.28 905.768 298.28C906.884 298.28 907.64 298.928 907.64 299.996C907.64 301.064 906.884 301.736 905.768 301.736C904.664 301.736 903.896 301.064 903.896 299.996ZM929.663 310.784C929.663 315.224 926.903 317.288 923.531 317.288C920.171 317.288 917.399 315.224 917.399 310.784C917.399 306.344 920.171 304.22 923.531 304.22C926.903 304.22 929.663 306.344 929.663 310.784ZM920.111 310.784C920.111 313.892 921.539 315.152 923.531 315.152C925.535 315.152 926.951 313.892 926.951 310.784C926.951 307.664 925.535 306.344 923.531 306.344C921.539 306.344 920.111 307.664 920.111 310.784ZM946.177 317H943.513V308.672C943.513 306.86 942.589 306.38 941.437 306.38C940.117 306.38 939.025 307.028 938.113 308V317H935.449V304.508H937.741L937.933 306.32H938.281C939.349 305.18 940.633 304.22 942.673 304.22C944.869 304.22 946.177 305.324 946.177 307.976V317Z" fill="#179299"/>
</g>
</svg>
