<svg width="1300" height="400" viewBox="0 0 1300 400" fill="none" xmlns="http://www.w3.org/2000/svg">
<g clip-path="url(#clip0_12_4778)">
<path d="M613.545 165.205V107.023H627V111.477H618.636V160.75H627V165.205H613.545Z" fill="#32C572"/>
<path d="M653.52 150.75V147.518L657.84 145.758V127.166C657.84 123.102 655.728 121.694 652.912 121.694C650.704 121.694 647.696 122.398 644.272 124.286V145.822L648.496 147.518V150.75H634V147.518L638.32 145.758V123.838L632.72 122.974V119.422L643.088 117.022L643.92 117.374V121.054C648.112 118.398 651.952 116.862 655.696 116.862C661.168 116.862 663.792 119.966 663.792 125.918V145.822L668.016 147.518V150.75H653.52Z" fill="#282A3B"/>
<path d="M685.636 107.023V165.205H672.182V160.75H680.545V111.477H672.182V107.023H685.636Z" fill="#32C572"/>
<path d="M723.172 64.6094L723.172 87.1406L718.891 87.1406L718.891 68.9219L688.984 68.9219L688.984 64.6094L723.172 64.6094Z" fill="#32C572"/>
<path d="M718.891 87.1406L723.172 87.1406L723.172 122.078L718.891 122.078L718.891 87.1406Z" fill="#32C572"/>
<path d="M718.891 122.078L723.172 122.078L723.172 157.016L718.891 157.016L718.891 122.078Z" fill="#32C572"/>
<path d="M718.891 157.016L723.172 157.016L723.172 191.953L718.891 191.953L718.891 157.016Z" fill="#32C572"/>
<path d="M718.891 191.953L723.172 191.953L723.172 208.672L688.984 208.672L688.984 204.359L718.891 204.359L718.891 191.953Z" fill="#32C572"/>
<path d="M681.984 64.6094L681.984 68.9219L617.984 68.9219L617.984 64.6094L681.984 64.6094Z" fill="#32C572"/>
<path d="M681.984 204.359L681.984 208.672L617.984 208.672L617.984 204.359L681.984 204.359Z" fill="#32C572"/>
<path d="M610.984 64.6094L610.984 68.9219L581.172 68.9219L581.172 87.1406L576.891 87.1406L576.891 64.6094L610.984 64.6094Z" fill="#32C572"/>
<path d="M576.891 87.1406L581.172 87.1406L581.172 122.078L576.891 122.078L576.891 87.1406Z" fill="#32C572"/>
<path d="M576.891 122.078L581.172 122.078L581.172 157.016L576.891 157.016L576.891 122.078Z" fill="#32C572"/>
<path d="M576.891 157.016L581.172 157.016L581.172 191.953L576.891 191.953L576.891 157.016Z" fill="#32C572"/>
<path d="M576.891 191.953L581.172 191.953L581.172 204.359L610.984 204.359L610.984 208.672L576.891 208.672L576.891 191.953Z" fill="#32C572"/>
</g>
<path d="M568.367 216.121H566.246V235H568.367V237.367H563.246V213.754H568.367V216.121ZM647.27 213.754H652.391V237.367H647.27V235H649.402V216.121H647.27V213.754Z" fill="#32C572"/>
<path d="M577.048 233.5V220.82H579.791L579.978 222.602C580.15 222.359 580.334 222.141 580.529 221.945C580.732 221.742 580.947 221.562 581.173 221.406C581.548 221.141 581.959 220.938 582.404 220.797C582.849 220.656 583.322 220.586 583.822 220.586C584.462 220.586 585.048 220.68 585.58 220.867C586.119 221.055 586.584 221.352 586.974 221.758C587.357 222.164 587.654 222.688 587.865 223.328C588.076 223.969 588.181 224.742 588.181 225.648V233.5H585.158V225.695C585.158 225.18 585.099 224.754 584.982 224.418C584.865 224.074 584.697 223.805 584.478 223.609C584.259 223.406 583.994 223.266 583.681 223.188C583.377 223.109 583.029 223.07 582.638 223.07C582.302 223.07 581.994 223.109 581.712 223.188C581.439 223.266 581.193 223.379 580.974 223.527C580.795 223.645 580.63 223.785 580.482 223.949C580.334 224.105 580.201 224.281 580.084 224.477V233.5H577.048ZM593.382 227.043C593.382 226.121 593.515 225.27 593.78 224.488C594.046 223.699 594.437 223.016 594.952 222.438C595.452 221.859 596.07 221.406 596.804 221.078C597.538 220.75 598.374 220.586 599.312 220.586C600.257 220.586 601.097 220.75 601.831 221.078C602.566 221.406 603.191 221.859 603.706 222.438C604.206 223.016 604.589 223.699 604.855 224.488C605.12 225.27 605.253 226.121 605.253 227.043V227.289C605.253 228.219 605.12 229.078 604.855 229.867C604.589 230.648 604.206 231.328 603.706 231.906C603.198 232.484 602.577 232.938 601.843 233.266C601.109 233.586 600.273 233.746 599.335 233.746C598.39 233.746 597.546 233.586 596.804 233.266C596.07 232.938 595.452 232.484 594.952 231.906C594.437 231.328 594.046 230.648 593.78 229.867C593.515 229.078 593.382 228.219 593.382 227.289V227.043ZM596.405 227.289C596.405 227.844 596.46 228.363 596.57 228.848C596.687 229.332 596.862 229.754 597.097 230.113C597.331 230.488 597.632 230.781 597.999 230.992C598.374 231.203 598.82 231.309 599.335 231.309C599.835 231.309 600.269 231.203 600.636 230.992C601.003 230.781 601.304 230.488 601.538 230.113C601.765 229.754 601.933 229.332 602.042 228.848C602.159 228.363 602.218 227.844 602.218 227.289V227.043C602.218 226.504 602.159 225.996 602.042 225.52C601.933 225.035 601.765 224.609 601.538 224.242C601.304 223.867 601.003 223.574 600.636 223.363C600.269 223.152 599.827 223.047 599.312 223.047C598.804 223.047 598.366 223.152 597.999 223.363C597.632 223.574 597.331 223.867 597.097 224.242C596.862 224.609 596.687 225.035 596.57 225.52C596.46 225.996 596.405 226.504 596.405 227.043V227.289ZM619.618 220.586C620.087 220.586 620.532 220.617 620.954 220.68C621.376 220.742 621.712 220.816 621.962 220.902L621.516 223.914C621.087 223.812 620.653 223.738 620.216 223.691C619.786 223.637 619.368 223.609 618.962 223.609C618.516 223.609 618.114 223.652 617.755 223.738C617.395 223.824 617.079 223.953 616.805 224.125C616.493 224.305 616.223 224.535 615.997 224.816C615.77 225.09 615.587 225.41 615.446 225.777V233.5H612.411V220.82H615.235L615.364 222.59L615.388 222.883C615.903 222.172 616.52 221.613 617.239 221.207C617.958 220.793 618.751 220.586 619.618 220.586ZM628.241 220.82H635.061V231.016H638.647V233.5H628.241V231.016H632.002V223.316H628.241V220.82ZM631.756 217.562C631.756 217.32 631.799 217.098 631.885 216.895C631.971 216.691 632.092 216.516 632.248 216.367C632.397 216.227 632.577 216.117 632.787 216.039C633.006 215.961 633.248 215.922 633.514 215.922C634.014 215.922 634.412 216.055 634.709 216.32C635.014 216.586 635.178 216.934 635.202 217.363C635.225 217.785 635.108 218.141 634.85 218.43C634.6 218.719 634.245 218.883 633.784 218.922C633.565 219 633.338 219.031 633.104 219.016C632.877 218.992 632.655 218.918 632.436 218.793C632.217 218.676 632.049 218.508 631.932 218.289C631.815 218.07 631.756 217.828 631.756 217.562Z" fill="#4C4F69"/>
<path d="M661.305 238.375V220.82H663.988L664.105 222.109C664.277 221.898 664.465 221.707 664.668 221.535C664.871 221.363 665.09 221.215 665.324 221.09C665.621 220.926 665.949 220.801 666.309 220.715C666.668 220.629 667.055 220.586 667.469 220.586C668.273 220.586 668.984 220.742 669.602 221.055C670.219 221.367 670.738 221.805 671.16 222.367C671.582 222.938 671.902 223.621 672.121 224.418C672.34 225.207 672.449 226.082 672.449 227.043V227.289C672.449 228.203 672.34 229.055 672.121 229.844C671.902 230.633 671.586 231.312 671.172 231.883C670.75 232.461 670.23 232.914 669.613 233.242C668.996 233.57 668.289 233.734 667.492 233.734C667.047 233.734 666.637 233.688 666.262 233.594C665.887 233.5 665.543 233.363 665.23 233.184C665.043 233.074 664.863 232.953 664.691 232.82C664.527 232.68 664.371 232.527 664.223 232.363V238.375H661.305ZM669.531 227.043C669.531 226.48 669.477 225.953 669.367 225.461C669.258 224.969 669.09 224.535 668.863 224.16C668.629 223.801 668.332 223.516 667.973 223.305C667.613 223.086 667.18 222.977 666.672 222.977C666.383 222.977 666.117 223.008 665.875 223.07C665.633 223.125 665.414 223.211 665.219 223.328C665.008 223.445 664.816 223.598 664.645 223.785C664.48 223.965 664.34 224.172 664.223 224.406V229.949C664.332 230.168 664.461 230.367 664.609 230.547C664.766 230.719 664.941 230.867 665.137 230.992C665.34 231.117 665.57 231.215 665.828 231.285C666.086 231.355 666.375 231.391 666.695 231.391C667.195 231.391 667.625 231.281 667.984 231.062C668.344 230.844 668.637 230.543 668.863 230.16C669.098 229.785 669.266 229.352 669.367 228.859C669.477 228.359 669.531 227.836 669.531 227.289V227.043ZM686.134 233.5C686.056 233.344 685.99 233.156 685.935 232.938C685.88 232.719 685.837 232.492 685.806 232.258C685.611 232.461 685.392 232.652 685.15 232.832C684.908 233.004 684.638 233.156 684.341 233.289C684.037 233.43 683.709 233.539 683.357 233.617C683.013 233.695 682.638 233.734 682.232 233.734C681.576 233.734 680.974 233.641 680.427 233.453C679.888 233.258 679.427 232.992 679.045 232.656C678.654 232.328 678.349 231.934 678.13 231.473C677.92 231.004 677.814 230.5 677.814 229.961C677.814 229.258 677.951 228.641 678.224 228.109C678.498 227.57 678.904 227.125 679.443 226.773C679.935 226.445 680.541 226.199 681.259 226.035C681.986 225.863 682.806 225.777 683.72 225.777H685.712V224.945C685.712 224.617 685.658 224.324 685.548 224.066C685.439 223.809 685.283 223.586 685.08 223.398C684.861 223.211 684.591 223.066 684.271 222.965C683.959 222.855 683.595 222.801 683.181 222.801C682.814 222.801 682.49 222.848 682.209 222.941C681.927 223.035 681.697 223.16 681.517 223.316C681.345 223.465 681.216 223.641 681.13 223.844C681.045 224.047 681.002 224.27 681.002 224.512H678.084C678.091 223.996 678.212 223.504 678.447 223.035C678.681 222.559 679.025 222.141 679.478 221.781C679.923 221.414 680.47 221.125 681.119 220.914C681.767 220.695 682.505 220.586 683.334 220.586C684.091 220.586 684.791 220.68 685.431 220.867C686.08 221.047 686.642 221.316 687.119 221.676C687.587 222.043 687.955 222.504 688.22 223.059C688.494 223.605 688.63 224.242 688.63 224.969V230.547C688.63 231.148 688.67 231.676 688.748 232.129C688.834 232.582 688.955 232.973 689.111 233.301V233.5H686.134ZM682.806 231.414C683.166 231.414 683.498 231.371 683.802 231.285C684.115 231.191 684.396 231.074 684.646 230.934C684.896 230.793 685.111 230.633 685.291 230.453C685.47 230.266 685.611 230.078 685.712 229.891V227.594H683.943C683.357 227.594 682.853 227.648 682.431 227.758C682.009 227.859 681.67 228.012 681.412 228.215C681.185 228.395 681.013 228.609 680.896 228.859C680.787 229.109 680.732 229.387 680.732 229.691C680.732 229.941 680.775 230.176 680.861 230.395C680.955 230.605 681.087 230.785 681.259 230.934C681.431 231.082 681.646 231.199 681.904 231.285C682.162 231.371 682.462 231.414 682.806 231.414ZM694.933 238.375V220.82H697.616L697.734 222.109C697.905 221.898 698.093 221.707 698.296 221.535C698.499 221.363 698.718 221.215 698.952 221.09C699.249 220.926 699.577 220.801 699.937 220.715C700.296 220.629 700.683 220.586 701.097 220.586C701.902 220.586 702.612 220.742 703.23 221.055C703.847 221.367 704.366 221.805 704.788 222.367C705.21 222.938 705.53 223.621 705.749 224.418C705.968 225.207 706.077 226.082 706.077 227.043V227.289C706.077 228.203 705.968 229.055 705.749 229.844C705.53 230.633 705.214 231.312 704.8 231.883C704.378 232.461 703.859 232.914 703.241 233.242C702.624 233.57 701.917 233.734 701.12 233.734C700.675 233.734 700.265 233.688 699.89 233.594C699.515 233.5 699.171 233.363 698.859 233.184C698.671 233.074 698.491 232.953 698.32 232.82C698.155 232.68 697.999 232.527 697.851 232.363V238.375H694.933ZM703.159 227.043C703.159 226.48 703.105 225.953 702.995 225.461C702.886 224.969 702.718 224.535 702.491 224.16C702.257 223.801 701.96 223.516 701.601 223.305C701.241 223.086 700.808 222.977 700.3 222.977C700.011 222.977 699.745 223.008 699.503 223.07C699.261 223.125 699.042 223.211 698.847 223.328C698.636 223.445 698.445 223.598 698.273 223.785C698.109 223.965 697.968 224.172 697.851 224.406V229.949C697.96 230.168 698.089 230.367 698.237 230.547C698.394 230.719 698.57 230.867 698.765 230.992C698.968 231.117 699.198 231.215 699.456 231.285C699.714 231.355 700.003 231.391 700.323 231.391C700.823 231.391 701.253 231.281 701.612 231.062C701.972 230.844 702.265 230.543 702.491 230.16C702.726 229.785 702.894 229.352 702.995 228.859C703.105 228.359 703.159 227.836 703.159 227.289V227.043ZM717.7 233.734C716.747 233.734 715.88 233.578 715.098 233.266C714.317 232.945 713.649 232.512 713.095 231.965C712.532 231.418 712.098 230.77 711.794 230.02C711.489 229.27 711.337 228.465 711.337 227.605V227.125C711.337 226.141 711.493 225.25 711.805 224.453C712.118 223.648 712.548 222.957 713.095 222.379C713.641 221.809 714.278 221.367 715.005 221.055C715.739 220.742 716.524 220.586 717.36 220.586C718.274 220.586 719.083 220.738 719.786 221.043C720.489 221.348 721.083 221.777 721.567 222.332C722.052 222.879 722.415 223.535 722.657 224.301C722.907 225.066 723.032 225.906 723.032 226.82V228.074H714.29V228.133C714.376 228.672 714.509 229.121 714.688 229.48C714.868 229.84 715.11 230.16 715.415 230.441C715.727 230.738 716.091 230.973 716.505 231.145C716.919 231.309 717.372 231.391 717.864 231.391C718.552 231.391 719.196 231.258 719.798 230.992C720.399 230.727 720.891 230.348 721.274 229.855L722.798 231.379C722.384 231.98 721.735 232.523 720.852 233.008C719.977 233.492 718.927 233.734 717.7 233.734ZM717.337 222.953C716.954 222.953 716.595 223.023 716.259 223.164C715.93 223.305 715.638 223.504 715.38 223.762C715.122 224.027 714.903 224.348 714.723 224.723C714.552 225.09 714.427 225.508 714.348 225.977H720.161V225.766C720.161 225.406 720.095 225.051 719.962 224.699C719.829 224.348 719.645 224.043 719.411 223.785C719.177 223.535 718.888 223.336 718.544 223.188C718.2 223.031 717.798 222.953 717.337 222.953ZM737.385 220.586C737.846 220.586 738.287 220.617 738.709 220.68C739.131 220.742 739.467 220.816 739.717 220.902L739.295 223.785C738.866 223.691 738.436 223.621 738.006 223.574C737.584 223.52 737.17 223.492 736.764 223.492C736.303 223.492 735.889 223.539 735.522 223.633C735.155 223.727 734.83 223.863 734.549 224.043C734.237 224.23 733.967 224.465 733.741 224.746C733.522 225.027 733.338 225.352 733.19 225.719V233.5H730.272V220.82H733.002L733.12 222.578L733.143 222.871C733.659 222.16 734.276 221.602 734.995 221.195C735.713 220.789 736.51 220.586 737.385 220.586Z" fill="#6C6F85"/>
<path d="M433.564 296.692V295.132C434.46 295.132 435.132 294.916 435.58 294.484C436.028 294.052 436.252 293.5 436.252 292.828C436.252 292.284 436.028 291.884 435.58 291.628C435.132 291.372 434.436 291.18 433.492 291.052L433.684 289.42C435.252 289.596 436.388 289.94 437.092 290.452C437.812 290.964 438.172 291.756 438.172 292.828C438.172 293.964 437.788 294.892 437.02 295.612C436.252 296.332 435.1 296.692 433.564 296.692ZM433.564 284.308L433.684 285.868C433.108 285.868 432.612 286.02 432.196 286.324C431.796 286.612 431.596 287.02 431.596 287.548C431.596 288.62 432.292 289.244 433.684 289.42L433.492 291.052C432.308 290.892 431.372 290.516 430.684 289.924C430.012 289.332 429.676 288.54 429.676 287.548C429.676 286.876 429.844 286.3 430.18 285.82C430.532 285.34 431.004 284.972 431.596 284.716C432.188 284.444 432.844 284.308 433.564 284.308ZM429.412 295.18L430.42 293.884C430.772 294.156 431.196 294.436 431.692 294.724C432.188 294.996 432.812 295.132 433.564 295.132V296.692C432.924 296.692 432.34 296.604 431.812 296.428C431.284 296.252 430.812 296.044 430.396 295.804C429.996 295.564 429.668 295.356 429.412 295.18ZM436.708 287.02C436.388 286.78 435.98 286.532 435.484 286.276C434.988 286.004 434.388 285.868 433.684 285.868L433.564 284.308C434.156 284.308 434.716 284.396 435.244 284.572C435.772 284.732 436.244 284.932 436.66 285.172C437.092 285.412 437.444 285.636 437.716 285.844L436.708 287.02ZM431.164 292.636V295.18H429.412L430.012 292.636H431.164ZM435.964 288.292V285.844H437.716L437.116 288.292H435.964ZM450.038 285.94L451.958 286.18V296.5H450.038V285.94ZM450.038 285.94L450.758 284.5H451.958V286.18L450.038 285.94ZM451.046 292.828L451.67 293.02C451.67 293.02 451.614 293.148 451.502 293.404C451.39 293.644 451.222 293.948 450.998 294.316C450.774 294.668 450.478 295.028 450.11 295.396C449.742 295.764 449.294 296.076 448.766 296.332C448.254 296.572 447.662 296.692 446.99 296.692L447.23 295.132C447.742 295.132 448.222 295.02 448.67 294.796C449.118 294.556 449.518 294.284 449.87 293.98C450.238 293.676 450.526 293.412 450.734 293.188C450.942 292.948 451.046 292.828 451.046 292.828ZM451.046 288.172C451.046 288.172 450.942 288.06 450.734 287.836C450.526 287.596 450.238 287.332 449.87 287.044C449.518 286.74 449.118 286.476 448.67 286.252C448.222 286.012 447.742 285.892 447.23 285.892L446.99 284.308C447.518 284.308 448.014 284.436 448.478 284.692C448.958 284.932 449.39 285.236 449.774 285.604C450.174 285.972 450.51 286.34 450.782 286.708C451.07 287.06 451.286 287.364 451.43 287.62C451.59 287.86 451.67 287.98 451.67 287.98L451.046 288.172ZM447.23 285.892C446.606 285.892 446.094 286.028 445.694 286.3C445.294 286.556 444.982 286.908 444.758 287.356C444.534 287.804 444.374 288.3 444.278 288.844C444.182 289.388 444.134 289.94 444.134 290.5C444.134 291.06 444.182 291.62 444.278 292.18C444.374 292.724 444.534 293.22 444.758 293.668C444.982 294.116 445.294 294.476 445.694 294.748C446.094 295.004 446.606 295.132 447.23 295.132L446.99 296.692C446.126 296.692 445.39 296.516 444.782 296.164C444.174 295.812 443.67 295.34 443.27 294.748C442.886 294.156 442.598 293.492 442.406 292.756C442.23 292.02 442.142 291.268 442.142 290.5C442.142 289.732 442.23 288.98 442.406 288.244C442.598 287.508 442.886 286.844 443.27 286.252C443.67 285.66 444.174 285.188 444.782 284.836C445.39 284.484 446.126 284.308 446.99 284.308L447.23 285.892ZM451.718 296.5L451.55 294.796L453.638 295.324V296.5H451.718ZM467.264 290.5H465.344C465.344 289.348 465.256 288.444 465.08 287.788C464.92 287.116 464.656 286.644 464.288 286.372C463.936 286.084 463.472 285.94 462.896 285.94L463.136 284.308C464.432 284.308 465.432 284.74 466.136 285.604C466.856 286.452 467.232 287.668 467.264 289.252V290.5ZM458.192 284.5H460.112V296.5H458.192V284.5ZM465.344 290.5H467.264V296.5H465.344V290.5ZM459.104 288.172L458.48 287.98C458.48 287.98 458.552 287.86 458.696 287.62C458.856 287.364 459.072 287.06 459.344 286.708C459.632 286.34 459.968 285.972 460.352 285.604C460.752 285.236 461.184 284.932 461.648 284.692C462.128 284.436 462.632 284.308 463.16 284.308L462.92 285.94C462.424 285.94 461.944 286.052 461.48 286.276C461.032 286.5 460.624 286.764 460.256 287.068C459.904 287.356 459.624 287.612 459.416 287.836C459.208 288.06 459.104 288.172 459.104 288.172ZM458.432 286.132L456.512 285.652V284.5H458.432V286.132ZM459.872 296.5L459.704 294.796L461.792 295.324V296.5H459.872ZM456.512 296.5V295.324L458.552 294.82L458.432 296.5H456.512ZM467.024 296.5L466.88 294.796L468.944 295.324V296.5H467.024ZM480.538 294.172L481.258 295.42C481.258 295.42 481.05 295.524 480.634 295.732C480.234 295.94 479.674 296.156 478.954 296.38C478.25 296.588 477.418 296.692 476.458 296.692L476.602 295.108C477.322 295.108 477.954 295.044 478.498 294.916C479.042 294.788 479.49 294.652 479.842 294.508C480.194 294.348 480.426 294.236 480.538 294.172ZM472.114 290.5H474.01C474.01 291.7 474.098 292.636 474.274 293.308C474.45 293.964 474.73 294.428 475.114 294.7C475.498 294.972 475.994 295.108 476.602 295.108L476.458 296.692C475.562 296.692 474.786 296.484 474.13 296.068C473.49 295.652 472.994 294.988 472.642 294.076C472.29 293.164 472.114 291.972 472.114 290.5ZM477.154 284.308C478.546 284.308 479.602 284.676 480.322 285.412C481.042 286.148 481.402 287.068 481.402 288.172C481.402 288.908 481.234 289.516 480.898 289.996C480.562 290.476 480.106 290.852 479.53 291.124C478.97 291.38 478.346 291.564 477.658 291.676C476.97 291.772 476.274 291.82 475.57 291.82L473.698 291.796L474.01 290.26C474.714 290.292 475.394 290.292 476.05 290.26C476.722 290.212 477.322 290.124 477.85 289.996C478.378 289.852 478.794 289.636 479.098 289.348C479.402 289.044 479.554 288.652 479.554 288.172C479.554 287.516 479.346 286.972 478.93 286.54C478.53 286.092 477.938 285.868 477.154 285.868C476.354 285.868 475.722 286.084 475.258 286.516C474.81 286.948 474.49 287.516 474.298 288.22C474.106 288.924 474.01 289.684 474.01 290.5H472.114C472.114 289.732 472.21 288.98 472.402 288.244C472.594 287.508 472.882 286.844 473.266 286.252C473.666 285.66 474.186 285.188 474.826 284.836C475.466 284.484 476.242 284.308 477.154 284.308ZM501.802 295.06V279.7H503.722V294.82L501.802 295.06ZM501.802 295.06L503.722 294.82V296.5H501.802V295.06ZM502.81 292.828L503.434 293.02C503.434 293.02 503.354 293.148 503.194 293.404C503.05 293.644 502.834 293.948 502.546 294.316C502.274 294.668 501.938 295.028 501.538 295.396C501.154 295.764 500.722 296.076 500.242 296.332C499.778 296.572 499.282 296.692 498.754 296.692L498.994 295.132C499.506 295.132 499.986 295.02 500.434 294.796C500.882 294.556 501.282 294.284 501.634 293.98C502.002 293.676 502.29 293.412 502.498 293.188C502.706 292.948 502.81 292.828 502.81 292.828ZM502.81 288.172C502.81 288.172 502.706 288.06 502.498 287.836C502.29 287.596 502.002 287.332 501.634 287.044C501.282 286.74 500.882 286.476 500.434 286.252C499.986 286.012 499.506 285.892 498.994 285.892L498.754 284.308C499.282 284.308 499.778 284.436 500.242 284.692C500.722 284.932 501.154 285.236 501.538 285.604C501.938 285.972 502.274 286.34 502.546 286.708C502.834 287.06 503.05 287.364 503.194 287.62C503.354 287.86 503.434 287.98 503.434 287.98L502.81 288.172ZM498.994 285.892C498.37 285.892 497.858 286.028 497.458 286.3C497.058 286.556 496.746 286.908 496.522 287.356C496.298 287.804 496.138 288.3 496.042 288.844C495.946 289.388 495.898 289.94 495.898 290.5C495.898 291.06 495.946 291.62 496.042 292.18C496.138 292.724 496.298 293.22 496.522 293.668C496.746 294.116 497.058 294.476 497.458 294.748C497.858 295.004 498.37 295.132 498.994 295.132L498.754 296.692C497.89 296.692 497.154 296.516 496.546 296.164C495.938 295.812 495.434 295.34 495.034 294.748C494.65 294.156 494.362 293.492 494.17 292.756C493.994 292.02 493.906 291.268 493.906 290.5C493.906 289.732 493.994 288.98 494.17 288.244C494.362 287.508 494.65 286.844 495.034 286.252C495.434 285.66 495.938 285.188 496.546 284.836C497.154 284.484 497.89 284.308 498.754 284.308L498.994 285.892ZM500.122 279.7H502.042L502.162 281.404L500.122 280.876V279.7ZM503.482 296.5L503.314 294.796L505.402 295.324V296.5H503.482ZM516.988 294.172L517.708 295.42C517.708 295.42 517.5 295.524 517.084 295.732C516.684 295.94 516.124 296.156 515.404 296.38C514.7 296.588 513.868 296.692 512.908 296.692L513.052 295.108C513.772 295.108 514.404 295.044 514.948 294.916C515.492 294.788 515.94 294.652 516.292 294.508C516.644 294.348 516.876 294.236 516.988 294.172ZM508.564 290.5H510.46C510.46 291.7 510.548 292.636 510.724 293.308C510.9 293.964 511.18 294.428 511.564 294.7C511.948 294.972 512.444 295.108 513.052 295.108L512.908 296.692C512.012 296.692 511.236 296.484 510.58 296.068C509.94 295.652 509.444 294.988 509.092 294.076C508.74 293.164 508.564 291.972 508.564 290.5ZM513.604 284.308C514.996 284.308 516.052 284.676 516.772 285.412C517.492 286.148 517.852 287.068 517.852 288.172C517.852 288.908 517.684 289.516 517.348 289.996C517.012 290.476 516.556 290.852 515.98 291.124C515.42 291.38 514.796 291.564 514.108 291.676C513.42 291.772 512.724 291.82 512.02 291.82L510.148 291.796L510.46 290.26C511.164 290.292 511.844 290.292 512.5 290.26C513.172 290.212 513.772 290.124 514.3 289.996C514.828 289.852 515.244 289.636 515.548 289.348C515.852 289.044 516.004 288.652 516.004 288.172C516.004 287.516 515.796 286.972 515.38 286.54C514.98 286.092 514.388 285.868 513.604 285.868C512.804 285.868 512.172 286.084 511.708 286.516C511.26 286.948 510.94 287.516 510.748 288.22C510.556 288.924 510.46 289.684 510.46 290.5H508.564C508.564 289.732 508.66 288.98 508.852 288.244C509.044 287.508 509.332 286.844 509.716 286.252C510.116 285.66 510.636 285.188 511.276 284.836C511.916 284.484 512.692 284.308 513.604 284.308ZM523.327 296.5V284.5C523.327 283.268 523.423 282.292 523.615 281.572C523.823 280.852 524.167 280.34 524.647 280.036C525.143 279.732 525.823 279.58 526.687 279.58C527.199 279.58 527.647 279.588 528.031 279.604C528.431 279.62 528.751 279.644 528.991 279.676C529.231 279.692 529.351 279.7 529.351 279.7L527.719 281.14C527.543 281.108 527.383 281.092 527.239 281.092C527.111 281.076 526.975 281.068 526.831 281.068C526.223 281.068 525.807 281.268 525.583 281.668C525.359 282.052 525.247 282.732 525.247 283.708V296.5H523.327ZM521.503 286.084V284.5H528.007V286.084H521.503ZM521.647 296.5V295.324L523.687 294.82L523.567 296.5H521.647ZM525.007 296.5L524.839 294.796L526.927 295.324V296.5H525.007ZM527.623 282.388V279.748L529.351 279.7L528.703 282.388H527.623ZM539.681 285.94L541.601 286.18V296.5H539.681V285.94ZM539.681 285.94L540.401 284.5H541.601V286.18L539.681 285.94ZM540.689 292.828L541.313 293.02C541.313 293.02 541.257 293.148 541.145 293.404C541.033 293.644 540.865 293.948 540.641 294.316C540.417 294.668 540.121 295.028 539.753 295.396C539.385 295.764 538.937 296.076 538.409 296.332C537.897 296.572 537.305 296.692 536.633 296.692L536.873 295.132C537.385 295.132 537.865 295.02 538.313 294.796C538.761 294.556 539.161 294.284 539.513 293.98C539.881 293.676 540.169 293.412 540.377 293.188C540.585 292.948 540.689 292.828 540.689 292.828ZM540.689 288.172C540.689 288.172 540.585 288.06 540.377 287.836C540.169 287.596 539.881 287.332 539.513 287.044C539.161 286.74 538.761 286.476 538.313 286.252C537.865 286.012 537.385 285.892 536.873 285.892L536.633 284.308C537.161 284.308 537.657 284.436 538.121 284.692C538.601 284.932 539.033 285.236 539.417 285.604C539.817 285.972 540.153 286.34 540.425 286.708C540.713 287.06 540.929 287.364 541.073 287.62C541.233 287.86 541.313 287.98 541.313 287.98L540.689 288.172ZM536.873 285.892C536.249 285.892 535.737 286.028 535.337 286.3C534.937 286.556 534.625 286.908 534.401 287.356C534.177 287.804 534.017 288.3 533.921 288.844C533.825 289.388 533.777 289.94 533.777 290.5C533.777 291.06 533.825 291.62 533.921 292.18C534.017 292.724 534.177 293.22 534.401 293.668C534.625 294.116 534.937 294.476 535.337 294.748C535.737 295.004 536.249 295.132 536.873 295.132L536.633 296.692C535.769 296.692 535.033 296.516 534.425 296.164C533.817 295.812 533.313 295.34 532.913 294.748C532.529 294.156 532.241 293.492 532.049 292.756C531.873 292.02 531.785 291.268 531.785 290.5C531.785 289.732 531.873 288.98 532.049 288.244C532.241 287.508 532.529 286.844 532.913 286.252C533.313 285.66 533.817 285.188 534.425 284.836C535.033 284.484 535.769 284.308 536.633 284.308L536.873 285.892ZM541.361 296.5L541.193 294.796L543.281 295.324V296.5H541.361ZM547.787 290.5H549.707C549.707 291.668 549.787 292.596 549.947 293.284C550.123 293.956 550.387 294.436 550.739 294.724C551.107 294.996 551.587 295.132 552.179 295.132L551.939 296.692C550.627 296.692 549.619 296.268 548.915 295.42C548.211 294.556 547.843 293.332 547.811 291.748L547.787 290.5ZM556.883 293.14L554.963 295.06V284.5H556.883V293.14ZM549.707 290.5H547.787V284.5H549.707V290.5ZM554.963 294.964L556.883 293.14V296.5H554.963V294.964ZM555.947 292.9L556.595 293.092C556.595 293.092 556.515 293.22 556.355 293.476C556.211 293.716 555.995 294.012 555.707 294.364C555.419 294.716 555.083 295.076 554.699 295.444C554.315 295.796 553.883 296.092 553.403 296.332C552.939 296.572 552.443 296.692 551.915 296.692L552.155 295.132C552.683 295.132 553.171 295.02 553.619 294.796C554.067 294.572 554.467 294.316 554.819 294.028C555.171 293.724 555.443 293.46 555.635 293.236C555.843 293.012 555.947 292.9 555.947 292.9ZM556.643 296.5L556.475 294.796L558.563 295.324V296.5H556.643ZM548.027 286.132L546.107 285.652V284.5H548.027V286.132ZM555.203 286.132L553.283 285.652V284.5H555.203V286.132ZM562.977 296.5V279.7H564.897V296.5H562.977ZM561.297 279.7H563.217L563.337 281.404L561.297 280.876V279.7ZM564.657 296.5L564.489 294.796L566.577 295.324V296.5H564.657ZM561.297 296.5V295.324L563.337 294.82L563.217 296.5H561.297ZM569.375 286.084V284.5H576.263L575.999 286.084H569.375ZM575.663 295.06L575.903 296.5C575.679 296.548 575.471 296.58 575.279 296.596C575.103 296.612 574.895 296.62 574.655 296.62C573.823 296.62 573.159 296.468 572.663 296.164C572.167 295.86 571.807 295.348 571.583 294.628C571.359 293.908 571.247 292.932 571.247 291.7V282.1L573.167 281.764V292.492C573.167 293.452 573.279 294.132 573.503 294.532C573.743 294.932 574.167 295.132 574.775 295.132C574.919 295.132 575.055 295.124 575.183 295.108C575.327 295.092 575.487 295.076 575.663 295.06ZM584.098 296.692V295.132C584.994 295.132 585.666 294.916 586.114 294.484C586.562 294.052 586.786 293.5 586.786 292.828C586.786 292.284 586.562 291.884 586.114 291.628C585.666 291.372 584.97 291.18 584.026 291.052L584.218 289.42C585.786 289.596 586.922 289.94 587.626 290.452C588.346 290.964 588.706 291.756 588.706 292.828C588.706 293.964 588.322 294.892 587.554 295.612C586.786 296.332 585.634 296.692 584.098 296.692ZM584.098 284.308L584.218 285.868C583.642 285.868 583.146 286.02 582.73 286.324C582.33 286.612 582.13 287.02 582.13 287.548C582.13 288.62 582.826 289.244 584.218 289.42L584.026 291.052C582.842 290.892 581.906 290.516 581.218 289.924C580.546 289.332 580.21 288.54 580.21 287.548C580.21 286.876 580.378 286.3 580.714 285.82C581.066 285.34 581.538 284.972 582.13 284.716C582.722 284.444 583.378 284.308 584.098 284.308ZM579.946 295.18L580.954 293.884C581.306 294.156 581.73 294.436 582.226 294.724C582.722 294.996 583.346 295.132 584.098 295.132V296.692C583.458 296.692 582.874 296.604 582.346 296.428C581.818 296.252 581.346 296.044 580.93 295.804C580.53 295.564 580.202 295.356 579.946 295.18ZM587.242 287.02C586.922 286.78 586.514 286.532 586.018 286.276C585.522 286.004 584.922 285.868 584.218 285.868L584.098 284.308C584.69 284.308 585.25 284.396 585.778 284.572C586.306 284.732 586.778 284.932 587.194 285.172C587.626 285.412 587.978 285.636 588.25 285.844L587.242 287.02ZM581.698 292.636V295.18H579.946L580.546 292.636H581.698ZM586.498 288.292V285.844H588.25L587.65 288.292H586.498Z" fill="#40A02B"/>
<path d="M602.004 291.796C601.636 291.796 601.324 291.676 601.068 291.436C600.828 291.18 600.708 290.868 600.708 290.5C600.708 290.132 600.828 289.828 601.068 289.588C601.324 289.332 601.636 289.204 602.004 289.204C602.372 289.204 602.676 289.332 602.916 289.588C603.172 289.828 603.3 290.132 603.3 290.5C603.3 290.868 603.172 291.18 602.916 291.436C602.676 291.676 602.372 291.796 602.004 291.796Z" fill="#BAC2DE"/>
<path d="M616.54 296.5V284.5H618.46V296.5H616.54ZM617.5 282.676C617.132 282.676 616.82 282.556 616.564 282.316C616.324 282.06 616.204 281.748 616.204 281.38C616.204 281.012 616.324 280.708 616.564 280.468C616.82 280.212 617.132 280.084 617.5 280.084C617.868 280.084 618.172 280.212 618.412 280.468C618.668 280.708 618.796 281.012 618.796 281.38C618.796 281.748 618.668 282.06 618.412 282.316C618.172 282.556 617.868 282.676 617.5 282.676ZM616.78 286.132L614.86 285.652V284.5H616.78V286.132ZM614.86 296.5V295.324L616.9 294.82L616.78 296.5H614.86ZM618.22 296.5L618.052 294.796L620.14 295.324V296.5H618.22ZM633.965 290.5H632.045C632.045 289.348 631.957 288.444 631.781 287.788C631.621 287.116 631.357 286.644 630.989 286.372C630.637 286.084 630.173 285.94 629.597 285.94L629.837 284.308C631.133 284.308 632.133 284.74 632.837 285.604C633.557 286.452 633.933 287.668 633.965 289.252V290.5ZM624.893 284.5H626.813V296.5H624.893V284.5ZM632.045 290.5H633.965V296.5H632.045V290.5ZM625.805 288.172L625.181 287.98C625.181 287.98 625.253 287.86 625.397 287.62C625.557 287.364 625.773 287.06 626.045 286.708C626.333 286.34 626.669 285.972 627.053 285.604C627.453 285.236 627.885 284.932 628.349 284.692C628.829 284.436 629.333 284.308 629.861 284.308L629.621 285.94C629.125 285.94 628.645 286.052 628.181 286.276C627.733 286.5 627.325 286.764 626.957 287.068C626.605 287.356 626.325 287.612 626.117 287.836C625.909 288.06 625.805 288.172 625.805 288.172ZM625.133 286.132L623.213 285.652V284.5H625.133V286.132ZM626.573 296.5L626.405 294.796L628.493 295.324V296.5H626.573ZM623.213 296.5V295.324L625.253 294.82L625.133 296.5H623.213ZM633.725 296.5L633.581 294.796L635.645 295.324V296.5H633.725ZM643.231 296.692V295.132C644.127 295.132 644.799 294.916 645.247 294.484C645.695 294.052 645.919 293.5 645.919 292.828C645.919 292.284 645.695 291.884 645.247 291.628C644.799 291.372 644.103 291.18 643.159 291.052L643.351 289.42C644.919 289.596 646.055 289.94 646.759 290.452C647.479 290.964 647.839 291.756 647.839 292.828C647.839 293.964 647.455 294.892 646.687 295.612C645.919 296.332 644.767 296.692 643.231 296.692ZM643.231 284.308L643.351 285.868C642.775 285.868 642.279 286.02 641.863 286.324C641.463 286.612 641.263 287.02 641.263 287.548C641.263 288.62 641.959 289.244 643.351 289.42L643.159 291.052C641.975 290.892 641.039 290.516 640.351 289.924C639.679 289.332 639.343 288.54 639.343 287.548C639.343 286.876 639.511 286.3 639.847 285.82C640.199 285.34 640.671 284.972 641.263 284.716C641.855 284.444 642.511 284.308 643.231 284.308ZM639.079 295.18L640.087 293.884C640.439 294.156 640.863 294.436 641.359 294.724C641.855 294.996 642.479 295.132 643.231 295.132V296.692C642.591 296.692 642.007 296.604 641.479 296.428C640.951 296.252 640.479 296.044 640.063 295.804C639.663 295.564 639.335 295.356 639.079 295.18ZM646.375 287.02C646.055 286.78 645.647 286.532 645.151 286.276C644.655 286.004 644.055 285.868 643.351 285.868L643.231 284.308C643.823 284.308 644.383 284.396 644.911 284.572C645.439 284.732 645.911 284.932 646.327 285.172C646.759 285.412 647.111 285.636 647.383 285.844L646.375 287.02ZM640.831 292.636V295.18H639.079L639.679 292.636H640.831ZM645.631 288.292V285.844H647.383L646.783 288.292H645.631ZM659.705 285.94L661.625 286.18V296.5H659.705V285.94ZM659.705 285.94L660.425 284.5H661.625V286.18L659.705 285.94ZM660.713 292.828L661.337 293.02C661.337 293.02 661.281 293.148 661.169 293.404C661.057 293.644 660.889 293.948 660.665 294.316C660.441 294.668 660.145 295.028 659.777 295.396C659.409 295.764 658.961 296.076 658.433 296.332C657.921 296.572 657.329 296.692 656.657 296.692L656.897 295.132C657.409 295.132 657.889 295.02 658.337 294.796C658.785 294.556 659.185 294.284 659.537 293.98C659.905 293.676 660.193 293.412 660.401 293.188C660.609 292.948 660.713 292.828 660.713 292.828ZM660.713 288.172C660.713 288.172 660.609 288.06 660.401 287.836C660.193 287.596 659.905 287.332 659.537 287.044C659.185 286.74 658.785 286.476 658.337 286.252C657.889 286.012 657.409 285.892 656.897 285.892L656.657 284.308C657.185 284.308 657.681 284.436 658.145 284.692C658.625 284.932 659.057 285.236 659.441 285.604C659.841 285.972 660.177 286.34 660.449 286.708C660.737 287.06 660.953 287.364 661.097 287.62C661.257 287.86 661.337 287.98 661.337 287.98L660.713 288.172ZM656.897 285.892C656.273 285.892 655.761 286.028 655.361 286.3C654.961 286.556 654.649 286.908 654.425 287.356C654.201 287.804 654.041 288.3 653.945 288.844C653.849 289.388 653.801 289.94 653.801 290.5C653.801 291.06 653.849 291.62 653.945 292.18C654.041 292.724 654.201 293.22 654.425 293.668C654.649 294.116 654.961 294.476 655.361 294.748C655.761 295.004 656.273 295.132 656.897 295.132L656.657 296.692C655.793 296.692 655.057 296.516 654.449 296.164C653.841 295.812 653.337 295.34 652.937 294.748C652.553 294.156 652.265 293.492 652.073 292.756C651.897 292.02 651.809 291.268 651.809 290.5C651.809 289.732 651.897 288.98 652.073 288.244C652.265 287.508 652.553 286.844 652.937 286.252C653.337 285.66 653.841 285.188 654.449 284.836C655.057 284.484 655.793 284.308 656.657 284.308L656.897 285.892ZM661.385 296.5L661.217 294.796L663.305 295.324V296.5H661.385ZM676.931 290.5H675.011C675.011 289.348 674.923 288.444 674.747 287.788C674.587 287.116 674.323 286.644 673.955 286.372C673.603 286.084 673.139 285.94 672.563 285.94L672.803 284.308C674.099 284.308 675.099 284.74 675.803 285.604C676.523 286.452 676.899 287.668 676.931 289.252V290.5ZM667.859 284.5H669.779V296.5H667.859V284.5ZM675.011 290.5H676.931V296.5H675.011V290.5ZM668.771 288.172L668.147 287.98C668.147 287.98 668.219 287.86 668.363 287.62C668.523 287.364 668.739 287.06 669.011 286.708C669.299 286.34 669.635 285.972 670.019 285.604C670.419 285.236 670.851 284.932 671.315 284.692C671.795 284.436 672.299 284.308 672.827 284.308L672.587 285.94C672.091 285.94 671.611 286.052 671.147 286.276C670.699 286.5 670.291 286.764 669.923 287.068C669.571 287.356 669.291 287.612 669.083 287.836C668.875 288.06 668.771 288.172 668.771 288.172ZM668.099 286.132L666.179 285.652V284.5H668.099V286.132ZM669.539 296.5L669.371 294.796L671.459 295.324V296.5H669.539ZM666.179 296.5V295.324L668.219 294.82L668.099 296.5H666.179ZM676.691 296.5L676.547 294.796L678.611 295.324V296.5H676.691ZM690.205 294.172L690.925 295.42C690.925 295.42 690.717 295.524 690.301 295.732C689.901 295.94 689.341 296.156 688.621 296.38C687.917 296.588 687.085 296.692 686.125 296.692L686.269 295.108C686.989 295.108 687.621 295.044 688.165 294.916C688.709 294.788 689.157 294.652 689.509 294.508C689.861 294.348 690.093 294.236 690.205 294.172ZM681.781 290.5H683.677C683.677 291.7 683.765 292.636 683.941 293.308C684.117 293.964 684.397 294.428 684.781 294.7C685.165 294.972 685.661 295.108 686.269 295.108L686.125 296.692C685.229 296.692 684.453 296.484 683.797 296.068C683.157 295.652 682.661 294.988 682.309 294.076C681.957 293.164 681.781 291.972 681.781 290.5ZM686.821 284.308C688.213 284.308 689.269 284.676 689.989 285.412C690.709 286.148 691.069 287.068 691.069 288.172C691.069 288.908 690.901 289.516 690.565 289.996C690.229 290.476 689.773 290.852 689.197 291.124C688.637 291.38 688.013 291.564 687.325 291.676C686.637 291.772 685.941 291.82 685.237 291.82L683.365 291.796L683.677 290.26C684.381 290.292 685.061 290.292 685.717 290.26C686.389 290.212 686.989 290.124 687.517 289.996C688.045 289.852 688.461 289.636 688.765 289.348C689.069 289.044 689.221 288.652 689.221 288.172C689.221 287.516 689.013 286.972 688.597 286.54C688.197 286.092 687.605 285.868 686.821 285.868C686.021 285.868 685.389 286.084 684.925 286.516C684.477 286.948 684.157 287.516 683.965 288.22C683.773 288.924 683.677 289.684 683.677 290.5H681.781C681.781 289.732 681.877 288.98 682.069 288.244C682.261 287.508 682.549 286.844 682.933 286.252C683.333 285.66 683.853 285.188 684.493 284.836C685.133 284.484 685.909 284.308 686.821 284.308ZM708.661 296.692C707.749 296.692 706.965 296.516 706.309 296.164C705.669 295.812 705.149 295.34 704.749 294.748C704.349 294.156 704.053 293.492 703.861 292.756C703.669 292.02 703.573 291.268 703.573 290.5C703.573 289.732 703.669 288.98 703.861 288.244C704.053 287.508 704.349 286.844 704.749 286.252C705.149 285.66 705.669 285.188 706.309 284.836C706.965 284.484 707.749 284.308 708.661 284.308V285.868C708.037 285.868 707.525 286.004 707.125 286.276C706.725 286.548 706.413 286.908 706.189 287.356C705.965 287.788 705.805 288.284 705.709 288.844C705.613 289.388 705.565 289.94 705.565 290.5C705.565 291.06 705.613 291.62 705.709 292.18C705.805 292.724 705.965 293.22 706.189 293.668C706.413 294.116 706.725 294.476 707.125 294.748C707.525 295.004 708.037 295.132 708.661 295.132V296.692ZM708.637 296.692V295.132C709.373 295.132 710.005 294.996 710.533 294.724C711.061 294.452 711.493 294.196 711.829 293.956L712.741 295.18C712.485 295.356 712.157 295.564 711.757 295.804C711.373 296.044 710.917 296.252 710.389 296.428C709.877 296.604 709.293 296.692 708.637 296.692ZM711.829 287.02C711.493 286.78 711.061 286.532 710.533 286.276C710.005 286.004 709.373 285.868 708.637 285.868V284.308C709.293 284.308 709.885 284.396 710.413 284.572C710.941 284.748 711.397 284.956 711.781 285.196C712.181 285.436 712.501 285.652 712.741 285.844L711.829 287.02ZM711.013 292.708H712.141L712.741 295.18H711.013V292.708ZM711.013 288.292V285.844H712.741L712.165 288.292H711.013ZM718.169 290.5H720.089C720.089 291.668 720.169 292.596 720.329 293.284C720.505 293.956 720.769 294.436 721.121 294.724C721.489 294.996 721.969 295.132 722.561 295.132L722.321 296.692C721.009 296.692 720.001 296.268 719.297 295.42C718.593 294.556 718.225 293.332 718.193 291.748L718.169 290.5ZM727.265 293.14L725.345 295.06V284.5H727.265V293.14ZM720.089 290.5H718.169V284.5H720.089V290.5ZM725.345 294.964L727.265 293.14V296.5H725.345V294.964ZM726.329 292.9L726.977 293.092C726.977 293.092 726.897 293.22 726.737 293.476C726.593 293.716 726.377 294.012 726.089 294.364C725.801 294.716 725.465 295.076 725.081 295.444C724.697 295.796 724.265 296.092 723.785 296.332C723.321 296.572 722.825 296.692 722.297 296.692L722.537 295.132C723.065 295.132 723.553 295.02 724.001 294.796C724.449 294.572 724.849 294.316 725.201 294.028C725.553 293.724 725.825 293.46 726.017 293.236C726.225 293.012 726.329 292.9 726.329 292.9ZM727.025 296.5L726.857 294.796L728.945 295.324V296.5H727.025ZM718.409 286.132L716.489 285.652V284.5H718.409V286.132ZM725.585 286.132L723.665 285.652V284.5H725.585V286.132ZM736.719 296.692V295.132C737.615 295.132 738.287 294.916 738.735 294.484C739.183 294.052 739.407 293.5 739.407 292.828C739.407 292.284 739.183 291.884 738.735 291.628C738.287 291.372 737.591 291.18 736.647 291.052L736.839 289.42C738.407 289.596 739.543 289.94 740.247 290.452C740.967 290.964 741.327 291.756 741.327 292.828C741.327 293.964 740.943 294.892 740.175 295.612C739.407 296.332 738.255 296.692 736.719 296.692ZM736.719 284.308L736.839 285.868C736.263 285.868 735.767 286.02 735.351 286.324C734.951 286.612 734.751 287.02 734.751 287.548C734.751 288.62 735.447 289.244 736.839 289.42L736.647 291.052C735.463 290.892 734.527 290.516 733.839 289.924C733.167 289.332 732.831 288.54 732.831 287.548C732.831 286.876 732.999 286.3 733.335 285.82C733.687 285.34 734.159 284.972 734.751 284.716C735.343 284.444 735.999 284.308 736.719 284.308ZM732.567 295.18L733.575 293.884C733.927 294.156 734.351 294.436 734.847 294.724C735.343 294.996 735.967 295.132 736.719 295.132V296.692C736.079 296.692 735.495 296.604 734.967 296.428C734.439 296.252 733.967 296.044 733.551 295.804C733.151 295.564 732.823 295.356 732.567 295.18ZM739.863 287.02C739.543 286.78 739.135 286.532 738.639 286.276C738.143 286.004 737.543 285.868 736.839 285.868L736.719 284.308C737.311 284.308 737.871 284.396 738.399 284.572C738.927 284.732 739.399 284.932 739.815 285.172C740.247 285.412 740.599 285.636 740.871 285.844L739.863 287.02ZM734.319 292.636V295.18H732.567L733.167 292.636H734.319ZM739.119 288.292V285.844H740.871L740.271 288.292H739.119ZM744.936 286.084V284.5H751.824L751.56 286.084H744.936ZM751.224 295.06L751.464 296.5C751.24 296.548 751.032 296.58 750.84 296.596C750.664 296.612 750.456 296.62 750.216 296.62C749.384 296.62 748.72 296.468 748.224 296.164C747.728 295.86 747.368 295.348 747.144 294.628C746.92 293.908 746.808 292.932 746.808 291.7V282.1L748.728 281.764V292.492C748.728 293.452 748.84 294.132 749.064 294.532C749.304 294.932 749.728 295.132 750.336 295.132C750.48 295.132 750.616 295.124 750.744 295.108C750.888 295.092 751.048 295.076 751.224 295.06ZM755.243 290.5C755.243 289.732 755.339 288.98 755.531 288.244C755.723 287.508 756.019 286.844 756.419 286.252C756.819 285.66 757.339 285.188 757.979 284.836C758.635 284.484 759.419 284.308 760.331 284.308C761.259 284.308 762.043 284.484 762.683 284.836C763.323 285.188 763.843 285.66 764.243 286.252C764.659 286.844 764.955 287.508 765.131 288.244C765.323 288.98 765.419 289.732 765.419 290.5C765.419 291.268 765.323 292.02 765.131 292.756C764.955 293.492 764.659 294.156 764.243 294.748C763.843 295.34 763.323 295.812 762.683 296.164C762.043 296.516 761.259 296.692 760.331 296.692C759.419 296.692 758.635 296.516 757.979 296.164C757.339 295.812 756.819 295.34 756.419 294.748C756.019 294.156 755.723 293.492 755.531 292.756C755.339 292.02 755.243 291.268 755.243 290.5ZM757.235 290.5C757.235 291.06 757.283 291.62 757.379 292.18C757.475 292.724 757.635 293.22 757.859 293.668C758.083 294.116 758.395 294.476 758.795 294.748C759.195 295.004 759.707 295.132 760.331 295.132C760.955 295.132 761.467 295.004 761.867 294.748C762.267 294.476 762.579 294.116 762.803 293.668C763.043 293.22 763.211 292.724 763.307 292.18C763.403 291.62 763.451 291.06 763.451 290.5C763.451 289.94 763.403 289.388 763.307 288.844C763.211 288.3 763.043 287.804 762.803 287.356C762.579 286.908 762.267 286.556 761.867 286.3C761.467 286.028 760.955 285.892 760.331 285.892C759.707 285.892 759.195 286.028 758.795 286.3C758.395 286.556 758.083 286.908 757.859 287.356C757.635 287.804 757.475 288.3 757.379 288.844C757.283 289.388 757.235 289.94 757.235 290.5ZM771.432 288.172L770.88 287.98C770.88 287.98 770.944 287.86 771.072 287.62C771.2 287.364 771.384 287.06 771.624 286.708C771.88 286.34 772.176 285.972 772.512 285.604C772.848 285.236 773.216 284.932 773.616 284.692C774.032 284.436 774.472 284.308 774.936 284.308L774.648 285.94C774.232 285.94 773.832 286.052 773.448 286.276C773.064 286.5 772.72 286.764 772.416 287.068C772.112 287.356 771.872 287.612 771.696 287.836C771.52 288.06 771.432 288.172 771.432 288.172ZM776.664 290.5C776.664 289.348 776.584 288.444 776.424 287.788C776.264 287.116 776.032 286.644 775.728 286.372C775.44 286.084 775.072 285.94 774.624 285.94L774.912 284.308C775.52 284.308 776.04 284.42 776.472 284.644C776.92 284.852 777.296 285.172 777.6 285.604C777.904 286.02 778.136 286.532 778.296 287.14C778.456 287.748 778.544 288.452 778.56 289.252L778.584 290.5H776.664ZM777.552 288.172L777.024 287.38C777.024 287.38 777.088 287.276 777.216 287.068C777.36 286.86 777.552 286.604 777.792 286.3C778.048 285.996 778.344 285.692 778.68 285.388C779.016 285.084 779.384 284.828 779.784 284.62C780.2 284.412 780.632 284.308 781.08 284.308L780.792 285.94C780.376 285.94 779.976 286.052 779.592 286.276C779.224 286.5 778.88 286.764 778.56 287.068C778.256 287.356 778.008 287.612 777.816 287.836C777.64 288.06 777.552 288.172 777.552 288.172ZM770.496 296.5V284.5H772.416V296.5H770.496ZM776.664 296.5V290.5H778.584V296.5H776.664ZM782.808 296.5V290.5H784.728V296.5H782.808ZM782.808 290.5C782.808 289.348 782.728 288.444 782.568 287.788C782.424 287.116 782.2 286.644 781.896 286.372C781.592 286.084 781.224 285.94 780.792 285.94L781.08 284.308C781.672 284.308 782.192 284.42 782.64 284.644C783.088 284.852 783.456 285.172 783.744 285.604C784.048 286.02 784.28 286.532 784.44 287.14C784.6 287.748 784.688 288.452 784.704 289.252L784.728 290.5H782.808ZM768.816 296.5V295.324L770.856 294.82L770.736 296.5H768.816ZM772.176 296.5L772.008 294.796L774.096 295.324V296.5H772.176ZM784.488 296.5L784.344 294.796L786.408 295.324V296.5H784.488ZM770.736 286.132L768.816 285.652V284.5H770.736V286.132ZM778.344 296.5L778.176 294.796L780.264 295.324V296.5H778.344ZM790.967 296.5V284.5H792.887V296.5H790.967ZM791.927 282.676C791.559 282.676 791.247 282.556 790.991 282.316C790.751 282.06 790.631 281.748 790.631 281.38C790.631 281.012 790.751 280.708 790.991 280.468C791.247 280.212 791.559 280.084 791.927 280.084C792.295 280.084 792.599 280.212 792.839 280.468C793.095 280.708 793.223 281.012 793.223 281.38C793.223 281.748 793.095 282.06 792.839 282.316C792.599 282.556 792.295 282.676 791.927 282.676ZM791.207 286.132L789.287 285.652V284.5H791.207V286.132ZM789.287 296.5V295.324L791.327 294.82L791.207 296.5H789.287ZM792.647 296.5L792.479 294.796L794.567 295.324V296.5H792.647ZM807.624 284.5V286.084L800.856 294.916H807.624V296.5H798.528V294.916L805.392 286.084H799.008V284.5H807.624ZM807.624 292.948V296.5H805.632L806.472 292.948H807.624ZM799.008 288.052V284.5H800.976L800.136 288.052H799.008ZM819.825 285.94L821.745 286.18V296.5H819.825V285.94ZM819.825 285.94L820.545 284.5H821.745V286.18L819.825 285.94ZM820.833 292.828L821.457 293.02C821.457 293.02 821.401 293.148 821.289 293.404C821.177 293.644 821.009 293.948 820.785 294.316C820.561 294.668 820.265 295.028 819.897 295.396C819.529 295.764 819.081 296.076 818.553 296.332C818.041 296.572 817.449 296.692 816.777 296.692L817.017 295.132C817.529 295.132 818.009 295.02 818.457 294.796C818.905 294.556 819.305 294.284 819.657 293.98C820.025 293.676 820.313 293.412 820.521 293.188C820.729 292.948 820.833 292.828 820.833 292.828ZM820.833 288.172C820.833 288.172 820.729 288.06 820.521 287.836C820.313 287.596 820.025 287.332 819.657 287.044C819.305 286.74 818.905 286.476 818.457 286.252C818.009 286.012 817.529 285.892 817.017 285.892L816.777 284.308C817.305 284.308 817.801 284.436 818.265 284.692C818.745 284.932 819.177 285.236 819.561 285.604C819.961 285.972 820.297 286.34 820.569 286.708C820.857 287.06 821.073 287.364 821.217 287.62C821.377 287.86 821.457 287.98 821.457 287.98L820.833 288.172ZM817.017 285.892C816.393 285.892 815.881 286.028 815.481 286.3C815.081 286.556 814.769 286.908 814.545 287.356C814.321 287.804 814.161 288.3 814.065 288.844C813.969 289.388 813.921 289.94 813.921 290.5C813.921 291.06 813.969 291.62 814.065 292.18C814.161 292.724 814.321 293.22 814.545 293.668C814.769 294.116 815.081 294.476 815.481 294.748C815.881 295.004 816.393 295.132 817.017 295.132L816.777 296.692C815.913 296.692 815.177 296.516 814.569 296.164C813.961 295.812 813.457 295.34 813.057 294.748C812.673 294.156 812.385 293.492 812.193 292.756C812.017 292.02 811.929 291.268 811.929 290.5C811.929 289.732 812.017 288.98 812.193 288.244C812.385 287.508 812.673 286.844 813.057 286.252C813.457 285.66 813.961 285.188 814.569 284.836C815.177 284.484 815.913 284.308 816.777 284.308L817.017 285.892ZM821.505 296.5L821.337 294.796L823.425 295.324V296.5H821.505ZM826.227 286.084V284.5H833.115L832.851 286.084H826.227ZM832.515 295.06L832.755 296.5C832.531 296.548 832.323 296.58 832.131 296.596C831.955 296.612 831.747 296.62 831.507 296.62C830.675 296.62 830.011 296.468 829.515 296.164C829.019 295.86 828.659 295.348 828.435 294.628C828.211 293.908 828.099 292.932 828.099 291.7V282.1L830.019 281.764V292.492C830.019 293.452 830.131 294.132 830.355 294.532C830.595 294.932 831.019 295.132 831.627 295.132C831.771 295.132 831.907 295.124 832.035 295.108C832.179 295.092 832.339 295.076 832.515 295.06ZM837.926 296.5V284.5H839.846V296.5H837.926ZM838.886 282.676C838.518 282.676 838.206 282.556 837.95 282.316C837.71 282.06 837.59 281.748 837.59 281.38C837.59 281.012 837.71 280.708 837.95 280.468C838.206 280.212 838.518 280.084 838.886 280.084C839.254 280.084 839.558 280.212 839.798 280.468C840.054 280.708 840.182 281.012 840.182 281.38C840.182 281.748 840.054 282.06 839.798 282.316C839.558 282.556 839.254 282.676 838.886 282.676ZM838.166 286.132L836.246 285.652V284.5H838.166V286.132ZM836.246 296.5V295.324L838.286 294.82L838.166 296.5H836.246ZM839.606 296.5L839.438 294.796L841.526 295.324V296.5H839.606ZM844.887 290.5C844.887 289.732 844.983 288.98 845.175 288.244C845.367 287.508 845.663 286.844 846.063 286.252C846.463 285.66 846.983 285.188 847.623 284.836C848.279 284.484 849.063 284.308 849.975 284.308C850.903 284.308 851.687 284.484 852.327 284.836C852.967 285.188 853.487 285.66 853.887 286.252C854.303 286.844 854.599 287.508 854.775 288.244C854.967 288.98 855.063 289.732 855.063 290.5C855.063 291.268 854.967 292.02 854.775 292.756C854.599 293.492 854.303 294.156 853.887 294.748C853.487 295.34 852.967 295.812 852.327 296.164C851.687 296.516 850.903 296.692 849.975 296.692C849.063 296.692 848.279 296.516 847.623 296.164C846.983 295.812 846.463 295.34 846.063 294.748C845.663 294.156 845.367 293.492 845.175 292.756C844.983 292.02 844.887 291.268 844.887 290.5ZM846.879 290.5C846.879 291.06 846.927 291.62 847.023 292.18C847.119 292.724 847.279 293.22 847.503 293.668C847.727 294.116 848.039 294.476 848.439 294.748C848.839 295.004 849.351 295.132 849.975 295.132C850.599 295.132 851.111 295.004 851.511 294.748C851.911 294.476 852.223 294.116 852.447 293.668C852.687 293.22 852.855 292.724 852.951 292.18C853.047 291.62 853.095 291.06 853.095 290.5C853.095 289.94 853.047 289.388 852.951 288.844C852.855 288.3 852.687 287.804 852.447 287.356C852.223 286.908 851.911 286.556 851.511 286.3C851.111 286.028 850.599 285.892 849.975 285.892C849.351 285.892 848.839 286.028 848.439 286.3C848.039 286.556 847.727 286.908 847.503 287.356C847.279 287.804 847.119 288.3 847.023 288.844C846.927 289.388 846.879 289.94 846.879 290.5ZM869.189 290.5H867.269C867.269 289.348 867.181 288.444 867.005 287.788C866.845 287.116 866.581 286.644 866.213 286.372C865.861 286.084 865.397 285.94 864.821 285.94L865.061 284.308C866.357 284.308 867.357 284.74 868.061 285.604C868.781 286.452 869.157 287.668 869.189 289.252V290.5ZM860.117 284.5H862.037V296.5H860.117V284.5ZM867.269 290.5H869.189V296.5H867.269V290.5ZM861.029 288.172L860.405 287.98C860.405 287.98 860.477 287.86 860.621 287.62C860.781 287.364 860.997 287.06 861.269 286.708C861.557 286.34 861.893 285.972 862.277 285.604C862.677 285.236 863.109 284.932 863.573 284.692C864.053 284.436 864.557 284.308 865.085 284.308L864.845 285.94C864.349 285.94 863.869 286.052 863.405 286.276C862.957 286.5 862.549 286.764 862.181 287.068C861.829 287.356 861.549 287.612 861.341 287.836C861.133 288.06 861.029 288.172 861.029 288.172ZM860.357 286.132L858.437 285.652V284.5H860.357V286.132ZM861.797 296.5L861.629 294.796L863.717 295.324V296.5H861.797ZM858.437 296.5V295.324L860.477 294.82L860.357 296.5H858.437ZM868.949 296.5L868.805 294.796L870.869 295.324V296.5H868.949Z" fill="#179299"/>
<defs>
<clipPath id="clip0_12_4778">
<rect x="560" y="96.5" width="180" height="80" rx="2" fill="white"/>
</clipPath>
</defs>
</svg>
