<svg width="180" height="180" viewBox="0 0 180 180" fill="none" xmlns="http://www.w3.org/2000/svg">
<path d="M19.0455 118.705V60.5227H32.5V64.9773H24.1364V114.25H32.5V118.705H19.0455Z" fill="#32C572"/>
<path d="M59.02 104.25V101.018L63.34 99.258V80.666C63.34 76.602 61.228 75.194 58.412 75.194C56.204 75.194 53.196 75.898 49.772 77.786V99.322L53.996 101.018V104.25H39.5V101.018L43.82 99.258V77.338L38.22 76.474V72.922L48.588 70.522L49.42 70.874V74.554C53.612 71.898 57.452 70.362 61.196 70.362C66.668 70.362 69.292 73.466 69.292 79.418V99.322L73.516 101.018V104.25H59.02Z" fill="#2A2D3F"/>
<path d="M91.6362 60.5227V118.705H78.1816V114.25H86.5453V64.9773H78.1816V60.5227H91.6362Z" fill="#32C572"/>
<path d="M161.199 60.5227V118.705H147.744V114.25H156.108V64.9773H147.744V60.5227H161.199Z" fill="#32C572"/>
<path d="M114.824 118.705H101.369V114.25H114.824V118.705Z" fill="#32C572"/>
<path d="M114.824 64.9773H101.369V60.5227H114.824V64.9773Z" fill="#32C572"/>
<path d="M138.011 64.9773H124.557V60.5227H138.011V64.9773Z" fill="#32C572"/>
<path d="M138.011 118.705H124.557V114.25H138.011V118.705Z" fill="#32C572"/>
</svg>
