<svg width="1300" height="350" viewBox="0 0 1300 350" fill="none" xmlns="http://www.w3.org/2000/svg">
<path d="M590.545 125.614V67.4319H604V71.8865H595.636V121.159H604V125.614H590.545Z" fill="#32C572"/>
<path d="M630.52 111.159V107.927L634.84 106.167V87.5752C634.84 83.5112 632.728 82.1032 629.912 82.1032C627.704 82.1032 624.696 82.8072 621.272 84.6952V106.231L625.496 107.927V111.159H611V107.927L615.32 106.167V84.2472L609.72 83.3832V79.8312L620.088 77.4312L620.92 77.7832V81.4632C625.112 78.8072 628.952 77.2712 632.696 77.2712C638.168 77.2712 640.792 80.3752 640.792 86.3272V106.231L645.016 107.927V111.159H630.52Z" fill="#2A2D3F"/>
<path d="M662.636 67.4319V125.614H649.182V121.159H657.545V71.8865H649.182V67.4319H662.636ZM677.733 125.614V67.4319H691.188V71.8865H682.824V121.159H691.188V125.614H677.733ZM709.011 67.4319V125.614H695.557V121.159H703.92V71.8865H695.557V67.4319H709.011Z" fill="#32C572"/>
<path d="M595.858 157.886H604.221V162.341H590.767V139.841H595.858V157.886Z" fill="#32C572"/>
<path d="M662.858 162.341H649.403V157.886H657.767V139.841H662.858V162.341Z" fill="#32C572"/>
<path d="M683.045 157.886H691.408V162.341H677.954V139.841H683.045V157.886Z" fill="#32C572"/>
<path d="M709.233 162.341H695.778V157.886H704.142V139.841H709.233V162.341Z" fill="#32C572"/>
<path d="M604.221 138.613H595.858L595.858 139.841H590.767L590.767 134.159H604.221V138.613Z" fill="#32C572"/>
<path d="M662.858 139.841H657.767L657.767 138.613H649.403V134.159H662.858L662.858 139.841Z" fill="#32C572"/>
<path d="M691.409 138.613H683.046L683.045 139.841H677.954L677.955 134.159H691.409V138.613Z" fill="#32C572"/>
<path d="M709.233 139.841H704.142L704.142 138.613H695.778V134.159H709.233L709.233 139.841Z" fill="#32C572"/>
<path d="M515.92 252V250.6L517.8 250.32C518.227 250.24 518.507 250.08 518.64 249.84C518.773 249.573 518.84 249.093 518.84 248.4V235.84C518.84 234.907 518.76 234.28 518.6 233.96C518.44 233.64 518.067 233.453 517.48 233.4L515.56 233.16L515.76 231.76L522.12 231.32L522.48 231.6L522.64 235.32H522.72C523.387 233.96 524.347 232.907 525.6 232.16C526.853 231.413 528.2 231.04 529.64 231.04C531.053 231.04 532.24 231.307 533.2 231.84C534.16 232.347 534.88 233.12 535.36 234.16C535.84 235.173 536.08 236.427 536.08 237.92V248.68C536.08 249.293 536.16 249.707 536.32 249.92C536.48 250.133 536.813 250.28 537.32 250.36L539.12 250.6V252H529.08V250.64L530.76 250.4C531.267 250.293 531.587 250.133 531.72 249.92C531.88 249.707 531.96 249.307 531.96 248.72V238.56C531.96 237.307 531.84 236.32 531.6 235.6C531.36 234.853 530.96 234.32 530.4 234C529.867 233.68 529.12 233.52 528.16 233.52C527.147 233.52 526.24 233.747 525.44 234.2C524.667 234.627 524.053 235.253 523.6 236.08C523.173 236.88 522.96 237.84 522.96 238.96V248.56C522.96 249.147 523.027 249.56 523.16 249.8C523.293 250.04 523.56 250.2 523.96 250.28L525.96 250.64V252H515.92ZM561.656 252.56C559.656 252.56 557.909 252.147 556.416 251.32C554.949 250.467 553.816 249.28 553.016 247.76C552.216 246.213 551.816 244.373 551.816 242.24C551.816 239.893 552.242 237.893 553.096 236.24C553.949 234.56 555.149 233.28 556.696 232.4C558.269 231.493 560.109 231.04 562.216 231.04C564.162 231.04 565.856 231.453 567.296 232.28C568.736 233.08 569.842 234.253 570.616 235.8C571.416 237.32 571.816 239.147 571.816 241.28C571.816 243.573 571.389 245.573 570.536 247.28C569.709 248.96 568.536 250.267 567.016 251.2C565.496 252.107 563.709 252.56 561.656 252.56ZM562.256 250.72C563.349 250.72 564.269 250.413 565.016 249.8C565.789 249.187 566.362 248.253 566.736 247C567.109 245.747 567.296 244.147 567.296 242.2C567.296 240.653 567.162 239.293 566.896 238.12C566.656 236.92 566.282 235.933 565.776 235.16C565.269 234.387 564.656 233.813 563.936 233.44C563.242 233.04 562.442 232.84 561.536 232.84C560.416 232.84 559.469 233.133 558.696 233.72C557.922 234.28 557.322 235.173 556.896 236.4C556.496 237.6 556.296 239.147 556.296 241.04C556.296 243.2 556.536 245 557.016 246.44C557.522 247.853 558.216 248.92 559.096 249.64C559.976 250.36 561.029 250.72 562.256 250.72ZM585.139 252V250.6L587.019 250.28C587.445 250.2 587.725 250.04 587.859 249.8C587.992 249.533 588.059 249.053 588.059 248.36V235.88C588.059 234.947 587.979 234.32 587.819 234C587.659 233.653 587.285 233.453 586.699 233.4L584.779 233.2L584.979 231.76L591.259 231.32L591.619 231.6L591.899 235.36H591.979C592.645 233.973 593.499 232.907 594.539 232.16C595.579 231.413 596.699 231.04 597.899 231.04C599.179 231.04 600.192 231.387 600.939 232.08C601.685 232.747 602.059 233.64 602.059 234.76C602.059 235.427 601.952 236 601.739 236.48C601.552 236.933 601.245 237.293 600.819 237.56C600.419 237.8 599.912 237.92 599.299 237.92C598.499 237.92 597.885 237.747 597.459 237.4C597.059 237.053 596.859 236.613 596.859 236.08C596.859 235.84 596.899 235.6 596.979 235.36C597.059 235.12 597.179 234.84 597.339 234.52C597.499 234.2 597.699 233.84 597.939 233.44C597.325 233.2 596.672 233.173 595.979 233.36C595.312 233.547 594.685 233.92 594.099 234.48C593.539 235.013 593.072 235.693 592.699 236.52C592.352 237.32 592.179 238.187 592.179 239.12V248.44C592.179 249.08 592.245 249.52 592.379 249.76C592.512 249.973 592.792 250.107 593.219 250.16L596.539 250.6V252H585.139ZM614.076 252V250.56L616.236 250.24C616.716 250.187 617.022 250.027 617.156 249.76C617.289 249.493 617.356 249 617.356 248.28V235.96C617.356 235 617.276 234.36 617.116 234.04C616.956 233.72 616.569 233.52 615.956 233.44L614.076 233.24L614.236 231.76L621.116 231.44L621.516 231.64V248.44C621.516 249 621.582 249.427 621.716 249.72C621.849 249.987 622.169 250.16 622.676 250.24L624.836 250.6V252H614.076ZM618.876 227.28C618.049 227.28 617.369 227.027 616.836 226.52C616.302 226.013 616.036 225.347 616.036 224.52C616.036 223.72 616.302 223.067 616.836 222.56C617.369 222.027 618.049 221.76 618.876 221.76C619.756 221.76 620.449 222.013 620.956 222.52C621.489 223.027 621.756 223.693 621.756 224.52C621.756 225.32 621.489 225.987 620.956 226.52C620.422 227.027 619.729 227.28 618.876 227.28ZM640.251 252.52L639.251 252.28V225.68C639.251 224.8 639.171 224.2 639.011 223.88C638.851 223.533 638.398 223.32 637.651 223.24L635.891 223.04L636.051 221.56L643.011 221.36L643.411 221.68V234.56L643.451 234.72C643.984 233.84 644.571 233.133 645.211 232.6C645.878 232.04 646.611 231.64 647.411 231.4C648.238 231.16 649.118 231.04 650.051 231.04C651.704 231.04 653.118 231.427 654.291 232.2C655.491 232.973 656.411 234.093 657.051 235.56C657.691 237.027 658.011 238.853 658.011 241.04C658.011 243.44 657.638 245.507 656.891 247.24C656.144 248.947 655.051 250.267 653.611 251.2C652.198 252.107 650.478 252.56 648.451 252.56C647.331 252.56 646.264 252.4 645.251 252.08C644.238 251.787 643.331 251.36 642.531 250.8L640.251 252.52ZM648.131 250.68C649.278 250.68 650.251 250.373 651.051 249.76C651.878 249.12 652.504 248.147 652.931 246.84C653.358 245.507 653.571 243.8 653.571 241.72C653.571 239.8 653.384 238.24 653.011 237.04C652.638 235.813 652.078 234.907 651.331 234.32C650.611 233.733 649.691 233.44 648.571 233.44C647.531 233.44 646.611 233.667 645.811 234.12C645.038 234.547 644.438 235.173 644.011 236C643.611 236.827 643.411 237.84 643.411 239.04V248.84C643.998 249.373 644.691 249.813 645.491 250.16C646.318 250.507 647.198 250.68 648.131 250.68ZM681.178 252.56C679.258 252.56 677.578 252.147 676.138 251.32C674.725 250.493 673.632 249.307 672.858 247.76C672.085 246.187 671.698 244.32 671.698 242.16C671.698 239.84 672.112 237.853 672.938 236.2C673.765 234.52 674.925 233.24 676.418 232.36C677.912 231.48 679.645 231.04 681.618 231.04C683.112 231.04 684.418 231.333 685.538 231.92C686.658 232.507 687.525 233.347 688.138 234.44C688.778 235.507 689.098 236.773 689.098 238.24C689.098 238.747 689.058 239.267 688.978 239.8C688.925 240.333 688.845 240.893 688.738 241.48H676.138C676.138 243.24 676.392 244.72 676.898 245.92C677.432 247.093 678.165 247.987 679.098 248.6C680.032 249.187 681.125 249.48 682.378 249.48C683.472 249.48 684.498 249.28 685.458 248.88C686.445 248.48 687.392 247.853 688.298 247L689.338 248C688.352 249.52 687.152 250.667 685.738 251.44C684.352 252.187 682.832 252.56 681.178 252.56ZM676.138 239.8H684.858C684.885 239.533 684.898 239.24 684.898 238.92C684.925 238.6 684.938 238.267 684.938 237.92C684.938 236.053 684.632 234.707 684.018 233.88C683.405 233.053 682.472 232.64 681.218 232.64C680.232 232.64 679.378 232.893 678.658 233.4C677.965 233.907 677.405 234.693 676.978 235.76C676.552 236.8 676.272 238.147 676.138 239.8ZM702.326 252V250.6L704.206 250.32C704.633 250.24 704.913 250.08 705.046 249.84C705.18 249.573 705.246 249.093 705.246 248.4V235.84C705.246 234.907 705.166 234.28 705.006 233.96C704.846 233.64 704.473 233.453 703.886 233.4L701.966 233.16L702.166 231.76L708.526 231.32L708.886 231.6L709.046 235.32H709.126C709.793 233.96 710.753 232.907 712.006 232.16C713.26 231.413 714.606 231.04 716.046 231.04C717.46 231.04 718.646 231.307 719.606 231.84C720.566 232.347 721.286 233.12 721.766 234.16C722.246 235.173 722.486 236.427 722.486 237.92V248.68C722.486 249.293 722.566 249.707 722.726 249.92C722.886 250.133 723.22 250.28 723.726 250.36L725.526 250.6V252H715.486V250.64L717.166 250.4C717.673 250.293 717.993 250.133 718.126 249.92C718.286 249.707 718.366 249.307 718.366 248.72V238.56C718.366 237.307 718.246 236.32 718.006 235.6C717.766 234.853 717.366 234.32 716.806 234C716.273 233.68 715.526 233.52 714.566 233.52C713.553 233.52 712.646 233.747 711.846 234.2C711.073 234.627 710.46 235.253 710.006 236.08C709.58 236.88 709.366 237.84 709.366 238.96V248.56C709.366 249.147 709.433 249.56 709.566 249.8C709.7 250.04 709.966 250.2 710.366 250.28L712.366 250.64V252H702.326ZM745.281 252.56C744.134 252.56 743.161 252.36 742.361 251.96C741.587 251.533 741.001 250.88 740.601 250C740.201 249.12 740.001 247.987 740.001 246.6V233.44H737.001V231.96C737.987 231.853 738.787 231.573 739.401 231.12C740.041 230.667 740.534 229.96 740.881 229C741.227 228.04 741.454 226.773 741.561 225.2L743.721 224.92L744.161 225.16V231.6H750.161V233.44H744.161V246.2C744.161 247.373 744.361 248.253 744.761 248.84C745.187 249.4 745.894 249.68 746.881 249.68C747.547 249.68 748.187 249.56 748.801 249.32C749.441 249.08 750.054 248.72 750.641 248.24L751.361 249.32C750.534 250.36 749.614 251.16 748.601 251.72C747.614 252.28 746.507 252.56 745.281 252.56ZM773.062 252.56C771.062 252.56 769.315 252.147 767.822 251.32C766.355 250.467 765.222 249.28 764.422 247.76C763.622 246.213 763.222 244.373 763.222 242.24C763.222 239.893 763.649 237.893 764.502 236.24C765.355 234.56 766.555 233.28 768.102 232.4C769.675 231.493 771.515 231.04 773.622 231.04C775.569 231.04 777.262 231.453 778.702 232.28C780.142 233.08 781.249 234.253 782.022 235.8C782.822 237.32 783.222 239.147 783.222 241.28C783.222 243.573 782.795 245.573 781.942 247.28C781.115 248.96 779.942 250.267 778.422 251.2C776.902 252.107 775.115 252.56 773.062 252.56ZM773.662 250.72C774.755 250.72 775.675 250.413 776.422 249.8C777.195 249.187 777.769 248.253 778.142 247C778.515 245.747 778.702 244.147 778.702 242.2C778.702 240.653 778.569 239.293 778.302 238.12C778.062 236.92 777.689 235.933 777.182 235.16C776.675 234.387 776.062 233.813 775.342 233.44C774.649 233.04 773.849 232.84 772.942 232.84C771.822 232.84 770.875 233.133 770.102 233.72C769.329 234.28 768.729 235.173 768.302 236.4C767.902 237.6 767.702 239.147 767.702 241.04C767.702 243.2 767.942 245 768.422 246.44C768.929 247.853 769.622 248.92 770.502 249.64C771.382 250.36 772.435 250.72 773.662 250.72Z" fill="#5C5F77"/>
<path d="M515.92 252V250.6L517.8 250.32C518.227 250.24 518.507 250.08 518.64 249.84C518.773 249.573 518.84 249.093 518.84 248.4V235.84C518.84 234.907 518.76 234.28 518.6 233.96C518.44 233.64 518.067 233.453 517.48 233.4L515.56 233.16L515.76 231.76L522.12 231.32L522.48 231.6L522.64 235.32H522.72C523.387 233.96 524.347 232.907 525.6 232.16C526.853 231.413 528.2 231.04 529.64 231.04C531.053 231.04 532.24 231.307 533.2 231.84C534.16 232.347 534.88 233.12 535.36 234.16C535.84 235.173 536.08 236.427 536.08 237.92V248.68C536.08 249.293 536.16 249.707 536.32 249.92C536.48 250.133 536.813 250.28 537.32 250.36L539.12 250.6V252H529.08V250.64L530.76 250.4C531.267 250.293 531.587 250.133 531.72 249.92C531.88 249.707 531.96 249.307 531.96 248.72V238.56C531.96 237.307 531.84 236.32 531.6 235.6C531.36 234.853 530.96 234.32 530.4 234C529.867 233.68 529.12 233.52 528.16 233.52C527.147 233.52 526.24 233.747 525.44 234.2C524.667 234.627 524.053 235.253 523.6 236.08C523.173 236.88 522.96 237.84 522.96 238.96V248.56C522.96 249.147 523.027 249.56 523.16 249.8C523.293 250.04 523.56 250.2 523.96 250.28L525.96 250.64V252H515.92ZM561.656 252.56C559.656 252.56 557.909 252.147 556.416 251.32C554.949 250.467 553.816 249.28 553.016 247.76C552.216 246.213 551.816 244.373 551.816 242.24C551.816 239.893 552.242 237.893 553.096 236.24C553.949 234.56 555.149 233.28 556.696 232.4C558.269 231.493 560.109 231.04 562.216 231.04C564.162 231.04 565.856 231.453 567.296 232.28C568.736 233.08 569.842 234.253 570.616 235.8C571.416 237.32 571.816 239.147 571.816 241.28C571.816 243.573 571.389 245.573 570.536 247.28C569.709 248.96 568.536 250.267 567.016 251.2C565.496 252.107 563.709 252.56 561.656 252.56ZM562.256 250.72C563.349 250.72 564.269 250.413 565.016 249.8C565.789 249.187 566.362 248.253 566.736 247C567.109 245.747 567.296 244.147 567.296 242.2C567.296 240.653 567.162 239.293 566.896 238.12C566.656 236.92 566.282 235.933 565.776 235.16C565.269 234.387 564.656 233.813 563.936 233.44C563.242 233.04 562.442 232.84 561.536 232.84C560.416 232.84 559.469 233.133 558.696 233.72C557.922 234.28 557.322 235.173 556.896 236.4C556.496 237.6 556.296 239.147 556.296 241.04C556.296 243.2 556.536 245 557.016 246.44C557.522 247.853 558.216 248.92 559.096 249.64C559.976 250.36 561.029 250.72 562.256 250.72ZM585.139 252V250.6L587.019 250.28C587.445 250.2 587.725 250.04 587.859 249.8C587.992 249.533 588.059 249.053 588.059 248.36V235.88C588.059 234.947 587.979 234.32 587.819 234C587.659 233.653 587.285 233.453 586.699 233.4L584.779 233.2L584.979 231.76L591.259 231.32L591.619 231.6L591.899 235.36H591.979C592.645 233.973 593.499 232.907 594.539 232.16C595.579 231.413 596.699 231.04 597.899 231.04C599.179 231.04 600.192 231.387 600.939 232.08C601.685 232.747 602.059 233.64 602.059 234.76C602.059 235.427 601.952 236 601.739 236.48C601.552 236.933 601.245 237.293 600.819 237.56C600.419 237.8 599.912 237.92 599.299 237.92C598.499 237.92 597.885 237.747 597.459 237.4C597.059 237.053 596.859 236.613 596.859 236.08C596.859 235.84 596.899 235.6 596.979 235.36C597.059 235.12 597.179 234.84 597.339 234.52C597.499 234.2 597.699 233.84 597.939 233.44C597.325 233.2 596.672 233.173 595.979 233.36C595.312 233.547 594.685 233.92 594.099 234.48C593.539 235.013 593.072 235.693 592.699 236.52C592.352 237.32 592.179 238.187 592.179 239.12V248.44C592.179 249.08 592.245 249.52 592.379 249.76C592.512 249.973 592.792 250.107 593.219 250.16L596.539 250.6V252H585.139ZM614.076 252V250.56L616.236 250.24C616.716 250.187 617.022 250.027 617.156 249.76C617.289 249.493 617.356 249 617.356 248.28V235.96C617.356 235 617.276 234.36 617.116 234.04C616.956 233.72 616.569 233.52 615.956 233.44L614.076 233.24L614.236 231.76L621.116 231.44L621.516 231.64V248.44C621.516 249 621.582 249.427 621.716 249.72C621.849 249.987 622.169 250.16 622.676 250.24L624.836 250.6V252H614.076ZM618.876 227.28C618.049 227.28 617.369 227.027 616.836 226.52C616.302 226.013 616.036 225.347 616.036 224.52C616.036 223.72 616.302 223.067 616.836 222.56C617.369 222.027 618.049 221.76 618.876 221.76C619.756 221.76 620.449 222.013 620.956 222.52C621.489 223.027 621.756 223.693 621.756 224.52C621.756 225.32 621.489 225.987 620.956 226.52C620.422 227.027 619.729 227.28 618.876 227.28ZM640.251 252.52L639.251 252.28V225.68C639.251 224.8 639.171 224.2 639.011 223.88C638.851 223.533 638.398 223.32 637.651 223.24L635.891 223.04L636.051 221.56L643.011 221.36L643.411 221.68V234.56L643.451 234.72C643.984 233.84 644.571 233.133 645.211 232.6C645.878 232.04 646.611 231.64 647.411 231.4C648.238 231.16 649.118 231.04 650.051 231.04C651.704 231.04 653.118 231.427 654.291 232.2C655.491 232.973 656.411 234.093 657.051 235.56C657.691 237.027 658.011 238.853 658.011 241.04C658.011 243.44 657.638 245.507 656.891 247.24C656.144 248.947 655.051 250.267 653.611 251.2C652.198 252.107 650.478 252.56 648.451 252.56C647.331 252.56 646.264 252.4 645.251 252.08C644.238 251.787 643.331 251.36 642.531 250.8L640.251 252.52ZM648.131 250.68C649.278 250.68 650.251 250.373 651.051 249.76C651.878 249.12 652.504 248.147 652.931 246.84C653.358 245.507 653.571 243.8 653.571 241.72C653.571 239.8 653.384 238.24 653.011 237.04C652.638 235.813 652.078 234.907 651.331 234.32C650.611 233.733 649.691 233.44 648.571 233.44C647.531 233.44 646.611 233.667 645.811 234.12C645.038 234.547 644.438 235.173 644.011 236C643.611 236.827 643.411 237.84 643.411 239.04V248.84C643.998 249.373 644.691 249.813 645.491 250.16C646.318 250.507 647.198 250.68 648.131 250.68ZM681.178 252.56C679.258 252.56 677.578 252.147 676.138 251.32C674.725 250.493 673.632 249.307 672.858 247.76C672.085 246.187 671.698 244.32 671.698 242.16C671.698 239.84 672.112 237.853 672.938 236.2C673.765 234.52 674.925 233.24 676.418 232.36C677.912 231.48 679.645 231.04 681.618 231.04C683.112 231.04 684.418 231.333 685.538 231.92C686.658 232.507 687.525 233.347 688.138 234.44C688.778 235.507 689.098 236.773 689.098 238.24C689.098 238.747 689.058 239.267 688.978 239.8C688.925 240.333 688.845 240.893 688.738 241.48H676.138C676.138 243.24 676.392 244.72 676.898 245.92C677.432 247.093 678.165 247.987 679.098 248.6C680.032 249.187 681.125 249.48 682.378 249.48C683.472 249.48 684.498 249.28 685.458 248.88C686.445 248.48 687.392 247.853 688.298 247L689.338 248C688.352 249.52 687.152 250.667 685.738 251.44C684.352 252.187 682.832 252.56 681.178 252.56ZM676.138 239.8H684.858C684.885 239.533 684.898 239.24 684.898 238.92C684.925 238.6 684.938 238.267 684.938 237.92C684.938 236.053 684.632 234.707 684.018 233.88C683.405 233.053 682.472 232.64 681.218 232.64C680.232 232.64 679.378 232.893 678.658 233.4C677.965 233.907 677.405 234.693 676.978 235.76C676.552 236.8 676.272 238.147 676.138 239.8ZM702.326 252V250.6L704.206 250.32C704.633 250.24 704.913 250.08 705.046 249.84C705.18 249.573 705.246 249.093 705.246 248.4V235.84C705.246 234.907 705.166 234.28 705.006 233.96C704.846 233.64 704.473 233.453 703.886 233.4L701.966 233.16L702.166 231.76L708.526 231.32L708.886 231.6L709.046 235.32H709.126C709.793 233.96 710.753 232.907 712.006 232.16C713.26 231.413 714.606 231.04 716.046 231.04C717.46 231.04 718.646 231.307 719.606 231.84C720.566 232.347 721.286 233.12 721.766 234.16C722.246 235.173 722.486 236.427 722.486 237.92V248.68C722.486 249.293 722.566 249.707 722.726 249.92C722.886 250.133 723.22 250.28 723.726 250.36L725.526 250.6V252H715.486V250.64L717.166 250.4C717.673 250.293 717.993 250.133 718.126 249.92C718.286 249.707 718.366 249.307 718.366 248.72V238.56C718.366 237.307 718.246 236.32 718.006 235.6C717.766 234.853 717.366 234.32 716.806 234C716.273 233.68 715.526 233.52 714.566 233.52C713.553 233.52 712.646 233.747 711.846 234.2C711.073 234.627 710.46 235.253 710.006 236.08C709.58 236.88 709.366 237.84 709.366 238.96V248.56C709.366 249.147 709.433 249.56 709.566 249.8C709.7 250.04 709.966 250.2 710.366 250.28L712.366 250.64V252H702.326ZM745.281 252.56C744.134 252.56 743.161 252.36 742.361 251.96C741.587 251.533 741.001 250.88 740.601 250C740.201 249.12 740.001 247.987 740.001 246.6V233.44H737.001V231.96C737.987 231.853 738.787 231.573 739.401 231.12C740.041 230.667 740.534 229.96 740.881 229C741.227 228.04 741.454 226.773 741.561 225.2L743.721 224.92L744.161 225.16V231.6H750.161V233.44H744.161V246.2C744.161 247.373 744.361 248.253 744.761 248.84C745.187 249.4 745.894 249.68 746.881 249.68C747.547 249.68 748.187 249.56 748.801 249.32C749.441 249.08 750.054 248.72 750.641 248.24L751.361 249.32C750.534 250.36 749.614 251.16 748.601 251.72C747.614 252.28 746.507 252.56 745.281 252.56ZM773.062 252.56C771.062 252.56 769.315 252.147 767.822 251.32C766.355 250.467 765.222 249.28 764.422 247.76C763.622 246.213 763.222 244.373 763.222 242.24C763.222 239.893 763.649 237.893 764.502 236.24C765.355 234.56 766.555 233.28 768.102 232.4C769.675 231.493 771.515 231.04 773.622 231.04C775.569 231.04 777.262 231.453 778.702 232.28C780.142 233.08 781.249 234.253 782.022 235.8C782.822 237.32 783.222 239.147 783.222 241.28C783.222 243.573 782.795 245.573 781.942 247.28C781.115 248.96 779.942 250.267 778.422 251.2C776.902 252.107 775.115 252.56 773.062 252.56ZM773.662 250.72C774.755 250.72 775.675 250.413 776.422 249.8C777.195 249.187 777.769 248.253 778.142 247C778.515 245.747 778.702 244.147 778.702 242.2C778.702 240.653 778.569 239.293 778.302 238.12C778.062 236.92 777.689 235.933 777.182 235.16C776.675 234.387 776.062 233.813 775.342 233.44C774.649 233.04 773.849 232.84 772.942 232.84C771.822 232.84 770.875 233.133 770.102 233.72C769.329 234.28 768.729 235.173 768.302 236.4C767.902 237.6 767.702 239.147 767.702 241.04C767.702 243.2 767.942 245 768.422 246.44C768.929 247.853 769.622 248.92 770.502 249.64C771.382 250.36 772.435 250.72 773.662 250.72Z" fill="black" fill-opacity="0.25"/>
<g opacity="0.8">
<path d="M358.512 304.22C361.86 304.22 363.756 305.444 363.78 307.952L361.368 308.132C361.224 306.812 360.264 306.152 358.332 306.152C356.592 306.152 355.536 306.668 355.536 307.712C355.536 308.72 356.556 309.092 359.196 309.668C362.268 310.328 363.984 311.048 363.984 313.328C363.984 315.728 362.052 317.276 358.308 317.276C354.852 317.276 352.956 316.256 352.428 313.4L354.876 313.1C355.38 315.02 356.712 315.296 358.44 315.296C360.504 315.296 361.308 314.516 361.308 313.628C361.308 312.608 360.252 312.26 357.468 311.66C354.636 311.06 352.992 310.136 352.992 307.928C352.992 305.648 354.744 304.22 358.512 304.22ZM375.375 304.22C378.483 304.22 380.355 305.24 380.355 308.156V314.132C380.355 314.984 380.655 315.2 381.735 315.068V317C381.123 317.168 380.559 317.252 380.043 317.252C378.459 317.252 377.955 316.472 377.859 315.464H377.595C376.647 316.412 375.363 317.288 373.467 317.288C371.223 317.288 369.771 316.028 369.771 313.928C369.771 310.424 373.779 309.956 377.691 310.004V308.3C377.691 306.512 376.659 306.068 375.171 306.08C373.707 306.08 372.639 306.548 372.627 308L372.615 308.504H370.191V307.868C370.191 305.732 371.643 304.22 375.375 304.22ZM372.543 313.58C372.543 314.696 373.371 315.32 374.739 315.32C375.867 315.32 376.815 314.888 377.691 314.252V311.492C377.355 311.456 377.019 311.432 376.683 311.432C374.079 311.432 372.543 312.056 372.543 313.58ZM398.37 317H395.706V308.672C395.706 306.86 394.782 306.38 393.63 306.38C392.31 306.38 391.218 307.028 390.306 308V317H387.642V304.508H389.934L390.126 306.32H390.474C391.542 305.18 392.826 304.22 394.866 304.22C397.062 304.22 398.37 305.324 398.37 307.976V317ZM404.156 310.736C404.156 306.452 406.724 304.22 410.552 304.22C414.104 304.22 416.18 306.08 416.18 309.824V310.964H406.868C406.94 313.736 408.224 315.152 410.456 315.152C411.884 315.152 412.988 314.576 413.552 313.28L416.132 313.676C415.268 316.148 413.084 317.288 410.444 317.288C406.724 317.288 404.156 315.044 404.156 310.736ZM407 309.284H413.576C413.576 307.256 412.28 306.344 410.468 306.344C408.644 306.344 407.384 307.292 407 309.284ZM438.722 310.784C438.722 306.824 440.426 304.232 443.618 304.232C445.442 304.232 446.654 305.06 447.398 306.116H447.554V298.64H450.218V317H447.926L447.746 315.404H447.41C446.558 316.46 445.322 317.3 443.522 317.3C440.354 317.3 438.722 314.672 438.722 310.784ZM441.446 310.784C441.446 313.664 442.55 315.056 444.686 315.056C445.682 315.056 446.63 314.756 447.554 313.94V307.568C446.63 306.752 445.67 306.452 444.71 306.452C442.598 306.452 441.446 307.844 441.446 310.784ZM456.005 310.736C456.005 306.452 458.573 304.22 462.401 304.22C465.953 304.22 468.029 306.08 468.029 309.824V310.964H458.717C458.789 313.736 460.073 315.152 462.305 315.152C463.733 315.152 464.837 314.576 465.401 313.28L467.981 313.676C467.117 316.148 464.933 317.288 462.293 317.288C458.573 317.288 456.005 315.044 456.005 310.736ZM458.849 309.284H465.425C465.425 307.256 464.129 306.344 462.317 306.344C460.493 306.344 459.233 307.292 458.849 309.284ZM485.504 300.344C484.568 300.128 483.728 299.996 482.756 299.996C480.692 299.996 479.672 300.596 479.672 303.272V304.508H485.084V306.668H479.672V314.84H483.836V317H473.876V314.84H477.008V306.668H473.156V304.508H477.008V303.692C477.008 299.276 479.012 297.668 482.66 297.668C483.68 297.668 484.616 297.8 485.504 298.052V300.344ZM496.354 304.22C499.462 304.22 501.334 305.24 501.334 308.156V314.132C501.334 314.984 501.634 315.2 502.714 315.068V317C502.102 317.168 501.538 317.252 501.022 317.252C499.438 317.252 498.934 316.472 498.838 315.464H498.574C497.626 316.412 496.342 317.288 494.446 317.288C492.202 317.288 490.75 316.028 490.75 313.928C490.75 310.424 494.758 309.956 498.67 310.004V308.3C498.67 306.512 497.638 306.068 496.15 306.08C494.686 306.08 493.618 306.548 493.606 308L493.594 308.504H491.17V307.868C491.17 305.732 492.622 304.22 496.354 304.22ZM493.522 313.58C493.522 314.696 494.35 315.32 495.718 315.32C496.846 315.32 497.794 314.888 498.67 314.252V311.492C498.334 311.456 497.998 311.432 497.662 311.432C495.058 311.432 493.522 312.056 493.522 313.58ZM508.621 304.508H511.285V312.824C511.285 314.648 512.209 315.128 513.361 315.128C514.693 315.128 515.785 314.492 516.685 313.508V304.508H519.349V317H517.057L516.865 315.176H516.517C515.461 316.328 514.177 317.276 512.137 317.276C509.929 317.276 508.621 316.172 508.621 313.532V304.508ZM525.664 317V314.84H529.936L529.948 300.776H525.676V298.64L532.276 298.352L532.612 298.676L532.6 314.84H536.872V317H525.664ZM545.719 312.92V306.668H542.287V304.508H545.719V300.764H548.383V304.508H553.807V306.668H548.383V313.028C548.383 314.564 549.103 315.2 550.183 315.2C551.299 315.2 551.995 314.516 551.995 313.04V312.368H553.939V312.908C553.939 315.812 552.655 317.276 549.811 317.276C547.087 317.276 545.719 315.968 545.719 312.92ZM565.906 304.22C569.254 304.22 571.15 305.444 571.174 307.952L568.762 308.132C568.618 306.812 567.658 306.152 565.726 306.152C563.986 306.152 562.93 306.668 562.93 307.712C562.93 308.72 563.95 309.092 566.59 309.668C569.662 310.328 571.378 311.048 571.378 313.328C571.378 315.728 569.446 317.276 565.702 317.276C562.246 317.276 560.35 316.256 559.822 313.4L562.27 313.1C562.774 315.02 564.106 315.296 565.834 315.296C567.898 315.296 568.702 314.516 568.702 313.628C568.702 312.608 567.646 312.26 564.862 311.66C562.03 311.06 560.386 310.136 560.386 307.928C560.386 305.648 562.138 304.22 565.906 304.22Z" fill="#40A02B"/>
<path d="M589.452 311.396C588.132 311.396 587.064 310.52 587.064 309.08C587.064 307.628 588.132 306.776 589.452 306.776C590.76 306.776 591.816 307.628 591.816 309.08C591.816 310.52 590.76 311.396 589.452 311.396Z" fill="#BAC2DE"/>
<path d="M606.836 317V314.84H611.108V306.644H606.836V304.508L613.448 304.22L613.772 304.544V314.84H618.044V317H606.836ZM610.088 299.996C610.088 298.928 610.856 298.28 611.96 298.28C613.076 298.28 613.832 298.928 613.832 299.996C613.832 301.064 613.076 301.736 611.96 301.736C610.856 301.736 610.088 301.064 610.088 299.996ZM635.087 317H632.423V308.672C632.423 306.86 631.499 306.38 630.347 306.38C629.027 306.38 627.935 307.028 627.023 308V317H624.359V304.508H626.651L626.843 306.32H627.191C628.259 305.18 629.543 304.22 631.583 304.22C633.779 304.22 635.087 305.324 635.087 307.976V317ZM647.078 304.22C650.426 304.22 652.322 305.444 652.346 307.952L649.934 308.132C649.79 306.812 648.83 306.152 646.898 306.152C645.158 306.152 644.102 306.668 644.102 307.712C644.102 308.72 645.122 309.092 647.762 309.668C650.834 310.328 652.55 311.048 652.55 313.328C652.55 315.728 650.618 317.276 646.874 317.276C643.418 317.276 641.522 316.256 640.994 313.4L643.442 313.1C643.946 315.02 645.278 315.296 647.006 315.296C649.07 315.296 649.874 314.516 649.874 313.628C649.874 312.608 648.818 312.26 646.034 311.66C643.202 311.06 641.558 310.136 641.558 307.928C641.558 305.648 643.31 304.22 647.078 304.22ZM663.94 304.22C667.048 304.22 668.92 305.24 668.92 308.156V314.132C668.92 314.984 669.22 315.2 670.3 315.068V317C669.688 317.168 669.124 317.252 668.608 317.252C667.024 317.252 666.52 316.472 666.424 315.464H666.16C665.212 316.412 663.928 317.288 662.032 317.288C659.788 317.288 658.336 316.028 658.336 313.928C658.336 310.424 662.344 309.956 666.256 310.004V308.3C666.256 306.512 665.224 306.068 663.736 306.08C662.272 306.08 661.204 306.548 661.192 308L661.18 308.504H658.756V307.868C658.756 305.732 660.208 304.22 663.94 304.22ZM661.108 313.58C661.108 314.696 661.936 315.32 663.304 315.32C664.432 315.32 665.38 314.888 666.256 314.252V311.492C665.92 311.456 665.584 311.432 665.248 311.432C662.644 311.432 661.108 312.056 661.108 313.58ZM686.935 317H684.271V308.672C684.271 306.86 683.347 306.38 682.195 306.38C680.875 306.38 679.783 307.028 678.871 308V317H676.207V304.508H678.499L678.691 306.32H679.039C680.107 305.18 681.391 304.22 683.431 304.22C685.627 304.22 686.935 305.324 686.935 307.976V317ZM692.722 310.736C692.722 306.452 695.29 304.22 699.118 304.22C702.67 304.22 704.746 306.08 704.746 309.824V310.964H695.434C695.506 313.736 696.79 315.152 699.022 315.152C700.45 315.152 701.554 314.576 702.118 313.28L704.698 313.676C703.834 316.148 701.65 317.288 699.01 317.288C695.29 317.288 692.722 315.044 692.722 310.736ZM695.566 309.284H702.142C702.142 307.256 700.846 306.344 699.034 306.344C697.21 306.344 695.95 307.292 695.566 309.284ZM739.396 313.136C738.688 316.028 736.312 317.288 733.528 317.288C729.796 317.288 727.288 315.044 727.288 310.736C727.288 306.308 729.964 304.22 733.66 304.22C736.768 304.22 739.096 305.66 739.396 308.708L736.792 308.936C736.516 307.184 735.304 306.344 733.588 306.344C731.236 306.344 730.012 307.892 730.012 310.736C730.012 313.724 731.356 315.152 733.552 315.152C735.256 315.152 736.36 314.3 736.828 312.764L739.396 313.136ZM745.338 304.508H748.002V312.824C748.002 314.648 748.926 315.128 750.078 315.128C751.41 315.128 752.502 314.492 753.402 313.508V304.508H756.066V317H753.774L753.582 315.176H753.234C752.178 316.328 750.894 317.276 748.854 317.276C746.646 317.276 745.338 316.172 745.338 313.532V304.508ZM768.057 304.22C771.405 304.22 773.301 305.444 773.325 307.952L770.913 308.132C770.769 306.812 769.809 306.152 767.877 306.152C766.137 306.152 765.081 306.668 765.081 307.712C765.081 308.72 766.101 309.092 768.741 309.668C771.813 310.328 773.529 311.048 773.529 313.328C773.529 315.728 771.597 317.276 767.853 317.276C764.397 317.276 762.501 316.256 761.973 313.4L764.421 313.1C764.925 315.02 766.257 315.296 767.985 315.296C770.049 315.296 770.853 314.516 770.853 313.628C770.853 312.608 769.797 312.26 767.013 311.66C764.181 311.06 762.537 310.136 762.537 307.928C762.537 305.648 764.289 304.22 768.057 304.22ZM782.436 312.92V306.668H779.004V304.508H782.436V300.764H785.1V304.508H790.524V306.668H785.1V313.028C785.1 314.564 785.82 315.2 786.9 315.2C788.016 315.2 788.712 314.516 788.712 313.04V312.368H790.656V312.908C790.656 315.812 789.372 317.276 786.528 317.276C783.804 317.276 782.436 315.968 782.436 312.92ZM808.683 310.784C808.683 315.224 805.923 317.288 802.551 317.288C799.191 317.288 796.419 315.224 796.419 310.784C796.419 306.344 799.191 304.22 802.551 304.22C805.923 304.22 808.683 306.344 808.683 310.784ZM799.131 310.784C799.131 313.892 800.559 315.152 802.551 315.152C804.555 315.152 805.971 313.892 805.971 310.784C805.971 307.664 804.555 306.344 802.551 306.344C800.559 306.344 799.131 307.664 799.131 310.784ZM822.042 317H819.594V307.868C819.594 306.764 819.006 306.452 818.358 306.452C817.578 306.452 816.942 306.92 816.462 307.568V317H814.026V304.508H816.102L816.282 306.368H816.486C817.074 305.144 818.154 304.232 819.618 304.232C820.938 304.232 821.802 304.916 821.994 306.368H822.102C822.678 305.144 823.722 304.232 825.186 304.232C826.698 304.232 827.61 305.12 827.61 307.028L827.622 317H825.174V307.868C825.174 306.764 824.586 306.452 823.926 306.452C823.146 306.452 822.51 306.908 822.03 307.544L822.042 317ZM833.613 317V314.84H836.841V306.644H833.613V304.508L839.169 304.22L839.505 304.544V314.84H842.721V317H833.613ZM835.833 300.068C835.833 299 836.601 298.352 837.705 298.352C838.821 298.352 839.577 299 839.577 300.068C839.577 301.136 838.821 301.808 837.705 301.808C836.601 301.808 835.833 301.136 835.833 300.068ZM848.915 304.508H859.463V306.092L852.539 314.84H859.895V317H848.915V315.404L855.827 306.668H848.915V304.508ZM871.334 304.22C874.442 304.22 876.314 305.24 876.314 308.156V314.132C876.314 314.984 876.614 315.2 877.694 315.068V317C877.082 317.168 876.518 317.252 876.002 317.252C874.418 317.252 873.914 316.472 873.818 315.464H873.554C872.606 316.412 871.322 317.288 869.426 317.288C867.182 317.288 865.73 316.028 865.73 313.928C865.73 310.424 869.738 309.956 873.65 310.004V308.3C873.65 306.512 872.618 306.068 871.13 306.08C869.666 306.08 868.598 306.548 868.586 308L868.574 308.504H866.15V307.868C866.15 305.732 867.602 304.22 871.334 304.22ZM868.502 313.58C868.502 314.696 869.33 315.32 870.698 315.32C871.826 315.32 872.774 314.888 873.65 314.252V311.492C873.314 311.456 872.978 311.432 872.642 311.432C870.038 311.432 868.502 312.056 868.502 313.58ZM886.133 312.92V306.668H882.701V304.508H886.133V300.764H888.797V304.508H894.221V306.668H888.797V313.028C888.797 314.564 889.517 315.2 890.597 315.2C891.713 315.2 892.409 314.516 892.409 313.04V312.368H894.353V312.908C894.353 315.812 893.069 317.276 890.225 317.276C887.501 317.276 886.133 315.968 886.133 312.92ZM900.644 317V314.84H904.916V306.644H900.644V304.508L907.256 304.22L907.58 304.544V314.84H911.852V317H900.644ZM903.896 299.996C903.896 298.928 904.664 298.28 905.768 298.28C906.884 298.28 907.64 298.928 907.64 299.996C907.64 301.064 906.884 301.736 905.768 301.736C904.664 301.736 903.896 301.064 903.896 299.996ZM929.663 310.784C929.663 315.224 926.903 317.288 923.531 317.288C920.171 317.288 917.399 315.224 917.399 310.784C917.399 306.344 920.171 304.22 923.531 304.22C926.903 304.22 929.663 306.344 929.663 310.784ZM920.111 310.784C920.111 313.892 921.539 315.152 923.531 315.152C925.535 315.152 926.951 313.892 926.951 310.784C926.951 307.664 925.535 306.344 923.531 306.344C921.539 306.344 920.111 307.664 920.111 310.784ZM946.177 317H943.513V308.672C943.513 306.86 942.589 306.38 941.437 306.38C940.117 306.38 939.025 307.028 938.113 308V317H935.449V304.508H937.741L937.933 306.32H938.281C939.349 305.18 940.633 304.22 942.673 304.22C944.869 304.22 946.177 305.324 946.177 307.976V317Z" fill="#179299"/>
</g>
</svg>
