<svg width="1300" height="350" viewBox="0 0 1300 350" fill="none" xmlns="http://www.w3.org/2000/svg">
<path d="M603.045 143.705V85.5227H616.5V89.9773H608.136V139.25H616.5V143.705H603.045Z" fill="#32C572"/>
<path d="M643.02 129.25V126.018L647.34 124.258V105.666C647.34 101.602 645.228 100.194 642.412 100.194C640.204 100.194 637.196 100.898 633.772 102.786V124.322L637.996 126.018V129.25H623.5V126.018L627.82 124.258V102.338L622.22 101.474V97.922L632.588 95.522L633.42 95.874V99.554C637.612 96.898 641.452 95.362 645.196 95.362C650.668 95.362 653.292 98.466 653.292 104.418V124.322L657.516 126.018V129.25H643.02Z" fill="#E6EBF9"/>
<path d="M675.136 85.5227V143.705H661.682V139.25H670.045V89.9773H661.682V85.5227H675.136Z" fill="#32C572"/>
<path d="M686.688 80.038C686.688 85.858 689.4 89.014 692.76 92.05H689.616C686.796 89.914 683.292 86.494 683.292 80.038C683.292 73.606 686.796 70.162 689.616 68.026H692.76C689.4 71.062 686.688 74.218 686.688 80.038Z" fill="#E64553"/>
<path d="M696.492 87.25V85.762L701.172 84.682V72.646L696.492 74.338V72.622L701.856 69.73H704.112V84.706L708.084 85.762V87.25H696.492Z" fill="#E6EBF9"/>
<path d="M717.192 80.038C717.192 74.218 714.48 71.062 711.12 68.026H714.264C717.084 70.162 720.588 73.582 720.588 80.038C720.588 86.47 717.084 89.914 714.264 92.05H711.12C714.48 89.014 717.192 85.858 717.192 80.038Z" fill="#E64553"/>
<path d="M566.92 252V250.6L568.8 250.32C569.227 250.24 569.507 250.08 569.64 249.84C569.773 249.573 569.84 249.093 569.84 248.4V235.84C569.84 234.907 569.76 234.28 569.6 233.96C569.44 233.64 569.067 233.453 568.48 233.4L566.56 233.16L566.76 231.76L573.12 231.32L573.48 231.6L573.64 235.32H573.72C574.387 233.96 575.347 232.907 576.6 232.16C577.853 231.413 579.2 231.04 580.64 231.04C582.053 231.04 583.24 231.307 584.2 231.84C585.16 232.347 585.88 233.12 586.36 234.16C586.84 235.173 587.08 236.427 587.08 237.92V248.68C587.08 249.293 587.16 249.707 587.32 249.92C587.48 250.133 587.813 250.28 588.32 250.36L590.12 250.6V252H580.08V250.64L581.76 250.4C582.267 250.293 582.587 250.133 582.72 249.92C582.88 249.707 582.96 249.307 582.96 248.72V238.56C582.96 237.307 582.84 236.32 582.6 235.6C582.36 234.853 581.96 234.32 581.4 234C580.867 233.68 580.12 233.52 579.16 233.52C578.147 233.52 577.24 233.747 576.44 234.2C575.667 234.627 575.053 235.253 574.6 236.08C574.173 236.88 573.96 237.84 573.96 238.96V248.56C573.96 249.147 574.027 249.56 574.16 249.8C574.293 250.04 574.56 250.2 574.96 250.28L576.96 250.64V252H566.92ZM612.656 252.56C610.656 252.56 608.909 252.147 607.416 251.32C605.949 250.467 604.816 249.28 604.016 247.76C603.216 246.213 602.816 244.373 602.816 242.24C602.816 239.893 603.242 237.893 604.096 236.24C604.949 234.56 606.149 233.28 607.696 232.4C609.269 231.493 611.109 231.04 613.216 231.04C615.162 231.04 616.856 231.453 618.296 232.28C619.736 233.08 620.842 234.253 621.616 235.8C622.416 237.32 622.816 239.147 622.816 241.28C622.816 243.573 622.389 245.573 621.536 247.28C620.709 248.96 619.536 250.267 618.016 251.2C616.496 252.107 614.709 252.56 612.656 252.56ZM613.256 250.72C614.349 250.72 615.269 250.413 616.016 249.8C616.789 249.187 617.362 248.253 617.736 247C618.109 245.747 618.296 244.147 618.296 242.2C618.296 240.653 618.162 239.293 617.896 238.12C617.656 236.92 617.282 235.933 616.776 235.16C616.269 234.387 615.656 233.813 614.936 233.44C614.242 233.04 613.442 232.84 612.536 232.84C611.416 232.84 610.469 233.133 609.696 233.72C608.922 234.28 608.322 235.173 607.896 236.4C607.496 237.6 607.296 239.147 607.296 241.04C607.296 243.2 607.536 245 608.016 246.44C608.522 247.853 609.216 248.92 610.096 249.64C610.976 250.36 612.029 250.72 613.256 250.72ZM636.139 252V250.6L638.019 250.28C638.445 250.2 638.725 250.04 638.859 249.8C638.992 249.533 639.059 249.053 639.059 248.36V235.88C639.059 234.947 638.979 234.32 638.819 234C638.659 233.653 638.285 233.453 637.699 233.4L635.779 233.2L635.979 231.76L642.259 231.32L642.619 231.6L642.899 235.36H642.979C643.645 233.973 644.499 232.907 645.539 232.16C646.579 231.413 647.699 231.04 648.899 231.04C650.179 231.04 651.192 231.387 651.939 232.08C652.685 232.747 653.059 233.64 653.059 234.76C653.059 235.427 652.952 236 652.739 236.48C652.552 236.933 652.245 237.293 651.819 237.56C651.419 237.8 650.912 237.92 650.299 237.92C649.499 237.92 648.885 237.747 648.459 237.4C648.059 237.053 647.859 236.613 647.859 236.08C647.859 235.84 647.899 235.6 647.979 235.36C648.059 235.12 648.179 234.84 648.339 234.52C648.499 234.2 648.699 233.84 648.939 233.44C648.325 233.2 647.672 233.173 646.979 233.36C646.312 233.547 645.685 233.92 645.099 234.48C644.539 235.013 644.072 235.693 643.699 236.52C643.352 237.32 643.179 238.187 643.179 239.12V248.44C643.179 249.08 643.245 249.52 643.379 249.76C643.512 249.973 643.792 250.107 644.219 250.16L647.539 250.6V252H636.139ZM665.076 252V250.56L667.236 250.24C667.716 250.187 668.022 250.027 668.156 249.76C668.289 249.493 668.356 249 668.356 248.28V235.96C668.356 235 668.276 234.36 668.116 234.04C667.956 233.72 667.569 233.52 666.956 233.44L665.076 233.24L665.236 231.76L672.116 231.44L672.516 231.64V248.44C672.516 249 672.582 249.427 672.716 249.72C672.849 249.987 673.169 250.16 673.676 250.24L675.836 250.6V252H665.076ZM669.876 227.28C669.049 227.28 668.369 227.027 667.836 226.52C667.302 226.013 667.036 225.347 667.036 224.52C667.036 223.72 667.302 223.067 667.836 222.56C668.369 222.027 669.049 221.76 669.876 221.76C670.756 221.76 671.449 222.013 671.956 222.52C672.489 223.027 672.756 223.693 672.756 224.52C672.756 225.32 672.489 225.987 671.956 226.52C671.422 227.027 670.729 227.28 669.876 227.28ZM688.395 252V250.6L690.435 250.28C690.942 250.227 691.275 250.067 691.435 249.8C691.595 249.533 691.675 249.027 691.675 248.28V233.44H688.635V232L691.675 231.68V230.2C691.675 228.76 691.835 227.453 692.155 226.28C692.502 225.107 692.995 224.107 693.635 223.28C694.275 222.453 695.062 221.827 695.995 221.4C696.928 220.947 698.008 220.72 699.235 220.72C700.408 220.72 701.422 220.893 702.275 221.24C703.128 221.56 703.782 222.013 704.235 222.6C704.688 223.187 704.915 223.853 704.915 224.6C704.915 225.293 704.702 225.893 704.275 226.4C703.848 226.88 703.262 227.12 702.515 227.12C701.848 227.12 701.315 226.973 700.915 226.68C700.542 226.387 700.355 226 700.355 225.52C700.355 225.173 700.435 224.827 700.595 224.48C700.755 224.133 701.075 223.587 701.555 222.84C701.262 222.68 700.902 222.547 700.475 222.44C700.048 222.333 699.622 222.28 699.195 222.28C698.395 222.28 697.742 222.467 697.235 222.84C696.755 223.213 696.395 223.787 696.155 224.56C695.915 225.333 695.795 226.36 695.795 227.64V231.6H701.635V233.44H695.795V248.44C695.795 249.053 695.875 249.493 696.035 249.76C696.222 250.027 696.582 250.187 697.115 250.24L700.315 250.6V252H688.395ZM716.588 261.2C715.334 261.2 714.334 260.907 713.588 260.32C712.868 259.733 712.508 258.947 712.508 257.96C712.508 257.213 712.734 256.587 713.188 256.08C713.641 255.573 714.254 255.32 715.028 255.32C715.694 255.32 716.214 255.467 716.588 255.76C716.988 256.08 717.201 256.493 717.228 257C717.254 257.213 717.241 257.507 717.188 257.88C717.134 258.28 717.028 258.813 716.868 259.48C717.454 259.507 718.014 259.387 718.548 259.12C719.081 258.88 719.614 258.373 720.148 257.6C720.681 256.853 721.254 255.733 721.868 254.24L722.668 252.36L715.548 235.4C715.228 234.627 714.961 234.12 714.748 233.88C714.561 233.613 714.254 233.44 713.828 233.36L712.508 233L712.788 231.6H722.588V232.96L720.748 233.2C720.241 233.253 719.908 233.427 719.748 233.72C719.614 233.987 719.681 234.493 719.948 235.24L724.748 247.2H724.908L729.508 235.44C729.801 234.773 729.868 234.28 729.708 233.96C729.548 233.613 729.174 233.387 728.588 233.28L726.988 232.96L727.228 231.6H734.828V233L733.428 233.28C733.001 233.387 732.668 233.56 732.428 233.8C732.188 234.04 731.908 234.573 731.588 235.4L724.148 253.76C723.588 255.2 723.028 256.4 722.467 257.36C721.908 258.32 721.334 259.08 720.748 259.64C720.161 260.2 719.534 260.6 718.868 260.84C718.201 261.08 717.441 261.2 716.588 261.2Z" fill="#BAC2DE"/>
<g opacity="0.8">
<path d="M358.488 304.388C361.74 304.388 363.612 305.564 363.708 308.06L361.644 308.204C361.488 306.8 360.408 306.08 358.332 306.08C356.46 306.08 355.284 306.632 355.284 307.796C355.284 308.852 356.28 309.284 359.028 309.848C362.316 310.52 363.852 311.276 363.852 313.424C363.852 315.74 362.016 317.276 358.392 317.276C354.984 317.276 353.04 316.304 352.488 313.424L354.576 313.16C355.152 315.32 356.724 315.524 358.5 315.524C360.708 315.524 361.584 314.648 361.584 313.676C361.584 312.596 360.552 312.212 357.624 311.612C354.66 311 353.112 310.112 353.112 308C353.112 305.804 354.78 304.388 358.488 304.388ZM375.435 304.388C378.447 304.388 380.211 305.384 380.211 308.288V314.396C380.211 315.284 380.547 315.512 381.675 315.344V317C381.111 317.168 380.595 317.24 380.139 317.24C378.651 317.24 378.159 316.448 378.075 315.464H377.859C376.863 316.364 375.603 317.288 373.611 317.288C371.331 317.288 369.879 316.064 369.879 313.964C369.879 310.52 373.755 310.076 377.943 310.1V308.42C377.943 306.44 376.827 305.996 375.195 306.008C373.635 306.02 372.447 306.464 372.423 308.108V308.636H370.299V307.988C370.299 305.876 371.751 304.388 375.435 304.388ZM372.255 313.688C372.255 314.912 373.143 315.572 374.631 315.572C375.927 315.572 376.935 315.068 377.943 314.336V311.432C377.559 311.396 377.163 311.372 376.803 311.372C373.971 311.372 372.255 311.996 372.255 313.688ZM398.178 317H395.91V308.78C395.91 306.776 394.866 306.248 393.618 306.248C392.178 306.248 391.026 306.956 390.102 308.024V317H387.834V304.676H389.754L389.958 306.44H390.258C391.23 305.396 392.514 304.388 394.602 304.388C396.798 304.388 398.178 305.504 398.178 308.18V317ZM404.276 310.82C404.276 306.656 406.76 304.388 410.552 304.388C414.044 304.388 416.084 306.212 416.084 309.836V310.916H406.604C406.64 313.916 408.068 315.428 410.48 315.428C412.052 315.428 413.24 314.792 413.828 313.388L416.036 313.76C415.196 316.064 413.18 317.288 410.468 317.288C406.784 317.288 404.276 315.056 404.276 310.82ZM406.724 309.404H413.864C413.852 307.208 412.412 306.248 410.48 306.248C408.464 306.248 407.12 307.316 406.724 309.404ZM438.842 310.868C438.842 306.848 440.666 304.388 443.774 304.388C445.586 304.388 446.81 305.216 447.602 306.308H447.758V298.64H450.026V317H448.106L447.926 315.38H447.614C446.726 316.472 445.466 317.3 443.678 317.3C440.558 317.3 438.842 314.78 438.842 310.868ZM441.182 310.868C441.182 313.844 442.37 315.368 444.602 315.368C445.706 315.368 446.726 314.984 447.758 313.952V307.712C446.75 306.68 445.718 306.308 444.638 306.308C442.442 306.308 441.182 307.796 441.182 310.868ZM456.125 310.82C456.125 306.656 458.609 304.388 462.401 304.388C465.893 304.388 467.933 306.212 467.933 309.836V310.916H458.453C458.489 313.916 459.917 315.428 462.329 315.428C463.901 315.428 465.089 314.792 465.677 313.388L467.885 313.76C467.045 316.064 465.029 317.288 462.317 317.288C458.633 317.288 456.125 315.056 456.125 310.82ZM458.573 309.404H465.713C465.701 307.208 464.261 306.248 462.329 306.248C460.313 306.248 458.969 307.316 458.573 309.404ZM485.432 300.092C484.508 299.876 483.68 299.744 482.684 299.744C480.596 299.744 479.384 300.32 479.384 303.284V304.676H484.988V306.512H479.384V315.164H483.752V317H473.852V315.164H477.116V306.512H473.156V304.676H477.116V303.488C477.116 299.216 479.192 297.728 482.624 297.728C483.596 297.728 484.532 297.848 485.432 298.112V300.092ZM496.414 304.388C499.426 304.388 501.19 305.384 501.19 308.288V314.396C501.19 315.284 501.526 315.512 502.654 315.344V317C502.09 317.168 501.574 317.24 501.118 317.24C499.63 317.24 499.138 316.448 499.054 315.464H498.838C497.842 316.364 496.582 317.288 494.59 317.288C492.31 317.288 490.858 316.064 490.858 313.964C490.858 310.52 494.734 310.076 498.922 310.1V308.42C498.922 306.44 497.806 305.996 496.174 306.008C494.614 306.02 493.426 306.464 493.402 308.108V308.636H491.278V307.988C491.278 305.876 492.73 304.388 496.414 304.388ZM493.234 313.688C493.234 314.912 494.122 315.572 495.61 315.572C496.906 315.572 497.914 315.068 498.922 314.336V311.432C498.538 311.396 498.142 311.372 497.782 311.372C494.95 311.372 493.234 311.996 493.234 313.688ZM508.813 304.676H511.081V312.884C511.081 314.9 512.125 315.416 513.373 315.416C514.813 315.416 515.965 314.72 516.889 313.652V304.676H519.157V317H517.237L517.033 315.236H516.733C515.761 316.268 514.477 317.276 512.389 317.276C510.193 317.276 508.813 316.16 508.813 313.496V304.676ZM525.76 317V315.164H530.128L530.14 300.44H525.76V298.64L532.108 298.376L532.408 298.652V315.164H536.776V317H525.76ZM545.863 312.884V306.512H542.287V304.676H545.863V300.812H548.143V304.676H553.807V306.512H548.143V313.028C548.143 314.732 548.887 315.488 550.147 315.488C551.467 315.488 552.175 314.66 552.175 313.028V312.428H553.891V312.872C553.891 315.752 552.727 317.276 549.871 317.276C547.207 317.276 545.863 315.968 545.863 312.884ZM565.882 304.388C569.134 304.388 571.006 305.564 571.102 308.06L569.038 308.204C568.882 306.8 567.802 306.08 565.726 306.08C563.854 306.08 562.678 306.632 562.678 307.796C562.678 308.852 563.674 309.284 566.422 309.848C569.71 310.52 571.246 311.276 571.246 313.424C571.246 315.74 569.41 317.276 565.786 317.276C562.378 317.276 560.434 316.304 559.882 313.424L561.97 313.16C562.546 315.32 564.118 315.524 565.894 315.524C568.102 315.524 568.978 314.648 568.978 313.676C568.978 312.596 567.946 312.212 565.018 311.612C562.054 311 560.506 310.112 560.506 308C560.506 305.804 562.174 304.388 565.882 304.388Z" fill="#A6E3A1"/>
<path d="M589.452 311.396C588.132 311.396 587.064 310.52 587.064 309.08C587.064 307.628 588.132 306.776 589.452 306.776C590.76 306.776 591.816 307.628 591.816 309.08C591.816 310.52 590.76 311.396 589.452 311.396Z" fill="#BAC2DE"/>
<path d="M606.932 317V315.164H611.3V306.476H606.932V304.676L613.28 304.4L613.58 304.688V315.164H617.948V317H606.932ZM610.316 300.02C610.316 299.06 611 298.484 611.996 298.484C612.98 298.484 613.664 299.06 613.664 300.02C613.664 300.98 612.98 301.568 611.996 301.568C611 301.568 610.316 300.98 610.316 300.02ZM634.895 317H632.627V308.78C632.627 306.776 631.583 306.248 630.335 306.248C628.895 306.248 627.743 306.956 626.819 308.024V317H624.551V304.676H626.471L626.675 306.44H626.975C627.947 305.396 629.231 304.388 631.319 304.388C633.515 304.388 634.895 305.504 634.895 308.18V317ZM647.054 304.388C650.306 304.388 652.178 305.564 652.274 308.06L650.21 308.204C650.054 306.8 648.974 306.08 646.898 306.08C645.026 306.08 643.85 306.632 643.85 307.796C643.85 308.852 644.846 309.284 647.594 309.848C650.882 310.52 652.418 311.276 652.418 313.424C652.418 315.74 650.582 317.276 646.958 317.276C643.55 317.276 641.606 316.304 641.054 313.424L643.142 313.16C643.718 315.32 645.29 315.524 647.066 315.524C649.274 315.524 650.15 314.648 650.15 313.676C650.15 312.596 649.118 312.212 646.19 311.612C643.226 311 641.678 310.112 641.678 308C641.678 305.804 643.346 304.388 647.054 304.388ZM664 304.388C667.012 304.388 668.776 305.384 668.776 308.288V314.396C668.776 315.284 669.112 315.512 670.24 315.344V317C669.676 317.168 669.16 317.24 668.704 317.24C667.216 317.24 666.724 316.448 666.64 315.464H666.424C665.428 316.364 664.168 317.288 662.176 317.288C659.896 317.288 658.444 316.064 658.444 313.964C658.444 310.52 662.32 310.076 666.508 310.1V308.42C666.508 306.44 665.392 305.996 663.76 306.008C662.2 306.02 661.012 306.464 660.988 308.108V308.636H658.864V307.988C658.864 305.876 660.316 304.388 664 304.388ZM660.82 313.688C660.82 314.912 661.708 315.572 663.196 315.572C664.492 315.572 665.5 315.068 666.508 314.336V311.432C666.124 311.396 665.728 311.372 665.368 311.372C662.536 311.372 660.82 311.996 660.82 313.688ZM686.743 317H684.475V308.78C684.475 306.776 683.431 306.248 682.183 306.248C680.743 306.248 679.591 306.956 678.667 308.024V317H676.399V304.676H678.319L678.523 306.44H678.823C679.795 305.396 681.079 304.388 683.167 304.388C685.363 304.388 686.743 305.504 686.743 308.18V317ZM692.842 310.82C692.842 306.656 695.326 304.388 699.118 304.388C702.61 304.388 704.65 306.212 704.65 309.836V310.916H695.17C695.206 313.916 696.634 315.428 699.046 315.428C700.618 315.428 701.806 314.792 702.394 313.388L704.602 313.76C703.762 316.064 701.746 317.288 699.034 317.288C695.35 317.288 692.842 315.056 692.842 310.82ZM695.29 309.404H702.43C702.418 307.208 700.978 306.248 699.046 306.248C697.03 306.248 695.686 307.316 695.29 309.404ZM739.3 313.244C738.616 315.968 736.372 317.288 733.564 317.288C729.928 317.288 727.408 315.08 727.408 310.808C727.408 306.512 729.976 304.388 733.684 304.388C736.696 304.388 738.988 305.792 739.3 308.756L737.056 308.948C736.768 307.052 735.424 306.248 733.624 306.248C731.08 306.248 729.748 307.856 729.748 310.808C729.748 313.928 731.236 315.428 733.576 315.428C735.364 315.428 736.6 314.564 737.104 312.896L739.3 313.244ZM745.53 304.676H747.798V312.884C747.798 314.9 748.842 315.416 750.09 315.416C751.53 315.416 752.682 314.72 753.606 313.652V304.676H755.874V317H753.954L753.75 315.236H753.45C752.478 316.268 751.194 317.276 749.106 317.276C746.91 317.276 745.53 316.16 745.53 313.496V304.676ZM768.033 304.388C771.285 304.388 773.157 305.564 773.253 308.06L771.189 308.204C771.033 306.8 769.953 306.08 767.877 306.08C766.005 306.08 764.829 306.632 764.829 307.796C764.829 308.852 765.825 309.284 768.573 309.848C771.861 310.52 773.397 311.276 773.397 313.424C773.397 315.74 771.561 317.276 767.937 317.276C764.529 317.276 762.585 316.304 762.033 313.424L764.121 313.16C764.697 315.32 766.269 315.524 768.045 315.524C770.253 315.524 771.129 314.648 771.129 313.676C771.129 312.596 770.097 312.212 767.169 311.612C764.205 311 762.657 310.112 762.657 308C762.657 305.804 764.325 304.388 768.033 304.388ZM782.58 312.884V306.512H779.004V304.676H782.58V300.812H784.86V304.676H790.524V306.512H784.86V313.028C784.86 314.732 785.604 315.488 786.864 315.488C788.184 315.488 788.892 314.66 788.892 313.028V312.428H790.608V312.872C790.608 315.752 789.444 317.276 786.588 317.276C783.924 317.276 782.58 315.968 782.58 312.884ZM808.563 310.856C808.563 315.176 805.863 317.288 802.551 317.288C799.251 317.288 796.539 315.176 796.539 310.856C796.539 306.548 799.251 304.388 802.551 304.388C805.863 304.388 808.563 306.548 808.563 310.856ZM798.867 310.856C798.867 314 800.391 315.428 802.551 315.428C804.711 315.428 806.223 314 806.223 310.856C806.223 307.712 804.711 306.248 802.551 306.248C800.391 306.248 798.867 307.712 798.867 310.856ZM821.91 317H819.774V307.856C819.774 306.632 819.102 306.308 818.418 306.308C817.53 306.308 816.822 306.872 816.318 307.676V317H814.206V304.676H815.982L816.162 306.452H816.342C816.942 305.252 818.01 304.4 819.438 304.4C820.746 304.4 821.634 305.06 821.838 306.452H821.934C822.534 305.252 823.566 304.4 825.006 304.4C826.494 304.4 827.454 305.264 827.466 307.124L827.478 317H825.342V307.856C825.342 306.632 824.67 306.308 823.974 306.308C823.086 306.308 822.39 306.86 821.886 307.652L821.91 317ZM833.745 317V315.176H837.045V306.476H833.745V304.676L839.025 304.4L839.325 304.688V315.176H842.625V317H833.745ZM836.073 300.068C836.073 299.108 836.757 298.532 837.753 298.532C838.737 298.532 839.421 299.108 839.421 300.068C839.421 301.028 838.737 301.616 837.753 301.616C836.757 301.616 836.073 301.028 836.073 300.068ZM849.023 304.676H859.307V306.008L852.119 315.164H859.775V317H849.023V315.656L856.199 306.512H849.023V304.676ZM871.394 304.388C874.406 304.388 876.17 305.384 876.17 308.288V314.396C876.17 315.284 876.506 315.512 877.634 315.344V317C877.07 317.168 876.554 317.24 876.098 317.24C874.61 317.24 874.118 316.448 874.034 315.464H873.818C872.822 316.364 871.562 317.288 869.57 317.288C867.29 317.288 865.838 316.064 865.838 313.964C865.838 310.52 869.714 310.076 873.902 310.1V308.42C873.902 306.44 872.786 305.996 871.154 306.008C869.594 306.02 868.406 306.464 868.382 308.108V308.636H866.258V307.988C866.258 305.876 867.71 304.388 871.394 304.388ZM868.214 313.688C868.214 314.912 869.102 315.572 870.59 315.572C871.886 315.572 872.894 315.068 873.902 314.336V311.432C873.518 311.396 873.122 311.372 872.762 311.372C869.93 311.372 868.214 311.996 868.214 313.688ZM886.277 312.884V306.512H882.701V304.676H886.277V300.812H888.557V304.676H894.221V306.512H888.557V313.028C888.557 314.732 889.301 315.488 890.561 315.488C891.881 315.488 892.589 314.66 892.589 313.028V312.428H894.305V312.872C894.305 315.752 893.141 317.276 890.285 317.276C887.621 317.276 886.277 315.968 886.277 312.884ZM900.74 317V315.164H905.108V306.476H900.74V304.676L907.088 304.4L907.388 304.688V315.164H911.756V317H900.74ZM904.124 300.02C904.124 299.06 904.808 298.484 905.804 298.484C906.788 298.484 907.472 299.06 907.472 300.02C907.472 300.98 906.788 301.568 905.804 301.568C904.808 301.568 904.124 300.98 904.124 300.02ZM929.543 310.856C929.543 315.176 926.843 317.288 923.531 317.288C920.231 317.288 917.519 315.176 917.519 310.856C917.519 306.548 920.231 304.388 923.531 304.388C926.843 304.388 929.543 306.548 929.543 310.856ZM919.847 310.856C919.847 314 921.371 315.428 923.531 315.428C925.691 315.428 927.203 314 927.203 310.856C927.203 307.712 925.691 306.248 923.531 306.248C921.371 306.248 919.847 307.712 919.847 310.856ZM945.985 317H943.717V308.78C943.717 306.776 942.673 306.248 941.425 306.248C939.985 306.248 938.833 306.956 937.909 308.024V317H935.641V304.676H937.561L937.765 306.44H938.065C939.037 305.396 940.321 304.388 942.409 304.388C944.605 304.388 945.985 305.504 945.985 308.18V317Z" fill="#94E2D5"/>
</g>
</svg>
