<svg width="1300" height="350" viewBox="0 0 1300 350" fill="none" xmlns="http://www.w3.org/2000/svg">
<path d="M603.045 143.705V85.5227H616.5V89.9773H608.136V139.25H616.5V143.705H603.045Z" fill="#32C572"/>
<path d="M643.02 129.25V126.018L647.34 124.258V105.666C647.34 101.602 645.228 100.194 642.412 100.194C640.204 100.194 637.196 100.898 633.772 102.786V124.322L637.996 126.018V129.25H623.5V126.018L627.82 124.258V102.338L622.22 101.474V97.922L632.588 95.522L633.42 95.874V99.554C637.612 96.898 641.452 95.362 645.196 95.362C650.668 95.362 653.292 98.466 653.292 104.418V124.322L657.516 126.018V129.25H643.02Z" fill="#2A2D3F"/>
<path d="M675.136 85.5227V143.705H661.682V139.25H670.045V89.9773H661.682V85.5227H675.136Z" fill="#32C572"/>
<path d="M686.688 80.038C686.688 85.858 689.4 89.014 692.76 92.05H689.616C686.796 89.914 683.292 86.494 683.292 80.038C683.292 73.606 686.796 70.162 689.616 68.026H692.76C689.4 71.062 686.688 74.218 686.688 80.038Z" fill="#E64553"/>
<path d="M696.492 87.25V85.762L701.172 84.682V72.646L696.492 74.338V72.622L701.856 69.73H704.112V84.706L708.084 85.762V87.25H696.492Z" fill="#2A2D3F"/>
<path d="M717.192 80.038C717.192 74.218 714.48 71.062 711.12 68.026H714.264C717.084 70.162 720.588 73.582 720.588 80.038C720.588 86.47 717.084 89.914 714.264 92.05H711.12C714.48 89.014 717.192 85.858 717.192 80.038Z" fill="#E64553"/>
<path d="M566.92 252V250.6L568.8 250.32C569.227 250.24 569.507 250.08 569.64 249.84C569.773 249.573 569.84 249.093 569.84 248.4V235.84C569.84 234.907 569.76 234.28 569.6 233.96C569.44 233.64 569.067 233.453 568.48 233.4L566.56 233.16L566.76 231.76L573.12 231.32L573.48 231.6L573.64 235.32H573.72C574.387 233.96 575.347 232.907 576.6 232.16C577.853 231.413 579.2 231.04 580.64 231.04C582.053 231.04 583.24 231.307 584.2 231.84C585.16 232.347 585.88 233.12 586.36 234.16C586.84 235.173 587.08 236.427 587.08 237.92V248.68C587.08 249.293 587.16 249.707 587.32 249.92C587.48 250.133 587.813 250.28 588.32 250.36L590.12 250.6V252H580.08V250.64L581.76 250.4C582.267 250.293 582.587 250.133 582.72 249.92C582.88 249.707 582.96 249.307 582.96 248.72V238.56C582.96 237.307 582.84 236.32 582.6 235.6C582.36 234.853 581.96 234.32 581.4 234C580.867 233.68 580.12 233.52 579.16 233.52C578.147 233.52 577.24 233.747 576.44 234.2C575.667 234.627 575.053 235.253 574.6 236.08C574.173 236.88 573.96 237.84 573.96 238.96V248.56C573.96 249.147 574.027 249.56 574.16 249.8C574.293 250.04 574.56 250.2 574.96 250.28L576.96 250.64V252H566.92ZM612.656 252.56C610.656 252.56 608.909 252.147 607.416 251.32C605.949 250.467 604.816 249.28 604.016 247.76C603.216 246.213 602.816 244.373 602.816 242.24C602.816 239.893 603.242 237.893 604.096 236.24C604.949 234.56 606.149 233.28 607.696 232.4C609.269 231.493 611.109 231.04 613.216 231.04C615.162 231.04 616.856 231.453 618.296 232.28C619.736 233.08 620.842 234.253 621.616 235.8C622.416 237.32 622.816 239.147 622.816 241.28C622.816 243.573 622.389 245.573 621.536 247.28C620.709 248.96 619.536 250.267 618.016 251.2C616.496 252.107 614.709 252.56 612.656 252.56ZM613.256 250.72C614.349 250.72 615.269 250.413 616.016 249.8C616.789 249.187 617.362 248.253 617.736 247C618.109 245.747 618.296 244.147 618.296 242.2C618.296 240.653 618.162 239.293 617.896 238.12C617.656 236.92 617.282 235.933 616.776 235.16C616.269 234.387 615.656 233.813 614.936 233.44C614.242 233.04 613.442 232.84 612.536 232.84C611.416 232.84 610.469 233.133 609.696 233.72C608.922 234.28 608.322 235.173 607.896 236.4C607.496 237.6 607.296 239.147 607.296 241.04C607.296 243.2 607.536 245 608.016 246.44C608.522 247.853 609.216 248.92 610.096 249.64C610.976 250.36 612.029 250.72 613.256 250.72ZM636.139 252V250.6L638.019 250.28C638.445 250.2 638.725 250.04 638.859 249.8C638.992 249.533 639.059 249.053 639.059 248.36V235.88C639.059 234.947 638.979 234.32 638.819 234C638.659 233.653 638.285 233.453 637.699 233.4L635.779 233.2L635.979 231.76L642.259 231.32L642.619 231.6L642.899 235.36H642.979C643.645 233.973 644.499 232.907 645.539 232.16C646.579 231.413 647.699 231.04 648.899 231.04C650.179 231.04 651.192 231.387 651.939 232.08C652.685 232.747 653.059 233.64 653.059 234.76C653.059 235.427 652.952 236 652.739 236.48C652.552 236.933 652.245 237.293 651.819 237.56C651.419 237.8 650.912 237.92 650.299 237.92C649.499 237.92 648.885 237.747 648.459 237.4C648.059 237.053 647.859 236.613 647.859 236.08C647.859 235.84 647.899 235.6 647.979 235.36C648.059 235.12 648.179 234.84 648.339 234.52C648.499 234.2 648.699 233.84 648.939 233.44C648.325 233.2 647.672 233.173 646.979 233.36C646.312 233.547 645.685 233.92 645.099 234.48C644.539 235.013 644.072 235.693 643.699 236.52C643.352 237.32 643.179 238.187 643.179 239.12V248.44C643.179 249.08 643.245 249.52 643.379 249.76C643.512 249.973 643.792 250.107 644.219 250.16L647.539 250.6V252H636.139ZM665.076 252V250.56L667.236 250.24C667.716 250.187 668.022 250.027 668.156 249.76C668.289 249.493 668.356 249 668.356 248.28V235.96C668.356 235 668.276 234.36 668.116 234.04C667.956 233.72 667.569 233.52 666.956 233.44L665.076 233.24L665.236 231.76L672.116 231.44L672.516 231.64V248.44C672.516 249 672.582 249.427 672.716 249.72C672.849 249.987 673.169 250.16 673.676 250.24L675.836 250.6V252H665.076ZM669.876 227.28C669.049 227.28 668.369 227.027 667.836 226.52C667.302 226.013 667.036 225.347 667.036 224.52C667.036 223.72 667.302 223.067 667.836 222.56C668.369 222.027 669.049 221.76 669.876 221.76C670.756 221.76 671.449 222.013 671.956 222.52C672.489 223.027 672.756 223.693 672.756 224.52C672.756 225.32 672.489 225.987 671.956 226.52C671.422 227.027 670.729 227.28 669.876 227.28ZM688.395 252V250.6L690.435 250.28C690.942 250.227 691.275 250.067 691.435 249.8C691.595 249.533 691.675 249.027 691.675 248.28V233.44H688.635V232L691.675 231.68V230.2C691.675 228.76 691.835 227.453 692.155 226.28C692.502 225.107 692.995 224.107 693.635 223.28C694.275 222.453 695.062 221.827 695.995 221.4C696.928 220.947 698.008 220.72 699.235 220.72C700.408 220.72 701.422 220.893 702.275 221.24C703.128 221.56 703.782 222.013 704.235 222.6C704.688 223.187 704.915 223.853 704.915 224.6C704.915 225.293 704.702 225.893 704.275 226.4C703.848 226.88 703.262 227.12 702.515 227.12C701.848 227.12 701.315 226.973 700.915 226.68C700.542 226.387 700.355 226 700.355 225.52C700.355 225.173 700.435 224.827 700.595 224.48C700.755 224.133 701.075 223.587 701.555 222.84C701.262 222.68 700.902 222.547 700.475 222.44C700.048 222.333 699.622 222.28 699.195 222.28C698.395 222.28 697.742 222.467 697.235 222.84C696.755 223.213 696.395 223.787 696.155 224.56C695.915 225.333 695.795 226.36 695.795 227.64V231.6H701.635V233.44H695.795V248.44C695.795 249.053 695.875 249.493 696.035 249.76C696.222 250.027 696.582 250.187 697.115 250.24L700.315 250.6V252H688.395ZM716.588 261.2C715.334 261.2 714.334 260.907 713.588 260.32C712.868 259.733 712.508 258.947 712.508 257.96C712.508 257.213 712.734 256.587 713.188 256.08C713.641 255.573 714.254 255.32 715.028 255.32C715.694 255.32 716.214 255.467 716.588 255.76C716.988 256.08 717.201 256.493 717.228 257C717.254 257.213 717.241 257.507 717.188 257.88C717.134 258.28 717.028 258.813 716.868 259.48C717.454 259.507 718.014 259.387 718.548 259.12C719.081 258.88 719.614 258.373 720.148 257.6C720.681 256.853 721.254 255.733 721.868 254.24L722.668 252.36L715.548 235.4C715.228 234.627 714.961 234.12 714.748 233.88C714.561 233.613 714.254 233.44 713.828 233.36L712.508 233L712.788 231.6H722.588V232.96L720.748 233.2C720.241 233.253 719.908 233.427 719.748 233.72C719.614 233.987 719.681 234.493 719.948 235.24L724.748 247.2H724.908L729.508 235.44C729.801 234.773 729.868 234.28 729.708 233.96C729.548 233.613 729.174 233.387 728.588 233.28L726.988 232.96L727.228 231.6H734.828V233L733.428 233.28C733.001 233.387 732.668 233.56 732.428 233.8C732.188 234.04 731.908 234.573 731.588 235.4L724.148 253.76C723.588 255.2 723.028 256.4 722.467 257.36C721.908 258.32 721.334 259.08 720.748 259.64C720.161 260.2 719.534 260.6 718.868 260.84C718.201 261.08 717.441 261.2 716.588 261.2Z" fill="#5C5F77"/>
<path d="M566.92 252V250.6L568.8 250.32C569.227 250.24 569.507 250.08 569.64 249.84C569.773 249.573 569.84 249.093 569.84 248.4V235.84C569.84 234.907 569.76 234.28 569.6 233.96C569.44 233.64 569.067 233.453 568.48 233.4L566.56 233.16L566.76 231.76L573.12 231.32L573.48 231.6L573.64 235.32H573.72C574.387 233.96 575.347 232.907 576.6 232.16C577.853 231.413 579.2 231.04 580.64 231.04C582.053 231.04 583.24 231.307 584.2 231.84C585.16 232.347 585.88 233.12 586.36 234.16C586.84 235.173 587.08 236.427 587.08 237.92V248.68C587.08 249.293 587.16 249.707 587.32 249.92C587.48 250.133 587.813 250.28 588.32 250.36L590.12 250.6V252H580.08V250.64L581.76 250.4C582.267 250.293 582.587 250.133 582.72 249.92C582.88 249.707 582.96 249.307 582.96 248.72V238.56C582.96 237.307 582.84 236.32 582.6 235.6C582.36 234.853 581.96 234.32 581.4 234C580.867 233.68 580.12 233.52 579.16 233.52C578.147 233.52 577.24 233.747 576.44 234.2C575.667 234.627 575.053 235.253 574.6 236.08C574.173 236.88 573.96 237.84 573.96 238.96V248.56C573.96 249.147 574.027 249.56 574.16 249.8C574.293 250.04 574.56 250.2 574.96 250.28L576.96 250.64V252H566.92ZM612.656 252.56C610.656 252.56 608.909 252.147 607.416 251.32C605.949 250.467 604.816 249.28 604.016 247.76C603.216 246.213 602.816 244.373 602.816 242.24C602.816 239.893 603.242 237.893 604.096 236.24C604.949 234.56 606.149 233.28 607.696 232.4C609.269 231.493 611.109 231.04 613.216 231.04C615.162 231.04 616.856 231.453 618.296 232.28C619.736 233.08 620.842 234.253 621.616 235.8C622.416 237.32 622.816 239.147 622.816 241.28C622.816 243.573 622.389 245.573 621.536 247.28C620.709 248.96 619.536 250.267 618.016 251.2C616.496 252.107 614.709 252.56 612.656 252.56ZM613.256 250.72C614.349 250.72 615.269 250.413 616.016 249.8C616.789 249.187 617.362 248.253 617.736 247C618.109 245.747 618.296 244.147 618.296 242.2C618.296 240.653 618.162 239.293 617.896 238.12C617.656 236.92 617.282 235.933 616.776 235.16C616.269 234.387 615.656 233.813 614.936 233.44C614.242 233.04 613.442 232.84 612.536 232.84C611.416 232.84 610.469 233.133 609.696 233.72C608.922 234.28 608.322 235.173 607.896 236.4C607.496 237.6 607.296 239.147 607.296 241.04C607.296 243.2 607.536 245 608.016 246.44C608.522 247.853 609.216 248.92 610.096 249.64C610.976 250.36 612.029 250.72 613.256 250.72ZM636.139 252V250.6L638.019 250.28C638.445 250.2 638.725 250.04 638.859 249.8C638.992 249.533 639.059 249.053 639.059 248.36V235.88C639.059 234.947 638.979 234.32 638.819 234C638.659 233.653 638.285 233.453 637.699 233.4L635.779 233.2L635.979 231.76L642.259 231.32L642.619 231.6L642.899 235.36H642.979C643.645 233.973 644.499 232.907 645.539 232.16C646.579 231.413 647.699 231.04 648.899 231.04C650.179 231.04 651.192 231.387 651.939 232.08C652.685 232.747 653.059 233.64 653.059 234.76C653.059 235.427 652.952 236 652.739 236.48C652.552 236.933 652.245 237.293 651.819 237.56C651.419 237.8 650.912 237.92 650.299 237.92C649.499 237.92 648.885 237.747 648.459 237.4C648.059 237.053 647.859 236.613 647.859 236.08C647.859 235.84 647.899 235.6 647.979 235.36C648.059 235.12 648.179 234.84 648.339 234.52C648.499 234.2 648.699 233.84 648.939 233.44C648.325 233.2 647.672 233.173 646.979 233.36C646.312 233.547 645.685 233.92 645.099 234.48C644.539 235.013 644.072 235.693 643.699 236.52C643.352 237.32 643.179 238.187 643.179 239.12V248.44C643.179 249.08 643.245 249.52 643.379 249.76C643.512 249.973 643.792 250.107 644.219 250.16L647.539 250.6V252H636.139ZM665.076 252V250.56L667.236 250.24C667.716 250.187 668.022 250.027 668.156 249.76C668.289 249.493 668.356 249 668.356 248.28V235.96C668.356 235 668.276 234.36 668.116 234.04C667.956 233.72 667.569 233.52 666.956 233.44L665.076 233.24L665.236 231.76L672.116 231.44L672.516 231.64V248.44C672.516 249 672.582 249.427 672.716 249.72C672.849 249.987 673.169 250.16 673.676 250.24L675.836 250.6V252H665.076ZM669.876 227.28C669.049 227.28 668.369 227.027 667.836 226.52C667.302 226.013 667.036 225.347 667.036 224.52C667.036 223.72 667.302 223.067 667.836 222.56C668.369 222.027 669.049 221.76 669.876 221.76C670.756 221.76 671.449 222.013 671.956 222.52C672.489 223.027 672.756 223.693 672.756 224.52C672.756 225.32 672.489 225.987 671.956 226.52C671.422 227.027 670.729 227.28 669.876 227.28ZM688.395 252V250.6L690.435 250.28C690.942 250.227 691.275 250.067 691.435 249.8C691.595 249.533 691.675 249.027 691.675 248.28V233.44H688.635V232L691.675 231.68V230.2C691.675 228.76 691.835 227.453 692.155 226.28C692.502 225.107 692.995 224.107 693.635 223.28C694.275 222.453 695.062 221.827 695.995 221.4C696.928 220.947 698.008 220.72 699.235 220.72C700.408 220.72 701.422 220.893 702.275 221.24C703.128 221.56 703.782 222.013 704.235 222.6C704.688 223.187 704.915 223.853 704.915 224.6C704.915 225.293 704.702 225.893 704.275 226.4C703.848 226.88 703.262 227.12 702.515 227.12C701.848 227.12 701.315 226.973 700.915 226.68C700.542 226.387 700.355 226 700.355 225.52C700.355 225.173 700.435 224.827 700.595 224.48C700.755 224.133 701.075 223.587 701.555 222.84C701.262 222.68 700.902 222.547 700.475 222.44C700.048 222.333 699.622 222.28 699.195 222.28C698.395 222.28 697.742 222.467 697.235 222.84C696.755 223.213 696.395 223.787 696.155 224.56C695.915 225.333 695.795 226.36 695.795 227.64V231.6H701.635V233.44H695.795V248.44C695.795 249.053 695.875 249.493 696.035 249.76C696.222 250.027 696.582 250.187 697.115 250.24L700.315 250.6V252H688.395ZM716.588 261.2C715.334 261.2 714.334 260.907 713.588 260.32C712.868 259.733 712.508 258.947 712.508 257.96C712.508 257.213 712.734 256.587 713.188 256.08C713.641 255.573 714.254 255.32 715.028 255.32C715.694 255.32 716.214 255.467 716.588 255.76C716.988 256.08 717.201 256.493 717.228 257C717.254 257.213 717.241 257.507 717.188 257.88C717.134 258.28 717.028 258.813 716.868 259.48C717.454 259.507 718.014 259.387 718.548 259.12C719.081 258.88 719.614 258.373 720.148 257.6C720.681 256.853 721.254 255.733 721.868 254.24L722.668 252.36L715.548 235.4C715.228 234.627 714.961 234.12 714.748 233.88C714.561 233.613 714.254 233.44 713.828 233.36L712.508 233L712.788 231.6H722.588V232.96L720.748 233.2C720.241 233.253 719.908 233.427 719.748 233.72C719.614 233.987 719.681 234.493 719.948 235.24L724.748 247.2H724.908L729.508 235.44C729.801 234.773 729.868 234.28 729.708 233.96C729.548 233.613 729.174 233.387 728.588 233.28L726.988 232.96L727.228 231.6H734.828V233L733.428 233.28C733.001 233.387 732.668 233.56 732.428 233.8C732.188 234.04 731.908 234.573 731.588 235.4L724.148 253.76C723.588 255.2 723.028 256.4 722.467 257.36C721.908 258.32 721.334 259.08 720.748 259.64C720.161 260.2 719.534 260.6 718.868 260.84C718.201 261.08 717.441 261.2 716.588 261.2Z" fill="black" fill-opacity="0.25"/>
<g opacity="0.8">
<path d="M358.512 304.22C361.86 304.22 363.756 305.444 363.78 307.952L361.368 308.132C361.224 306.812 360.264 306.152 358.332 306.152C356.592 306.152 355.536 306.668 355.536 307.712C355.536 308.72 356.556 309.092 359.196 309.668C362.268 310.328 363.984 311.048 363.984 313.328C363.984 315.728 362.052 317.276 358.308 317.276C354.852 317.276 352.956 316.256 352.428 313.4L354.876 313.1C355.38 315.02 356.712 315.296 358.44 315.296C360.504 315.296 361.308 314.516 361.308 313.628C361.308 312.608 360.252 312.26 357.468 311.66C354.636 311.06 352.992 310.136 352.992 307.928C352.992 305.648 354.744 304.22 358.512 304.22ZM375.375 304.22C378.483 304.22 380.355 305.24 380.355 308.156V314.132C380.355 314.984 380.655 315.2 381.735 315.068V317C381.123 317.168 380.559 317.252 380.043 317.252C378.459 317.252 377.955 316.472 377.859 315.464H377.595C376.647 316.412 375.363 317.288 373.467 317.288C371.223 317.288 369.771 316.028 369.771 313.928C369.771 310.424 373.779 309.956 377.691 310.004V308.3C377.691 306.512 376.659 306.068 375.171 306.08C373.707 306.08 372.639 306.548 372.627 308L372.615 308.504H370.191V307.868C370.191 305.732 371.643 304.22 375.375 304.22ZM372.543 313.58C372.543 314.696 373.371 315.32 374.739 315.32C375.867 315.32 376.815 314.888 377.691 314.252V311.492C377.355 311.456 377.019 311.432 376.683 311.432C374.079 311.432 372.543 312.056 372.543 313.58ZM398.37 317H395.706V308.672C395.706 306.86 394.782 306.38 393.63 306.38C392.31 306.38 391.218 307.028 390.306 308V317H387.642V304.508H389.934L390.126 306.32H390.474C391.542 305.18 392.826 304.22 394.866 304.22C397.062 304.22 398.37 305.324 398.37 307.976V317ZM404.156 310.736C404.156 306.452 406.724 304.22 410.552 304.22C414.104 304.22 416.18 306.08 416.18 309.824V310.964H406.868C406.94 313.736 408.224 315.152 410.456 315.152C411.884 315.152 412.988 314.576 413.552 313.28L416.132 313.676C415.268 316.148 413.084 317.288 410.444 317.288C406.724 317.288 404.156 315.044 404.156 310.736ZM407 309.284H413.576C413.576 307.256 412.28 306.344 410.468 306.344C408.644 306.344 407.384 307.292 407 309.284ZM438.722 310.784C438.722 306.824 440.426 304.232 443.618 304.232C445.442 304.232 446.654 305.06 447.398 306.116H447.554V298.64H450.218V317H447.926L447.746 315.404H447.41C446.558 316.46 445.322 317.3 443.522 317.3C440.354 317.3 438.722 314.672 438.722 310.784ZM441.446 310.784C441.446 313.664 442.55 315.056 444.686 315.056C445.682 315.056 446.63 314.756 447.554 313.94V307.568C446.63 306.752 445.67 306.452 444.71 306.452C442.598 306.452 441.446 307.844 441.446 310.784ZM456.005 310.736C456.005 306.452 458.573 304.22 462.401 304.22C465.953 304.22 468.029 306.08 468.029 309.824V310.964H458.717C458.789 313.736 460.073 315.152 462.305 315.152C463.733 315.152 464.837 314.576 465.401 313.28L467.981 313.676C467.117 316.148 464.933 317.288 462.293 317.288C458.573 317.288 456.005 315.044 456.005 310.736ZM458.849 309.284H465.425C465.425 307.256 464.129 306.344 462.317 306.344C460.493 306.344 459.233 307.292 458.849 309.284ZM485.504 300.344C484.568 300.128 483.728 299.996 482.756 299.996C480.692 299.996 479.672 300.596 479.672 303.272V304.508H485.084V306.668H479.672V314.84H483.836V317H473.876V314.84H477.008V306.668H473.156V304.508H477.008V303.692C477.008 299.276 479.012 297.668 482.66 297.668C483.68 297.668 484.616 297.8 485.504 298.052V300.344ZM496.354 304.22C499.462 304.22 501.334 305.24 501.334 308.156V314.132C501.334 314.984 501.634 315.2 502.714 315.068V317C502.102 317.168 501.538 317.252 501.022 317.252C499.438 317.252 498.934 316.472 498.838 315.464H498.574C497.626 316.412 496.342 317.288 494.446 317.288C492.202 317.288 490.75 316.028 490.75 313.928C490.75 310.424 494.758 309.956 498.67 310.004V308.3C498.67 306.512 497.638 306.068 496.15 306.08C494.686 306.08 493.618 306.548 493.606 308L493.594 308.504H491.17V307.868C491.17 305.732 492.622 304.22 496.354 304.22ZM493.522 313.58C493.522 314.696 494.35 315.32 495.718 315.32C496.846 315.32 497.794 314.888 498.67 314.252V311.492C498.334 311.456 497.998 311.432 497.662 311.432C495.058 311.432 493.522 312.056 493.522 313.58ZM508.621 304.508H511.285V312.824C511.285 314.648 512.209 315.128 513.361 315.128C514.693 315.128 515.785 314.492 516.685 313.508V304.508H519.349V317H517.057L516.865 315.176H516.517C515.461 316.328 514.177 317.276 512.137 317.276C509.929 317.276 508.621 316.172 508.621 313.532V304.508ZM525.664 317V314.84H529.936L529.948 300.776H525.676V298.64L532.276 298.352L532.612 298.676L532.6 314.84H536.872V317H525.664ZM545.719 312.92V306.668H542.287V304.508H545.719V300.764H548.383V304.508H553.807V306.668H548.383V313.028C548.383 314.564 549.103 315.2 550.183 315.2C551.299 315.2 551.995 314.516 551.995 313.04V312.368H553.939V312.908C553.939 315.812 552.655 317.276 549.811 317.276C547.087 317.276 545.719 315.968 545.719 312.92ZM565.906 304.22C569.254 304.22 571.15 305.444 571.174 307.952L568.762 308.132C568.618 306.812 567.658 306.152 565.726 306.152C563.986 306.152 562.93 306.668 562.93 307.712C562.93 308.72 563.95 309.092 566.59 309.668C569.662 310.328 571.378 311.048 571.378 313.328C571.378 315.728 569.446 317.276 565.702 317.276C562.246 317.276 560.35 316.256 559.822 313.4L562.27 313.1C562.774 315.02 564.106 315.296 565.834 315.296C567.898 315.296 568.702 314.516 568.702 313.628C568.702 312.608 567.646 312.26 564.862 311.66C562.03 311.06 560.386 310.136 560.386 307.928C560.386 305.648 562.138 304.22 565.906 304.22Z" fill="#40A02B"/>
<path d="M589.452 311.396C588.132 311.396 587.064 310.52 587.064 309.08C587.064 307.628 588.132 306.776 589.452 306.776C590.76 306.776 591.816 307.628 591.816 309.08C591.816 310.52 590.76 311.396 589.452 311.396Z" fill="#BAC2DE"/>
<path d="M606.836 317V314.84H611.108V306.644H606.836V304.508L613.448 304.22L613.772 304.544V314.84H618.044V317H606.836ZM610.088 299.996C610.088 298.928 610.856 298.28 611.96 298.28C613.076 298.28 613.832 298.928 613.832 299.996C613.832 301.064 613.076 301.736 611.96 301.736C610.856 301.736 610.088 301.064 610.088 299.996ZM635.087 317H632.423V308.672C632.423 306.86 631.499 306.38 630.347 306.38C629.027 306.38 627.935 307.028 627.023 308V317H624.359V304.508H626.651L626.843 306.32H627.191C628.259 305.18 629.543 304.22 631.583 304.22C633.779 304.22 635.087 305.324 635.087 307.976V317ZM647.078 304.22C650.426 304.22 652.322 305.444 652.346 307.952L649.934 308.132C649.79 306.812 648.83 306.152 646.898 306.152C645.158 306.152 644.102 306.668 644.102 307.712C644.102 308.72 645.122 309.092 647.762 309.668C650.834 310.328 652.55 311.048 652.55 313.328C652.55 315.728 650.618 317.276 646.874 317.276C643.418 317.276 641.522 316.256 640.994 313.4L643.442 313.1C643.946 315.02 645.278 315.296 647.006 315.296C649.07 315.296 649.874 314.516 649.874 313.628C649.874 312.608 648.818 312.26 646.034 311.66C643.202 311.06 641.558 310.136 641.558 307.928C641.558 305.648 643.31 304.22 647.078 304.22ZM663.94 304.22C667.048 304.22 668.92 305.24 668.92 308.156V314.132C668.92 314.984 669.22 315.2 670.3 315.068V317C669.688 317.168 669.124 317.252 668.608 317.252C667.024 317.252 666.52 316.472 666.424 315.464H666.16C665.212 316.412 663.928 317.288 662.032 317.288C659.788 317.288 658.336 316.028 658.336 313.928C658.336 310.424 662.344 309.956 666.256 310.004V308.3C666.256 306.512 665.224 306.068 663.736 306.08C662.272 306.08 661.204 306.548 661.192 308L661.18 308.504H658.756V307.868C658.756 305.732 660.208 304.22 663.94 304.22ZM661.108 313.58C661.108 314.696 661.936 315.32 663.304 315.32C664.432 315.32 665.38 314.888 666.256 314.252V311.492C665.92 311.456 665.584 311.432 665.248 311.432C662.644 311.432 661.108 312.056 661.108 313.58ZM686.935 317H684.271V308.672C684.271 306.86 683.347 306.38 682.195 306.38C680.875 306.38 679.783 307.028 678.871 308V317H676.207V304.508H678.499L678.691 306.32H679.039C680.107 305.18 681.391 304.22 683.431 304.22C685.627 304.22 686.935 305.324 686.935 307.976V317ZM692.722 310.736C692.722 306.452 695.29 304.22 699.118 304.22C702.67 304.22 704.746 306.08 704.746 309.824V310.964H695.434C695.506 313.736 696.79 315.152 699.022 315.152C700.45 315.152 701.554 314.576 702.118 313.28L704.698 313.676C703.834 316.148 701.65 317.288 699.01 317.288C695.29 317.288 692.722 315.044 692.722 310.736ZM695.566 309.284H702.142C702.142 307.256 700.846 306.344 699.034 306.344C697.21 306.344 695.95 307.292 695.566 309.284ZM739.396 313.136C738.688 316.028 736.312 317.288 733.528 317.288C729.796 317.288 727.288 315.044 727.288 310.736C727.288 306.308 729.964 304.22 733.66 304.22C736.768 304.22 739.096 305.66 739.396 308.708L736.792 308.936C736.516 307.184 735.304 306.344 733.588 306.344C731.236 306.344 730.012 307.892 730.012 310.736C730.012 313.724 731.356 315.152 733.552 315.152C735.256 315.152 736.36 314.3 736.828 312.764L739.396 313.136ZM745.338 304.508H748.002V312.824C748.002 314.648 748.926 315.128 750.078 315.128C751.41 315.128 752.502 314.492 753.402 313.508V304.508H756.066V317H753.774L753.582 315.176H753.234C752.178 316.328 750.894 317.276 748.854 317.276C746.646 317.276 745.338 316.172 745.338 313.532V304.508ZM768.057 304.22C771.405 304.22 773.301 305.444 773.325 307.952L770.913 308.132C770.769 306.812 769.809 306.152 767.877 306.152C766.137 306.152 765.081 306.668 765.081 307.712C765.081 308.72 766.101 309.092 768.741 309.668C771.813 310.328 773.529 311.048 773.529 313.328C773.529 315.728 771.597 317.276 767.853 317.276C764.397 317.276 762.501 316.256 761.973 313.4L764.421 313.1C764.925 315.02 766.257 315.296 767.985 315.296C770.049 315.296 770.853 314.516 770.853 313.628C770.853 312.608 769.797 312.26 767.013 311.66C764.181 311.06 762.537 310.136 762.537 307.928C762.537 305.648 764.289 304.22 768.057 304.22ZM782.436 312.92V306.668H779.004V304.508H782.436V300.764H785.1V304.508H790.524V306.668H785.1V313.028C785.1 314.564 785.82 315.2 786.9 315.2C788.016 315.2 788.712 314.516 788.712 313.04V312.368H790.656V312.908C790.656 315.812 789.372 317.276 786.528 317.276C783.804 317.276 782.436 315.968 782.436 312.92ZM808.683 310.784C808.683 315.224 805.923 317.288 802.551 317.288C799.191 317.288 796.419 315.224 796.419 310.784C796.419 306.344 799.191 304.22 802.551 304.22C805.923 304.22 808.683 306.344 808.683 310.784ZM799.131 310.784C799.131 313.892 800.559 315.152 802.551 315.152C804.555 315.152 805.971 313.892 805.971 310.784C805.971 307.664 804.555 306.344 802.551 306.344C800.559 306.344 799.131 307.664 799.131 310.784ZM822.042 317H819.594V307.868C819.594 306.764 819.006 306.452 818.358 306.452C817.578 306.452 816.942 306.92 816.462 307.568V317H814.026V304.508H816.102L816.282 306.368H816.486C817.074 305.144 818.154 304.232 819.618 304.232C820.938 304.232 821.802 304.916 821.994 306.368H822.102C822.678 305.144 823.722 304.232 825.186 304.232C826.698 304.232 827.61 305.12 827.61 307.028L827.622 317H825.174V307.868C825.174 306.764 824.586 306.452 823.926 306.452C823.146 306.452 822.51 306.908 822.03 307.544L822.042 317ZM833.613 317V314.84H836.841V306.644H833.613V304.508L839.169 304.22L839.505 304.544V314.84H842.721V317H833.613ZM835.833 300.068C835.833 299 836.601 298.352 837.705 298.352C838.821 298.352 839.577 299 839.577 300.068C839.577 301.136 838.821 301.808 837.705 301.808C836.601 301.808 835.833 301.136 835.833 300.068ZM848.915 304.508H859.463V306.092L852.539 314.84H859.895V317H848.915V315.404L855.827 306.668H848.915V304.508ZM871.334 304.22C874.442 304.22 876.314 305.24 876.314 308.156V314.132C876.314 314.984 876.614 315.2 877.694 315.068V317C877.082 317.168 876.518 317.252 876.002 317.252C874.418 317.252 873.914 316.472 873.818 315.464H873.554C872.606 316.412 871.322 317.288 869.426 317.288C867.182 317.288 865.73 316.028 865.73 313.928C865.73 310.424 869.738 309.956 873.65 310.004V308.3C873.65 306.512 872.618 306.068 871.13 306.08C869.666 306.08 868.598 306.548 868.586 308L868.574 308.504H866.15V307.868C866.15 305.732 867.602 304.22 871.334 304.22ZM868.502 313.58C868.502 314.696 869.33 315.32 870.698 315.32C871.826 315.32 872.774 314.888 873.65 314.252V311.492C873.314 311.456 872.978 311.432 872.642 311.432C870.038 311.432 868.502 312.056 868.502 313.58ZM886.133 312.92V306.668H882.701V304.508H886.133V300.764H888.797V304.508H894.221V306.668H888.797V313.028C888.797 314.564 889.517 315.2 890.597 315.2C891.713 315.2 892.409 314.516 892.409 313.04V312.368H894.353V312.908C894.353 315.812 893.069 317.276 890.225 317.276C887.501 317.276 886.133 315.968 886.133 312.92ZM900.644 317V314.84H904.916V306.644H900.644V304.508L907.256 304.22L907.58 304.544V314.84H911.852V317H900.644ZM903.896 299.996C903.896 298.928 904.664 298.28 905.768 298.28C906.884 298.28 907.64 298.928 907.64 299.996C907.64 301.064 906.884 301.736 905.768 301.736C904.664 301.736 903.896 301.064 903.896 299.996ZM929.663 310.784C929.663 315.224 926.903 317.288 923.531 317.288C920.171 317.288 917.399 315.224 917.399 310.784C917.399 306.344 920.171 304.22 923.531 304.22C926.903 304.22 929.663 306.344 929.663 310.784ZM920.111 310.784C920.111 313.892 921.539 315.152 923.531 315.152C925.535 315.152 926.951 313.892 926.951 310.784C926.951 307.664 925.535 306.344 923.531 306.344C921.539 306.344 920.111 307.664 920.111 310.784ZM946.177 317H943.513V308.672C943.513 306.86 942.589 306.38 941.437 306.38C940.117 306.38 939.025 307.028 938.113 308V317H935.449V304.508H937.741L937.933 306.32H938.281C939.349 305.18 940.633 304.22 942.673 304.22C944.869 304.22 946.177 305.324 946.177 307.976V317Z" fill="#179299"/>
</g>
</svg>
