<svg width="180" height="180" viewBox="0 0 180 180" fill="none" xmlns="http://www.w3.org/2000/svg">
<path d="M43.0455 118.705V60.5227H56.5V64.9773H48.1364V114.25H56.5V118.705H43.0455Z" fill="#32C572"/>
<path d="M83.02 104.25V101.018L87.34 99.258V80.666C87.34 76.602 85.228 75.194 82.412 75.194C80.204 75.194 77.196 75.898 73.772 77.786V99.322L77.996 101.018V104.25H63.5V101.018L67.82 99.258V77.338L62.22 76.474V72.922L72.588 70.522L73.42 70.874V74.554C77.612 71.898 81.452 70.362 85.196 70.362C90.668 70.362 93.292 73.466 93.292 79.418V99.322L97.516 101.018V104.25H83.02Z" fill="#E6EBF9"/>
<path d="M115.136 60.5227V118.705H101.682V114.25H110.045V64.9773H101.682V60.5227H115.136Z" fill="#32C572"/>
<path d="M126.688 55.038C126.688 60.858 129.4 64.014 132.76 67.05H129.616C126.796 64.914 123.292 61.494 123.292 55.038C123.292 48.606 126.796 45.162 129.616 43.026H132.76C129.4 46.062 126.688 49.218 126.688 55.038Z" fill="#E64553"/>
<path d="M136.492 62.25V60.762L141.172 59.682V47.646L136.492 49.338V47.622L141.856 44.73H144.112V59.706L148.084 60.762V62.25H136.492Z" fill="#E6EBF9"/>
<path d="M157.192 55.038C157.192 49.218 154.48 46.062 151.12 43.026H154.264C157.084 45.162 160.588 48.582 160.588 55.038C160.588 61.47 157.084 64.914 154.264 67.05H151.12C154.48 64.014 157.192 60.858 157.192 55.038Z" fill="#E64553"/>
</svg>
