<svg width="180" height="180" viewBox="0 0 180 180" fill="none" xmlns="http://www.w3.org/2000/svg">
<path d="M21.5455 118.705V60.5227H35V64.9773H26.6364V114.25H35V118.705H21.5455Z" fill="#32C572"/>
<path d="M93.52 104.25V101.018L97.84 99.258V80.666C97.84 76.602 95.728 75.194 92.912 75.194C90.704 75.194 87.696 75.898 84.272 77.786V99.322L88.496 101.018V104.25H74V101.018L78.32 99.258V77.338L72.72 76.474V72.922L83.088 70.522L83.92 70.874V74.554C88.112 71.898 91.952 70.362 95.696 70.362C101.168 70.362 103.792 73.466 103.792 79.418V99.322L108.016 101.018V104.25H93.52Z" fill="#2A2D3F"/>
<path d="M157.636 60.5227V118.705H144.182V114.25H152.545V64.9773H144.182V60.5227H157.636Z" fill="#32C572"/>
</svg>
