<svg width="180" height="180" viewBox="0 0 180 180" fill="none" xmlns="http://www.w3.org/2000/svg">
<path d="M53.5455 107.977V49.7957H67V54.2502H58.6364V103.523H67V107.977H53.5455Z" fill="#32C572"/>
<path d="M93.52 93.5229V90.2909L97.84 88.5309V69.9389C97.84 65.8749 95.728 64.4669 92.912 64.4669C90.704 64.4669 87.696 65.1709 84.272 67.0589V88.5949L88.496 90.2909V93.5229H74V90.2909L78.32 88.5309V66.6109L72.72 65.7469V62.1949L83.088 59.7949L83.92 60.1469V63.8269C88.112 61.1709 91.952 59.6349 95.696 59.6349C101.168 59.6349 103.792 62.7389 103.792 68.6909V88.5949L108.016 90.2909V93.5229H93.52Z" fill="#E6EBF9"/>
<path d="M125.636 49.7957V107.977H112.182V103.523H120.545V54.2502H112.182V49.7957H125.636Z" fill="#32C572"/>
<path d="M42.1597 124.886H90.7046V129.977H37.7046V116.523H42.1597V124.886Z" fill="#179299"/>
<path d="M142.295 129.977H90.1138V124.886H137.841V116.523H142.295V129.977Z" fill="#179299"/>
</svg>
