<svg width="1300" height="350" viewBox="0 0 1300 350" fill="none" xmlns="http://www.w3.org/2000/svg">
<path d="M591.045 143.705V85.5227H604.5V89.9773H596.136V139.25H604.5V143.705H591.045Z" fill="#32C572"/>
<path d="M631.02 129.25V126.018L635.34 124.258V105.666C635.34 101.602 633.228 100.194 630.412 100.194C628.204 100.194 625.196 100.898 621.772 102.786V124.322L625.996 126.018V129.25H611.5V126.018L615.82 124.258V102.338L610.22 101.474V97.922L620.588 95.522L621.42 95.874V99.554C625.612 96.898 629.452 95.362 633.196 95.362C638.668 95.362 641.292 98.466 641.292 104.418V124.322L645.516 126.018V129.25H631.02Z" fill="#2A2D3F"/>
<path d="M663.136 85.5227V143.705H649.682V139.25H658.045V89.9773H649.682V85.5227H663.136Z" fill="#32C572"/>
<path d="M684.227 75.7046V152.25H679.682V75.7046H684.227Z" fill="#2A2D3F"/>
<path d="M708.136 85.5227V143.705H694.682V139.25H703.045V89.9773H694.682V85.5227H708.136Z" fill="#32C572"/>
<path d="M550.42 252V250.6L552.3 250.32C552.727 250.24 553.007 250.08 553.14 249.84C553.273 249.573 553.34 249.093 553.34 248.4V235.84C553.34 234.907 553.26 234.28 553.1 233.96C552.94 233.64 552.567 233.453 551.98 233.4L550.06 233.16L550.26 231.76L556.62 231.32L556.98 231.6L557.14 235.32H557.22C557.887 233.96 558.847 232.907 560.1 232.16C561.353 231.413 562.7 231.04 564.14 231.04C565.553 231.04 566.74 231.307 567.7 231.84C568.66 232.347 569.38 233.12 569.86 234.16C570.34 235.173 570.58 236.427 570.58 237.92V248.68C570.58 249.293 570.66 249.707 570.82 249.92C570.98 250.133 571.313 250.28 571.82 250.36L573.62 250.6V252H563.58V250.64L565.26 250.4C565.767 250.293 566.087 250.133 566.22 249.92C566.38 249.707 566.46 249.307 566.46 248.72V238.56C566.46 237.307 566.34 236.32 566.1 235.6C565.86 234.853 565.46 234.32 564.9 234C564.367 233.68 563.62 233.52 562.66 233.52C561.647 233.52 560.74 233.747 559.94 234.2C559.167 234.627 558.553 235.253 558.1 236.08C557.673 236.88 557.46 237.84 557.46 238.96V248.56C557.46 249.147 557.527 249.56 557.66 249.8C557.793 250.04 558.06 250.2 558.46 250.28L560.46 250.64V252H550.42ZM596.156 252.56C594.156 252.56 592.409 252.147 590.916 251.32C589.449 250.467 588.316 249.28 587.516 247.76C586.716 246.213 586.316 244.373 586.316 242.24C586.316 239.893 586.742 237.893 587.596 236.24C588.449 234.56 589.649 233.28 591.196 232.4C592.769 231.493 594.609 231.04 596.716 231.04C598.662 231.04 600.356 231.453 601.796 232.28C603.236 233.08 604.342 234.253 605.116 235.8C605.916 237.32 606.316 239.147 606.316 241.28C606.316 243.573 605.889 245.573 605.036 247.28C604.209 248.96 603.036 250.267 601.516 251.2C599.996 252.107 598.209 252.56 596.156 252.56ZM596.756 250.72C597.849 250.72 598.769 250.413 599.516 249.8C600.289 249.187 600.862 248.253 601.236 247C601.609 245.747 601.796 244.147 601.796 242.2C601.796 240.653 601.662 239.293 601.396 238.12C601.156 236.92 600.782 235.933 600.276 235.16C599.769 234.387 599.156 233.813 598.436 233.44C597.742 233.04 596.942 232.84 596.036 232.84C594.916 232.84 593.969 233.133 593.196 233.72C592.422 234.28 591.822 235.173 591.396 236.4C590.996 237.6 590.796 239.147 590.796 241.04C590.796 243.2 591.036 245 591.516 246.44C592.022 247.853 592.716 248.92 593.596 249.64C594.476 250.36 595.529 250.72 596.756 250.72ZM619.639 252V250.6L621.519 250.28C621.945 250.2 622.225 250.04 622.359 249.8C622.492 249.533 622.559 249.053 622.559 248.36V235.88C622.559 234.947 622.479 234.32 622.319 234C622.159 233.653 621.785 233.453 621.199 233.4L619.279 233.2L619.479 231.76L625.759 231.32L626.119 231.6L626.399 235.36H626.479C627.145 233.973 627.999 232.907 629.039 232.16C630.079 231.413 631.199 231.04 632.399 231.04C633.679 231.04 634.692 231.387 635.439 232.08C636.185 232.747 636.559 233.64 636.559 234.76C636.559 235.427 636.452 236 636.239 236.48C636.052 236.933 635.745 237.293 635.319 237.56C634.919 237.8 634.412 237.92 633.799 237.92C632.999 237.92 632.385 237.747 631.959 237.4C631.559 237.053 631.359 236.613 631.359 236.08C631.359 235.84 631.399 235.6 631.479 235.36C631.559 235.12 631.679 234.84 631.839 234.52C631.999 234.2 632.199 233.84 632.439 233.44C631.825 233.2 631.172 233.173 630.479 233.36C629.812 233.547 629.185 233.92 628.599 234.48C628.039 235.013 627.572 235.693 627.199 236.52C626.852 237.32 626.679 238.187 626.679 239.12V248.44C626.679 249.08 626.745 249.52 626.879 249.76C627.012 249.973 627.292 250.107 627.719 250.16L631.039 250.6V252H619.639ZM648.576 252V250.56L650.736 250.24C651.216 250.187 651.522 250.027 651.656 249.76C651.789 249.493 651.856 249 651.856 248.28V235.96C651.856 235 651.776 234.36 651.616 234.04C651.456 233.72 651.069 233.52 650.456 233.44L648.576 233.24L648.736 231.76L655.616 231.44L656.016 231.64V248.44C656.016 249 656.082 249.427 656.216 249.72C656.349 249.987 656.669 250.16 657.176 250.24L659.336 250.6V252H648.576ZM653.376 227.28C652.549 227.28 651.869 227.027 651.336 226.52C650.802 226.013 650.536 225.347 650.536 224.52C650.536 223.72 650.802 223.067 651.336 222.56C651.869 222.027 652.549 221.76 653.376 221.76C654.256 221.76 654.949 222.013 655.456 222.52C655.989 223.027 656.256 223.693 656.256 224.52C656.256 225.32 655.989 225.987 655.456 226.52C654.922 227.027 654.229 227.28 653.376 227.28ZM681.339 252.56C679.472 252.56 677.832 252.147 676.419 251.32C675.032 250.467 673.952 249.267 673.179 247.72C672.405 246.173 672.019 244.307 672.019 242.12C672.019 239.853 672.432 237.893 673.259 236.24C674.085 234.587 675.245 233.307 676.739 232.4C678.232 231.493 679.965 231.04 681.939 231.04C683.352 231.04 684.592 231.267 685.659 231.72C686.725 232.173 687.552 232.787 688.139 233.56C688.725 234.333 689.019 235.187 689.019 236.12C689.019 236.653 688.925 237.133 688.739 237.56C688.552 237.96 688.259 238.28 687.859 238.52C687.459 238.733 686.979 238.84 686.419 238.84C685.645 238.84 685.045 238.667 684.619 238.32C684.219 237.947 684.019 237.453 684.019 236.84C684.019 236.493 684.125 236.093 684.339 235.64C684.552 235.187 684.899 234.56 685.379 233.76C684.872 233.387 684.339 233.12 683.779 232.96C683.245 232.8 682.592 232.72 681.819 232.72C680.779 232.72 679.845 233.04 679.019 233.68C678.219 234.32 677.579 235.253 677.099 236.48C676.645 237.707 676.419 239.227 676.419 241.04C676.419 243.707 676.979 245.773 678.099 247.24C679.219 248.68 680.739 249.4 682.659 249.4C683.805 249.4 684.832 249.2 685.739 248.8C686.645 248.4 687.459 247.867 688.179 247.2L689.179 248.24C688.272 249.6 687.152 250.667 685.819 251.44C684.512 252.187 683.019 252.56 681.339 252.56ZM710.697 252.56C708.617 252.56 707.03 251.987 705.937 250.84C704.87 249.667 704.337 247.947 704.337 245.68V235.84C704.337 234.907 704.257 234.293 704.097 234C703.937 233.68 703.564 233.48 702.977 233.4L701.377 233.2L701.577 231.76L708.057 231.32L708.457 231.6V245.04C708.457 246.267 708.577 247.253 708.817 248C709.057 248.72 709.444 249.253 709.977 249.6C710.51 249.92 711.23 250.08 712.137 250.08C713.177 250.08 714.07 249.867 714.817 249.44C715.564 249.013 716.137 248.4 716.537 247.6C716.964 246.8 717.177 245.853 717.177 244.76V235.84C717.177 234.933 717.097 234.32 716.937 234C716.777 233.68 716.404 233.48 715.817 233.4L714.217 233.2L714.417 231.76L720.897 231.32L721.297 231.6V248.48C721.297 249.147 721.377 249.6 721.537 249.84C721.724 250.08 722.07 250.24 722.577 250.32L724.537 250.6V252L717.857 252.28L717.377 248.88H717.257C716.67 249.733 716.044 250.44 715.377 251C714.737 251.533 714.03 251.92 713.257 252.16C712.484 252.427 711.63 252.56 710.697 252.56ZM744.351 252.56C743.204 252.56 742.231 252.36 741.431 251.96C740.658 251.533 740.071 250.88 739.671 250C739.271 249.12 739.071 247.987 739.071 246.6V233.44H736.071V231.96C737.058 231.853 737.858 231.573 738.471 231.12C739.111 230.667 739.604 229.96 739.951 229C740.298 228.04 740.524 226.773 740.631 225.2L742.791 224.92L743.231 225.16V231.6H749.231V233.44H743.231V246.2C743.231 247.373 743.431 248.253 743.831 248.84C744.258 249.4 744.964 249.68 745.951 249.68C746.618 249.68 747.258 249.56 747.871 249.32C748.511 249.08 749.124 248.72 749.711 248.24L750.431 249.32C749.604 250.36 748.684 251.16 747.671 251.72C746.684 252.28 745.578 252.56 744.351 252.56Z" fill="#5C5F77"/>
<path d="M550.42 252V250.6L552.3 250.32C552.727 250.24 553.007 250.08 553.14 249.84C553.273 249.573 553.34 249.093 553.34 248.4V235.84C553.34 234.907 553.26 234.28 553.1 233.96C552.94 233.64 552.567 233.453 551.98 233.4L550.06 233.16L550.26 231.76L556.62 231.32L556.98 231.6L557.14 235.32H557.22C557.887 233.96 558.847 232.907 560.1 232.16C561.353 231.413 562.7 231.04 564.14 231.04C565.553 231.04 566.74 231.307 567.7 231.84C568.66 232.347 569.38 233.12 569.86 234.16C570.34 235.173 570.58 236.427 570.58 237.92V248.68C570.58 249.293 570.66 249.707 570.82 249.92C570.98 250.133 571.313 250.28 571.82 250.36L573.62 250.6V252H563.58V250.64L565.26 250.4C565.767 250.293 566.087 250.133 566.22 249.92C566.38 249.707 566.46 249.307 566.46 248.72V238.56C566.46 237.307 566.34 236.32 566.1 235.6C565.86 234.853 565.46 234.32 564.9 234C564.367 233.68 563.62 233.52 562.66 233.52C561.647 233.52 560.74 233.747 559.94 234.2C559.167 234.627 558.553 235.253 558.1 236.08C557.673 236.88 557.46 237.84 557.46 238.96V248.56C557.46 249.147 557.527 249.56 557.66 249.8C557.793 250.04 558.06 250.2 558.46 250.28L560.46 250.64V252H550.42ZM596.156 252.56C594.156 252.56 592.409 252.147 590.916 251.32C589.449 250.467 588.316 249.28 587.516 247.76C586.716 246.213 586.316 244.373 586.316 242.24C586.316 239.893 586.742 237.893 587.596 236.24C588.449 234.56 589.649 233.28 591.196 232.4C592.769 231.493 594.609 231.04 596.716 231.04C598.662 231.04 600.356 231.453 601.796 232.28C603.236 233.08 604.342 234.253 605.116 235.8C605.916 237.32 606.316 239.147 606.316 241.28C606.316 243.573 605.889 245.573 605.036 247.28C604.209 248.96 603.036 250.267 601.516 251.2C599.996 252.107 598.209 252.56 596.156 252.56ZM596.756 250.72C597.849 250.72 598.769 250.413 599.516 249.8C600.289 249.187 600.862 248.253 601.236 247C601.609 245.747 601.796 244.147 601.796 242.2C601.796 240.653 601.662 239.293 601.396 238.12C601.156 236.92 600.782 235.933 600.276 235.16C599.769 234.387 599.156 233.813 598.436 233.44C597.742 233.04 596.942 232.84 596.036 232.84C594.916 232.84 593.969 233.133 593.196 233.72C592.422 234.28 591.822 235.173 591.396 236.4C590.996 237.6 590.796 239.147 590.796 241.04C590.796 243.2 591.036 245 591.516 246.44C592.022 247.853 592.716 248.92 593.596 249.64C594.476 250.36 595.529 250.72 596.756 250.72ZM619.639 252V250.6L621.519 250.28C621.945 250.2 622.225 250.04 622.359 249.8C622.492 249.533 622.559 249.053 622.559 248.36V235.88C622.559 234.947 622.479 234.32 622.319 234C622.159 233.653 621.785 233.453 621.199 233.4L619.279 233.2L619.479 231.76L625.759 231.32L626.119 231.6L626.399 235.36H626.479C627.145 233.973 627.999 232.907 629.039 232.16C630.079 231.413 631.199 231.04 632.399 231.04C633.679 231.04 634.692 231.387 635.439 232.08C636.185 232.747 636.559 233.64 636.559 234.76C636.559 235.427 636.452 236 636.239 236.48C636.052 236.933 635.745 237.293 635.319 237.56C634.919 237.8 634.412 237.92 633.799 237.92C632.999 237.92 632.385 237.747 631.959 237.4C631.559 237.053 631.359 236.613 631.359 236.08C631.359 235.84 631.399 235.6 631.479 235.36C631.559 235.12 631.679 234.84 631.839 234.52C631.999 234.2 632.199 233.84 632.439 233.44C631.825 233.2 631.172 233.173 630.479 233.36C629.812 233.547 629.185 233.92 628.599 234.48C628.039 235.013 627.572 235.693 627.199 236.52C626.852 237.32 626.679 238.187 626.679 239.12V248.44C626.679 249.08 626.745 249.52 626.879 249.76C627.012 249.973 627.292 250.107 627.719 250.16L631.039 250.6V252H619.639ZM648.576 252V250.56L650.736 250.24C651.216 250.187 651.522 250.027 651.656 249.76C651.789 249.493 651.856 249 651.856 248.28V235.96C651.856 235 651.776 234.36 651.616 234.04C651.456 233.72 651.069 233.52 650.456 233.44L648.576 233.24L648.736 231.76L655.616 231.44L656.016 231.64V248.44C656.016 249 656.082 249.427 656.216 249.72C656.349 249.987 656.669 250.16 657.176 250.24L659.336 250.6V252H648.576ZM653.376 227.28C652.549 227.28 651.869 227.027 651.336 226.52C650.802 226.013 650.536 225.347 650.536 224.52C650.536 223.72 650.802 223.067 651.336 222.56C651.869 222.027 652.549 221.76 653.376 221.76C654.256 221.76 654.949 222.013 655.456 222.52C655.989 223.027 656.256 223.693 656.256 224.52C656.256 225.32 655.989 225.987 655.456 226.52C654.922 227.027 654.229 227.28 653.376 227.28ZM681.339 252.56C679.472 252.56 677.832 252.147 676.419 251.32C675.032 250.467 673.952 249.267 673.179 247.72C672.405 246.173 672.019 244.307 672.019 242.12C672.019 239.853 672.432 237.893 673.259 236.24C674.085 234.587 675.245 233.307 676.739 232.4C678.232 231.493 679.965 231.04 681.939 231.04C683.352 231.04 684.592 231.267 685.659 231.72C686.725 232.173 687.552 232.787 688.139 233.56C688.725 234.333 689.019 235.187 689.019 236.12C689.019 236.653 688.925 237.133 688.739 237.56C688.552 237.96 688.259 238.28 687.859 238.52C687.459 238.733 686.979 238.84 686.419 238.84C685.645 238.84 685.045 238.667 684.619 238.32C684.219 237.947 684.019 237.453 684.019 236.84C684.019 236.493 684.125 236.093 684.339 235.64C684.552 235.187 684.899 234.56 685.379 233.76C684.872 233.387 684.339 233.12 683.779 232.96C683.245 232.8 682.592 232.72 681.819 232.72C680.779 232.72 679.845 233.04 679.019 233.68C678.219 234.32 677.579 235.253 677.099 236.48C676.645 237.707 676.419 239.227 676.419 241.04C676.419 243.707 676.979 245.773 678.099 247.24C679.219 248.68 680.739 249.4 682.659 249.4C683.805 249.4 684.832 249.2 685.739 248.8C686.645 248.4 687.459 247.867 688.179 247.2L689.179 248.24C688.272 249.6 687.152 250.667 685.819 251.44C684.512 252.187 683.019 252.56 681.339 252.56ZM710.697 252.56C708.617 252.56 707.03 251.987 705.937 250.84C704.87 249.667 704.337 247.947 704.337 245.68V235.84C704.337 234.907 704.257 234.293 704.097 234C703.937 233.68 703.564 233.48 702.977 233.4L701.377 233.2L701.577 231.76L708.057 231.32L708.457 231.6V245.04C708.457 246.267 708.577 247.253 708.817 248C709.057 248.72 709.444 249.253 709.977 249.6C710.51 249.92 711.23 250.08 712.137 250.08C713.177 250.08 714.07 249.867 714.817 249.44C715.564 249.013 716.137 248.4 716.537 247.6C716.964 246.8 717.177 245.853 717.177 244.76V235.84C717.177 234.933 717.097 234.32 716.937 234C716.777 233.68 716.404 233.48 715.817 233.4L714.217 233.2L714.417 231.76L720.897 231.32L721.297 231.6V248.48C721.297 249.147 721.377 249.6 721.537 249.84C721.724 250.08 722.07 250.24 722.577 250.32L724.537 250.6V252L717.857 252.28L717.377 248.88H717.257C716.67 249.733 716.044 250.44 715.377 251C714.737 251.533 714.03 251.92 713.257 252.16C712.484 252.427 711.63 252.56 710.697 252.56ZM744.351 252.56C743.204 252.56 742.231 252.36 741.431 251.96C740.658 251.533 740.071 250.88 739.671 250C739.271 249.12 739.071 247.987 739.071 246.6V233.44H736.071V231.96C737.058 231.853 737.858 231.573 738.471 231.12C739.111 230.667 739.604 229.96 739.951 229C740.298 228.04 740.524 226.773 740.631 225.2L742.791 224.92L743.231 225.16V231.6H749.231V233.44H743.231V246.2C743.231 247.373 743.431 248.253 743.831 248.84C744.258 249.4 744.964 249.68 745.951 249.68C746.618 249.68 747.258 249.56 747.871 249.32C748.511 249.08 749.124 248.72 749.711 248.24L750.431 249.32C749.604 250.36 748.684 251.16 747.671 251.72C746.684 252.28 745.578 252.56 744.351 252.56Z" fill="black" fill-opacity="0.25"/>
<g opacity="0.8">
<path d="M358.512 304.22C361.86 304.22 363.756 305.444 363.78 307.952L361.368 308.132C361.224 306.812 360.264 306.152 358.332 306.152C356.592 306.152 355.536 306.668 355.536 307.712C355.536 308.72 356.556 309.092 359.196 309.668C362.268 310.328 363.984 311.048 363.984 313.328C363.984 315.728 362.052 317.276 358.308 317.276C354.852 317.276 352.956 316.256 352.428 313.4L354.876 313.1C355.38 315.02 356.712 315.296 358.44 315.296C360.504 315.296 361.308 314.516 361.308 313.628C361.308 312.608 360.252 312.26 357.468 311.66C354.636 311.06 352.992 310.136 352.992 307.928C352.992 305.648 354.744 304.22 358.512 304.22ZM375.375 304.22C378.483 304.22 380.355 305.24 380.355 308.156V314.132C380.355 314.984 380.655 315.2 381.735 315.068V317C381.123 317.168 380.559 317.252 380.043 317.252C378.459 317.252 377.955 316.472 377.859 315.464H377.595C376.647 316.412 375.363 317.288 373.467 317.288C371.223 317.288 369.771 316.028 369.771 313.928C369.771 310.424 373.779 309.956 377.691 310.004V308.3C377.691 306.512 376.659 306.068 375.171 306.08C373.707 306.08 372.639 306.548 372.627 308L372.615 308.504H370.191V307.868C370.191 305.732 371.643 304.22 375.375 304.22ZM372.543 313.58C372.543 314.696 373.371 315.32 374.739 315.32C375.867 315.32 376.815 314.888 377.691 314.252V311.492C377.355 311.456 377.019 311.432 376.683 311.432C374.079 311.432 372.543 312.056 372.543 313.58ZM398.37 317H395.706V308.672C395.706 306.86 394.782 306.38 393.63 306.38C392.31 306.38 391.218 307.028 390.306 308V317H387.642V304.508H389.934L390.126 306.32H390.474C391.542 305.18 392.826 304.22 394.866 304.22C397.062 304.22 398.37 305.324 398.37 307.976V317ZM404.156 310.736C404.156 306.452 406.724 304.22 410.552 304.22C414.104 304.22 416.18 306.08 416.18 309.824V310.964H406.868C406.94 313.736 408.224 315.152 410.456 315.152C411.884 315.152 412.988 314.576 413.552 313.28L416.132 313.676C415.268 316.148 413.084 317.288 410.444 317.288C406.724 317.288 404.156 315.044 404.156 310.736ZM407 309.284H413.576C413.576 307.256 412.28 306.344 410.468 306.344C408.644 306.344 407.384 307.292 407 309.284ZM438.722 310.784C438.722 306.824 440.426 304.232 443.618 304.232C445.442 304.232 446.654 305.06 447.398 306.116H447.554V298.64H450.218V317H447.926L447.746 315.404H447.41C446.558 316.46 445.322 317.3 443.522 317.3C440.354 317.3 438.722 314.672 438.722 310.784ZM441.446 310.784C441.446 313.664 442.55 315.056 444.686 315.056C445.682 315.056 446.63 314.756 447.554 313.94V307.568C446.63 306.752 445.67 306.452 444.71 306.452C442.598 306.452 441.446 307.844 441.446 310.784ZM456.005 310.736C456.005 306.452 458.573 304.22 462.401 304.22C465.953 304.22 468.029 306.08 468.029 309.824V310.964H458.717C458.789 313.736 460.073 315.152 462.305 315.152C463.733 315.152 464.837 314.576 465.401 313.28L467.981 313.676C467.117 316.148 464.933 317.288 462.293 317.288C458.573 317.288 456.005 315.044 456.005 310.736ZM458.849 309.284H465.425C465.425 307.256 464.129 306.344 462.317 306.344C460.493 306.344 459.233 307.292 458.849 309.284ZM485.504 300.344C484.568 300.128 483.728 299.996 482.756 299.996C480.692 299.996 479.672 300.596 479.672 303.272V304.508H485.084V306.668H479.672V314.84H483.836V317H473.876V314.84H477.008V306.668H473.156V304.508H477.008V303.692C477.008 299.276 479.012 297.668 482.66 297.668C483.68 297.668 484.616 297.8 485.504 298.052V300.344ZM496.354 304.22C499.462 304.22 501.334 305.24 501.334 308.156V314.132C501.334 314.984 501.634 315.2 502.714 315.068V317C502.102 317.168 501.538 317.252 501.022 317.252C499.438 317.252 498.934 316.472 498.838 315.464H498.574C497.626 316.412 496.342 317.288 494.446 317.288C492.202 317.288 490.75 316.028 490.75 313.928C490.75 310.424 494.758 309.956 498.67 310.004V308.3C498.67 306.512 497.638 306.068 496.15 306.08C494.686 306.08 493.618 306.548 493.606 308L493.594 308.504H491.17V307.868C491.17 305.732 492.622 304.22 496.354 304.22ZM493.522 313.58C493.522 314.696 494.35 315.32 495.718 315.32C496.846 315.32 497.794 314.888 498.67 314.252V311.492C498.334 311.456 497.998 311.432 497.662 311.432C495.058 311.432 493.522 312.056 493.522 313.58ZM508.621 304.508H511.285V312.824C511.285 314.648 512.209 315.128 513.361 315.128C514.693 315.128 515.785 314.492 516.685 313.508V304.508H519.349V317H517.057L516.865 315.176H516.517C515.461 316.328 514.177 317.276 512.137 317.276C509.929 317.276 508.621 316.172 508.621 313.532V304.508ZM525.664 317V314.84H529.936L529.948 300.776H525.676V298.64L532.276 298.352L532.612 298.676L532.6 314.84H536.872V317H525.664ZM545.719 312.92V306.668H542.287V304.508H545.719V300.764H548.383V304.508H553.807V306.668H548.383V313.028C548.383 314.564 549.103 315.2 550.183 315.2C551.299 315.2 551.995 314.516 551.995 313.04V312.368H553.939V312.908C553.939 315.812 552.655 317.276 549.811 317.276C547.087 317.276 545.719 315.968 545.719 312.92ZM565.906 304.22C569.254 304.22 571.15 305.444 571.174 307.952L568.762 308.132C568.618 306.812 567.658 306.152 565.726 306.152C563.986 306.152 562.93 306.668 562.93 307.712C562.93 308.72 563.95 309.092 566.59 309.668C569.662 310.328 571.378 311.048 571.378 313.328C571.378 315.728 569.446 317.276 565.702 317.276C562.246 317.276 560.35 316.256 559.822 313.4L562.27 313.1C562.774 315.02 564.106 315.296 565.834 315.296C567.898 315.296 568.702 314.516 568.702 313.628C568.702 312.608 567.646 312.26 564.862 311.66C562.03 311.06 560.386 310.136 560.386 307.928C560.386 305.648 562.138 304.22 565.906 304.22Z" fill="#40A02B"/>
<path d="M589.452 311.396C588.132 311.396 587.064 310.52 587.064 309.08C587.064 307.628 588.132 306.776 589.452 306.776C590.76 306.776 591.816 307.628 591.816 309.08C591.816 310.52 590.76 311.396 589.452 311.396Z" fill="#BAC2DE"/>
<path d="M606.836 317V314.84H611.108V306.644H606.836V304.508L613.448 304.22L613.772 304.544V314.84H618.044V317H606.836ZM610.088 299.996C610.088 298.928 610.856 298.28 611.96 298.28C613.076 298.28 613.832 298.928 613.832 299.996C613.832 301.064 613.076 301.736 611.96 301.736C610.856 301.736 610.088 301.064 610.088 299.996ZM635.087 317H632.423V308.672C632.423 306.86 631.499 306.38 630.347 306.38C629.027 306.38 627.935 307.028 627.023 308V317H624.359V304.508H626.651L626.843 306.32H627.191C628.259 305.18 629.543 304.22 631.583 304.22C633.779 304.22 635.087 305.324 635.087 307.976V317ZM647.078 304.22C650.426 304.22 652.322 305.444 652.346 307.952L649.934 308.132C649.79 306.812 648.83 306.152 646.898 306.152C645.158 306.152 644.102 306.668 644.102 307.712C644.102 308.72 645.122 309.092 647.762 309.668C650.834 310.328 652.55 311.048 652.55 313.328C652.55 315.728 650.618 317.276 646.874 317.276C643.418 317.276 641.522 316.256 640.994 313.4L643.442 313.1C643.946 315.02 645.278 315.296 647.006 315.296C649.07 315.296 649.874 314.516 649.874 313.628C649.874 312.608 648.818 312.26 646.034 311.66C643.202 311.06 641.558 310.136 641.558 307.928C641.558 305.648 643.31 304.22 647.078 304.22ZM663.94 304.22C667.048 304.22 668.92 305.24 668.92 308.156V314.132C668.92 314.984 669.22 315.2 670.3 315.068V317C669.688 317.168 669.124 317.252 668.608 317.252C667.024 317.252 666.52 316.472 666.424 315.464H666.16C665.212 316.412 663.928 317.288 662.032 317.288C659.788 317.288 658.336 316.028 658.336 313.928C658.336 310.424 662.344 309.956 666.256 310.004V308.3C666.256 306.512 665.224 306.068 663.736 306.08C662.272 306.08 661.204 306.548 661.192 308L661.18 308.504H658.756V307.868C658.756 305.732 660.208 304.22 663.94 304.22ZM661.108 313.58C661.108 314.696 661.936 315.32 663.304 315.32C664.432 315.32 665.38 314.888 666.256 314.252V311.492C665.92 311.456 665.584 311.432 665.248 311.432C662.644 311.432 661.108 312.056 661.108 313.58ZM686.935 317H684.271V308.672C684.271 306.86 683.347 306.38 682.195 306.38C680.875 306.38 679.783 307.028 678.871 308V317H676.207V304.508H678.499L678.691 306.32H679.039C680.107 305.18 681.391 304.22 683.431 304.22C685.627 304.22 686.935 305.324 686.935 307.976V317ZM692.722 310.736C692.722 306.452 695.29 304.22 699.118 304.22C702.67 304.22 704.746 306.08 704.746 309.824V310.964H695.434C695.506 313.736 696.79 315.152 699.022 315.152C700.45 315.152 701.554 314.576 702.118 313.28L704.698 313.676C703.834 316.148 701.65 317.288 699.01 317.288C695.29 317.288 692.722 315.044 692.722 310.736ZM695.566 309.284H702.142C702.142 307.256 700.846 306.344 699.034 306.344C697.21 306.344 695.95 307.292 695.566 309.284ZM739.396 313.136C738.688 316.028 736.312 317.288 733.528 317.288C729.796 317.288 727.288 315.044 727.288 310.736C727.288 306.308 729.964 304.22 733.66 304.22C736.768 304.22 739.096 305.66 739.396 308.708L736.792 308.936C736.516 307.184 735.304 306.344 733.588 306.344C731.236 306.344 730.012 307.892 730.012 310.736C730.012 313.724 731.356 315.152 733.552 315.152C735.256 315.152 736.36 314.3 736.828 312.764L739.396 313.136ZM745.338 304.508H748.002V312.824C748.002 314.648 748.926 315.128 750.078 315.128C751.41 315.128 752.502 314.492 753.402 313.508V304.508H756.066V317H753.774L753.582 315.176H753.234C752.178 316.328 750.894 317.276 748.854 317.276C746.646 317.276 745.338 316.172 745.338 313.532V304.508ZM768.057 304.22C771.405 304.22 773.301 305.444 773.325 307.952L770.913 308.132C770.769 306.812 769.809 306.152 767.877 306.152C766.137 306.152 765.081 306.668 765.081 307.712C765.081 308.72 766.101 309.092 768.741 309.668C771.813 310.328 773.529 311.048 773.529 313.328C773.529 315.728 771.597 317.276 767.853 317.276C764.397 317.276 762.501 316.256 761.973 313.4L764.421 313.1C764.925 315.02 766.257 315.296 767.985 315.296C770.049 315.296 770.853 314.516 770.853 313.628C770.853 312.608 769.797 312.26 767.013 311.66C764.181 311.06 762.537 310.136 762.537 307.928C762.537 305.648 764.289 304.22 768.057 304.22ZM782.436 312.92V306.668H779.004V304.508H782.436V300.764H785.1V304.508H790.524V306.668H785.1V313.028C785.1 314.564 785.82 315.2 786.9 315.2C788.016 315.2 788.712 314.516 788.712 313.04V312.368H790.656V312.908C790.656 315.812 789.372 317.276 786.528 317.276C783.804 317.276 782.436 315.968 782.436 312.92ZM808.683 310.784C808.683 315.224 805.923 317.288 802.551 317.288C799.191 317.288 796.419 315.224 796.419 310.784C796.419 306.344 799.191 304.22 802.551 304.22C805.923 304.22 808.683 306.344 808.683 310.784ZM799.131 310.784C799.131 313.892 800.559 315.152 802.551 315.152C804.555 315.152 805.971 313.892 805.971 310.784C805.971 307.664 804.555 306.344 802.551 306.344C800.559 306.344 799.131 307.664 799.131 310.784ZM822.042 317H819.594V307.868C819.594 306.764 819.006 306.452 818.358 306.452C817.578 306.452 816.942 306.92 816.462 307.568V317H814.026V304.508H816.102L816.282 306.368H816.486C817.074 305.144 818.154 304.232 819.618 304.232C820.938 304.232 821.802 304.916 821.994 306.368H822.102C822.678 305.144 823.722 304.232 825.186 304.232C826.698 304.232 827.61 305.12 827.61 307.028L827.622 317H825.174V307.868C825.174 306.764 824.586 306.452 823.926 306.452C823.146 306.452 822.51 306.908 822.03 307.544L822.042 317ZM833.613 317V314.84H836.841V306.644H833.613V304.508L839.169 304.22L839.505 304.544V314.84H842.721V317H833.613ZM835.833 300.068C835.833 299 836.601 298.352 837.705 298.352C838.821 298.352 839.577 299 839.577 300.068C839.577 301.136 838.821 301.808 837.705 301.808C836.601 301.808 835.833 301.136 835.833 300.068ZM848.915 304.508H859.463V306.092L852.539 314.84H859.895V317H848.915V315.404L855.827 306.668H848.915V304.508ZM871.334 304.22C874.442 304.22 876.314 305.24 876.314 308.156V314.132C876.314 314.984 876.614 315.2 877.694 315.068V317C877.082 317.168 876.518 317.252 876.002 317.252C874.418 317.252 873.914 316.472 873.818 315.464H873.554C872.606 316.412 871.322 317.288 869.426 317.288C867.182 317.288 865.73 316.028 865.73 313.928C865.73 310.424 869.738 309.956 873.65 310.004V308.3C873.65 306.512 872.618 306.068 871.13 306.08C869.666 306.08 868.598 306.548 868.586 308L868.574 308.504H866.15V307.868C866.15 305.732 867.602 304.22 871.334 304.22ZM868.502 313.58C868.502 314.696 869.33 315.32 870.698 315.32C871.826 315.32 872.774 314.888 873.65 314.252V311.492C873.314 311.456 872.978 311.432 872.642 311.432C870.038 311.432 868.502 312.056 868.502 313.58ZM886.133 312.92V306.668H882.701V304.508H886.133V300.764H888.797V304.508H894.221V306.668H888.797V313.028C888.797 314.564 889.517 315.2 890.597 315.2C891.713 315.2 892.409 314.516 892.409 313.04V312.368H894.353V312.908C894.353 315.812 893.069 317.276 890.225 317.276C887.501 317.276 886.133 315.968 886.133 312.92ZM900.644 317V314.84H904.916V306.644H900.644V304.508L907.256 304.22L907.58 304.544V314.84H911.852V317H900.644ZM903.896 299.996C903.896 298.928 904.664 298.28 905.768 298.28C906.884 298.28 907.64 298.928 907.64 299.996C907.64 301.064 906.884 301.736 905.768 301.736C904.664 301.736 903.896 301.064 903.896 299.996ZM929.663 310.784C929.663 315.224 926.903 317.288 923.531 317.288C920.171 317.288 917.399 315.224 917.399 310.784C917.399 306.344 920.171 304.22 923.531 304.22C926.903 304.22 929.663 306.344 929.663 310.784ZM920.111 310.784C920.111 313.892 921.539 315.152 923.531 315.152C925.535 315.152 926.951 313.892 926.951 310.784C926.951 307.664 925.535 306.344 923.531 306.344C921.539 306.344 920.111 307.664 920.111 310.784ZM946.177 317H943.513V308.672C943.513 306.86 942.589 306.38 941.437 306.38C940.117 306.38 939.025 307.028 938.113 308V317H935.449V304.508H937.741L937.933 306.32H938.281C939.349 305.18 940.633 304.22 942.673 304.22C944.869 304.22 946.177 305.324 946.177 307.976V317Z" fill="#179299"/>
</g>
</svg>
