<svg width="1300" height="350" viewBox="0 0 1300 350" fill="none" xmlns="http://www.w3.org/2000/svg">
<path d="M581.545 143.705V85.5227H595V89.9773H586.636V139.25H595V143.705H581.545Z" fill="#32C572"/>
<path d="M653.52 129.25V126.018L657.84 124.258V105.666C657.84 101.602 655.728 100.194 652.912 100.194C650.704 100.194 647.696 100.898 644.272 102.786V124.322L648.496 126.018V129.25H634V126.018L638.32 124.258V102.338L632.72 101.474V97.922L643.088 95.522L643.92 95.874V99.554C648.112 96.898 651.952 95.362 655.696 95.362C661.168 95.362 663.792 98.466 663.792 104.418V124.322L668.016 126.018V129.25H653.52Z" fill="#2A2D3F"/>
<path d="M717.636 85.5227V143.705H704.182V139.25H712.545V89.9773H704.182V85.5227H717.636Z" fill="#32C572"/>
<path d="M545.92 252V250.6L547.8 250.32C548.227 250.24 548.507 250.08 548.64 249.84C548.773 249.573 548.84 249.093 548.84 248.4V235.84C548.84 234.907 548.76 234.28 548.6 233.96C548.44 233.64 548.067 233.453 547.48 233.4L545.56 233.16L545.76 231.76L552.12 231.32L552.48 231.6L552.64 235.32H552.72C553.387 233.96 554.347 232.907 555.6 232.16C556.853 231.413 558.2 231.04 559.64 231.04C561.053 231.04 562.24 231.307 563.2 231.84C564.16 232.347 564.88 233.12 565.36 234.16C565.84 235.173 566.08 236.427 566.08 237.92V248.68C566.08 249.293 566.16 249.707 566.32 249.92C566.48 250.133 566.813 250.28 567.32 250.36L569.12 250.6V252H559.08V250.64L560.76 250.4C561.267 250.293 561.587 250.133 561.72 249.92C561.88 249.707 561.96 249.307 561.96 248.72V238.56C561.96 237.307 561.84 236.32 561.6 235.6C561.36 234.853 560.96 234.32 560.4 234C559.867 233.68 559.12 233.52 558.16 233.52C557.147 233.52 556.24 233.747 555.44 234.2C554.667 234.627 554.053 235.253 553.6 236.08C553.173 236.88 552.96 237.84 552.96 238.96V248.56C552.96 249.147 553.027 249.56 553.16 249.8C553.293 250.04 553.56 250.2 553.96 250.28L555.96 250.64V252H545.92ZM591.656 252.56C589.656 252.56 587.909 252.147 586.416 251.32C584.949 250.467 583.816 249.28 583.016 247.76C582.216 246.213 581.816 244.373 581.816 242.24C581.816 239.893 582.242 237.893 583.096 236.24C583.949 234.56 585.149 233.28 586.696 232.4C588.269 231.493 590.109 231.04 592.216 231.04C594.162 231.04 595.856 231.453 597.296 232.28C598.736 233.08 599.842 234.253 600.616 235.8C601.416 237.32 601.816 239.147 601.816 241.28C601.816 243.573 601.389 245.573 600.536 247.28C599.709 248.96 598.536 250.267 597.016 251.2C595.496 252.107 593.709 252.56 591.656 252.56ZM592.256 250.72C593.349 250.72 594.269 250.413 595.016 249.8C595.789 249.187 596.362 248.253 596.736 247C597.109 245.747 597.296 244.147 597.296 242.2C597.296 240.653 597.162 239.293 596.896 238.12C596.656 236.92 596.282 235.933 595.776 235.16C595.269 234.387 594.656 233.813 593.936 233.44C593.242 233.04 592.442 232.84 591.536 232.84C590.416 232.84 589.469 233.133 588.696 233.72C587.922 234.28 587.322 235.173 586.896 236.4C586.496 237.6 586.296 239.147 586.296 241.04C586.296 243.2 586.536 245 587.016 246.44C587.522 247.853 588.216 248.92 589.096 249.64C589.976 250.36 591.029 250.72 592.256 250.72ZM615.139 252V250.6L617.019 250.28C617.445 250.2 617.725 250.04 617.859 249.8C617.992 249.533 618.059 249.053 618.059 248.36V235.88C618.059 234.947 617.979 234.32 617.819 234C617.659 233.653 617.285 233.453 616.699 233.4L614.779 233.2L614.979 231.76L621.259 231.32L621.619 231.6L621.899 235.36H621.979C622.645 233.973 623.499 232.907 624.539 232.16C625.579 231.413 626.699 231.04 627.899 231.04C629.179 231.04 630.192 231.387 630.939 232.08C631.685 232.747 632.059 233.64 632.059 234.76C632.059 235.427 631.952 236 631.739 236.48C631.552 236.933 631.245 237.293 630.819 237.56C630.419 237.8 629.912 237.92 629.299 237.92C628.499 237.92 627.885 237.747 627.459 237.4C627.059 237.053 626.859 236.613 626.859 236.08C626.859 235.84 626.899 235.6 626.979 235.36C627.059 235.12 627.179 234.84 627.339 234.52C627.499 234.2 627.699 233.84 627.939 233.44C627.325 233.2 626.672 233.173 625.979 233.36C625.312 233.547 624.685 233.92 624.099 234.48C623.539 235.013 623.072 235.693 622.699 236.52C622.352 237.32 622.179 238.187 622.179 239.12V248.44C622.179 249.08 622.245 249.52 622.379 249.76C622.512 249.973 622.792 250.107 623.219 250.16L626.539 250.6V252H615.139ZM644.076 252V250.56L646.236 250.24C646.716 250.187 647.022 250.027 647.156 249.76C647.289 249.493 647.356 249 647.356 248.28V235.96C647.356 235 647.276 234.36 647.116 234.04C646.956 233.72 646.569 233.52 645.956 233.44L644.076 233.24L644.236 231.76L651.116 231.44L651.516 231.64V248.44C651.516 249 651.582 249.427 651.716 249.72C651.849 249.987 652.169 250.16 652.676 250.24L654.836 250.6V252H644.076ZM648.876 227.28C648.049 227.28 647.369 227.027 646.836 226.52C646.302 226.013 646.036 225.347 646.036 224.52C646.036 223.72 646.302 223.067 646.836 222.56C647.369 222.027 648.049 221.76 648.876 221.76C649.756 221.76 650.449 222.013 650.956 222.52C651.489 223.027 651.756 223.693 651.756 224.52C651.756 225.32 651.489 225.987 650.956 226.52C650.422 227.027 649.729 227.28 648.876 227.28ZM670.251 252.52L669.251 252.28V225.68C669.251 224.8 669.171 224.2 669.011 223.88C668.851 223.533 668.398 223.32 667.651 223.24L665.891 223.04L666.051 221.56L673.011 221.36L673.411 221.68V234.56L673.451 234.72C673.984 233.84 674.571 233.133 675.211 232.6C675.878 232.04 676.611 231.64 677.411 231.4C678.238 231.16 679.118 231.04 680.051 231.04C681.704 231.04 683.118 231.427 684.291 232.2C685.491 232.973 686.411 234.093 687.051 235.56C687.691 237.027 688.011 238.853 688.011 241.04C688.011 243.44 687.638 245.507 686.891 247.24C686.144 248.947 685.051 250.267 683.611 251.2C682.198 252.107 680.478 252.56 678.451 252.56C677.331 252.56 676.264 252.4 675.251 252.08C674.238 251.787 673.331 251.36 672.531 250.8L670.251 252.52ZM678.131 250.68C679.278 250.68 680.251 250.373 681.051 249.76C681.878 249.12 682.504 248.147 682.931 246.84C683.358 245.507 683.571 243.8 683.571 241.72C683.571 239.8 683.384 238.24 683.011 237.04C682.638 235.813 682.078 234.907 681.331 234.32C680.611 233.733 679.691 233.44 678.571 233.44C677.531 233.44 676.611 233.667 675.811 234.12C675.038 234.547 674.438 235.173 674.011 236C673.611 236.827 673.411 237.84 673.411 239.04V248.84C673.998 249.373 674.691 249.813 675.491 250.16C676.318 250.507 677.198 250.68 678.131 250.68ZM711.538 252.56C709.538 252.56 707.792 252.147 706.298 251.32C704.832 250.467 703.698 249.28 702.898 247.76C702.098 246.213 701.698 244.373 701.698 242.24C701.698 239.893 702.125 237.893 702.978 236.24C703.832 234.56 705.032 233.28 706.578 232.4C708.152 231.493 709.992 231.04 712.098 231.04C714.045 231.04 715.738 231.453 717.178 232.28C718.618 233.08 719.725 234.253 720.498 235.8C721.298 237.32 721.698 239.147 721.698 241.28C721.698 243.573 721.272 245.573 720.418 247.28C719.592 248.96 718.418 250.267 716.898 251.2C715.378 252.107 713.592 252.56 711.538 252.56ZM712.138 250.72C713.232 250.72 714.152 250.413 714.898 249.8C715.672 249.187 716.245 248.253 716.618 247C716.992 245.747 717.178 244.147 717.178 242.2C717.178 240.653 717.045 239.293 716.778 238.12C716.538 236.92 716.165 235.933 715.658 235.16C715.152 234.387 714.538 233.813 713.818 233.44C713.125 233.04 712.325 232.84 711.418 232.84C710.298 232.84 709.352 233.133 708.578 233.72C707.805 234.28 707.205 235.173 706.778 236.4C706.378 237.6 706.178 239.147 706.178 241.04C706.178 243.2 706.418 245 706.898 246.44C707.405 247.853 708.098 248.92 708.978 249.64C709.858 250.36 710.912 250.72 712.138 250.72ZM733.065 252V250.6L734.745 250.32C735.012 250.24 735.265 250.147 735.505 250.04C735.745 249.933 735.999 249.773 736.265 249.56C736.559 249.32 736.879 249 737.225 248.6L742.185 242.32L736.865 235.28C736.385 234.64 735.972 234.173 735.625 233.88C735.305 233.587 734.865 233.387 734.305 233.28L732.905 233L733.185 231.6H743.425V232.96L741.705 233.2C741.279 233.28 741.012 233.44 740.905 233.68C740.825 233.92 741.012 234.333 741.465 234.92L744.985 239.64L748.425 235.04C748.799 234.533 748.945 234.133 748.865 233.84C748.812 233.547 748.479 233.347 747.865 233.24L746.225 232.96L746.505 231.6H754.665V232.96L753.025 233.24C752.705 233.32 752.412 233.427 752.145 233.56C751.905 233.667 751.652 233.84 751.385 234.08C751.145 234.32 750.852 234.667 750.505 235.12L746.025 240.96L751.585 248.36C751.932 248.787 752.252 249.133 752.545 249.4C752.839 249.667 753.132 249.88 753.425 250.04C753.745 250.173 754.065 250.28 754.385 250.36L755.705 250.56V252H744.945V250.6L746.545 250.44C747.105 250.387 747.425 250.213 747.505 249.92C747.585 249.6 747.412 249.173 746.985 248.64L743.265 243.68L739.425 248.68C739.212 249 739.065 249.267 738.985 249.48C738.905 249.693 738.919 249.867 739.025 250C739.159 250.133 739.412 250.24 739.785 250.32L741.745 250.64V252H733.065Z" fill="#5C5F77"/>
<path d="M545.92 252V250.6L547.8 250.32C548.227 250.24 548.507 250.08 548.64 249.84C548.773 249.573 548.84 249.093 548.84 248.4V235.84C548.84 234.907 548.76 234.28 548.6 233.96C548.44 233.64 548.067 233.453 547.48 233.4L545.56 233.16L545.76 231.76L552.12 231.32L552.48 231.6L552.64 235.32H552.72C553.387 233.96 554.347 232.907 555.6 232.16C556.853 231.413 558.2 231.04 559.64 231.04C561.053 231.04 562.24 231.307 563.2 231.84C564.16 232.347 564.88 233.12 565.36 234.16C565.84 235.173 566.08 236.427 566.08 237.92V248.68C566.08 249.293 566.16 249.707 566.32 249.92C566.48 250.133 566.813 250.28 567.32 250.36L569.12 250.6V252H559.08V250.64L560.76 250.4C561.267 250.293 561.587 250.133 561.72 249.92C561.88 249.707 561.96 249.307 561.96 248.72V238.56C561.96 237.307 561.84 236.32 561.6 235.6C561.36 234.853 560.96 234.32 560.4 234C559.867 233.68 559.12 233.52 558.16 233.52C557.147 233.52 556.24 233.747 555.44 234.2C554.667 234.627 554.053 235.253 553.6 236.08C553.173 236.88 552.96 237.84 552.96 238.96V248.56C552.96 249.147 553.027 249.56 553.16 249.8C553.293 250.04 553.56 250.2 553.96 250.28L555.96 250.64V252H545.92ZM591.656 252.56C589.656 252.56 587.909 252.147 586.416 251.32C584.949 250.467 583.816 249.28 583.016 247.76C582.216 246.213 581.816 244.373 581.816 242.24C581.816 239.893 582.242 237.893 583.096 236.24C583.949 234.56 585.149 233.28 586.696 232.4C588.269 231.493 590.109 231.04 592.216 231.04C594.162 231.04 595.856 231.453 597.296 232.28C598.736 233.08 599.842 234.253 600.616 235.8C601.416 237.32 601.816 239.147 601.816 241.28C601.816 243.573 601.389 245.573 600.536 247.28C599.709 248.96 598.536 250.267 597.016 251.2C595.496 252.107 593.709 252.56 591.656 252.56ZM592.256 250.72C593.349 250.72 594.269 250.413 595.016 249.8C595.789 249.187 596.362 248.253 596.736 247C597.109 245.747 597.296 244.147 597.296 242.2C597.296 240.653 597.162 239.293 596.896 238.12C596.656 236.92 596.282 235.933 595.776 235.16C595.269 234.387 594.656 233.813 593.936 233.44C593.242 233.04 592.442 232.84 591.536 232.84C590.416 232.84 589.469 233.133 588.696 233.72C587.922 234.28 587.322 235.173 586.896 236.4C586.496 237.6 586.296 239.147 586.296 241.04C586.296 243.2 586.536 245 587.016 246.44C587.522 247.853 588.216 248.92 589.096 249.64C589.976 250.36 591.029 250.72 592.256 250.72ZM615.139 252V250.6L617.019 250.28C617.445 250.2 617.725 250.04 617.859 249.8C617.992 249.533 618.059 249.053 618.059 248.36V235.88C618.059 234.947 617.979 234.32 617.819 234C617.659 233.653 617.285 233.453 616.699 233.4L614.779 233.2L614.979 231.76L621.259 231.32L621.619 231.6L621.899 235.36H621.979C622.645 233.973 623.499 232.907 624.539 232.16C625.579 231.413 626.699 231.04 627.899 231.04C629.179 231.04 630.192 231.387 630.939 232.08C631.685 232.747 632.059 233.64 632.059 234.76C632.059 235.427 631.952 236 631.739 236.48C631.552 236.933 631.245 237.293 630.819 237.56C630.419 237.8 629.912 237.92 629.299 237.92C628.499 237.92 627.885 237.747 627.459 237.4C627.059 237.053 626.859 236.613 626.859 236.08C626.859 235.84 626.899 235.6 626.979 235.36C627.059 235.12 627.179 234.84 627.339 234.52C627.499 234.2 627.699 233.84 627.939 233.44C627.325 233.2 626.672 233.173 625.979 233.36C625.312 233.547 624.685 233.92 624.099 234.48C623.539 235.013 623.072 235.693 622.699 236.52C622.352 237.32 622.179 238.187 622.179 239.12V248.44C622.179 249.08 622.245 249.52 622.379 249.76C622.512 249.973 622.792 250.107 623.219 250.16L626.539 250.6V252H615.139ZM644.076 252V250.56L646.236 250.24C646.716 250.187 647.022 250.027 647.156 249.76C647.289 249.493 647.356 249 647.356 248.28V235.96C647.356 235 647.276 234.36 647.116 234.04C646.956 233.72 646.569 233.52 645.956 233.44L644.076 233.24L644.236 231.76L651.116 231.44L651.516 231.64V248.44C651.516 249 651.582 249.427 651.716 249.72C651.849 249.987 652.169 250.16 652.676 250.24L654.836 250.6V252H644.076ZM648.876 227.28C648.049 227.28 647.369 227.027 646.836 226.52C646.302 226.013 646.036 225.347 646.036 224.52C646.036 223.72 646.302 223.067 646.836 222.56C647.369 222.027 648.049 221.76 648.876 221.76C649.756 221.76 650.449 222.013 650.956 222.52C651.489 223.027 651.756 223.693 651.756 224.52C651.756 225.32 651.489 225.987 650.956 226.52C650.422 227.027 649.729 227.28 648.876 227.28ZM670.251 252.52L669.251 252.28V225.68C669.251 224.8 669.171 224.2 669.011 223.88C668.851 223.533 668.398 223.32 667.651 223.24L665.891 223.04L666.051 221.56L673.011 221.36L673.411 221.68V234.56L673.451 234.72C673.984 233.84 674.571 233.133 675.211 232.6C675.878 232.04 676.611 231.64 677.411 231.4C678.238 231.16 679.118 231.04 680.051 231.04C681.704 231.04 683.118 231.427 684.291 232.2C685.491 232.973 686.411 234.093 687.051 235.56C687.691 237.027 688.011 238.853 688.011 241.04C688.011 243.44 687.638 245.507 686.891 247.24C686.144 248.947 685.051 250.267 683.611 251.2C682.198 252.107 680.478 252.56 678.451 252.56C677.331 252.56 676.264 252.4 675.251 252.08C674.238 251.787 673.331 251.36 672.531 250.8L670.251 252.52ZM678.131 250.68C679.278 250.68 680.251 250.373 681.051 249.76C681.878 249.12 682.504 248.147 682.931 246.84C683.358 245.507 683.571 243.8 683.571 241.72C683.571 239.8 683.384 238.24 683.011 237.04C682.638 235.813 682.078 234.907 681.331 234.32C680.611 233.733 679.691 233.44 678.571 233.44C677.531 233.44 676.611 233.667 675.811 234.12C675.038 234.547 674.438 235.173 674.011 236C673.611 236.827 673.411 237.84 673.411 239.04V248.84C673.998 249.373 674.691 249.813 675.491 250.16C676.318 250.507 677.198 250.68 678.131 250.68ZM711.538 252.56C709.538 252.56 707.792 252.147 706.298 251.32C704.832 250.467 703.698 249.28 702.898 247.76C702.098 246.213 701.698 244.373 701.698 242.24C701.698 239.893 702.125 237.893 702.978 236.24C703.832 234.56 705.032 233.28 706.578 232.4C708.152 231.493 709.992 231.04 712.098 231.04C714.045 231.04 715.738 231.453 717.178 232.28C718.618 233.08 719.725 234.253 720.498 235.8C721.298 237.32 721.698 239.147 721.698 241.28C721.698 243.573 721.272 245.573 720.418 247.28C719.592 248.96 718.418 250.267 716.898 251.2C715.378 252.107 713.592 252.56 711.538 252.56ZM712.138 250.72C713.232 250.72 714.152 250.413 714.898 249.8C715.672 249.187 716.245 248.253 716.618 247C716.992 245.747 717.178 244.147 717.178 242.2C717.178 240.653 717.045 239.293 716.778 238.12C716.538 236.92 716.165 235.933 715.658 235.16C715.152 234.387 714.538 233.813 713.818 233.44C713.125 233.04 712.325 232.84 711.418 232.84C710.298 232.84 709.352 233.133 708.578 233.72C707.805 234.28 707.205 235.173 706.778 236.4C706.378 237.6 706.178 239.147 706.178 241.04C706.178 243.2 706.418 245 706.898 246.44C707.405 247.853 708.098 248.92 708.978 249.64C709.858 250.36 710.912 250.72 712.138 250.72ZM733.065 252V250.6L734.745 250.32C735.012 250.24 735.265 250.147 735.505 250.04C735.745 249.933 735.999 249.773 736.265 249.56C736.559 249.32 736.879 249 737.225 248.6L742.185 242.32L736.865 235.28C736.385 234.64 735.972 234.173 735.625 233.88C735.305 233.587 734.865 233.387 734.305 233.28L732.905 233L733.185 231.6H743.425V232.96L741.705 233.2C741.279 233.28 741.012 233.44 740.905 233.68C740.825 233.92 741.012 234.333 741.465 234.92L744.985 239.64L748.425 235.04C748.799 234.533 748.945 234.133 748.865 233.84C748.812 233.547 748.479 233.347 747.865 233.24L746.225 232.96L746.505 231.6H754.665V232.96L753.025 233.24C752.705 233.32 752.412 233.427 752.145 233.56C751.905 233.667 751.652 233.84 751.385 234.08C751.145 234.32 750.852 234.667 750.505 235.12L746.025 240.96L751.585 248.36C751.932 248.787 752.252 249.133 752.545 249.4C752.839 249.667 753.132 249.88 753.425 250.04C753.745 250.173 754.065 250.28 754.385 250.36L755.705 250.56V252H744.945V250.6L746.545 250.44C747.105 250.387 747.425 250.213 747.505 249.92C747.585 249.6 747.412 249.173 746.985 248.64L743.265 243.68L739.425 248.68C739.212 249 739.065 249.267 738.985 249.48C738.905 249.693 738.919 249.867 739.025 250C739.159 250.133 739.412 250.24 739.785 250.32L741.745 250.64V252H733.065Z" fill="black" fill-opacity="0.25"/>
<g opacity="0.8">
<path d="M358.512 304.22C361.86 304.22 363.756 305.444 363.78 307.952L361.368 308.132C361.224 306.812 360.264 306.152 358.332 306.152C356.592 306.152 355.536 306.668 355.536 307.712C355.536 308.72 356.556 309.092 359.196 309.668C362.268 310.328 363.984 311.048 363.984 313.328C363.984 315.728 362.052 317.276 358.308 317.276C354.852 317.276 352.956 316.256 352.428 313.4L354.876 313.1C355.38 315.02 356.712 315.296 358.44 315.296C360.504 315.296 361.308 314.516 361.308 313.628C361.308 312.608 360.252 312.26 357.468 311.66C354.636 311.06 352.992 310.136 352.992 307.928C352.992 305.648 354.744 304.22 358.512 304.22ZM375.375 304.22C378.483 304.22 380.355 305.24 380.355 308.156V314.132C380.355 314.984 380.655 315.2 381.735 315.068V317C381.123 317.168 380.559 317.252 380.043 317.252C378.459 317.252 377.955 316.472 377.859 315.464H377.595C376.647 316.412 375.363 317.288 373.467 317.288C371.223 317.288 369.771 316.028 369.771 313.928C369.771 310.424 373.779 309.956 377.691 310.004V308.3C377.691 306.512 376.659 306.068 375.171 306.08C373.707 306.08 372.639 306.548 372.627 308L372.615 308.504H370.191V307.868C370.191 305.732 371.643 304.22 375.375 304.22ZM372.543 313.58C372.543 314.696 373.371 315.32 374.739 315.32C375.867 315.32 376.815 314.888 377.691 314.252V311.492C377.355 311.456 377.019 311.432 376.683 311.432C374.079 311.432 372.543 312.056 372.543 313.58ZM398.37 317H395.706V308.672C395.706 306.86 394.782 306.38 393.63 306.38C392.31 306.38 391.218 307.028 390.306 308V317H387.642V304.508H389.934L390.126 306.32H390.474C391.542 305.18 392.826 304.22 394.866 304.22C397.062 304.22 398.37 305.324 398.37 307.976V317ZM404.156 310.736C404.156 306.452 406.724 304.22 410.552 304.22C414.104 304.22 416.18 306.08 416.18 309.824V310.964H406.868C406.94 313.736 408.224 315.152 410.456 315.152C411.884 315.152 412.988 314.576 413.552 313.28L416.132 313.676C415.268 316.148 413.084 317.288 410.444 317.288C406.724 317.288 404.156 315.044 404.156 310.736ZM407 309.284H413.576C413.576 307.256 412.28 306.344 410.468 306.344C408.644 306.344 407.384 307.292 407 309.284ZM438.722 310.784C438.722 306.824 440.426 304.232 443.618 304.232C445.442 304.232 446.654 305.06 447.398 306.116H447.554V298.64H450.218V317H447.926L447.746 315.404H447.41C446.558 316.46 445.322 317.3 443.522 317.3C440.354 317.3 438.722 314.672 438.722 310.784ZM441.446 310.784C441.446 313.664 442.55 315.056 444.686 315.056C445.682 315.056 446.63 314.756 447.554 313.94V307.568C446.63 306.752 445.67 306.452 444.71 306.452C442.598 306.452 441.446 307.844 441.446 310.784ZM456.005 310.736C456.005 306.452 458.573 304.22 462.401 304.22C465.953 304.22 468.029 306.08 468.029 309.824V310.964H458.717C458.789 313.736 460.073 315.152 462.305 315.152C463.733 315.152 464.837 314.576 465.401 313.28L467.981 313.676C467.117 316.148 464.933 317.288 462.293 317.288C458.573 317.288 456.005 315.044 456.005 310.736ZM458.849 309.284H465.425C465.425 307.256 464.129 306.344 462.317 306.344C460.493 306.344 459.233 307.292 458.849 309.284ZM485.504 300.344C484.568 300.128 483.728 299.996 482.756 299.996C480.692 299.996 479.672 300.596 479.672 303.272V304.508H485.084V306.668H479.672V314.84H483.836V317H473.876V314.84H477.008V306.668H473.156V304.508H477.008V303.692C477.008 299.276 479.012 297.668 482.66 297.668C483.68 297.668 484.616 297.8 485.504 298.052V300.344ZM496.354 304.22C499.462 304.22 501.334 305.24 501.334 308.156V314.132C501.334 314.984 501.634 315.2 502.714 315.068V317C502.102 317.168 501.538 317.252 501.022 317.252C499.438 317.252 498.934 316.472 498.838 315.464H498.574C497.626 316.412 496.342 317.288 494.446 317.288C492.202 317.288 490.75 316.028 490.75 313.928C490.75 310.424 494.758 309.956 498.67 310.004V308.3C498.67 306.512 497.638 306.068 496.15 306.08C494.686 306.08 493.618 306.548 493.606 308L493.594 308.504H491.17V307.868C491.17 305.732 492.622 304.22 496.354 304.22ZM493.522 313.58C493.522 314.696 494.35 315.32 495.718 315.32C496.846 315.32 497.794 314.888 498.67 314.252V311.492C498.334 311.456 497.998 311.432 497.662 311.432C495.058 311.432 493.522 312.056 493.522 313.58ZM508.621 304.508H511.285V312.824C511.285 314.648 512.209 315.128 513.361 315.128C514.693 315.128 515.785 314.492 516.685 313.508V304.508H519.349V317H517.057L516.865 315.176H516.517C515.461 316.328 514.177 317.276 512.137 317.276C509.929 317.276 508.621 316.172 508.621 313.532V304.508ZM525.664 317V314.84H529.936L529.948 300.776H525.676V298.64L532.276 298.352L532.612 298.676L532.6 314.84H536.872V317H525.664ZM545.719 312.92V306.668H542.287V304.508H545.719V300.764H548.383V304.508H553.807V306.668H548.383V313.028C548.383 314.564 549.103 315.2 550.183 315.2C551.299 315.2 551.995 314.516 551.995 313.04V312.368H553.939V312.908C553.939 315.812 552.655 317.276 549.811 317.276C547.087 317.276 545.719 315.968 545.719 312.92ZM565.906 304.22C569.254 304.22 571.15 305.444 571.174 307.952L568.762 308.132C568.618 306.812 567.658 306.152 565.726 306.152C563.986 306.152 562.93 306.668 562.93 307.712C562.93 308.72 563.95 309.092 566.59 309.668C569.662 310.328 571.378 311.048 571.378 313.328C571.378 315.728 569.446 317.276 565.702 317.276C562.246 317.276 560.35 316.256 559.822 313.4L562.27 313.1C562.774 315.02 564.106 315.296 565.834 315.296C567.898 315.296 568.702 314.516 568.702 313.628C568.702 312.608 567.646 312.26 564.862 311.66C562.03 311.06 560.386 310.136 560.386 307.928C560.386 305.648 562.138 304.22 565.906 304.22Z" fill="#40A02B"/>
<path d="M589.452 311.396C588.132 311.396 587.064 310.52 587.064 309.08C587.064 307.628 588.132 306.776 589.452 306.776C590.76 306.776 591.816 307.628 591.816 309.08C591.816 310.52 590.76 311.396 589.452 311.396Z" fill="#BAC2DE"/>
<path d="M606.836 317V314.84H611.108V306.644H606.836V304.508L613.448 304.22L613.772 304.544V314.84H618.044V317H606.836ZM610.088 299.996C610.088 298.928 610.856 298.28 611.96 298.28C613.076 298.28 613.832 298.928 613.832 299.996C613.832 301.064 613.076 301.736 611.96 301.736C610.856 301.736 610.088 301.064 610.088 299.996ZM635.087 317H632.423V308.672C632.423 306.86 631.499 306.38 630.347 306.38C629.027 306.38 627.935 307.028 627.023 308V317H624.359V304.508H626.651L626.843 306.32H627.191C628.259 305.18 629.543 304.22 631.583 304.22C633.779 304.22 635.087 305.324 635.087 307.976V317ZM647.078 304.22C650.426 304.22 652.322 305.444 652.346 307.952L649.934 308.132C649.79 306.812 648.83 306.152 646.898 306.152C645.158 306.152 644.102 306.668 644.102 307.712C644.102 308.72 645.122 309.092 647.762 309.668C650.834 310.328 652.55 311.048 652.55 313.328C652.55 315.728 650.618 317.276 646.874 317.276C643.418 317.276 641.522 316.256 640.994 313.4L643.442 313.1C643.946 315.02 645.278 315.296 647.006 315.296C649.07 315.296 649.874 314.516 649.874 313.628C649.874 312.608 648.818 312.26 646.034 311.66C643.202 311.06 641.558 310.136 641.558 307.928C641.558 305.648 643.31 304.22 647.078 304.22ZM663.94 304.22C667.048 304.22 668.92 305.24 668.92 308.156V314.132C668.92 314.984 669.22 315.2 670.3 315.068V317C669.688 317.168 669.124 317.252 668.608 317.252C667.024 317.252 666.52 316.472 666.424 315.464H666.16C665.212 316.412 663.928 317.288 662.032 317.288C659.788 317.288 658.336 316.028 658.336 313.928C658.336 310.424 662.344 309.956 666.256 310.004V308.3C666.256 306.512 665.224 306.068 663.736 306.08C662.272 306.08 661.204 306.548 661.192 308L661.18 308.504H658.756V307.868C658.756 305.732 660.208 304.22 663.94 304.22ZM661.108 313.58C661.108 314.696 661.936 315.32 663.304 315.32C664.432 315.32 665.38 314.888 666.256 314.252V311.492C665.92 311.456 665.584 311.432 665.248 311.432C662.644 311.432 661.108 312.056 661.108 313.58ZM686.935 317H684.271V308.672C684.271 306.86 683.347 306.38 682.195 306.38C680.875 306.38 679.783 307.028 678.871 308V317H676.207V304.508H678.499L678.691 306.32H679.039C680.107 305.18 681.391 304.22 683.431 304.22C685.627 304.22 686.935 305.324 686.935 307.976V317ZM692.722 310.736C692.722 306.452 695.29 304.22 699.118 304.22C702.67 304.22 704.746 306.08 704.746 309.824V310.964H695.434C695.506 313.736 696.79 315.152 699.022 315.152C700.45 315.152 701.554 314.576 702.118 313.28L704.698 313.676C703.834 316.148 701.65 317.288 699.01 317.288C695.29 317.288 692.722 315.044 692.722 310.736ZM695.566 309.284H702.142C702.142 307.256 700.846 306.344 699.034 306.344C697.21 306.344 695.95 307.292 695.566 309.284ZM739.396 313.136C738.688 316.028 736.312 317.288 733.528 317.288C729.796 317.288 727.288 315.044 727.288 310.736C727.288 306.308 729.964 304.22 733.66 304.22C736.768 304.22 739.096 305.66 739.396 308.708L736.792 308.936C736.516 307.184 735.304 306.344 733.588 306.344C731.236 306.344 730.012 307.892 730.012 310.736C730.012 313.724 731.356 315.152 733.552 315.152C735.256 315.152 736.36 314.3 736.828 312.764L739.396 313.136ZM745.338 304.508H748.002V312.824C748.002 314.648 748.926 315.128 750.078 315.128C751.41 315.128 752.502 314.492 753.402 313.508V304.508H756.066V317H753.774L753.582 315.176H753.234C752.178 316.328 750.894 317.276 748.854 317.276C746.646 317.276 745.338 316.172 745.338 313.532V304.508ZM768.057 304.22C771.405 304.22 773.301 305.444 773.325 307.952L770.913 308.132C770.769 306.812 769.809 306.152 767.877 306.152C766.137 306.152 765.081 306.668 765.081 307.712C765.081 308.72 766.101 309.092 768.741 309.668C771.813 310.328 773.529 311.048 773.529 313.328C773.529 315.728 771.597 317.276 767.853 317.276C764.397 317.276 762.501 316.256 761.973 313.4L764.421 313.1C764.925 315.02 766.257 315.296 767.985 315.296C770.049 315.296 770.853 314.516 770.853 313.628C770.853 312.608 769.797 312.26 767.013 311.66C764.181 311.06 762.537 310.136 762.537 307.928C762.537 305.648 764.289 304.22 768.057 304.22ZM782.436 312.92V306.668H779.004V304.508H782.436V300.764H785.1V304.508H790.524V306.668H785.1V313.028C785.1 314.564 785.82 315.2 786.9 315.2C788.016 315.2 788.712 314.516 788.712 313.04V312.368H790.656V312.908C790.656 315.812 789.372 317.276 786.528 317.276C783.804 317.276 782.436 315.968 782.436 312.92ZM808.683 310.784C808.683 315.224 805.923 317.288 802.551 317.288C799.191 317.288 796.419 315.224 796.419 310.784C796.419 306.344 799.191 304.22 802.551 304.22C805.923 304.22 808.683 306.344 808.683 310.784ZM799.131 310.784C799.131 313.892 800.559 315.152 802.551 315.152C804.555 315.152 805.971 313.892 805.971 310.784C805.971 307.664 804.555 306.344 802.551 306.344C800.559 306.344 799.131 307.664 799.131 310.784ZM822.042 317H819.594V307.868C819.594 306.764 819.006 306.452 818.358 306.452C817.578 306.452 816.942 306.92 816.462 307.568V317H814.026V304.508H816.102L816.282 306.368H816.486C817.074 305.144 818.154 304.232 819.618 304.232C820.938 304.232 821.802 304.916 821.994 306.368H822.102C822.678 305.144 823.722 304.232 825.186 304.232C826.698 304.232 827.61 305.12 827.61 307.028L827.622 317H825.174V307.868C825.174 306.764 824.586 306.452 823.926 306.452C823.146 306.452 822.51 306.908 822.03 307.544L822.042 317ZM833.613 317V314.84H836.841V306.644H833.613V304.508L839.169 304.22L839.505 304.544V314.84H842.721V317H833.613ZM835.833 300.068C835.833 299 836.601 298.352 837.705 298.352C838.821 298.352 839.577 299 839.577 300.068C839.577 301.136 838.821 301.808 837.705 301.808C836.601 301.808 835.833 301.136 835.833 300.068ZM848.915 304.508H859.463V306.092L852.539 314.84H859.895V317H848.915V315.404L855.827 306.668H848.915V304.508ZM871.334 304.22C874.442 304.22 876.314 305.24 876.314 308.156V314.132C876.314 314.984 876.614 315.2 877.694 315.068V317C877.082 317.168 876.518 317.252 876.002 317.252C874.418 317.252 873.914 316.472 873.818 315.464H873.554C872.606 316.412 871.322 317.288 869.426 317.288C867.182 317.288 865.73 316.028 865.73 313.928C865.73 310.424 869.738 309.956 873.65 310.004V308.3C873.65 306.512 872.618 306.068 871.13 306.08C869.666 306.08 868.598 306.548 868.586 308L868.574 308.504H866.15V307.868C866.15 305.732 867.602 304.22 871.334 304.22ZM868.502 313.58C868.502 314.696 869.33 315.32 870.698 315.32C871.826 315.32 872.774 314.888 873.65 314.252V311.492C873.314 311.456 872.978 311.432 872.642 311.432C870.038 311.432 868.502 312.056 868.502 313.58ZM886.133 312.92V306.668H882.701V304.508H886.133V300.764H888.797V304.508H894.221V306.668H888.797V313.028C888.797 314.564 889.517 315.2 890.597 315.2C891.713 315.2 892.409 314.516 892.409 313.04V312.368H894.353V312.908C894.353 315.812 893.069 317.276 890.225 317.276C887.501 317.276 886.133 315.968 886.133 312.92ZM900.644 317V314.84H904.916V306.644H900.644V304.508L907.256 304.22L907.58 304.544V314.84H911.852V317H900.644ZM903.896 299.996C903.896 298.928 904.664 298.28 905.768 298.28C906.884 298.28 907.64 298.928 907.64 299.996C907.64 301.064 906.884 301.736 905.768 301.736C904.664 301.736 903.896 301.064 903.896 299.996ZM929.663 310.784C929.663 315.224 926.903 317.288 923.531 317.288C920.171 317.288 917.399 315.224 917.399 310.784C917.399 306.344 920.171 304.22 923.531 304.22C926.903 304.22 929.663 306.344 929.663 310.784ZM920.111 310.784C920.111 313.892 921.539 315.152 923.531 315.152C925.535 315.152 926.951 313.892 926.951 310.784C926.951 307.664 925.535 306.344 923.531 306.344C921.539 306.344 920.111 307.664 920.111 310.784ZM946.177 317H943.513V308.672C943.513 306.86 942.589 306.38 941.437 306.38C940.117 306.38 939.025 307.028 938.113 308V317H935.449V304.508H937.741L937.933 306.32H938.281C939.349 305.18 940.633 304.22 942.673 304.22C944.869 304.22 946.177 305.324 946.177 307.976V317Z" fill="#179299"/>
</g>
</svg>
