<svg width="1300" height="350" viewBox="0 0 1300 350" fill="none" xmlns="http://www.w3.org/2000/svg">
<path d="M613.545 143.705V85.5227H627V89.9773H618.636V139.25H627V143.705H613.545Z" fill="#32C572"/>
<path d="M653.52 129.25V126.018L657.84 124.258V105.666C657.84 101.602 655.728 100.194 652.912 100.194C650.704 100.194 647.696 100.898 644.272 102.786V124.322L648.496 126.018V129.25H634V126.018L638.32 124.258V102.338L632.72 101.474V97.922L643.088 95.522L643.92 95.874V99.554C648.112 96.898 651.952 95.362 655.696 95.362C661.168 95.362 663.792 98.466 663.792 104.418V124.322L668.016 126.018V129.25H653.52Z" fill="#E6EBF9"/>
<path d="M685.636 85.5227V143.705H672.182V139.25H680.545V89.9773H672.182V85.5227H685.636Z" fill="#32C572"/>
<path d="M554.42 252V250.6L556.3 250.32C556.727 250.24 557.007 250.08 557.14 249.84C557.273 249.573 557.34 249.093 557.34 248.4V235.84C557.34 234.907 557.26 234.28 557.1 233.96C556.94 233.64 556.567 233.453 555.98 233.4L554.06 233.16L554.26 231.76L560.62 231.32L560.98 231.6L561.14 235.32H561.22C561.887 233.96 562.847 232.907 564.1 232.16C565.353 231.413 566.7 231.04 568.14 231.04C569.553 231.04 570.74 231.307 571.7 231.84C572.66 232.347 573.38 233.12 573.86 234.16C574.34 235.173 574.58 236.427 574.58 237.92V248.68C574.58 249.293 574.66 249.707 574.82 249.92C574.98 250.133 575.313 250.28 575.82 250.36L577.62 250.6V252H567.58V250.64L569.26 250.4C569.767 250.293 570.087 250.133 570.22 249.92C570.38 249.707 570.46 249.307 570.46 248.72V238.56C570.46 237.307 570.34 236.32 570.1 235.6C569.86 234.853 569.46 234.32 568.9 234C568.367 233.68 567.62 233.52 566.66 233.52C565.647 233.52 564.74 233.747 563.94 234.2C563.167 234.627 562.553 235.253 562.1 236.08C561.673 236.88 561.46 237.84 561.46 238.96V248.56C561.46 249.147 561.527 249.56 561.66 249.8C561.793 250.04 562.06 250.2 562.46 250.28L564.46 250.64V252H554.42ZM600.156 252.56C598.156 252.56 596.409 252.147 594.916 251.32C593.449 250.467 592.316 249.28 591.516 247.76C590.716 246.213 590.316 244.373 590.316 242.24C590.316 239.893 590.742 237.893 591.596 236.24C592.449 234.56 593.649 233.28 595.196 232.4C596.769 231.493 598.609 231.04 600.716 231.04C602.662 231.04 604.356 231.453 605.796 232.28C607.236 233.08 608.342 234.253 609.116 235.8C609.916 237.32 610.316 239.147 610.316 241.28C610.316 243.573 609.889 245.573 609.036 247.28C608.209 248.96 607.036 250.267 605.516 251.2C603.996 252.107 602.209 252.56 600.156 252.56ZM600.756 250.72C601.849 250.72 602.769 250.413 603.516 249.8C604.289 249.187 604.862 248.253 605.236 247C605.609 245.747 605.796 244.147 605.796 242.2C605.796 240.653 605.662 239.293 605.396 238.12C605.156 236.92 604.782 235.933 604.276 235.16C603.769 234.387 603.156 233.813 602.436 233.44C601.742 233.04 600.942 232.84 600.036 232.84C598.916 232.84 597.969 233.133 597.196 233.72C596.422 234.28 595.822 235.173 595.396 236.4C594.996 237.6 594.796 239.147 594.796 241.04C594.796 243.2 595.036 245 595.516 246.44C596.022 247.853 596.716 248.92 597.596 249.64C598.476 250.36 599.529 250.72 600.756 250.72ZM623.639 252V250.6L625.519 250.28C625.945 250.2 626.225 250.04 626.359 249.8C626.492 249.533 626.559 249.053 626.559 248.36V235.88C626.559 234.947 626.479 234.32 626.319 234C626.159 233.653 625.785 233.453 625.199 233.4L623.279 233.2L623.479 231.76L629.759 231.32L630.119 231.6L630.399 235.36H630.479C631.145 233.973 631.999 232.907 633.039 232.16C634.079 231.413 635.199 231.04 636.399 231.04C637.679 231.04 638.692 231.387 639.439 232.08C640.185 232.747 640.559 233.64 640.559 234.76C640.559 235.427 640.452 236 640.239 236.48C640.052 236.933 639.745 237.293 639.319 237.56C638.919 237.8 638.412 237.92 637.799 237.92C636.999 237.92 636.385 237.747 635.959 237.4C635.559 237.053 635.359 236.613 635.359 236.08C635.359 235.84 635.399 235.6 635.479 235.36C635.559 235.12 635.679 234.84 635.839 234.52C635.999 234.2 636.199 233.84 636.439 233.44C635.825 233.2 635.172 233.173 634.479 233.36C633.812 233.547 633.185 233.92 632.599 234.48C632.039 235.013 631.572 235.693 631.199 236.52C630.852 237.32 630.679 238.187 630.679 239.12V248.44C630.679 249.08 630.745 249.52 630.879 249.76C631.012 249.973 631.292 250.107 631.719 250.16L635.039 250.6V252H623.639ZM652.576 252V250.56L654.736 250.24C655.216 250.187 655.522 250.027 655.656 249.76C655.789 249.493 655.856 249 655.856 248.28V235.96C655.856 235 655.776 234.36 655.616 234.04C655.456 233.72 655.069 233.52 654.456 233.44L652.576 233.24L652.736 231.76L659.616 231.44L660.016 231.64V248.44C660.016 249 660.082 249.427 660.216 249.72C660.349 249.987 660.669 250.16 661.176 250.24L663.336 250.6V252H652.576ZM657.376 227.28C656.549 227.28 655.869 227.027 655.336 226.52C654.802 226.013 654.536 225.347 654.536 224.52C654.536 223.72 654.802 223.067 655.336 222.56C655.869 222.027 656.549 221.76 657.376 221.76C658.256 221.76 658.949 222.013 659.456 222.52C659.989 223.027 660.256 223.693 660.256 224.52C660.256 225.32 659.989 225.987 659.456 226.52C658.922 227.027 658.229 227.28 657.376 227.28ZM694.935 252.36C694.268 252.36 693.668 252.267 693.135 252.08C692.628 251.92 692.135 251.627 691.655 251.2C691.175 250.747 690.628 250.133 690.015 249.36L683.735 241.2V240.88L690.415 234.8C690.788 234.48 690.975 234.173 690.975 233.88C690.975 233.56 690.762 233.36 690.335 233.28L688.775 233L689.015 231.6H697.175V232.96L695.895 233.32C695.495 233.427 695.082 233.587 694.655 233.8C694.255 233.987 693.762 234.333 693.175 234.84L687.575 239.72L694.095 247.88C694.628 248.573 695.108 249.08 695.535 249.4C695.988 249.72 696.495 249.88 697.055 249.88C697.268 249.88 697.508 249.853 697.775 249.8C698.042 249.747 698.362 249.653 698.735 249.52L699.055 250.6C698.522 251.133 697.882 251.56 697.135 251.88C696.415 252.2 695.682 252.36 694.935 252.36ZM676.015 252V250.6L677.975 250.28C678.508 250.227 678.842 250.067 678.975 249.8C679.135 249.533 679.215 249.027 679.215 248.28V225.64C679.215 224.76 679.122 224.16 678.935 223.84C678.775 223.52 678.348 223.32 677.655 223.24L675.855 223.04L676.015 221.56L682.975 221.36L683.375 221.68V248.44C683.375 249.027 683.428 249.467 683.535 249.76C683.668 250.027 683.975 250.2 684.455 250.28L685.815 250.56V252H676.015ZM710.193 252V250.56L712.353 250.24C712.833 250.187 713.139 250.027 713.273 249.76C713.406 249.493 713.473 249 713.473 248.28V235.96C713.473 235 713.393 234.36 713.233 234.04C713.073 233.72 712.686 233.52 712.073 233.44L710.193 233.24L710.353 231.76L717.233 231.44L717.633 231.64V248.44C717.633 249 717.699 249.427 717.833 249.72C717.966 249.987 718.286 250.16 718.793 250.24L720.953 250.6V252H710.193ZM714.993 227.28C714.166 227.28 713.486 227.027 712.953 226.52C712.419 226.013 712.153 225.347 712.153 224.52C712.153 223.72 712.419 223.067 712.953 222.56C713.486 222.027 714.166 221.76 714.993 221.76C715.873 221.76 716.566 222.013 717.073 222.52C717.606 223.027 717.873 223.693 717.873 224.52C717.873 225.32 717.606 225.987 717.073 226.52C716.539 227.027 715.846 227.28 714.993 227.28ZM740.695 252.56C739.548 252.56 738.575 252.36 737.775 251.96C737.001 251.533 736.415 250.88 736.015 250C735.615 249.12 735.415 247.987 735.415 246.6V233.44H732.415V231.96C733.401 231.853 734.201 231.573 734.815 231.12C735.455 230.667 735.948 229.96 736.295 229C736.641 228.04 736.868 226.773 736.975 225.2L739.135 224.92L739.575 225.16V231.6H745.575V233.44H739.575V246.2C739.575 247.373 739.775 248.253 740.175 248.84C740.601 249.4 741.308 249.68 742.295 249.68C742.961 249.68 743.601 249.56 744.215 249.32C744.855 249.08 745.468 248.72 746.055 248.24L746.775 249.32C745.948 250.36 745.028 251.16 744.015 251.72C743.028 252.28 741.921 252.56 740.695 252.56Z" fill="#BAC2DE"/>
<g opacity="0.8">
<path d="M358.488 304.388C361.74 304.388 363.612 305.564 363.708 308.06L361.644 308.204C361.488 306.8 360.408 306.08 358.332 306.08C356.46 306.08 355.284 306.632 355.284 307.796C355.284 308.852 356.28 309.284 359.028 309.848C362.316 310.52 363.852 311.276 363.852 313.424C363.852 315.74 362.016 317.276 358.392 317.276C354.984 317.276 353.04 316.304 352.488 313.424L354.576 313.16C355.152 315.32 356.724 315.524 358.5 315.524C360.708 315.524 361.584 314.648 361.584 313.676C361.584 312.596 360.552 312.212 357.624 311.612C354.66 311 353.112 310.112 353.112 308C353.112 305.804 354.78 304.388 358.488 304.388ZM375.435 304.388C378.447 304.388 380.211 305.384 380.211 308.288V314.396C380.211 315.284 380.547 315.512 381.675 315.344V317C381.111 317.168 380.595 317.24 380.139 317.24C378.651 317.24 378.159 316.448 378.075 315.464H377.859C376.863 316.364 375.603 317.288 373.611 317.288C371.331 317.288 369.879 316.064 369.879 313.964C369.879 310.52 373.755 310.076 377.943 310.1V308.42C377.943 306.44 376.827 305.996 375.195 306.008C373.635 306.02 372.447 306.464 372.423 308.108V308.636H370.299V307.988C370.299 305.876 371.751 304.388 375.435 304.388ZM372.255 313.688C372.255 314.912 373.143 315.572 374.631 315.572C375.927 315.572 376.935 315.068 377.943 314.336V311.432C377.559 311.396 377.163 311.372 376.803 311.372C373.971 311.372 372.255 311.996 372.255 313.688ZM398.178 317H395.91V308.78C395.91 306.776 394.866 306.248 393.618 306.248C392.178 306.248 391.026 306.956 390.102 308.024V317H387.834V304.676H389.754L389.958 306.44H390.258C391.23 305.396 392.514 304.388 394.602 304.388C396.798 304.388 398.178 305.504 398.178 308.18V317ZM404.276 310.82C404.276 306.656 406.76 304.388 410.552 304.388C414.044 304.388 416.084 306.212 416.084 309.836V310.916H406.604C406.64 313.916 408.068 315.428 410.48 315.428C412.052 315.428 413.24 314.792 413.828 313.388L416.036 313.76C415.196 316.064 413.18 317.288 410.468 317.288C406.784 317.288 404.276 315.056 404.276 310.82ZM406.724 309.404H413.864C413.852 307.208 412.412 306.248 410.48 306.248C408.464 306.248 407.12 307.316 406.724 309.404ZM438.842 310.868C438.842 306.848 440.666 304.388 443.774 304.388C445.586 304.388 446.81 305.216 447.602 306.308H447.758V298.64H450.026V317H448.106L447.926 315.38H447.614C446.726 316.472 445.466 317.3 443.678 317.3C440.558 317.3 438.842 314.78 438.842 310.868ZM441.182 310.868C441.182 313.844 442.37 315.368 444.602 315.368C445.706 315.368 446.726 314.984 447.758 313.952V307.712C446.75 306.68 445.718 306.308 444.638 306.308C442.442 306.308 441.182 307.796 441.182 310.868ZM456.125 310.82C456.125 306.656 458.609 304.388 462.401 304.388C465.893 304.388 467.933 306.212 467.933 309.836V310.916H458.453C458.489 313.916 459.917 315.428 462.329 315.428C463.901 315.428 465.089 314.792 465.677 313.388L467.885 313.76C467.045 316.064 465.029 317.288 462.317 317.288C458.633 317.288 456.125 315.056 456.125 310.82ZM458.573 309.404H465.713C465.701 307.208 464.261 306.248 462.329 306.248C460.313 306.248 458.969 307.316 458.573 309.404ZM485.432 300.092C484.508 299.876 483.68 299.744 482.684 299.744C480.596 299.744 479.384 300.32 479.384 303.284V304.676H484.988V306.512H479.384V315.164H483.752V317H473.852V315.164H477.116V306.512H473.156V304.676H477.116V303.488C477.116 299.216 479.192 297.728 482.624 297.728C483.596 297.728 484.532 297.848 485.432 298.112V300.092ZM496.414 304.388C499.426 304.388 501.19 305.384 501.19 308.288V314.396C501.19 315.284 501.526 315.512 502.654 315.344V317C502.09 317.168 501.574 317.24 501.118 317.24C499.63 317.24 499.138 316.448 499.054 315.464H498.838C497.842 316.364 496.582 317.288 494.59 317.288C492.31 317.288 490.858 316.064 490.858 313.964C490.858 310.52 494.734 310.076 498.922 310.1V308.42C498.922 306.44 497.806 305.996 496.174 306.008C494.614 306.02 493.426 306.464 493.402 308.108V308.636H491.278V307.988C491.278 305.876 492.73 304.388 496.414 304.388ZM493.234 313.688C493.234 314.912 494.122 315.572 495.61 315.572C496.906 315.572 497.914 315.068 498.922 314.336V311.432C498.538 311.396 498.142 311.372 497.782 311.372C494.95 311.372 493.234 311.996 493.234 313.688ZM508.813 304.676H511.081V312.884C511.081 314.9 512.125 315.416 513.373 315.416C514.813 315.416 515.965 314.72 516.889 313.652V304.676H519.157V317H517.237L517.033 315.236H516.733C515.761 316.268 514.477 317.276 512.389 317.276C510.193 317.276 508.813 316.16 508.813 313.496V304.676ZM525.76 317V315.164H530.128L530.14 300.44H525.76V298.64L532.108 298.376L532.408 298.652V315.164H536.776V317H525.76ZM545.863 312.884V306.512H542.287V304.676H545.863V300.812H548.143V304.676H553.807V306.512H548.143V313.028C548.143 314.732 548.887 315.488 550.147 315.488C551.467 315.488 552.175 314.66 552.175 313.028V312.428H553.891V312.872C553.891 315.752 552.727 317.276 549.871 317.276C547.207 317.276 545.863 315.968 545.863 312.884ZM565.882 304.388C569.134 304.388 571.006 305.564 571.102 308.06L569.038 308.204C568.882 306.8 567.802 306.08 565.726 306.08C563.854 306.08 562.678 306.632 562.678 307.796C562.678 308.852 563.674 309.284 566.422 309.848C569.71 310.52 571.246 311.276 571.246 313.424C571.246 315.74 569.41 317.276 565.786 317.276C562.378 317.276 560.434 316.304 559.882 313.424L561.97 313.16C562.546 315.32 564.118 315.524 565.894 315.524C568.102 315.524 568.978 314.648 568.978 313.676C568.978 312.596 567.946 312.212 565.018 311.612C562.054 311 560.506 310.112 560.506 308C560.506 305.804 562.174 304.388 565.882 304.388Z" fill="#A6E3A1"/>
<path d="M589.452 311.396C588.132 311.396 587.064 310.52 587.064 309.08C587.064 307.628 588.132 306.776 589.452 306.776C590.76 306.776 591.816 307.628 591.816 309.08C591.816 310.52 590.76 311.396 589.452 311.396Z" fill="#BAC2DE"/>
<path d="M606.932 317V315.164H611.3V306.476H606.932V304.676L613.28 304.4L613.58 304.688V315.164H617.948V317H606.932ZM610.316 300.02C610.316 299.06 611 298.484 611.996 298.484C612.98 298.484 613.664 299.06 613.664 300.02C613.664 300.98 612.98 301.568 611.996 301.568C611 301.568 610.316 300.98 610.316 300.02ZM634.895 317H632.627V308.78C632.627 306.776 631.583 306.248 630.335 306.248C628.895 306.248 627.743 306.956 626.819 308.024V317H624.551V304.676H626.471L626.675 306.44H626.975C627.947 305.396 629.231 304.388 631.319 304.388C633.515 304.388 634.895 305.504 634.895 308.18V317ZM647.054 304.388C650.306 304.388 652.178 305.564 652.274 308.06L650.21 308.204C650.054 306.8 648.974 306.08 646.898 306.08C645.026 306.08 643.85 306.632 643.85 307.796C643.85 308.852 644.846 309.284 647.594 309.848C650.882 310.52 652.418 311.276 652.418 313.424C652.418 315.74 650.582 317.276 646.958 317.276C643.55 317.276 641.606 316.304 641.054 313.424L643.142 313.16C643.718 315.32 645.29 315.524 647.066 315.524C649.274 315.524 650.15 314.648 650.15 313.676C650.15 312.596 649.118 312.212 646.19 311.612C643.226 311 641.678 310.112 641.678 308C641.678 305.804 643.346 304.388 647.054 304.388ZM664 304.388C667.012 304.388 668.776 305.384 668.776 308.288V314.396C668.776 315.284 669.112 315.512 670.24 315.344V317C669.676 317.168 669.16 317.24 668.704 317.24C667.216 317.24 666.724 316.448 666.64 315.464H666.424C665.428 316.364 664.168 317.288 662.176 317.288C659.896 317.288 658.444 316.064 658.444 313.964C658.444 310.52 662.32 310.076 666.508 310.1V308.42C666.508 306.44 665.392 305.996 663.76 306.008C662.2 306.02 661.012 306.464 660.988 308.108V308.636H658.864V307.988C658.864 305.876 660.316 304.388 664 304.388ZM660.82 313.688C660.82 314.912 661.708 315.572 663.196 315.572C664.492 315.572 665.5 315.068 666.508 314.336V311.432C666.124 311.396 665.728 311.372 665.368 311.372C662.536 311.372 660.82 311.996 660.82 313.688ZM686.743 317H684.475V308.78C684.475 306.776 683.431 306.248 682.183 306.248C680.743 306.248 679.591 306.956 678.667 308.024V317H676.399V304.676H678.319L678.523 306.44H678.823C679.795 305.396 681.079 304.388 683.167 304.388C685.363 304.388 686.743 305.504 686.743 308.18V317ZM692.842 310.82C692.842 306.656 695.326 304.388 699.118 304.388C702.61 304.388 704.65 306.212 704.65 309.836V310.916H695.17C695.206 313.916 696.634 315.428 699.046 315.428C700.618 315.428 701.806 314.792 702.394 313.388L704.602 313.76C703.762 316.064 701.746 317.288 699.034 317.288C695.35 317.288 692.842 315.056 692.842 310.82ZM695.29 309.404H702.43C702.418 307.208 700.978 306.248 699.046 306.248C697.03 306.248 695.686 307.316 695.29 309.404ZM739.3 313.244C738.616 315.968 736.372 317.288 733.564 317.288C729.928 317.288 727.408 315.08 727.408 310.808C727.408 306.512 729.976 304.388 733.684 304.388C736.696 304.388 738.988 305.792 739.3 308.756L737.056 308.948C736.768 307.052 735.424 306.248 733.624 306.248C731.08 306.248 729.748 307.856 729.748 310.808C729.748 313.928 731.236 315.428 733.576 315.428C735.364 315.428 736.6 314.564 737.104 312.896L739.3 313.244ZM745.53 304.676H747.798V312.884C747.798 314.9 748.842 315.416 750.09 315.416C751.53 315.416 752.682 314.72 753.606 313.652V304.676H755.874V317H753.954L753.75 315.236H753.45C752.478 316.268 751.194 317.276 749.106 317.276C746.91 317.276 745.53 316.16 745.53 313.496V304.676ZM768.033 304.388C771.285 304.388 773.157 305.564 773.253 308.06L771.189 308.204C771.033 306.8 769.953 306.08 767.877 306.08C766.005 306.08 764.829 306.632 764.829 307.796C764.829 308.852 765.825 309.284 768.573 309.848C771.861 310.52 773.397 311.276 773.397 313.424C773.397 315.74 771.561 317.276 767.937 317.276C764.529 317.276 762.585 316.304 762.033 313.424L764.121 313.16C764.697 315.32 766.269 315.524 768.045 315.524C770.253 315.524 771.129 314.648 771.129 313.676C771.129 312.596 770.097 312.212 767.169 311.612C764.205 311 762.657 310.112 762.657 308C762.657 305.804 764.325 304.388 768.033 304.388ZM782.58 312.884V306.512H779.004V304.676H782.58V300.812H784.86V304.676H790.524V306.512H784.86V313.028C784.86 314.732 785.604 315.488 786.864 315.488C788.184 315.488 788.892 314.66 788.892 313.028V312.428H790.608V312.872C790.608 315.752 789.444 317.276 786.588 317.276C783.924 317.276 782.58 315.968 782.58 312.884ZM808.563 310.856C808.563 315.176 805.863 317.288 802.551 317.288C799.251 317.288 796.539 315.176 796.539 310.856C796.539 306.548 799.251 304.388 802.551 304.388C805.863 304.388 808.563 306.548 808.563 310.856ZM798.867 310.856C798.867 314 800.391 315.428 802.551 315.428C804.711 315.428 806.223 314 806.223 310.856C806.223 307.712 804.711 306.248 802.551 306.248C800.391 306.248 798.867 307.712 798.867 310.856ZM821.91 317H819.774V307.856C819.774 306.632 819.102 306.308 818.418 306.308C817.53 306.308 816.822 306.872 816.318 307.676V317H814.206V304.676H815.982L816.162 306.452H816.342C816.942 305.252 818.01 304.4 819.438 304.4C820.746 304.4 821.634 305.06 821.838 306.452H821.934C822.534 305.252 823.566 304.4 825.006 304.4C826.494 304.4 827.454 305.264 827.466 307.124L827.478 317H825.342V307.856C825.342 306.632 824.67 306.308 823.974 306.308C823.086 306.308 822.39 306.86 821.886 307.652L821.91 317ZM833.745 317V315.176H837.045V306.476H833.745V304.676L839.025 304.4L839.325 304.688V315.176H842.625V317H833.745ZM836.073 300.068C836.073 299.108 836.757 298.532 837.753 298.532C838.737 298.532 839.421 299.108 839.421 300.068C839.421 301.028 838.737 301.616 837.753 301.616C836.757 301.616 836.073 301.028 836.073 300.068ZM849.023 304.676H859.307V306.008L852.119 315.164H859.775V317H849.023V315.656L856.199 306.512H849.023V304.676ZM871.394 304.388C874.406 304.388 876.17 305.384 876.17 308.288V314.396C876.17 315.284 876.506 315.512 877.634 315.344V317C877.07 317.168 876.554 317.24 876.098 317.24C874.61 317.24 874.118 316.448 874.034 315.464H873.818C872.822 316.364 871.562 317.288 869.57 317.288C867.29 317.288 865.838 316.064 865.838 313.964C865.838 310.52 869.714 310.076 873.902 310.1V308.42C873.902 306.44 872.786 305.996 871.154 306.008C869.594 306.02 868.406 306.464 868.382 308.108V308.636H866.258V307.988C866.258 305.876 867.71 304.388 871.394 304.388ZM868.214 313.688C868.214 314.912 869.102 315.572 870.59 315.572C871.886 315.572 872.894 315.068 873.902 314.336V311.432C873.518 311.396 873.122 311.372 872.762 311.372C869.93 311.372 868.214 311.996 868.214 313.688ZM886.277 312.884V306.512H882.701V304.676H886.277V300.812H888.557V304.676H894.221V306.512H888.557V313.028C888.557 314.732 889.301 315.488 890.561 315.488C891.881 315.488 892.589 314.66 892.589 313.028V312.428H894.305V312.872C894.305 315.752 893.141 317.276 890.285 317.276C887.621 317.276 886.277 315.968 886.277 312.884ZM900.74 317V315.164H905.108V306.476H900.74V304.676L907.088 304.4L907.388 304.688V315.164H911.756V317H900.74ZM904.124 300.02C904.124 299.06 904.808 298.484 905.804 298.484C906.788 298.484 907.472 299.06 907.472 300.02C907.472 300.98 906.788 301.568 905.804 301.568C904.808 301.568 904.124 300.98 904.124 300.02ZM929.543 310.856C929.543 315.176 926.843 317.288 923.531 317.288C920.231 317.288 917.519 315.176 917.519 310.856C917.519 306.548 920.231 304.388 923.531 304.388C926.843 304.388 929.543 306.548 929.543 310.856ZM919.847 310.856C919.847 314 921.371 315.428 923.531 315.428C925.691 315.428 927.203 314 927.203 310.856C927.203 307.712 925.691 306.248 923.531 306.248C921.371 306.248 919.847 307.712 919.847 310.856ZM945.985 317H943.717V308.78C943.717 306.776 942.673 306.248 941.425 306.248C939.985 306.248 938.833 306.956 937.909 308.024V317H935.641V304.676H937.561L937.765 306.44H938.065C939.037 305.396 940.321 304.388 942.409 304.388C944.605 304.388 945.985 305.504 945.985 308.18V317Z" fill="#94E2D5"/>
</g>
</svg>
