<svg width="1300" height="350" viewBox="0 0 1300 350" fill="none" xmlns="http://www.w3.org/2000/svg">
<path d="M613.545 143.705V85.5227H627V89.9773H618.636V139.25H627V143.705H613.545Z" fill="#32C572"/>
<path d="M653.52 129.25V126.018L657.84 124.258V105.666C657.84 101.602 655.728 100.194 652.912 100.194C650.704 100.194 647.696 100.898 644.272 102.786V124.322L648.496 126.018V129.25H634V126.018L638.32 124.258V102.338L632.72 101.474V97.922L643.088 95.522L643.92 95.874V99.554C648.112 96.898 651.952 95.362 655.696 95.362C661.168 95.362 663.792 98.466 663.792 104.418V124.322L668.016 126.018V129.25H653.52Z" fill="#2A2D3F"/>
<path d="M685.636 85.5227V143.705H672.182V139.25H680.545V89.9773H672.182V85.5227H685.636Z" fill="#32C572"/>
<path d="M554.42 252V250.6L556.3 250.32C556.727 250.24 557.007 250.08 557.14 249.84C557.273 249.573 557.34 249.093 557.34 248.4V235.84C557.34 234.907 557.26 234.28 557.1 233.96C556.94 233.64 556.567 233.453 555.98 233.4L554.06 233.16L554.26 231.76L560.62 231.32L560.98 231.6L561.14 235.32H561.22C561.887 233.96 562.847 232.907 564.1 232.16C565.353 231.413 566.7 231.04 568.14 231.04C569.553 231.04 570.74 231.307 571.7 231.84C572.66 232.347 573.38 233.12 573.86 234.16C574.34 235.173 574.58 236.427 574.58 237.92V248.68C574.58 249.293 574.66 249.707 574.82 249.92C574.98 250.133 575.313 250.28 575.82 250.36L577.62 250.6V252H567.58V250.64L569.26 250.4C569.767 250.293 570.087 250.133 570.22 249.92C570.38 249.707 570.46 249.307 570.46 248.72V238.56C570.46 237.307 570.34 236.32 570.1 235.6C569.86 234.853 569.46 234.32 568.9 234C568.367 233.68 567.62 233.52 566.66 233.52C565.647 233.52 564.74 233.747 563.94 234.2C563.167 234.627 562.553 235.253 562.1 236.08C561.673 236.88 561.46 237.84 561.46 238.96V248.56C561.46 249.147 561.527 249.56 561.66 249.8C561.793 250.04 562.06 250.2 562.46 250.28L564.46 250.64V252H554.42ZM600.156 252.56C598.156 252.56 596.409 252.147 594.916 251.32C593.449 250.467 592.316 249.28 591.516 247.76C590.716 246.213 590.316 244.373 590.316 242.24C590.316 239.893 590.742 237.893 591.596 236.24C592.449 234.56 593.649 233.28 595.196 232.4C596.769 231.493 598.609 231.04 600.716 231.04C602.662 231.04 604.356 231.453 605.796 232.28C607.236 233.08 608.342 234.253 609.116 235.8C609.916 237.32 610.316 239.147 610.316 241.28C610.316 243.573 609.889 245.573 609.036 247.28C608.209 248.96 607.036 250.267 605.516 251.2C603.996 252.107 602.209 252.56 600.156 252.56ZM600.756 250.72C601.849 250.72 602.769 250.413 603.516 249.8C604.289 249.187 604.862 248.253 605.236 247C605.609 245.747 605.796 244.147 605.796 242.2C605.796 240.653 605.662 239.293 605.396 238.12C605.156 236.92 604.782 235.933 604.276 235.16C603.769 234.387 603.156 233.813 602.436 233.44C601.742 233.04 600.942 232.84 600.036 232.84C598.916 232.84 597.969 233.133 597.196 233.72C596.422 234.28 595.822 235.173 595.396 236.4C594.996 237.6 594.796 239.147 594.796 241.04C594.796 243.2 595.036 245 595.516 246.44C596.022 247.853 596.716 248.92 597.596 249.64C598.476 250.36 599.529 250.72 600.756 250.72ZM623.639 252V250.6L625.519 250.28C625.945 250.2 626.225 250.04 626.359 249.8C626.492 249.533 626.559 249.053 626.559 248.36V235.88C626.559 234.947 626.479 234.32 626.319 234C626.159 233.653 625.785 233.453 625.199 233.4L623.279 233.2L623.479 231.76L629.759 231.32L630.119 231.6L630.399 235.36H630.479C631.145 233.973 631.999 232.907 633.039 232.16C634.079 231.413 635.199 231.04 636.399 231.04C637.679 231.04 638.692 231.387 639.439 232.08C640.185 232.747 640.559 233.64 640.559 234.76C640.559 235.427 640.452 236 640.239 236.48C640.052 236.933 639.745 237.293 639.319 237.56C638.919 237.8 638.412 237.92 637.799 237.92C636.999 237.92 636.385 237.747 635.959 237.4C635.559 237.053 635.359 236.613 635.359 236.08C635.359 235.84 635.399 235.6 635.479 235.36C635.559 235.12 635.679 234.84 635.839 234.52C635.999 234.2 636.199 233.84 636.439 233.44C635.825 233.2 635.172 233.173 634.479 233.36C633.812 233.547 633.185 233.92 632.599 234.48C632.039 235.013 631.572 235.693 631.199 236.52C630.852 237.32 630.679 238.187 630.679 239.12V248.44C630.679 249.08 630.745 249.52 630.879 249.76C631.012 249.973 631.292 250.107 631.719 250.16L635.039 250.6V252H623.639ZM652.576 252V250.56L654.736 250.24C655.216 250.187 655.522 250.027 655.656 249.76C655.789 249.493 655.856 249 655.856 248.28V235.96C655.856 235 655.776 234.36 655.616 234.04C655.456 233.72 655.069 233.52 654.456 233.44L652.576 233.24L652.736 231.76L659.616 231.44L660.016 231.64V248.44C660.016 249 660.082 249.427 660.216 249.72C660.349 249.987 660.669 250.16 661.176 250.24L663.336 250.6V252H652.576ZM657.376 227.28C656.549 227.28 655.869 227.027 655.336 226.52C654.802 226.013 654.536 225.347 654.536 224.52C654.536 223.72 654.802 223.067 655.336 222.56C655.869 222.027 656.549 221.76 657.376 221.76C658.256 221.76 658.949 222.013 659.456 222.52C659.989 223.027 660.256 223.693 660.256 224.52C660.256 225.32 659.989 225.987 659.456 226.52C658.922 227.027 658.229 227.28 657.376 227.28ZM694.935 252.36C694.268 252.36 693.668 252.267 693.135 252.08C692.628 251.92 692.135 251.627 691.655 251.2C691.175 250.747 690.628 250.133 690.015 249.36L683.735 241.2V240.88L690.415 234.8C690.788 234.48 690.975 234.173 690.975 233.88C690.975 233.56 690.762 233.36 690.335 233.28L688.775 233L689.015 231.6H697.175V232.96L695.895 233.32C695.495 233.427 695.082 233.587 694.655 233.8C694.255 233.987 693.762 234.333 693.175 234.84L687.575 239.72L694.095 247.88C694.628 248.573 695.108 249.08 695.535 249.4C695.988 249.72 696.495 249.88 697.055 249.88C697.268 249.88 697.508 249.853 697.775 249.8C698.042 249.747 698.362 249.653 698.735 249.52L699.055 250.6C698.522 251.133 697.882 251.56 697.135 251.88C696.415 252.2 695.682 252.36 694.935 252.36ZM676.015 252V250.6L677.975 250.28C678.508 250.227 678.842 250.067 678.975 249.8C679.135 249.533 679.215 249.027 679.215 248.28V225.64C679.215 224.76 679.122 224.16 678.935 223.84C678.775 223.52 678.348 223.32 677.655 223.24L675.855 223.04L676.015 221.56L682.975 221.36L683.375 221.68V248.44C683.375 249.027 683.428 249.467 683.535 249.76C683.668 250.027 683.975 250.2 684.455 250.28L685.815 250.56V252H676.015ZM710.193 252V250.56L712.353 250.24C712.833 250.187 713.139 250.027 713.273 249.76C713.406 249.493 713.473 249 713.473 248.28V235.96C713.473 235 713.393 234.36 713.233 234.04C713.073 233.72 712.686 233.52 712.073 233.44L710.193 233.24L710.353 231.76L717.233 231.44L717.633 231.64V248.44C717.633 249 717.699 249.427 717.833 249.72C717.966 249.987 718.286 250.16 718.793 250.24L720.953 250.6V252H710.193ZM714.993 227.28C714.166 227.28 713.486 227.027 712.953 226.52C712.419 226.013 712.153 225.347 712.153 224.52C712.153 223.72 712.419 223.067 712.953 222.56C713.486 222.027 714.166 221.76 714.993 221.76C715.873 221.76 716.566 222.013 717.073 222.52C717.606 223.027 717.873 223.693 717.873 224.52C717.873 225.32 717.606 225.987 717.073 226.52C716.539 227.027 715.846 227.28 714.993 227.28ZM740.695 252.56C739.548 252.56 738.575 252.36 737.775 251.96C737.001 251.533 736.415 250.88 736.015 250C735.615 249.12 735.415 247.987 735.415 246.6V233.44H732.415V231.96C733.401 231.853 734.201 231.573 734.815 231.12C735.455 230.667 735.948 229.96 736.295 229C736.641 228.04 736.868 226.773 736.975 225.2L739.135 224.92L739.575 225.16V231.6H745.575V233.44H739.575V246.2C739.575 247.373 739.775 248.253 740.175 248.84C740.601 249.4 741.308 249.68 742.295 249.68C742.961 249.68 743.601 249.56 744.215 249.32C744.855 249.08 745.468 248.72 746.055 248.24L746.775 249.32C745.948 250.36 745.028 251.16 744.015 251.72C743.028 252.28 741.921 252.56 740.695 252.56Z" fill="#5C5F77"/>
<path d="M554.42 252V250.6L556.3 250.32C556.727 250.24 557.007 250.08 557.14 249.84C557.273 249.573 557.34 249.093 557.34 248.4V235.84C557.34 234.907 557.26 234.28 557.1 233.96C556.94 233.64 556.567 233.453 555.98 233.4L554.06 233.16L554.26 231.76L560.62 231.32L560.98 231.6L561.14 235.32H561.22C561.887 233.96 562.847 232.907 564.1 232.16C565.353 231.413 566.7 231.04 568.14 231.04C569.553 231.04 570.74 231.307 571.7 231.84C572.66 232.347 573.38 233.12 573.86 234.16C574.34 235.173 574.58 236.427 574.58 237.92V248.68C574.58 249.293 574.66 249.707 574.82 249.92C574.98 250.133 575.313 250.28 575.82 250.36L577.62 250.6V252H567.58V250.64L569.26 250.4C569.767 250.293 570.087 250.133 570.22 249.92C570.38 249.707 570.46 249.307 570.46 248.72V238.56C570.46 237.307 570.34 236.32 570.1 235.6C569.86 234.853 569.46 234.32 568.9 234C568.367 233.68 567.62 233.52 566.66 233.52C565.647 233.52 564.74 233.747 563.94 234.2C563.167 234.627 562.553 235.253 562.1 236.08C561.673 236.88 561.46 237.84 561.46 238.96V248.56C561.46 249.147 561.527 249.56 561.66 249.8C561.793 250.04 562.06 250.2 562.46 250.28L564.46 250.64V252H554.42ZM600.156 252.56C598.156 252.56 596.409 252.147 594.916 251.32C593.449 250.467 592.316 249.28 591.516 247.76C590.716 246.213 590.316 244.373 590.316 242.24C590.316 239.893 590.742 237.893 591.596 236.24C592.449 234.56 593.649 233.28 595.196 232.4C596.769 231.493 598.609 231.04 600.716 231.04C602.662 231.04 604.356 231.453 605.796 232.28C607.236 233.08 608.342 234.253 609.116 235.8C609.916 237.32 610.316 239.147 610.316 241.28C610.316 243.573 609.889 245.573 609.036 247.28C608.209 248.96 607.036 250.267 605.516 251.2C603.996 252.107 602.209 252.56 600.156 252.56ZM600.756 250.72C601.849 250.72 602.769 250.413 603.516 249.8C604.289 249.187 604.862 248.253 605.236 247C605.609 245.747 605.796 244.147 605.796 242.2C605.796 240.653 605.662 239.293 605.396 238.12C605.156 236.92 604.782 235.933 604.276 235.16C603.769 234.387 603.156 233.813 602.436 233.44C601.742 233.04 600.942 232.84 600.036 232.84C598.916 232.84 597.969 233.133 597.196 233.72C596.422 234.28 595.822 235.173 595.396 236.4C594.996 237.6 594.796 239.147 594.796 241.04C594.796 243.2 595.036 245 595.516 246.44C596.022 247.853 596.716 248.92 597.596 249.64C598.476 250.36 599.529 250.72 600.756 250.72ZM623.639 252V250.6L625.519 250.28C625.945 250.2 626.225 250.04 626.359 249.8C626.492 249.533 626.559 249.053 626.559 248.36V235.88C626.559 234.947 626.479 234.32 626.319 234C626.159 233.653 625.785 233.453 625.199 233.4L623.279 233.2L623.479 231.76L629.759 231.32L630.119 231.6L630.399 235.36H630.479C631.145 233.973 631.999 232.907 633.039 232.16C634.079 231.413 635.199 231.04 636.399 231.04C637.679 231.04 638.692 231.387 639.439 232.08C640.185 232.747 640.559 233.64 640.559 234.76C640.559 235.427 640.452 236 640.239 236.48C640.052 236.933 639.745 237.293 639.319 237.56C638.919 237.8 638.412 237.92 637.799 237.92C636.999 237.92 636.385 237.747 635.959 237.4C635.559 237.053 635.359 236.613 635.359 236.08C635.359 235.84 635.399 235.6 635.479 235.36C635.559 235.12 635.679 234.84 635.839 234.52C635.999 234.2 636.199 233.84 636.439 233.44C635.825 233.2 635.172 233.173 634.479 233.36C633.812 233.547 633.185 233.92 632.599 234.48C632.039 235.013 631.572 235.693 631.199 236.52C630.852 237.32 630.679 238.187 630.679 239.12V248.44C630.679 249.08 630.745 249.52 630.879 249.76C631.012 249.973 631.292 250.107 631.719 250.16L635.039 250.6V252H623.639ZM652.576 252V250.56L654.736 250.24C655.216 250.187 655.522 250.027 655.656 249.76C655.789 249.493 655.856 249 655.856 248.28V235.96C655.856 235 655.776 234.36 655.616 234.04C655.456 233.72 655.069 233.52 654.456 233.44L652.576 233.24L652.736 231.76L659.616 231.44L660.016 231.64V248.44C660.016 249 660.082 249.427 660.216 249.72C660.349 249.987 660.669 250.16 661.176 250.24L663.336 250.6V252H652.576ZM657.376 227.28C656.549 227.28 655.869 227.027 655.336 226.52C654.802 226.013 654.536 225.347 654.536 224.52C654.536 223.72 654.802 223.067 655.336 222.56C655.869 222.027 656.549 221.76 657.376 221.76C658.256 221.76 658.949 222.013 659.456 222.52C659.989 223.027 660.256 223.693 660.256 224.52C660.256 225.32 659.989 225.987 659.456 226.52C658.922 227.027 658.229 227.28 657.376 227.28ZM694.935 252.36C694.268 252.36 693.668 252.267 693.135 252.08C692.628 251.92 692.135 251.627 691.655 251.2C691.175 250.747 690.628 250.133 690.015 249.36L683.735 241.2V240.88L690.415 234.8C690.788 234.48 690.975 234.173 690.975 233.88C690.975 233.56 690.762 233.36 690.335 233.28L688.775 233L689.015 231.6H697.175V232.96L695.895 233.32C695.495 233.427 695.082 233.587 694.655 233.8C694.255 233.987 693.762 234.333 693.175 234.84L687.575 239.72L694.095 247.88C694.628 248.573 695.108 249.08 695.535 249.4C695.988 249.72 696.495 249.88 697.055 249.88C697.268 249.88 697.508 249.853 697.775 249.8C698.042 249.747 698.362 249.653 698.735 249.52L699.055 250.6C698.522 251.133 697.882 251.56 697.135 251.88C696.415 252.2 695.682 252.36 694.935 252.36ZM676.015 252V250.6L677.975 250.28C678.508 250.227 678.842 250.067 678.975 249.8C679.135 249.533 679.215 249.027 679.215 248.28V225.64C679.215 224.76 679.122 224.16 678.935 223.84C678.775 223.52 678.348 223.32 677.655 223.24L675.855 223.04L676.015 221.56L682.975 221.36L683.375 221.68V248.44C683.375 249.027 683.428 249.467 683.535 249.76C683.668 250.027 683.975 250.2 684.455 250.28L685.815 250.56V252H676.015ZM710.193 252V250.56L712.353 250.24C712.833 250.187 713.139 250.027 713.273 249.76C713.406 249.493 713.473 249 713.473 248.28V235.96C713.473 235 713.393 234.36 713.233 234.04C713.073 233.72 712.686 233.52 712.073 233.44L710.193 233.24L710.353 231.76L717.233 231.44L717.633 231.64V248.44C717.633 249 717.699 249.427 717.833 249.72C717.966 249.987 718.286 250.16 718.793 250.24L720.953 250.6V252H710.193ZM714.993 227.28C714.166 227.28 713.486 227.027 712.953 226.52C712.419 226.013 712.153 225.347 712.153 224.52C712.153 223.72 712.419 223.067 712.953 222.56C713.486 222.027 714.166 221.76 714.993 221.76C715.873 221.76 716.566 222.013 717.073 222.52C717.606 223.027 717.873 223.693 717.873 224.52C717.873 225.32 717.606 225.987 717.073 226.52C716.539 227.027 715.846 227.28 714.993 227.28ZM740.695 252.56C739.548 252.56 738.575 252.36 737.775 251.96C737.001 251.533 736.415 250.88 736.015 250C735.615 249.12 735.415 247.987 735.415 246.6V233.44H732.415V231.96C733.401 231.853 734.201 231.573 734.815 231.12C735.455 230.667 735.948 229.96 736.295 229C736.641 228.04 736.868 226.773 736.975 225.2L739.135 224.92L739.575 225.16V231.6H745.575V233.44H739.575V246.2C739.575 247.373 739.775 248.253 740.175 248.84C740.601 249.4 741.308 249.68 742.295 249.68C742.961 249.68 743.601 249.56 744.215 249.32C744.855 249.08 745.468 248.72 746.055 248.24L746.775 249.32C745.948 250.36 745.028 251.16 744.015 251.72C743.028 252.28 741.921 252.56 740.695 252.56Z" fill="black" fill-opacity="0.25"/>
<g opacity="0.8">
<path d="M358.512 304.22C361.86 304.22 363.756 305.444 363.78 307.952L361.368 308.132C361.224 306.812 360.264 306.152 358.332 306.152C356.592 306.152 355.536 306.668 355.536 307.712C355.536 308.72 356.556 309.092 359.196 309.668C362.268 310.328 363.984 311.048 363.984 313.328C363.984 315.728 362.052 317.276 358.308 317.276C354.852 317.276 352.956 316.256 352.428 313.4L354.876 313.1C355.38 315.02 356.712 315.296 358.44 315.296C360.504 315.296 361.308 314.516 361.308 313.628C361.308 312.608 360.252 312.26 357.468 311.66C354.636 311.06 352.992 310.136 352.992 307.928C352.992 305.648 354.744 304.22 358.512 304.22ZM375.375 304.22C378.483 304.22 380.355 305.24 380.355 308.156V314.132C380.355 314.984 380.655 315.2 381.735 315.068V317C381.123 317.168 380.559 317.252 380.043 317.252C378.459 317.252 377.955 316.472 377.859 315.464H377.595C376.647 316.412 375.363 317.288 373.467 317.288C371.223 317.288 369.771 316.028 369.771 313.928C369.771 310.424 373.779 309.956 377.691 310.004V308.3C377.691 306.512 376.659 306.068 375.171 306.08C373.707 306.08 372.639 306.548 372.627 308L372.615 308.504H370.191V307.868C370.191 305.732 371.643 304.22 375.375 304.22ZM372.543 313.58C372.543 314.696 373.371 315.32 374.739 315.32C375.867 315.32 376.815 314.888 377.691 314.252V311.492C377.355 311.456 377.019 311.432 376.683 311.432C374.079 311.432 372.543 312.056 372.543 313.58ZM398.37 317H395.706V308.672C395.706 306.86 394.782 306.38 393.63 306.38C392.31 306.38 391.218 307.028 390.306 308V317H387.642V304.508H389.934L390.126 306.32H390.474C391.542 305.18 392.826 304.22 394.866 304.22C397.062 304.22 398.37 305.324 398.37 307.976V317ZM404.156 310.736C404.156 306.452 406.724 304.22 410.552 304.22C414.104 304.22 416.18 306.08 416.18 309.824V310.964H406.868C406.94 313.736 408.224 315.152 410.456 315.152C411.884 315.152 412.988 314.576 413.552 313.28L416.132 313.676C415.268 316.148 413.084 317.288 410.444 317.288C406.724 317.288 404.156 315.044 404.156 310.736ZM407 309.284H413.576C413.576 307.256 412.28 306.344 410.468 306.344C408.644 306.344 407.384 307.292 407 309.284ZM438.722 310.784C438.722 306.824 440.426 304.232 443.618 304.232C445.442 304.232 446.654 305.06 447.398 306.116H447.554V298.64H450.218V317H447.926L447.746 315.404H447.41C446.558 316.46 445.322 317.3 443.522 317.3C440.354 317.3 438.722 314.672 438.722 310.784ZM441.446 310.784C441.446 313.664 442.55 315.056 444.686 315.056C445.682 315.056 446.63 314.756 447.554 313.94V307.568C446.63 306.752 445.67 306.452 444.71 306.452C442.598 306.452 441.446 307.844 441.446 310.784ZM456.005 310.736C456.005 306.452 458.573 304.22 462.401 304.22C465.953 304.22 468.029 306.08 468.029 309.824V310.964H458.717C458.789 313.736 460.073 315.152 462.305 315.152C463.733 315.152 464.837 314.576 465.401 313.28L467.981 313.676C467.117 316.148 464.933 317.288 462.293 317.288C458.573 317.288 456.005 315.044 456.005 310.736ZM458.849 309.284H465.425C465.425 307.256 464.129 306.344 462.317 306.344C460.493 306.344 459.233 307.292 458.849 309.284ZM485.504 300.344C484.568 300.128 483.728 299.996 482.756 299.996C480.692 299.996 479.672 300.596 479.672 303.272V304.508H485.084V306.668H479.672V314.84H483.836V317H473.876V314.84H477.008V306.668H473.156V304.508H477.008V303.692C477.008 299.276 479.012 297.668 482.66 297.668C483.68 297.668 484.616 297.8 485.504 298.052V300.344ZM496.354 304.22C499.462 304.22 501.334 305.24 501.334 308.156V314.132C501.334 314.984 501.634 315.2 502.714 315.068V317C502.102 317.168 501.538 317.252 501.022 317.252C499.438 317.252 498.934 316.472 498.838 315.464H498.574C497.626 316.412 496.342 317.288 494.446 317.288C492.202 317.288 490.75 316.028 490.75 313.928C490.75 310.424 494.758 309.956 498.67 310.004V308.3C498.67 306.512 497.638 306.068 496.15 306.08C494.686 306.08 493.618 306.548 493.606 308L493.594 308.504H491.17V307.868C491.17 305.732 492.622 304.22 496.354 304.22ZM493.522 313.58C493.522 314.696 494.35 315.32 495.718 315.32C496.846 315.32 497.794 314.888 498.67 314.252V311.492C498.334 311.456 497.998 311.432 497.662 311.432C495.058 311.432 493.522 312.056 493.522 313.58ZM508.621 304.508H511.285V312.824C511.285 314.648 512.209 315.128 513.361 315.128C514.693 315.128 515.785 314.492 516.685 313.508V304.508H519.349V317H517.057L516.865 315.176H516.517C515.461 316.328 514.177 317.276 512.137 317.276C509.929 317.276 508.621 316.172 508.621 313.532V304.508ZM525.664 317V314.84H529.936L529.948 300.776H525.676V298.64L532.276 298.352L532.612 298.676L532.6 314.84H536.872V317H525.664ZM545.719 312.92V306.668H542.287V304.508H545.719V300.764H548.383V304.508H553.807V306.668H548.383V313.028C548.383 314.564 549.103 315.2 550.183 315.2C551.299 315.2 551.995 314.516 551.995 313.04V312.368H553.939V312.908C553.939 315.812 552.655 317.276 549.811 317.276C547.087 317.276 545.719 315.968 545.719 312.92ZM565.906 304.22C569.254 304.22 571.15 305.444 571.174 307.952L568.762 308.132C568.618 306.812 567.658 306.152 565.726 306.152C563.986 306.152 562.93 306.668 562.93 307.712C562.93 308.72 563.95 309.092 566.59 309.668C569.662 310.328 571.378 311.048 571.378 313.328C571.378 315.728 569.446 317.276 565.702 317.276C562.246 317.276 560.35 316.256 559.822 313.4L562.27 313.1C562.774 315.02 564.106 315.296 565.834 315.296C567.898 315.296 568.702 314.516 568.702 313.628C568.702 312.608 567.646 312.26 564.862 311.66C562.03 311.06 560.386 310.136 560.386 307.928C560.386 305.648 562.138 304.22 565.906 304.22Z" fill="#40A02B"/>
<path d="M589.452 311.396C588.132 311.396 587.064 310.52 587.064 309.08C587.064 307.628 588.132 306.776 589.452 306.776C590.76 306.776 591.816 307.628 591.816 309.08C591.816 310.52 590.76 311.396 589.452 311.396Z" fill="#BAC2DE"/>
<path d="M606.836 317V314.84H611.108V306.644H606.836V304.508L613.448 304.22L613.772 304.544V314.84H618.044V317H606.836ZM610.088 299.996C610.088 298.928 610.856 298.28 611.96 298.28C613.076 298.28 613.832 298.928 613.832 299.996C613.832 301.064 613.076 301.736 611.96 301.736C610.856 301.736 610.088 301.064 610.088 299.996ZM635.087 317H632.423V308.672C632.423 306.86 631.499 306.38 630.347 306.38C629.027 306.38 627.935 307.028 627.023 308V317H624.359V304.508H626.651L626.843 306.32H627.191C628.259 305.18 629.543 304.22 631.583 304.22C633.779 304.22 635.087 305.324 635.087 307.976V317ZM647.078 304.22C650.426 304.22 652.322 305.444 652.346 307.952L649.934 308.132C649.79 306.812 648.83 306.152 646.898 306.152C645.158 306.152 644.102 306.668 644.102 307.712C644.102 308.72 645.122 309.092 647.762 309.668C650.834 310.328 652.55 311.048 652.55 313.328C652.55 315.728 650.618 317.276 646.874 317.276C643.418 317.276 641.522 316.256 640.994 313.4L643.442 313.1C643.946 315.02 645.278 315.296 647.006 315.296C649.07 315.296 649.874 314.516 649.874 313.628C649.874 312.608 648.818 312.26 646.034 311.66C643.202 311.06 641.558 310.136 641.558 307.928C641.558 305.648 643.31 304.22 647.078 304.22ZM663.94 304.22C667.048 304.22 668.92 305.24 668.92 308.156V314.132C668.92 314.984 669.22 315.2 670.3 315.068V317C669.688 317.168 669.124 317.252 668.608 317.252C667.024 317.252 666.52 316.472 666.424 315.464H666.16C665.212 316.412 663.928 317.288 662.032 317.288C659.788 317.288 658.336 316.028 658.336 313.928C658.336 310.424 662.344 309.956 666.256 310.004V308.3C666.256 306.512 665.224 306.068 663.736 306.08C662.272 306.08 661.204 306.548 661.192 308L661.18 308.504H658.756V307.868C658.756 305.732 660.208 304.22 663.94 304.22ZM661.108 313.58C661.108 314.696 661.936 315.32 663.304 315.32C664.432 315.32 665.38 314.888 666.256 314.252V311.492C665.92 311.456 665.584 311.432 665.248 311.432C662.644 311.432 661.108 312.056 661.108 313.58ZM686.935 317H684.271V308.672C684.271 306.86 683.347 306.38 682.195 306.38C680.875 306.38 679.783 307.028 678.871 308V317H676.207V304.508H678.499L678.691 306.32H679.039C680.107 305.18 681.391 304.22 683.431 304.22C685.627 304.22 686.935 305.324 686.935 307.976V317ZM692.722 310.736C692.722 306.452 695.29 304.22 699.118 304.22C702.67 304.22 704.746 306.08 704.746 309.824V310.964H695.434C695.506 313.736 696.79 315.152 699.022 315.152C700.45 315.152 701.554 314.576 702.118 313.28L704.698 313.676C703.834 316.148 701.65 317.288 699.01 317.288C695.29 317.288 692.722 315.044 692.722 310.736ZM695.566 309.284H702.142C702.142 307.256 700.846 306.344 699.034 306.344C697.21 306.344 695.95 307.292 695.566 309.284ZM739.396 313.136C738.688 316.028 736.312 317.288 733.528 317.288C729.796 317.288 727.288 315.044 727.288 310.736C727.288 306.308 729.964 304.22 733.66 304.22C736.768 304.22 739.096 305.66 739.396 308.708L736.792 308.936C736.516 307.184 735.304 306.344 733.588 306.344C731.236 306.344 730.012 307.892 730.012 310.736C730.012 313.724 731.356 315.152 733.552 315.152C735.256 315.152 736.36 314.3 736.828 312.764L739.396 313.136ZM745.338 304.508H748.002V312.824C748.002 314.648 748.926 315.128 750.078 315.128C751.41 315.128 752.502 314.492 753.402 313.508V304.508H756.066V317H753.774L753.582 315.176H753.234C752.178 316.328 750.894 317.276 748.854 317.276C746.646 317.276 745.338 316.172 745.338 313.532V304.508ZM768.057 304.22C771.405 304.22 773.301 305.444 773.325 307.952L770.913 308.132C770.769 306.812 769.809 306.152 767.877 306.152C766.137 306.152 765.081 306.668 765.081 307.712C765.081 308.72 766.101 309.092 768.741 309.668C771.813 310.328 773.529 311.048 773.529 313.328C773.529 315.728 771.597 317.276 767.853 317.276C764.397 317.276 762.501 316.256 761.973 313.4L764.421 313.1C764.925 315.02 766.257 315.296 767.985 315.296C770.049 315.296 770.853 314.516 770.853 313.628C770.853 312.608 769.797 312.26 767.013 311.66C764.181 311.06 762.537 310.136 762.537 307.928C762.537 305.648 764.289 304.22 768.057 304.22ZM782.436 312.92V306.668H779.004V304.508H782.436V300.764H785.1V304.508H790.524V306.668H785.1V313.028C785.1 314.564 785.82 315.2 786.9 315.2C788.016 315.2 788.712 314.516 788.712 313.04V312.368H790.656V312.908C790.656 315.812 789.372 317.276 786.528 317.276C783.804 317.276 782.436 315.968 782.436 312.92ZM808.683 310.784C808.683 315.224 805.923 317.288 802.551 317.288C799.191 317.288 796.419 315.224 796.419 310.784C796.419 306.344 799.191 304.22 802.551 304.22C805.923 304.22 808.683 306.344 808.683 310.784ZM799.131 310.784C799.131 313.892 800.559 315.152 802.551 315.152C804.555 315.152 805.971 313.892 805.971 310.784C805.971 307.664 804.555 306.344 802.551 306.344C800.559 306.344 799.131 307.664 799.131 310.784ZM822.042 317H819.594V307.868C819.594 306.764 819.006 306.452 818.358 306.452C817.578 306.452 816.942 306.92 816.462 307.568V317H814.026V304.508H816.102L816.282 306.368H816.486C817.074 305.144 818.154 304.232 819.618 304.232C820.938 304.232 821.802 304.916 821.994 306.368H822.102C822.678 305.144 823.722 304.232 825.186 304.232C826.698 304.232 827.61 305.12 827.61 307.028L827.622 317H825.174V307.868C825.174 306.764 824.586 306.452 823.926 306.452C823.146 306.452 822.51 306.908 822.03 307.544L822.042 317ZM833.613 317V314.84H836.841V306.644H833.613V304.508L839.169 304.22L839.505 304.544V314.84H842.721V317H833.613ZM835.833 300.068C835.833 299 836.601 298.352 837.705 298.352C838.821 298.352 839.577 299 839.577 300.068C839.577 301.136 838.821 301.808 837.705 301.808C836.601 301.808 835.833 301.136 835.833 300.068ZM848.915 304.508H859.463V306.092L852.539 314.84H859.895V317H848.915V315.404L855.827 306.668H848.915V304.508ZM871.334 304.22C874.442 304.22 876.314 305.24 876.314 308.156V314.132C876.314 314.984 876.614 315.2 877.694 315.068V317C877.082 317.168 876.518 317.252 876.002 317.252C874.418 317.252 873.914 316.472 873.818 315.464H873.554C872.606 316.412 871.322 317.288 869.426 317.288C867.182 317.288 865.73 316.028 865.73 313.928C865.73 310.424 869.738 309.956 873.65 310.004V308.3C873.65 306.512 872.618 306.068 871.13 306.08C869.666 306.08 868.598 306.548 868.586 308L868.574 308.504H866.15V307.868C866.15 305.732 867.602 304.22 871.334 304.22ZM868.502 313.58C868.502 314.696 869.33 315.32 870.698 315.32C871.826 315.32 872.774 314.888 873.65 314.252V311.492C873.314 311.456 872.978 311.432 872.642 311.432C870.038 311.432 868.502 312.056 868.502 313.58ZM886.133 312.92V306.668H882.701V304.508H886.133V300.764H888.797V304.508H894.221V306.668H888.797V313.028C888.797 314.564 889.517 315.2 890.597 315.2C891.713 315.2 892.409 314.516 892.409 313.04V312.368H894.353V312.908C894.353 315.812 893.069 317.276 890.225 317.276C887.501 317.276 886.133 315.968 886.133 312.92ZM900.644 317V314.84H904.916V306.644H900.644V304.508L907.256 304.22L907.58 304.544V314.84H911.852V317H900.644ZM903.896 299.996C903.896 298.928 904.664 298.28 905.768 298.28C906.884 298.28 907.64 298.928 907.64 299.996C907.64 301.064 906.884 301.736 905.768 301.736C904.664 301.736 903.896 301.064 903.896 299.996ZM929.663 310.784C929.663 315.224 926.903 317.288 923.531 317.288C920.171 317.288 917.399 315.224 917.399 310.784C917.399 306.344 920.171 304.22 923.531 304.22C926.903 304.22 929.663 306.344 929.663 310.784ZM920.111 310.784C920.111 313.892 921.539 315.152 923.531 315.152C925.535 315.152 926.951 313.892 926.951 310.784C926.951 307.664 925.535 306.344 923.531 306.344C921.539 306.344 920.111 307.664 920.111 310.784ZM946.177 317H943.513V308.672C943.513 306.86 942.589 306.38 941.437 306.38C940.117 306.38 939.025 307.028 938.113 308V317H935.449V304.508H937.741L937.933 306.32H938.281C939.349 305.18 940.633 304.22 942.673 304.22C944.869 304.22 946.177 305.324 946.177 307.976V317Z" fill="#179299"/>
</g>
</svg>
