<svg width="1300" height="350" viewBox="0 0 1300 350" fill="none" xmlns="http://www.w3.org/2000/svg">
<path d="M613.545 143.705V85.5227H627V89.9773H618.636V139.25H627V143.705H613.545Z" fill="#32C572"/>
<path d="M685.636 85.5227V143.705H672.182V139.25H680.545V89.9773H672.182V85.5227H685.636Z" fill="#32C572"/>
<path d="M650.352 123.704C648.048 123.704 646.064 122.904 644.4 121.304C642.8 119.64 642 117.656 642 115.352C642 113.048 642.8 111.096 644.4 109.496C646.064 107.832 648.048 107 650.352 107C652.656 107 654.608 107.832 656.208 109.496C657.872 111.096 658.704 113.048 658.704 115.352C658.704 117.656 657.872 119.64 656.208 121.304C654.608 122.904 652.656 123.704 650.352 123.704ZM650.352 120.152C651.632 120.152 652.752 119.672 653.712 118.712C654.672 117.752 655.152 116.632 655.152 115.352C655.152 114.072 654.672 112.952 653.712 111.992C652.752 111.032 651.632 110.552 650.352 110.552C649.072 110.552 647.952 111.032 646.992 111.992C646.032 112.952 645.552 114.072 645.552 115.352C645.552 116.632 646.032 117.752 646.992 118.712C647.952 119.672 649.072 120.152 650.352 120.152Z" fill="#E6EBF9"/>
<path d="M534.42 252V250.6L536.3 250.32C536.727 250.24 537.007 250.08 537.14 249.84C537.273 249.573 537.34 249.093 537.34 248.4V235.84C537.34 234.907 537.26 234.28 537.1 233.96C536.94 233.64 536.567 233.453 535.98 233.4L534.06 233.16L534.26 231.76L540.62 231.32L540.98 231.6L541.14 235.32H541.22C541.887 233.96 542.847 232.907 544.1 232.16C545.353 231.413 546.7 231.04 548.14 231.04C549.553 231.04 550.74 231.307 551.7 231.84C552.66 232.347 553.38 233.12 553.86 234.16C554.34 235.173 554.58 236.427 554.58 237.92V248.68C554.58 249.293 554.66 249.707 554.82 249.92C554.98 250.133 555.313 250.28 555.82 250.36L557.62 250.6V252H547.58V250.64L549.26 250.4C549.767 250.293 550.087 250.133 550.22 249.92C550.38 249.707 550.46 249.307 550.46 248.72V238.56C550.46 237.307 550.34 236.32 550.1 235.6C549.86 234.853 549.46 234.32 548.9 234C548.367 233.68 547.62 233.52 546.66 233.52C545.647 233.52 544.74 233.747 543.94 234.2C543.167 234.627 542.553 235.253 542.1 236.08C541.673 236.88 541.46 237.84 541.46 238.96V248.56C541.46 249.147 541.527 249.56 541.66 249.8C541.793 250.04 542.06 250.2 542.46 250.28L544.46 250.64V252H534.42ZM580.156 252.56C578.156 252.56 576.409 252.147 574.916 251.32C573.449 250.467 572.316 249.28 571.516 247.76C570.716 246.213 570.316 244.373 570.316 242.24C570.316 239.893 570.742 237.893 571.596 236.24C572.449 234.56 573.649 233.28 575.196 232.4C576.769 231.493 578.609 231.04 580.716 231.04C582.662 231.04 584.356 231.453 585.796 232.28C587.236 233.08 588.342 234.253 589.116 235.8C589.916 237.32 590.316 239.147 590.316 241.28C590.316 243.573 589.889 245.573 589.036 247.28C588.209 248.96 587.036 250.267 585.516 251.2C583.996 252.107 582.209 252.56 580.156 252.56ZM580.756 250.72C581.849 250.72 582.769 250.413 583.516 249.8C584.289 249.187 584.862 248.253 585.236 247C585.609 245.747 585.796 244.147 585.796 242.2C585.796 240.653 585.662 239.293 585.396 238.12C585.156 236.92 584.782 235.933 584.276 235.16C583.769 234.387 583.156 233.813 582.436 233.44C581.742 233.04 580.942 232.84 580.036 232.84C578.916 232.84 577.969 233.133 577.196 233.72C576.422 234.28 575.822 235.173 575.396 236.4C574.996 237.6 574.796 239.147 574.796 241.04C574.796 243.2 575.036 245 575.516 246.44C576.022 247.853 576.716 248.92 577.596 249.64C578.476 250.36 579.529 250.72 580.756 250.72ZM603.639 252V250.6L605.519 250.28C605.945 250.2 606.225 250.04 606.359 249.8C606.492 249.533 606.559 249.053 606.559 248.36V235.88C606.559 234.947 606.479 234.32 606.319 234C606.159 233.653 605.785 233.453 605.199 233.4L603.279 233.2L603.479 231.76L609.759 231.32L610.119 231.6L610.399 235.36H610.479C611.145 233.973 611.999 232.907 613.039 232.16C614.079 231.413 615.199 231.04 616.399 231.04C617.679 231.04 618.692 231.387 619.439 232.08C620.185 232.747 620.559 233.64 620.559 234.76C620.559 235.427 620.452 236 620.239 236.48C620.052 236.933 619.745 237.293 619.319 237.56C618.919 237.8 618.412 237.92 617.799 237.92C616.999 237.92 616.385 237.747 615.959 237.4C615.559 237.053 615.359 236.613 615.359 236.08C615.359 235.84 615.399 235.6 615.479 235.36C615.559 235.12 615.679 234.84 615.839 234.52C615.999 234.2 616.199 233.84 616.439 233.44C615.825 233.2 615.172 233.173 614.479 233.36C613.812 233.547 613.185 233.92 612.599 234.48C612.039 235.013 611.572 235.693 611.199 236.52C610.852 237.32 610.679 238.187 610.679 239.12V248.44C610.679 249.08 610.745 249.52 610.879 249.76C611.012 249.973 611.292 250.107 611.719 250.16L615.039 250.6V252H603.639ZM632.576 252V250.56L634.736 250.24C635.216 250.187 635.522 250.027 635.656 249.76C635.789 249.493 635.856 249 635.856 248.28V235.96C635.856 235 635.776 234.36 635.616 234.04C635.456 233.72 635.069 233.52 634.456 233.44L632.576 233.24L632.736 231.76L639.616 231.44L640.016 231.64V248.44C640.016 249 640.082 249.427 640.216 249.72C640.349 249.987 640.669 250.16 641.176 250.24L643.336 250.6V252H632.576ZM637.376 227.28C636.549 227.28 635.869 227.027 635.336 226.52C634.802 226.013 634.536 225.347 634.536 224.52C634.536 223.72 634.802 223.067 635.336 222.56C635.869 222.027 636.549 221.76 637.376 221.76C638.256 221.76 638.949 222.013 639.456 222.52C639.989 223.027 640.256 223.693 640.256 224.52C640.256 225.32 639.989 225.987 639.456 226.52C638.922 227.027 638.229 227.28 637.376 227.28ZM665.339 252.56C663.472 252.56 661.832 252.147 660.419 251.32C659.032 250.467 657.952 249.267 657.179 247.72C656.405 246.173 656.019 244.307 656.019 242.12C656.019 239.853 656.432 237.893 657.259 236.24C658.085 234.587 659.245 233.307 660.739 232.4C662.232 231.493 663.965 231.04 665.939 231.04C667.352 231.04 668.592 231.267 669.659 231.72C670.725 232.173 671.552 232.787 672.139 233.56C672.725 234.333 673.019 235.187 673.019 236.12C673.019 236.653 672.925 237.133 672.739 237.56C672.552 237.96 672.259 238.28 671.859 238.52C671.459 238.733 670.979 238.84 670.419 238.84C669.645 238.84 669.045 238.667 668.619 238.32C668.219 237.947 668.019 237.453 668.019 236.84C668.019 236.493 668.125 236.093 668.339 235.64C668.552 235.187 668.899 234.56 669.379 233.76C668.872 233.387 668.339 233.12 667.779 232.96C667.245 232.8 666.592 232.72 665.819 232.72C664.779 232.72 663.845 233.04 663.019 233.68C662.219 234.32 661.579 235.253 661.099 236.48C660.645 237.707 660.419 239.227 660.419 241.04C660.419 243.707 660.979 245.773 662.099 247.24C663.219 248.68 664.739 249.4 666.659 249.4C667.805 249.4 668.832 249.2 669.739 248.8C670.645 248.4 671.459 247.867 672.179 247.2L673.179 248.24C672.272 249.6 671.152 250.667 669.819 251.44C668.512 252.187 667.019 252.56 665.339 252.56ZM695.82 252.56C693.82 252.56 692.073 252.147 690.58 251.32C689.113 250.467 687.98 249.28 687.18 247.76C686.38 246.213 685.98 244.373 685.98 242.24C685.98 239.893 686.406 237.893 687.26 236.24C688.113 234.56 689.313 233.28 690.86 232.4C692.433 231.493 694.273 231.04 696.38 231.04C698.326 231.04 700.02 231.453 701.46 232.28C702.9 233.08 704.006 234.253 704.78 235.8C705.58 237.32 705.98 239.147 705.98 241.28C705.98 243.573 705.553 245.573 704.7 247.28C703.873 248.96 702.7 250.267 701.18 251.2C699.66 252.107 697.873 252.56 695.82 252.56ZM696.42 250.72C697.513 250.72 698.433 250.413 699.18 249.8C699.953 249.187 700.526 248.253 700.9 247C701.273 245.747 701.46 244.147 701.46 242.2C701.46 240.653 701.326 239.293 701.06 238.12C700.82 236.92 700.446 235.933 699.94 235.16C699.433 234.387 698.82 233.813 698.1 233.44C697.406 233.04 696.606 232.84 695.7 232.84C694.58 232.84 693.633 233.133 692.86 233.72C692.086 234.28 691.486 235.173 691.06 236.4C690.66 237.6 690.46 239.147 690.46 241.04C690.46 243.2 690.7 245 691.18 246.44C691.686 247.853 692.38 248.92 693.26 249.64C694.14 250.36 695.193 250.72 696.42 250.72ZM719.303 252V250.6L721.183 250.28C721.609 250.2 721.889 250.04 722.023 249.8C722.156 249.533 722.223 249.053 722.223 248.36V235.88C722.223 234.947 722.143 234.32 721.983 234C721.823 233.653 721.449 233.453 720.863 233.4L718.943 233.2L719.143 231.76L725.423 231.32L725.783 231.6L726.063 235.36H726.143C726.809 233.973 727.663 232.907 728.703 232.16C729.743 231.413 730.863 231.04 732.063 231.04C733.343 231.04 734.356 231.387 735.103 232.08C735.849 232.747 736.223 233.64 736.223 234.76C736.223 235.427 736.116 236 735.903 236.48C735.716 236.933 735.409 237.293 734.983 237.56C734.583 237.8 734.076 237.92 733.463 237.92C732.663 237.92 732.049 237.747 731.623 237.4C731.223 237.053 731.023 236.613 731.023 236.08C731.023 235.84 731.063 235.6 731.143 235.36C731.223 235.12 731.343 234.84 731.503 234.52C731.663 234.2 731.863 233.84 732.103 233.44C731.489 233.2 730.836 233.173 730.143 233.36C729.476 233.547 728.849 233.92 728.263 234.48C727.703 235.013 727.236 235.693 726.863 236.52C726.516 237.32 726.343 238.187 726.343 239.12V248.44C726.343 249.08 726.409 249.52 726.543 249.76C726.676 249.973 726.956 250.107 727.383 250.16L730.703 250.6V252H719.303ZM757.569 252.56C755.649 252.56 753.969 252.147 752.529 251.32C751.116 250.493 750.022 249.307 749.249 247.76C748.476 246.187 748.089 244.32 748.089 242.16C748.089 239.84 748.502 237.853 749.329 236.2C750.156 234.52 751.316 233.24 752.809 232.36C754.302 231.48 756.036 231.04 758.009 231.04C759.502 231.04 760.809 231.333 761.929 231.92C763.049 232.507 763.916 233.347 764.529 234.44C765.169 235.507 765.489 236.773 765.489 238.24C765.489 238.747 765.449 239.267 765.369 239.8C765.316 240.333 765.236 240.893 765.129 241.48H752.529C752.529 243.24 752.782 244.72 753.289 245.92C753.822 247.093 754.556 247.987 755.489 248.6C756.422 249.187 757.516 249.48 758.769 249.48C759.862 249.48 760.889 249.28 761.849 248.88C762.836 248.48 763.782 247.853 764.689 247L765.729 248C764.742 249.52 763.542 250.667 762.129 251.44C760.742 252.187 759.222 252.56 757.569 252.56ZM752.529 239.8H761.249C761.276 239.533 761.289 239.24 761.289 238.92C761.316 238.6 761.329 238.267 761.329 237.92C761.329 236.053 761.022 234.707 760.409 233.88C759.796 233.053 758.862 232.64 757.609 232.64C756.622 232.64 755.769 232.893 755.049 233.4C754.356 233.907 753.796 234.693 753.369 235.76C752.942 236.8 752.662 238.147 752.529 239.8Z" fill="#BAC2DE"/>
<g opacity="0.8">
<path d="M358.488 304.388C361.74 304.388 363.612 305.564 363.708 308.06L361.644 308.204C361.488 306.8 360.408 306.08 358.332 306.08C356.46 306.08 355.284 306.632 355.284 307.796C355.284 308.852 356.28 309.284 359.028 309.848C362.316 310.52 363.852 311.276 363.852 313.424C363.852 315.74 362.016 317.276 358.392 317.276C354.984 317.276 353.04 316.304 352.488 313.424L354.576 313.16C355.152 315.32 356.724 315.524 358.5 315.524C360.708 315.524 361.584 314.648 361.584 313.676C361.584 312.596 360.552 312.212 357.624 311.612C354.66 311 353.112 310.112 353.112 308C353.112 305.804 354.78 304.388 358.488 304.388ZM375.435 304.388C378.447 304.388 380.211 305.384 380.211 308.288V314.396C380.211 315.284 380.547 315.512 381.675 315.344V317C381.111 317.168 380.595 317.24 380.139 317.24C378.651 317.24 378.159 316.448 378.075 315.464H377.859C376.863 316.364 375.603 317.288 373.611 317.288C371.331 317.288 369.879 316.064 369.879 313.964C369.879 310.52 373.755 310.076 377.943 310.1V308.42C377.943 306.44 376.827 305.996 375.195 306.008C373.635 306.02 372.447 306.464 372.423 308.108V308.636H370.299V307.988C370.299 305.876 371.751 304.388 375.435 304.388ZM372.255 313.688C372.255 314.912 373.143 315.572 374.631 315.572C375.927 315.572 376.935 315.068 377.943 314.336V311.432C377.559 311.396 377.163 311.372 376.803 311.372C373.971 311.372 372.255 311.996 372.255 313.688ZM398.178 317H395.91V308.78C395.91 306.776 394.866 306.248 393.618 306.248C392.178 306.248 391.026 306.956 390.102 308.024V317H387.834V304.676H389.754L389.958 306.44H390.258C391.23 305.396 392.514 304.388 394.602 304.388C396.798 304.388 398.178 305.504 398.178 308.18V317ZM404.276 310.82C404.276 306.656 406.76 304.388 410.552 304.388C414.044 304.388 416.084 306.212 416.084 309.836V310.916H406.604C406.64 313.916 408.068 315.428 410.48 315.428C412.052 315.428 413.24 314.792 413.828 313.388L416.036 313.76C415.196 316.064 413.18 317.288 410.468 317.288C406.784 317.288 404.276 315.056 404.276 310.82ZM406.724 309.404H413.864C413.852 307.208 412.412 306.248 410.48 306.248C408.464 306.248 407.12 307.316 406.724 309.404ZM438.842 310.868C438.842 306.848 440.666 304.388 443.774 304.388C445.586 304.388 446.81 305.216 447.602 306.308H447.758V298.64H450.026V317H448.106L447.926 315.38H447.614C446.726 316.472 445.466 317.3 443.678 317.3C440.558 317.3 438.842 314.78 438.842 310.868ZM441.182 310.868C441.182 313.844 442.37 315.368 444.602 315.368C445.706 315.368 446.726 314.984 447.758 313.952V307.712C446.75 306.68 445.718 306.308 444.638 306.308C442.442 306.308 441.182 307.796 441.182 310.868ZM456.125 310.82C456.125 306.656 458.609 304.388 462.401 304.388C465.893 304.388 467.933 306.212 467.933 309.836V310.916H458.453C458.489 313.916 459.917 315.428 462.329 315.428C463.901 315.428 465.089 314.792 465.677 313.388L467.885 313.76C467.045 316.064 465.029 317.288 462.317 317.288C458.633 317.288 456.125 315.056 456.125 310.82ZM458.573 309.404H465.713C465.701 307.208 464.261 306.248 462.329 306.248C460.313 306.248 458.969 307.316 458.573 309.404ZM485.432 300.092C484.508 299.876 483.68 299.744 482.684 299.744C480.596 299.744 479.384 300.32 479.384 303.284V304.676H484.988V306.512H479.384V315.164H483.752V317H473.852V315.164H477.116V306.512H473.156V304.676H477.116V303.488C477.116 299.216 479.192 297.728 482.624 297.728C483.596 297.728 484.532 297.848 485.432 298.112V300.092ZM496.414 304.388C499.426 304.388 501.19 305.384 501.19 308.288V314.396C501.19 315.284 501.526 315.512 502.654 315.344V317C502.09 317.168 501.574 317.24 501.118 317.24C499.63 317.24 499.138 316.448 499.054 315.464H498.838C497.842 316.364 496.582 317.288 494.59 317.288C492.31 317.288 490.858 316.064 490.858 313.964C490.858 310.52 494.734 310.076 498.922 310.1V308.42C498.922 306.44 497.806 305.996 496.174 306.008C494.614 306.02 493.426 306.464 493.402 308.108V308.636H491.278V307.988C491.278 305.876 492.73 304.388 496.414 304.388ZM493.234 313.688C493.234 314.912 494.122 315.572 495.61 315.572C496.906 315.572 497.914 315.068 498.922 314.336V311.432C498.538 311.396 498.142 311.372 497.782 311.372C494.95 311.372 493.234 311.996 493.234 313.688ZM508.813 304.676H511.081V312.884C511.081 314.9 512.125 315.416 513.373 315.416C514.813 315.416 515.965 314.72 516.889 313.652V304.676H519.157V317H517.237L517.033 315.236H516.733C515.761 316.268 514.477 317.276 512.389 317.276C510.193 317.276 508.813 316.16 508.813 313.496V304.676ZM525.76 317V315.164H530.128L530.14 300.44H525.76V298.64L532.108 298.376L532.408 298.652V315.164H536.776V317H525.76ZM545.863 312.884V306.512H542.287V304.676H545.863V300.812H548.143V304.676H553.807V306.512H548.143V313.028C548.143 314.732 548.887 315.488 550.147 315.488C551.467 315.488 552.175 314.66 552.175 313.028V312.428H553.891V312.872C553.891 315.752 552.727 317.276 549.871 317.276C547.207 317.276 545.863 315.968 545.863 312.884ZM565.882 304.388C569.134 304.388 571.006 305.564 571.102 308.06L569.038 308.204C568.882 306.8 567.802 306.08 565.726 306.08C563.854 306.08 562.678 306.632 562.678 307.796C562.678 308.852 563.674 309.284 566.422 309.848C569.71 310.52 571.246 311.276 571.246 313.424C571.246 315.74 569.41 317.276 565.786 317.276C562.378 317.276 560.434 316.304 559.882 313.424L561.97 313.16C562.546 315.32 564.118 315.524 565.894 315.524C568.102 315.524 568.978 314.648 568.978 313.676C568.978 312.596 567.946 312.212 565.018 311.612C562.054 311 560.506 310.112 560.506 308C560.506 305.804 562.174 304.388 565.882 304.388Z" fill="#A6E3A1"/>
<path d="M589.452 311.396C588.132 311.396 587.064 310.52 587.064 309.08C587.064 307.628 588.132 306.776 589.452 306.776C590.76 306.776 591.816 307.628 591.816 309.08C591.816 310.52 590.76 311.396 589.452 311.396Z" fill="#BAC2DE"/>
<path d="M606.932 317V315.164H611.3V306.476H606.932V304.676L613.28 304.4L613.58 304.688V315.164H617.948V317H606.932ZM610.316 300.02C610.316 299.06 611 298.484 611.996 298.484C612.98 298.484 613.664 299.06 613.664 300.02C613.664 300.98 612.98 301.568 611.996 301.568C611 301.568 610.316 300.98 610.316 300.02ZM634.895 317H632.627V308.78C632.627 306.776 631.583 306.248 630.335 306.248C628.895 306.248 627.743 306.956 626.819 308.024V317H624.551V304.676H626.471L626.675 306.44H626.975C627.947 305.396 629.231 304.388 631.319 304.388C633.515 304.388 634.895 305.504 634.895 308.18V317ZM647.054 304.388C650.306 304.388 652.178 305.564 652.274 308.06L650.21 308.204C650.054 306.8 648.974 306.08 646.898 306.08C645.026 306.08 643.85 306.632 643.85 307.796C643.85 308.852 644.846 309.284 647.594 309.848C650.882 310.52 652.418 311.276 652.418 313.424C652.418 315.74 650.582 317.276 646.958 317.276C643.55 317.276 641.606 316.304 641.054 313.424L643.142 313.16C643.718 315.32 645.29 315.524 647.066 315.524C649.274 315.524 650.15 314.648 650.15 313.676C650.15 312.596 649.118 312.212 646.19 311.612C643.226 311 641.678 310.112 641.678 308C641.678 305.804 643.346 304.388 647.054 304.388ZM664 304.388C667.012 304.388 668.776 305.384 668.776 308.288V314.396C668.776 315.284 669.112 315.512 670.24 315.344V317C669.676 317.168 669.16 317.24 668.704 317.24C667.216 317.24 666.724 316.448 666.64 315.464H666.424C665.428 316.364 664.168 317.288 662.176 317.288C659.896 317.288 658.444 316.064 658.444 313.964C658.444 310.52 662.32 310.076 666.508 310.1V308.42C666.508 306.44 665.392 305.996 663.76 306.008C662.2 306.02 661.012 306.464 660.988 308.108V308.636H658.864V307.988C658.864 305.876 660.316 304.388 664 304.388ZM660.82 313.688C660.82 314.912 661.708 315.572 663.196 315.572C664.492 315.572 665.5 315.068 666.508 314.336V311.432C666.124 311.396 665.728 311.372 665.368 311.372C662.536 311.372 660.82 311.996 660.82 313.688ZM686.743 317H684.475V308.78C684.475 306.776 683.431 306.248 682.183 306.248C680.743 306.248 679.591 306.956 678.667 308.024V317H676.399V304.676H678.319L678.523 306.44H678.823C679.795 305.396 681.079 304.388 683.167 304.388C685.363 304.388 686.743 305.504 686.743 308.18V317ZM692.842 310.82C692.842 306.656 695.326 304.388 699.118 304.388C702.61 304.388 704.65 306.212 704.65 309.836V310.916H695.17C695.206 313.916 696.634 315.428 699.046 315.428C700.618 315.428 701.806 314.792 702.394 313.388L704.602 313.76C703.762 316.064 701.746 317.288 699.034 317.288C695.35 317.288 692.842 315.056 692.842 310.82ZM695.29 309.404H702.43C702.418 307.208 700.978 306.248 699.046 306.248C697.03 306.248 695.686 307.316 695.29 309.404ZM739.3 313.244C738.616 315.968 736.372 317.288 733.564 317.288C729.928 317.288 727.408 315.08 727.408 310.808C727.408 306.512 729.976 304.388 733.684 304.388C736.696 304.388 738.988 305.792 739.3 308.756L737.056 308.948C736.768 307.052 735.424 306.248 733.624 306.248C731.08 306.248 729.748 307.856 729.748 310.808C729.748 313.928 731.236 315.428 733.576 315.428C735.364 315.428 736.6 314.564 737.104 312.896L739.3 313.244ZM745.53 304.676H747.798V312.884C747.798 314.9 748.842 315.416 750.09 315.416C751.53 315.416 752.682 314.72 753.606 313.652V304.676H755.874V317H753.954L753.75 315.236H753.45C752.478 316.268 751.194 317.276 749.106 317.276C746.91 317.276 745.53 316.16 745.53 313.496V304.676ZM768.033 304.388C771.285 304.388 773.157 305.564 773.253 308.06L771.189 308.204C771.033 306.8 769.953 306.08 767.877 306.08C766.005 306.08 764.829 306.632 764.829 307.796C764.829 308.852 765.825 309.284 768.573 309.848C771.861 310.52 773.397 311.276 773.397 313.424C773.397 315.74 771.561 317.276 767.937 317.276C764.529 317.276 762.585 316.304 762.033 313.424L764.121 313.16C764.697 315.32 766.269 315.524 768.045 315.524C770.253 315.524 771.129 314.648 771.129 313.676C771.129 312.596 770.097 312.212 767.169 311.612C764.205 311 762.657 310.112 762.657 308C762.657 305.804 764.325 304.388 768.033 304.388ZM782.58 312.884V306.512H779.004V304.676H782.58V300.812H784.86V304.676H790.524V306.512H784.86V313.028C784.86 314.732 785.604 315.488 786.864 315.488C788.184 315.488 788.892 314.66 788.892 313.028V312.428H790.608V312.872C790.608 315.752 789.444 317.276 786.588 317.276C783.924 317.276 782.58 315.968 782.58 312.884ZM808.563 310.856C808.563 315.176 805.863 317.288 802.551 317.288C799.251 317.288 796.539 315.176 796.539 310.856C796.539 306.548 799.251 304.388 802.551 304.388C805.863 304.388 808.563 306.548 808.563 310.856ZM798.867 310.856C798.867 314 800.391 315.428 802.551 315.428C804.711 315.428 806.223 314 806.223 310.856C806.223 307.712 804.711 306.248 802.551 306.248C800.391 306.248 798.867 307.712 798.867 310.856ZM821.91 317H819.774V307.856C819.774 306.632 819.102 306.308 818.418 306.308C817.53 306.308 816.822 306.872 816.318 307.676V317H814.206V304.676H815.982L816.162 306.452H816.342C816.942 305.252 818.01 304.4 819.438 304.4C820.746 304.4 821.634 305.06 821.838 306.452H821.934C822.534 305.252 823.566 304.4 825.006 304.4C826.494 304.4 827.454 305.264 827.466 307.124L827.478 317H825.342V307.856C825.342 306.632 824.67 306.308 823.974 306.308C823.086 306.308 822.39 306.86 821.886 307.652L821.91 317ZM833.745 317V315.176H837.045V306.476H833.745V304.676L839.025 304.4L839.325 304.688V315.176H842.625V317H833.745ZM836.073 300.068C836.073 299.108 836.757 298.532 837.753 298.532C838.737 298.532 839.421 299.108 839.421 300.068C839.421 301.028 838.737 301.616 837.753 301.616C836.757 301.616 836.073 301.028 836.073 300.068ZM849.023 304.676H859.307V306.008L852.119 315.164H859.775V317H849.023V315.656L856.199 306.512H849.023V304.676ZM871.394 304.388C874.406 304.388 876.17 305.384 876.17 308.288V314.396C876.17 315.284 876.506 315.512 877.634 315.344V317C877.07 317.168 876.554 317.24 876.098 317.24C874.61 317.24 874.118 316.448 874.034 315.464H873.818C872.822 316.364 871.562 317.288 869.57 317.288C867.29 317.288 865.838 316.064 865.838 313.964C865.838 310.52 869.714 310.076 873.902 310.1V308.42C873.902 306.44 872.786 305.996 871.154 306.008C869.594 306.02 868.406 306.464 868.382 308.108V308.636H866.258V307.988C866.258 305.876 867.71 304.388 871.394 304.388ZM868.214 313.688C868.214 314.912 869.102 315.572 870.59 315.572C871.886 315.572 872.894 315.068 873.902 314.336V311.432C873.518 311.396 873.122 311.372 872.762 311.372C869.93 311.372 868.214 311.996 868.214 313.688ZM886.277 312.884V306.512H882.701V304.676H886.277V300.812H888.557V304.676H894.221V306.512H888.557V313.028C888.557 314.732 889.301 315.488 890.561 315.488C891.881 315.488 892.589 314.66 892.589 313.028V312.428H894.305V312.872C894.305 315.752 893.141 317.276 890.285 317.276C887.621 317.276 886.277 315.968 886.277 312.884ZM900.74 317V315.164H905.108V306.476H900.74V304.676L907.088 304.4L907.388 304.688V315.164H911.756V317H900.74ZM904.124 300.02C904.124 299.06 904.808 298.484 905.804 298.484C906.788 298.484 907.472 299.06 907.472 300.02C907.472 300.98 906.788 301.568 905.804 301.568C904.808 301.568 904.124 300.98 904.124 300.02ZM929.543 310.856C929.543 315.176 926.843 317.288 923.531 317.288C920.231 317.288 917.519 315.176 917.519 310.856C917.519 306.548 920.231 304.388 923.531 304.388C926.843 304.388 929.543 306.548 929.543 310.856ZM919.847 310.856C919.847 314 921.371 315.428 923.531 315.428C925.691 315.428 927.203 314 927.203 310.856C927.203 307.712 925.691 306.248 923.531 306.248C921.371 306.248 919.847 307.712 919.847 310.856ZM945.985 317H943.717V308.78C943.717 306.776 942.673 306.248 941.425 306.248C939.985 306.248 938.833 306.956 937.909 308.024V317H935.641V304.676H937.561L937.765 306.44H938.065C939.037 305.396 940.321 304.388 942.409 304.388C944.605 304.388 945.985 305.504 945.985 308.18V317Z" fill="#94E2D5"/>
</g>
</svg>
