<svg width="1300" height="350" viewBox="0 0 1300 350" fill="none" xmlns="http://www.w3.org/2000/svg">
<path d="M613.545 143.705V85.5227H627V89.9773H618.636V139.25H627V143.705H613.545Z" fill="#32C572"/>
<path d="M685.636 85.5227V143.705H672.182V139.25H680.545V89.9773H672.182V85.5227H685.636Z" fill="#32C572"/>
<path d="M650.352 123.704C648.048 123.704 646.064 122.904 644.4 121.304C642.8 119.64 642 117.656 642 115.352C642 113.048 642.8 111.096 644.4 109.496C646.064 107.832 648.048 107 650.352 107C652.656 107 654.608 107.832 656.208 109.496C657.872 111.096 658.704 113.048 658.704 115.352C658.704 117.656 657.872 119.64 656.208 121.304C654.608 122.904 652.656 123.704 650.352 123.704ZM650.352 120.152C651.632 120.152 652.752 119.672 653.712 118.712C654.672 117.752 655.152 116.632 655.152 115.352C655.152 114.072 654.672 112.952 653.712 111.992C652.752 111.032 651.632 110.552 650.352 110.552C649.072 110.552 647.952 111.032 646.992 111.992C646.032 112.952 645.552 114.072 645.552 115.352C645.552 116.632 646.032 117.752 646.992 118.712C647.952 119.672 649.072 120.152 650.352 120.152Z" fill="#2A2D3F"/>
<path d="M534.42 252V250.6L536.3 250.32C536.727 250.24 537.007 250.08 537.14 249.84C537.273 249.573 537.34 249.093 537.34 248.4V235.84C537.34 234.907 537.26 234.28 537.1 233.96C536.94 233.64 536.567 233.453 535.98 233.4L534.06 233.16L534.26 231.76L540.62 231.32L540.98 231.6L541.14 235.32H541.22C541.887 233.96 542.847 232.907 544.1 232.16C545.353 231.413 546.7 231.04 548.14 231.04C549.553 231.04 550.74 231.307 551.7 231.84C552.66 232.347 553.38 233.12 553.86 234.16C554.34 235.173 554.58 236.427 554.58 237.92V248.68C554.58 249.293 554.66 249.707 554.82 249.92C554.98 250.133 555.313 250.28 555.82 250.36L557.62 250.6V252H547.58V250.64L549.26 250.4C549.767 250.293 550.087 250.133 550.22 249.92C550.38 249.707 550.46 249.307 550.46 248.72V238.56C550.46 237.307 550.34 236.32 550.1 235.6C549.86 234.853 549.46 234.32 548.9 234C548.367 233.68 547.62 233.52 546.66 233.52C545.647 233.52 544.74 233.747 543.94 234.2C543.167 234.627 542.553 235.253 542.1 236.08C541.673 236.88 541.46 237.84 541.46 238.96V248.56C541.46 249.147 541.527 249.56 541.66 249.8C541.793 250.04 542.06 250.2 542.46 250.28L544.46 250.64V252H534.42ZM580.156 252.56C578.156 252.56 576.409 252.147 574.916 251.32C573.449 250.467 572.316 249.28 571.516 247.76C570.716 246.213 570.316 244.373 570.316 242.24C570.316 239.893 570.742 237.893 571.596 236.24C572.449 234.56 573.649 233.28 575.196 232.4C576.769 231.493 578.609 231.04 580.716 231.04C582.662 231.04 584.356 231.453 585.796 232.28C587.236 233.08 588.342 234.253 589.116 235.8C589.916 237.32 590.316 239.147 590.316 241.28C590.316 243.573 589.889 245.573 589.036 247.28C588.209 248.96 587.036 250.267 585.516 251.2C583.996 252.107 582.209 252.56 580.156 252.56ZM580.756 250.72C581.849 250.72 582.769 250.413 583.516 249.8C584.289 249.187 584.862 248.253 585.236 247C585.609 245.747 585.796 244.147 585.796 242.2C585.796 240.653 585.662 239.293 585.396 238.12C585.156 236.92 584.782 235.933 584.276 235.16C583.769 234.387 583.156 233.813 582.436 233.44C581.742 233.04 580.942 232.84 580.036 232.84C578.916 232.84 577.969 233.133 577.196 233.72C576.422 234.28 575.822 235.173 575.396 236.4C574.996 237.6 574.796 239.147 574.796 241.04C574.796 243.2 575.036 245 575.516 246.44C576.022 247.853 576.716 248.92 577.596 249.64C578.476 250.36 579.529 250.72 580.756 250.72ZM603.639 252V250.6L605.519 250.28C605.945 250.2 606.225 250.04 606.359 249.8C606.492 249.533 606.559 249.053 606.559 248.36V235.88C606.559 234.947 606.479 234.32 606.319 234C606.159 233.653 605.785 233.453 605.199 233.4L603.279 233.2L603.479 231.76L609.759 231.32L610.119 231.6L610.399 235.36H610.479C611.145 233.973 611.999 232.907 613.039 232.16C614.079 231.413 615.199 231.04 616.399 231.04C617.679 231.04 618.692 231.387 619.439 232.08C620.185 232.747 620.559 233.64 620.559 234.76C620.559 235.427 620.452 236 620.239 236.48C620.052 236.933 619.745 237.293 619.319 237.56C618.919 237.8 618.412 237.92 617.799 237.92C616.999 237.92 616.385 237.747 615.959 237.4C615.559 237.053 615.359 236.613 615.359 236.08C615.359 235.84 615.399 235.6 615.479 235.36C615.559 235.12 615.679 234.84 615.839 234.52C615.999 234.2 616.199 233.84 616.439 233.44C615.825 233.2 615.172 233.173 614.479 233.36C613.812 233.547 613.185 233.92 612.599 234.48C612.039 235.013 611.572 235.693 611.199 236.52C610.852 237.32 610.679 238.187 610.679 239.12V248.44C610.679 249.08 610.745 249.52 610.879 249.76C611.012 249.973 611.292 250.107 611.719 250.16L615.039 250.6V252H603.639ZM632.576 252V250.56L634.736 250.24C635.216 250.187 635.522 250.027 635.656 249.76C635.789 249.493 635.856 249 635.856 248.28V235.96C635.856 235 635.776 234.36 635.616 234.04C635.456 233.72 635.069 233.52 634.456 233.44L632.576 233.24L632.736 231.76L639.616 231.44L640.016 231.64V248.44C640.016 249 640.082 249.427 640.216 249.72C640.349 249.987 640.669 250.16 641.176 250.24L643.336 250.6V252H632.576ZM637.376 227.28C636.549 227.28 635.869 227.027 635.336 226.52C634.802 226.013 634.536 225.347 634.536 224.52C634.536 223.72 634.802 223.067 635.336 222.56C635.869 222.027 636.549 221.76 637.376 221.76C638.256 221.76 638.949 222.013 639.456 222.52C639.989 223.027 640.256 223.693 640.256 224.52C640.256 225.32 639.989 225.987 639.456 226.52C638.922 227.027 638.229 227.28 637.376 227.28ZM665.339 252.56C663.472 252.56 661.832 252.147 660.419 251.32C659.032 250.467 657.952 249.267 657.179 247.72C656.405 246.173 656.019 244.307 656.019 242.12C656.019 239.853 656.432 237.893 657.259 236.24C658.085 234.587 659.245 233.307 660.739 232.4C662.232 231.493 663.965 231.04 665.939 231.04C667.352 231.04 668.592 231.267 669.659 231.72C670.725 232.173 671.552 232.787 672.139 233.56C672.725 234.333 673.019 235.187 673.019 236.12C673.019 236.653 672.925 237.133 672.739 237.56C672.552 237.96 672.259 238.28 671.859 238.52C671.459 238.733 670.979 238.84 670.419 238.84C669.645 238.84 669.045 238.667 668.619 238.32C668.219 237.947 668.019 237.453 668.019 236.84C668.019 236.493 668.125 236.093 668.339 235.64C668.552 235.187 668.899 234.56 669.379 233.76C668.872 233.387 668.339 233.12 667.779 232.96C667.245 232.8 666.592 232.72 665.819 232.72C664.779 232.72 663.845 233.04 663.019 233.68C662.219 234.32 661.579 235.253 661.099 236.48C660.645 237.707 660.419 239.227 660.419 241.04C660.419 243.707 660.979 245.773 662.099 247.24C663.219 248.68 664.739 249.4 666.659 249.4C667.805 249.4 668.832 249.2 669.739 248.8C670.645 248.4 671.459 247.867 672.179 247.2L673.179 248.24C672.272 249.6 671.152 250.667 669.819 251.44C668.512 252.187 667.019 252.56 665.339 252.56ZM695.82 252.56C693.82 252.56 692.073 252.147 690.58 251.32C689.113 250.467 687.98 249.28 687.18 247.76C686.38 246.213 685.98 244.373 685.98 242.24C685.98 239.893 686.406 237.893 687.26 236.24C688.113 234.56 689.313 233.28 690.86 232.4C692.433 231.493 694.273 231.04 696.38 231.04C698.326 231.04 700.02 231.453 701.46 232.28C702.9 233.08 704.006 234.253 704.78 235.8C705.58 237.32 705.98 239.147 705.98 241.28C705.98 243.573 705.553 245.573 704.7 247.28C703.873 248.96 702.7 250.267 701.18 251.2C699.66 252.107 697.873 252.56 695.82 252.56ZM696.42 250.72C697.513 250.72 698.433 250.413 699.18 249.8C699.953 249.187 700.526 248.253 700.9 247C701.273 245.747 701.46 244.147 701.46 242.2C701.46 240.653 701.326 239.293 701.06 238.12C700.82 236.92 700.446 235.933 699.94 235.16C699.433 234.387 698.82 233.813 698.1 233.44C697.406 233.04 696.606 232.84 695.7 232.84C694.58 232.84 693.633 233.133 692.86 233.72C692.086 234.28 691.486 235.173 691.06 236.4C690.66 237.6 690.46 239.147 690.46 241.04C690.46 243.2 690.7 245 691.18 246.44C691.686 247.853 692.38 248.92 693.26 249.64C694.14 250.36 695.193 250.72 696.42 250.72ZM719.303 252V250.6L721.183 250.28C721.609 250.2 721.889 250.04 722.023 249.8C722.156 249.533 722.223 249.053 722.223 248.36V235.88C722.223 234.947 722.143 234.32 721.983 234C721.823 233.653 721.449 233.453 720.863 233.4L718.943 233.2L719.143 231.76L725.423 231.32L725.783 231.6L726.063 235.36H726.143C726.809 233.973 727.663 232.907 728.703 232.16C729.743 231.413 730.863 231.04 732.063 231.04C733.343 231.04 734.356 231.387 735.103 232.08C735.849 232.747 736.223 233.64 736.223 234.76C736.223 235.427 736.116 236 735.903 236.48C735.716 236.933 735.409 237.293 734.983 237.56C734.583 237.8 734.076 237.92 733.463 237.92C732.663 237.92 732.049 237.747 731.623 237.4C731.223 237.053 731.023 236.613 731.023 236.08C731.023 235.84 731.063 235.6 731.143 235.36C731.223 235.12 731.343 234.84 731.503 234.52C731.663 234.2 731.863 233.84 732.103 233.44C731.489 233.2 730.836 233.173 730.143 233.36C729.476 233.547 728.849 233.92 728.263 234.48C727.703 235.013 727.236 235.693 726.863 236.52C726.516 237.32 726.343 238.187 726.343 239.12V248.44C726.343 249.08 726.409 249.52 726.543 249.76C726.676 249.973 726.956 250.107 727.383 250.16L730.703 250.6V252H719.303ZM757.569 252.56C755.649 252.56 753.969 252.147 752.529 251.32C751.116 250.493 750.022 249.307 749.249 247.76C748.476 246.187 748.089 244.32 748.089 242.16C748.089 239.84 748.502 237.853 749.329 236.2C750.156 234.52 751.316 233.24 752.809 232.36C754.302 231.48 756.036 231.04 758.009 231.04C759.502 231.04 760.809 231.333 761.929 231.92C763.049 232.507 763.916 233.347 764.529 234.44C765.169 235.507 765.489 236.773 765.489 238.24C765.489 238.747 765.449 239.267 765.369 239.8C765.316 240.333 765.236 240.893 765.129 241.48H752.529C752.529 243.24 752.782 244.72 753.289 245.92C753.822 247.093 754.556 247.987 755.489 248.6C756.422 249.187 757.516 249.48 758.769 249.48C759.862 249.48 760.889 249.28 761.849 248.88C762.836 248.48 763.782 247.853 764.689 247L765.729 248C764.742 249.52 763.542 250.667 762.129 251.44C760.742 252.187 759.222 252.56 757.569 252.56ZM752.529 239.8H761.249C761.276 239.533 761.289 239.24 761.289 238.92C761.316 238.6 761.329 238.267 761.329 237.92C761.329 236.053 761.022 234.707 760.409 233.88C759.796 233.053 758.862 232.64 757.609 232.64C756.622 232.64 755.769 232.893 755.049 233.4C754.356 233.907 753.796 234.693 753.369 235.76C752.942 236.8 752.662 238.147 752.529 239.8Z" fill="#5C5F77"/>
<path d="M534.42 252V250.6L536.3 250.32C536.727 250.24 537.007 250.08 537.14 249.84C537.273 249.573 537.34 249.093 537.34 248.4V235.84C537.34 234.907 537.26 234.28 537.1 233.96C536.94 233.64 536.567 233.453 535.98 233.4L534.06 233.16L534.26 231.76L540.62 231.32L540.98 231.6L541.14 235.32H541.22C541.887 233.96 542.847 232.907 544.1 232.16C545.353 231.413 546.7 231.04 548.14 231.04C549.553 231.04 550.74 231.307 551.7 231.84C552.66 232.347 553.38 233.12 553.86 234.16C554.34 235.173 554.58 236.427 554.58 237.92V248.68C554.58 249.293 554.66 249.707 554.82 249.92C554.98 250.133 555.313 250.28 555.82 250.36L557.62 250.6V252H547.58V250.64L549.26 250.4C549.767 250.293 550.087 250.133 550.22 249.92C550.38 249.707 550.46 249.307 550.46 248.72V238.56C550.46 237.307 550.34 236.32 550.1 235.6C549.86 234.853 549.46 234.32 548.9 234C548.367 233.68 547.62 233.52 546.66 233.52C545.647 233.52 544.74 233.747 543.94 234.2C543.167 234.627 542.553 235.253 542.1 236.08C541.673 236.88 541.46 237.84 541.46 238.96V248.56C541.46 249.147 541.527 249.56 541.66 249.8C541.793 250.04 542.06 250.2 542.46 250.28L544.46 250.64V252H534.42ZM580.156 252.56C578.156 252.56 576.409 252.147 574.916 251.32C573.449 250.467 572.316 249.28 571.516 247.76C570.716 246.213 570.316 244.373 570.316 242.24C570.316 239.893 570.742 237.893 571.596 236.24C572.449 234.56 573.649 233.28 575.196 232.4C576.769 231.493 578.609 231.04 580.716 231.04C582.662 231.04 584.356 231.453 585.796 232.28C587.236 233.08 588.342 234.253 589.116 235.8C589.916 237.32 590.316 239.147 590.316 241.28C590.316 243.573 589.889 245.573 589.036 247.28C588.209 248.96 587.036 250.267 585.516 251.2C583.996 252.107 582.209 252.56 580.156 252.56ZM580.756 250.72C581.849 250.72 582.769 250.413 583.516 249.8C584.289 249.187 584.862 248.253 585.236 247C585.609 245.747 585.796 244.147 585.796 242.2C585.796 240.653 585.662 239.293 585.396 238.12C585.156 236.92 584.782 235.933 584.276 235.16C583.769 234.387 583.156 233.813 582.436 233.44C581.742 233.04 580.942 232.84 580.036 232.84C578.916 232.84 577.969 233.133 577.196 233.72C576.422 234.28 575.822 235.173 575.396 236.4C574.996 237.6 574.796 239.147 574.796 241.04C574.796 243.2 575.036 245 575.516 246.44C576.022 247.853 576.716 248.92 577.596 249.64C578.476 250.36 579.529 250.72 580.756 250.72ZM603.639 252V250.6L605.519 250.28C605.945 250.2 606.225 250.04 606.359 249.8C606.492 249.533 606.559 249.053 606.559 248.36V235.88C606.559 234.947 606.479 234.32 606.319 234C606.159 233.653 605.785 233.453 605.199 233.4L603.279 233.2L603.479 231.76L609.759 231.32L610.119 231.6L610.399 235.36H610.479C611.145 233.973 611.999 232.907 613.039 232.16C614.079 231.413 615.199 231.04 616.399 231.04C617.679 231.04 618.692 231.387 619.439 232.08C620.185 232.747 620.559 233.64 620.559 234.76C620.559 235.427 620.452 236 620.239 236.48C620.052 236.933 619.745 237.293 619.319 237.56C618.919 237.8 618.412 237.92 617.799 237.92C616.999 237.92 616.385 237.747 615.959 237.4C615.559 237.053 615.359 236.613 615.359 236.08C615.359 235.84 615.399 235.6 615.479 235.36C615.559 235.12 615.679 234.84 615.839 234.52C615.999 234.2 616.199 233.84 616.439 233.44C615.825 233.2 615.172 233.173 614.479 233.36C613.812 233.547 613.185 233.92 612.599 234.48C612.039 235.013 611.572 235.693 611.199 236.52C610.852 237.32 610.679 238.187 610.679 239.12V248.44C610.679 249.08 610.745 249.52 610.879 249.76C611.012 249.973 611.292 250.107 611.719 250.16L615.039 250.6V252H603.639ZM632.576 252V250.56L634.736 250.24C635.216 250.187 635.522 250.027 635.656 249.76C635.789 249.493 635.856 249 635.856 248.28V235.96C635.856 235 635.776 234.36 635.616 234.04C635.456 233.72 635.069 233.52 634.456 233.44L632.576 233.24L632.736 231.76L639.616 231.44L640.016 231.64V248.44C640.016 249 640.082 249.427 640.216 249.72C640.349 249.987 640.669 250.16 641.176 250.24L643.336 250.6V252H632.576ZM637.376 227.28C636.549 227.28 635.869 227.027 635.336 226.52C634.802 226.013 634.536 225.347 634.536 224.52C634.536 223.72 634.802 223.067 635.336 222.56C635.869 222.027 636.549 221.76 637.376 221.76C638.256 221.76 638.949 222.013 639.456 222.52C639.989 223.027 640.256 223.693 640.256 224.52C640.256 225.32 639.989 225.987 639.456 226.52C638.922 227.027 638.229 227.28 637.376 227.28ZM665.339 252.56C663.472 252.56 661.832 252.147 660.419 251.32C659.032 250.467 657.952 249.267 657.179 247.72C656.405 246.173 656.019 244.307 656.019 242.12C656.019 239.853 656.432 237.893 657.259 236.24C658.085 234.587 659.245 233.307 660.739 232.4C662.232 231.493 663.965 231.04 665.939 231.04C667.352 231.04 668.592 231.267 669.659 231.72C670.725 232.173 671.552 232.787 672.139 233.56C672.725 234.333 673.019 235.187 673.019 236.12C673.019 236.653 672.925 237.133 672.739 237.56C672.552 237.96 672.259 238.28 671.859 238.52C671.459 238.733 670.979 238.84 670.419 238.84C669.645 238.84 669.045 238.667 668.619 238.32C668.219 237.947 668.019 237.453 668.019 236.84C668.019 236.493 668.125 236.093 668.339 235.64C668.552 235.187 668.899 234.56 669.379 233.76C668.872 233.387 668.339 233.12 667.779 232.96C667.245 232.8 666.592 232.72 665.819 232.72C664.779 232.72 663.845 233.04 663.019 233.68C662.219 234.32 661.579 235.253 661.099 236.48C660.645 237.707 660.419 239.227 660.419 241.04C660.419 243.707 660.979 245.773 662.099 247.24C663.219 248.68 664.739 249.4 666.659 249.4C667.805 249.4 668.832 249.2 669.739 248.8C670.645 248.4 671.459 247.867 672.179 247.2L673.179 248.24C672.272 249.6 671.152 250.667 669.819 251.44C668.512 252.187 667.019 252.56 665.339 252.56ZM695.82 252.56C693.82 252.56 692.073 252.147 690.58 251.32C689.113 250.467 687.98 249.28 687.18 247.76C686.38 246.213 685.98 244.373 685.98 242.24C685.98 239.893 686.406 237.893 687.26 236.24C688.113 234.56 689.313 233.28 690.86 232.4C692.433 231.493 694.273 231.04 696.38 231.04C698.326 231.04 700.02 231.453 701.46 232.28C702.9 233.08 704.006 234.253 704.78 235.8C705.58 237.32 705.98 239.147 705.98 241.28C705.98 243.573 705.553 245.573 704.7 247.28C703.873 248.96 702.7 250.267 701.18 251.2C699.66 252.107 697.873 252.56 695.82 252.56ZM696.42 250.72C697.513 250.72 698.433 250.413 699.18 249.8C699.953 249.187 700.526 248.253 700.9 247C701.273 245.747 701.46 244.147 701.46 242.2C701.46 240.653 701.326 239.293 701.06 238.12C700.82 236.92 700.446 235.933 699.94 235.16C699.433 234.387 698.82 233.813 698.1 233.44C697.406 233.04 696.606 232.84 695.7 232.84C694.58 232.84 693.633 233.133 692.86 233.72C692.086 234.28 691.486 235.173 691.06 236.4C690.66 237.6 690.46 239.147 690.46 241.04C690.46 243.2 690.7 245 691.18 246.44C691.686 247.853 692.38 248.92 693.26 249.64C694.14 250.36 695.193 250.72 696.42 250.72ZM719.303 252V250.6L721.183 250.28C721.609 250.2 721.889 250.04 722.023 249.8C722.156 249.533 722.223 249.053 722.223 248.36V235.88C722.223 234.947 722.143 234.32 721.983 234C721.823 233.653 721.449 233.453 720.863 233.4L718.943 233.2L719.143 231.76L725.423 231.32L725.783 231.6L726.063 235.36H726.143C726.809 233.973 727.663 232.907 728.703 232.16C729.743 231.413 730.863 231.04 732.063 231.04C733.343 231.04 734.356 231.387 735.103 232.08C735.849 232.747 736.223 233.64 736.223 234.76C736.223 235.427 736.116 236 735.903 236.48C735.716 236.933 735.409 237.293 734.983 237.56C734.583 237.8 734.076 237.92 733.463 237.92C732.663 237.92 732.049 237.747 731.623 237.4C731.223 237.053 731.023 236.613 731.023 236.08C731.023 235.84 731.063 235.6 731.143 235.36C731.223 235.12 731.343 234.84 731.503 234.52C731.663 234.2 731.863 233.84 732.103 233.44C731.489 233.2 730.836 233.173 730.143 233.36C729.476 233.547 728.849 233.92 728.263 234.48C727.703 235.013 727.236 235.693 726.863 236.52C726.516 237.32 726.343 238.187 726.343 239.12V248.44C726.343 249.08 726.409 249.52 726.543 249.76C726.676 249.973 726.956 250.107 727.383 250.16L730.703 250.6V252H719.303ZM757.569 252.56C755.649 252.56 753.969 252.147 752.529 251.32C751.116 250.493 750.022 249.307 749.249 247.76C748.476 246.187 748.089 244.32 748.089 242.16C748.089 239.84 748.502 237.853 749.329 236.2C750.156 234.52 751.316 233.24 752.809 232.36C754.302 231.48 756.036 231.04 758.009 231.04C759.502 231.04 760.809 231.333 761.929 231.92C763.049 232.507 763.916 233.347 764.529 234.44C765.169 235.507 765.489 236.773 765.489 238.24C765.489 238.747 765.449 239.267 765.369 239.8C765.316 240.333 765.236 240.893 765.129 241.48H752.529C752.529 243.24 752.782 244.72 753.289 245.92C753.822 247.093 754.556 247.987 755.489 248.6C756.422 249.187 757.516 249.48 758.769 249.48C759.862 249.48 760.889 249.28 761.849 248.88C762.836 248.48 763.782 247.853 764.689 247L765.729 248C764.742 249.52 763.542 250.667 762.129 251.44C760.742 252.187 759.222 252.56 757.569 252.56ZM752.529 239.8H761.249C761.276 239.533 761.289 239.24 761.289 238.92C761.316 238.6 761.329 238.267 761.329 237.92C761.329 236.053 761.022 234.707 760.409 233.88C759.796 233.053 758.862 232.64 757.609 232.64C756.622 232.64 755.769 232.893 755.049 233.4C754.356 233.907 753.796 234.693 753.369 235.76C752.942 236.8 752.662 238.147 752.529 239.8Z" fill="black" fill-opacity="0.25"/>
<g opacity="0.8">
<path d="M358.512 304.22C361.86 304.22 363.756 305.444 363.78 307.952L361.368 308.132C361.224 306.812 360.264 306.152 358.332 306.152C356.592 306.152 355.536 306.668 355.536 307.712C355.536 308.72 356.556 309.092 359.196 309.668C362.268 310.328 363.984 311.048 363.984 313.328C363.984 315.728 362.052 317.276 358.308 317.276C354.852 317.276 352.956 316.256 352.428 313.4L354.876 313.1C355.38 315.02 356.712 315.296 358.44 315.296C360.504 315.296 361.308 314.516 361.308 313.628C361.308 312.608 360.252 312.26 357.468 311.66C354.636 311.06 352.992 310.136 352.992 307.928C352.992 305.648 354.744 304.22 358.512 304.22ZM375.375 304.22C378.483 304.22 380.355 305.24 380.355 308.156V314.132C380.355 314.984 380.655 315.2 381.735 315.068V317C381.123 317.168 380.559 317.252 380.043 317.252C378.459 317.252 377.955 316.472 377.859 315.464H377.595C376.647 316.412 375.363 317.288 373.467 317.288C371.223 317.288 369.771 316.028 369.771 313.928C369.771 310.424 373.779 309.956 377.691 310.004V308.3C377.691 306.512 376.659 306.068 375.171 306.08C373.707 306.08 372.639 306.548 372.627 308L372.615 308.504H370.191V307.868C370.191 305.732 371.643 304.22 375.375 304.22ZM372.543 313.58C372.543 314.696 373.371 315.32 374.739 315.32C375.867 315.32 376.815 314.888 377.691 314.252V311.492C377.355 311.456 377.019 311.432 376.683 311.432C374.079 311.432 372.543 312.056 372.543 313.58ZM398.37 317H395.706V308.672C395.706 306.86 394.782 306.38 393.63 306.38C392.31 306.38 391.218 307.028 390.306 308V317H387.642V304.508H389.934L390.126 306.32H390.474C391.542 305.18 392.826 304.22 394.866 304.22C397.062 304.22 398.37 305.324 398.37 307.976V317ZM404.156 310.736C404.156 306.452 406.724 304.22 410.552 304.22C414.104 304.22 416.18 306.08 416.18 309.824V310.964H406.868C406.94 313.736 408.224 315.152 410.456 315.152C411.884 315.152 412.988 314.576 413.552 313.28L416.132 313.676C415.268 316.148 413.084 317.288 410.444 317.288C406.724 317.288 404.156 315.044 404.156 310.736ZM407 309.284H413.576C413.576 307.256 412.28 306.344 410.468 306.344C408.644 306.344 407.384 307.292 407 309.284ZM438.722 310.784C438.722 306.824 440.426 304.232 443.618 304.232C445.442 304.232 446.654 305.06 447.398 306.116H447.554V298.64H450.218V317H447.926L447.746 315.404H447.41C446.558 316.46 445.322 317.3 443.522 317.3C440.354 317.3 438.722 314.672 438.722 310.784ZM441.446 310.784C441.446 313.664 442.55 315.056 444.686 315.056C445.682 315.056 446.63 314.756 447.554 313.94V307.568C446.63 306.752 445.67 306.452 444.71 306.452C442.598 306.452 441.446 307.844 441.446 310.784ZM456.005 310.736C456.005 306.452 458.573 304.22 462.401 304.22C465.953 304.22 468.029 306.08 468.029 309.824V310.964H458.717C458.789 313.736 460.073 315.152 462.305 315.152C463.733 315.152 464.837 314.576 465.401 313.28L467.981 313.676C467.117 316.148 464.933 317.288 462.293 317.288C458.573 317.288 456.005 315.044 456.005 310.736ZM458.849 309.284H465.425C465.425 307.256 464.129 306.344 462.317 306.344C460.493 306.344 459.233 307.292 458.849 309.284ZM485.504 300.344C484.568 300.128 483.728 299.996 482.756 299.996C480.692 299.996 479.672 300.596 479.672 303.272V304.508H485.084V306.668H479.672V314.84H483.836V317H473.876V314.84H477.008V306.668H473.156V304.508H477.008V303.692C477.008 299.276 479.012 297.668 482.66 297.668C483.68 297.668 484.616 297.8 485.504 298.052V300.344ZM496.354 304.22C499.462 304.22 501.334 305.24 501.334 308.156V314.132C501.334 314.984 501.634 315.2 502.714 315.068V317C502.102 317.168 501.538 317.252 501.022 317.252C499.438 317.252 498.934 316.472 498.838 315.464H498.574C497.626 316.412 496.342 317.288 494.446 317.288C492.202 317.288 490.75 316.028 490.75 313.928C490.75 310.424 494.758 309.956 498.67 310.004V308.3C498.67 306.512 497.638 306.068 496.15 306.08C494.686 306.08 493.618 306.548 493.606 308L493.594 308.504H491.17V307.868C491.17 305.732 492.622 304.22 496.354 304.22ZM493.522 313.58C493.522 314.696 494.35 315.32 495.718 315.32C496.846 315.32 497.794 314.888 498.67 314.252V311.492C498.334 311.456 497.998 311.432 497.662 311.432C495.058 311.432 493.522 312.056 493.522 313.58ZM508.621 304.508H511.285V312.824C511.285 314.648 512.209 315.128 513.361 315.128C514.693 315.128 515.785 314.492 516.685 313.508V304.508H519.349V317H517.057L516.865 315.176H516.517C515.461 316.328 514.177 317.276 512.137 317.276C509.929 317.276 508.621 316.172 508.621 313.532V304.508ZM525.664 317V314.84H529.936L529.948 300.776H525.676V298.64L532.276 298.352L532.612 298.676L532.6 314.84H536.872V317H525.664ZM545.719 312.92V306.668H542.287V304.508H545.719V300.764H548.383V304.508H553.807V306.668H548.383V313.028C548.383 314.564 549.103 315.2 550.183 315.2C551.299 315.2 551.995 314.516 551.995 313.04V312.368H553.939V312.908C553.939 315.812 552.655 317.276 549.811 317.276C547.087 317.276 545.719 315.968 545.719 312.92ZM565.906 304.22C569.254 304.22 571.15 305.444 571.174 307.952L568.762 308.132C568.618 306.812 567.658 306.152 565.726 306.152C563.986 306.152 562.93 306.668 562.93 307.712C562.93 308.72 563.95 309.092 566.59 309.668C569.662 310.328 571.378 311.048 571.378 313.328C571.378 315.728 569.446 317.276 565.702 317.276C562.246 317.276 560.35 316.256 559.822 313.4L562.27 313.1C562.774 315.02 564.106 315.296 565.834 315.296C567.898 315.296 568.702 314.516 568.702 313.628C568.702 312.608 567.646 312.26 564.862 311.66C562.03 311.06 560.386 310.136 560.386 307.928C560.386 305.648 562.138 304.22 565.906 304.22Z" fill="#40A02B"/>
<path d="M589.452 311.396C588.132 311.396 587.064 310.52 587.064 309.08C587.064 307.628 588.132 306.776 589.452 306.776C590.76 306.776 591.816 307.628 591.816 309.08C591.816 310.52 590.76 311.396 589.452 311.396Z" fill="#BAC2DE"/>
<path d="M606.836 317V314.84H611.108V306.644H606.836V304.508L613.448 304.22L613.772 304.544V314.84H618.044V317H606.836ZM610.088 299.996C610.088 298.928 610.856 298.28 611.96 298.28C613.076 298.28 613.832 298.928 613.832 299.996C613.832 301.064 613.076 301.736 611.96 301.736C610.856 301.736 610.088 301.064 610.088 299.996ZM635.087 317H632.423V308.672C632.423 306.86 631.499 306.38 630.347 306.38C629.027 306.38 627.935 307.028 627.023 308V317H624.359V304.508H626.651L626.843 306.32H627.191C628.259 305.18 629.543 304.22 631.583 304.22C633.779 304.22 635.087 305.324 635.087 307.976V317ZM647.078 304.22C650.426 304.22 652.322 305.444 652.346 307.952L649.934 308.132C649.79 306.812 648.83 306.152 646.898 306.152C645.158 306.152 644.102 306.668 644.102 307.712C644.102 308.72 645.122 309.092 647.762 309.668C650.834 310.328 652.55 311.048 652.55 313.328C652.55 315.728 650.618 317.276 646.874 317.276C643.418 317.276 641.522 316.256 640.994 313.4L643.442 313.1C643.946 315.02 645.278 315.296 647.006 315.296C649.07 315.296 649.874 314.516 649.874 313.628C649.874 312.608 648.818 312.26 646.034 311.66C643.202 311.06 641.558 310.136 641.558 307.928C641.558 305.648 643.31 304.22 647.078 304.22ZM663.94 304.22C667.048 304.22 668.92 305.24 668.92 308.156V314.132C668.92 314.984 669.22 315.2 670.3 315.068V317C669.688 317.168 669.124 317.252 668.608 317.252C667.024 317.252 666.52 316.472 666.424 315.464H666.16C665.212 316.412 663.928 317.288 662.032 317.288C659.788 317.288 658.336 316.028 658.336 313.928C658.336 310.424 662.344 309.956 666.256 310.004V308.3C666.256 306.512 665.224 306.068 663.736 306.08C662.272 306.08 661.204 306.548 661.192 308L661.18 308.504H658.756V307.868C658.756 305.732 660.208 304.22 663.94 304.22ZM661.108 313.58C661.108 314.696 661.936 315.32 663.304 315.32C664.432 315.32 665.38 314.888 666.256 314.252V311.492C665.92 311.456 665.584 311.432 665.248 311.432C662.644 311.432 661.108 312.056 661.108 313.58ZM686.935 317H684.271V308.672C684.271 306.86 683.347 306.38 682.195 306.38C680.875 306.38 679.783 307.028 678.871 308V317H676.207V304.508H678.499L678.691 306.32H679.039C680.107 305.18 681.391 304.22 683.431 304.22C685.627 304.22 686.935 305.324 686.935 307.976V317ZM692.722 310.736C692.722 306.452 695.29 304.22 699.118 304.22C702.67 304.22 704.746 306.08 704.746 309.824V310.964H695.434C695.506 313.736 696.79 315.152 699.022 315.152C700.45 315.152 701.554 314.576 702.118 313.28L704.698 313.676C703.834 316.148 701.65 317.288 699.01 317.288C695.29 317.288 692.722 315.044 692.722 310.736ZM695.566 309.284H702.142C702.142 307.256 700.846 306.344 699.034 306.344C697.21 306.344 695.95 307.292 695.566 309.284ZM739.396 313.136C738.688 316.028 736.312 317.288 733.528 317.288C729.796 317.288 727.288 315.044 727.288 310.736C727.288 306.308 729.964 304.22 733.66 304.22C736.768 304.22 739.096 305.66 739.396 308.708L736.792 308.936C736.516 307.184 735.304 306.344 733.588 306.344C731.236 306.344 730.012 307.892 730.012 310.736C730.012 313.724 731.356 315.152 733.552 315.152C735.256 315.152 736.36 314.3 736.828 312.764L739.396 313.136ZM745.338 304.508H748.002V312.824C748.002 314.648 748.926 315.128 750.078 315.128C751.41 315.128 752.502 314.492 753.402 313.508V304.508H756.066V317H753.774L753.582 315.176H753.234C752.178 316.328 750.894 317.276 748.854 317.276C746.646 317.276 745.338 316.172 745.338 313.532V304.508ZM768.057 304.22C771.405 304.22 773.301 305.444 773.325 307.952L770.913 308.132C770.769 306.812 769.809 306.152 767.877 306.152C766.137 306.152 765.081 306.668 765.081 307.712C765.081 308.72 766.101 309.092 768.741 309.668C771.813 310.328 773.529 311.048 773.529 313.328C773.529 315.728 771.597 317.276 767.853 317.276C764.397 317.276 762.501 316.256 761.973 313.4L764.421 313.1C764.925 315.02 766.257 315.296 767.985 315.296C770.049 315.296 770.853 314.516 770.853 313.628C770.853 312.608 769.797 312.26 767.013 311.66C764.181 311.06 762.537 310.136 762.537 307.928C762.537 305.648 764.289 304.22 768.057 304.22ZM782.436 312.92V306.668H779.004V304.508H782.436V300.764H785.1V304.508H790.524V306.668H785.1V313.028C785.1 314.564 785.82 315.2 786.9 315.2C788.016 315.2 788.712 314.516 788.712 313.04V312.368H790.656V312.908C790.656 315.812 789.372 317.276 786.528 317.276C783.804 317.276 782.436 315.968 782.436 312.92ZM808.683 310.784C808.683 315.224 805.923 317.288 802.551 317.288C799.191 317.288 796.419 315.224 796.419 310.784C796.419 306.344 799.191 304.22 802.551 304.22C805.923 304.22 808.683 306.344 808.683 310.784ZM799.131 310.784C799.131 313.892 800.559 315.152 802.551 315.152C804.555 315.152 805.971 313.892 805.971 310.784C805.971 307.664 804.555 306.344 802.551 306.344C800.559 306.344 799.131 307.664 799.131 310.784ZM822.042 317H819.594V307.868C819.594 306.764 819.006 306.452 818.358 306.452C817.578 306.452 816.942 306.92 816.462 307.568V317H814.026V304.508H816.102L816.282 306.368H816.486C817.074 305.144 818.154 304.232 819.618 304.232C820.938 304.232 821.802 304.916 821.994 306.368H822.102C822.678 305.144 823.722 304.232 825.186 304.232C826.698 304.232 827.61 305.12 827.61 307.028L827.622 317H825.174V307.868C825.174 306.764 824.586 306.452 823.926 306.452C823.146 306.452 822.51 306.908 822.03 307.544L822.042 317ZM833.613 317V314.84H836.841V306.644H833.613V304.508L839.169 304.22L839.505 304.544V314.84H842.721V317H833.613ZM835.833 300.068C835.833 299 836.601 298.352 837.705 298.352C838.821 298.352 839.577 299 839.577 300.068C839.577 301.136 838.821 301.808 837.705 301.808C836.601 301.808 835.833 301.136 835.833 300.068ZM848.915 304.508H859.463V306.092L852.539 314.84H859.895V317H848.915V315.404L855.827 306.668H848.915V304.508ZM871.334 304.22C874.442 304.22 876.314 305.24 876.314 308.156V314.132C876.314 314.984 876.614 315.2 877.694 315.068V317C877.082 317.168 876.518 317.252 876.002 317.252C874.418 317.252 873.914 316.472 873.818 315.464H873.554C872.606 316.412 871.322 317.288 869.426 317.288C867.182 317.288 865.73 316.028 865.73 313.928C865.73 310.424 869.738 309.956 873.65 310.004V308.3C873.65 306.512 872.618 306.068 871.13 306.08C869.666 306.08 868.598 306.548 868.586 308L868.574 308.504H866.15V307.868C866.15 305.732 867.602 304.22 871.334 304.22ZM868.502 313.58C868.502 314.696 869.33 315.32 870.698 315.32C871.826 315.32 872.774 314.888 873.65 314.252V311.492C873.314 311.456 872.978 311.432 872.642 311.432C870.038 311.432 868.502 312.056 868.502 313.58ZM886.133 312.92V306.668H882.701V304.508H886.133V300.764H888.797V304.508H894.221V306.668H888.797V313.028C888.797 314.564 889.517 315.2 890.597 315.2C891.713 315.2 892.409 314.516 892.409 313.04V312.368H894.353V312.908C894.353 315.812 893.069 317.276 890.225 317.276C887.501 317.276 886.133 315.968 886.133 312.92ZM900.644 317V314.84H904.916V306.644H900.644V304.508L907.256 304.22L907.58 304.544V314.84H911.852V317H900.644ZM903.896 299.996C903.896 298.928 904.664 298.28 905.768 298.28C906.884 298.28 907.64 298.928 907.64 299.996C907.64 301.064 906.884 301.736 905.768 301.736C904.664 301.736 903.896 301.064 903.896 299.996ZM929.663 310.784C929.663 315.224 926.903 317.288 923.531 317.288C920.171 317.288 917.399 315.224 917.399 310.784C917.399 306.344 920.171 304.22 923.531 304.22C926.903 304.22 929.663 306.344 929.663 310.784ZM920.111 310.784C920.111 313.892 921.539 315.152 923.531 315.152C925.535 315.152 926.951 313.892 926.951 310.784C926.951 307.664 925.535 306.344 923.531 306.344C921.539 306.344 920.111 307.664 920.111 310.784ZM946.177 317H943.513V308.672C943.513 306.86 942.589 306.38 941.437 306.38C940.117 306.38 939.025 307.028 938.113 308V317H935.449V304.508H937.741L937.933 306.32H938.281C939.349 305.18 940.633 304.22 942.673 304.22C944.869 304.22 946.177 305.324 946.177 307.976V317Z" fill="#179299"/>
</g>
</svg>
