<svg width="1300" height="350" viewBox="0 0 1300 350" fill="none" xmlns="http://www.w3.org/2000/svg">
<path d="M613.955 144.5V86.3184H627.409V90.7729H619.045V140.046H627.409V144.5H613.955Z" fill="#32C572"/>
<path d="M653.929 130.046V126.814L658.249 125.054V106.462C658.249 102.398 656.137 100.99 653.321 100.99C651.113 100.99 648.105 101.694 644.681 103.582V125.118L648.905 126.814V130.046H634.409V126.814L638.729 125.054V103.134L633.129 102.27V98.7176L643.497 96.3176L644.329 96.6696V100.35C648.521 97.6936 652.361 96.1576 656.105 96.1576C661.577 96.1576 664.201 99.2616 664.201 105.214V125.118L668.425 126.814V130.046H653.929Z" fill="#E6EBF9"/>
<path d="M686.045 86.3184V144.5H672.591V140.046H680.955V90.7729H672.591V86.3184H686.045Z" fill="#32C572"/>
<path d="M638.473 88.4138C639.081 82.2378 641.385 79.1338 645.097 79.1338C650.121 79.1338 651.721 84.7658 654.921 84.7658C656.809 84.7658 658.345 82.8778 658.857 79.4538L661.833 80.4778C661.225 86.6538 658.889 89.7898 655.177 89.7898C650.153 89.7898 648.617 84.1258 645.385 84.1258C643.529 84.1258 641.961 86.0138 641.449 89.4698L638.473 88.4138Z" fill="#FE640B"/>
<path d="M521.92 252V250.6L523.8 250.32C524.227 250.24 524.507 250.08 524.64 249.84C524.773 249.573 524.84 249.093 524.84 248.4V235.84C524.84 234.907 524.76 234.28 524.6 233.96C524.44 233.64 524.067 233.453 523.48 233.4L521.56 233.16L521.76 231.76L528.12 231.32L528.48 231.6L528.64 235.32H528.72C529.387 233.96 530.347 232.907 531.6 232.16C532.853 231.413 534.2 231.04 535.64 231.04C537.053 231.04 538.24 231.307 539.2 231.84C540.16 232.347 540.88 233.12 541.36 234.16C541.84 235.173 542.08 236.427 542.08 237.92V248.68C542.08 249.293 542.16 249.707 542.32 249.92C542.48 250.133 542.813 250.28 543.32 250.36L545.12 250.6V252H535.08V250.64L536.76 250.4C537.267 250.293 537.587 250.133 537.72 249.92C537.88 249.707 537.96 249.307 537.96 248.72V238.56C537.96 237.307 537.84 236.32 537.6 235.6C537.36 234.853 536.96 234.32 536.4 234C535.867 233.68 535.12 233.52 534.16 233.52C533.147 233.52 532.24 233.747 531.44 234.2C530.667 234.627 530.053 235.253 529.6 236.08C529.173 236.88 528.96 237.84 528.96 238.96V248.56C528.96 249.147 529.027 249.56 529.16 249.8C529.293 250.04 529.56 250.2 529.96 250.28L531.96 250.64V252H521.92ZM567.656 252.56C565.656 252.56 563.909 252.147 562.416 251.32C560.949 250.467 559.816 249.28 559.016 247.76C558.216 246.213 557.816 244.373 557.816 242.24C557.816 239.893 558.242 237.893 559.096 236.24C559.949 234.56 561.149 233.28 562.696 232.4C564.269 231.493 566.109 231.04 568.216 231.04C570.162 231.04 571.856 231.453 573.296 232.28C574.736 233.08 575.842 234.253 576.616 235.8C577.416 237.32 577.816 239.147 577.816 241.28C577.816 243.573 577.389 245.573 576.536 247.28C575.709 248.96 574.536 250.267 573.016 251.2C571.496 252.107 569.709 252.56 567.656 252.56ZM568.256 250.72C569.349 250.72 570.269 250.413 571.016 249.8C571.789 249.187 572.362 248.253 572.736 247C573.109 245.747 573.296 244.147 573.296 242.2C573.296 240.653 573.162 239.293 572.896 238.12C572.656 236.92 572.282 235.933 571.776 235.16C571.269 234.387 570.656 233.813 569.936 233.44C569.242 233.04 568.442 232.84 567.536 232.84C566.416 232.84 565.469 233.133 564.696 233.72C563.922 234.28 563.322 235.173 562.896 236.4C562.496 237.6 562.296 239.147 562.296 241.04C562.296 243.2 562.536 245 563.016 246.44C563.522 247.853 564.216 248.92 565.096 249.64C565.976 250.36 567.029 250.72 568.256 250.72ZM591.139 252V250.6L593.019 250.28C593.445 250.2 593.725 250.04 593.859 249.8C593.992 249.533 594.059 249.053 594.059 248.36V235.88C594.059 234.947 593.979 234.32 593.819 234C593.659 233.653 593.285 233.453 592.699 233.4L590.779 233.2L590.979 231.76L597.259 231.32L597.619 231.6L597.899 235.36H597.979C598.645 233.973 599.499 232.907 600.539 232.16C601.579 231.413 602.699 231.04 603.899 231.04C605.179 231.04 606.192 231.387 606.939 232.08C607.685 232.747 608.059 233.64 608.059 234.76C608.059 235.427 607.952 236 607.739 236.48C607.552 236.933 607.245 237.293 606.819 237.56C606.419 237.8 605.912 237.92 605.299 237.92C604.499 237.92 603.885 237.747 603.459 237.4C603.059 237.053 602.859 236.613 602.859 236.08C602.859 235.84 602.899 235.6 602.979 235.36C603.059 235.12 603.179 234.84 603.339 234.52C603.499 234.2 603.699 233.84 603.939 233.44C603.325 233.2 602.672 233.173 601.979 233.36C601.312 233.547 600.685 233.92 600.099 234.48C599.539 235.013 599.072 235.693 598.699 236.52C598.352 237.32 598.179 238.187 598.179 239.12V248.44C598.179 249.08 598.245 249.52 598.379 249.76C598.512 249.973 598.792 250.107 599.219 250.16L602.539 250.6V252H591.139ZM620.076 252V250.56L622.236 250.24C622.716 250.187 623.022 250.027 623.156 249.76C623.289 249.493 623.356 249 623.356 248.28V235.96C623.356 235 623.276 234.36 623.116 234.04C622.956 233.72 622.569 233.52 621.956 233.44L620.076 233.24L620.236 231.76L627.116 231.44L627.516 231.64V248.44C627.516 249 627.582 249.427 627.716 249.72C627.849 249.987 628.169 250.16 628.676 250.24L630.836 250.6V252H620.076ZM624.876 227.28C624.049 227.28 623.369 227.027 622.836 226.52C622.302 226.013 622.036 225.347 622.036 224.52C622.036 223.72 622.302 223.067 622.836 222.56C623.369 222.027 624.049 221.76 624.876 221.76C625.756 221.76 626.449 222.013 626.956 222.52C627.489 223.027 627.756 223.693 627.756 224.52C627.756 225.32 627.489 225.987 626.956 226.52C626.422 227.027 625.729 227.28 624.876 227.28ZM652.195 261.2C650.648 261.2 649.288 261.093 648.115 260.88C646.942 260.667 645.968 260.347 645.195 259.92C644.448 259.52 643.875 259.013 643.475 258.4C643.102 257.787 642.915 257.067 642.915 256.24C642.915 255.547 643.048 254.92 643.315 254.36C643.608 253.8 644.048 253.307 644.635 252.88C645.248 252.453 645.995 252.093 646.875 251.8V251.64C646.022 251.427 645.355 251.027 644.875 250.44C644.422 249.827 644.195 249.16 644.195 248.44C644.195 247.72 644.382 247.04 644.755 246.4C645.128 245.76 645.822 244.92 646.835 243.88V243.76C645.848 243.253 645.102 242.547 644.595 241.64C644.088 240.733 643.835 239.6 643.835 238.24C643.835 236.747 644.182 235.467 644.875 234.4C645.595 233.333 646.595 232.507 647.875 231.92C649.182 231.333 650.675 231.04 652.355 231.04C652.995 231.04 653.635 231.093 654.275 231.2C654.915 231.307 655.528 231.467 656.115 231.68C656.728 231.893 657.275 232.147 657.755 232.44C658.208 231.187 658.768 230.2 659.435 229.48C660.102 228.76 660.902 228.4 661.835 228.4C662.368 228.4 662.835 228.493 663.235 228.68C663.662 228.867 663.995 229.12 664.235 229.44C664.475 229.76 664.595 230.16 664.595 230.64C664.595 231.227 664.368 231.76 663.915 232.24C663.462 232.72 662.915 232.96 662.275 232.96C661.902 232.96 661.582 232.867 661.315 232.68C661.048 232.467 660.808 232.187 660.595 231.84L660.035 230.84C659.795 231.187 659.582 231.56 659.395 231.96C659.235 232.333 659.062 232.787 658.875 233.32C659.408 233.933 659.835 234.653 660.155 235.48C660.502 236.28 660.675 237.133 660.675 238.04C660.675 239.48 660.328 240.733 659.635 241.8C658.968 242.84 658.022 243.653 656.795 244.24C655.568 244.827 654.102 245.12 652.395 245.12C651.622 245.12 650.888 245.067 650.195 244.96C649.502 244.827 648.928 244.667 648.475 244.48C647.995 245.013 647.662 245.453 647.475 245.8C647.288 246.12 647.195 246.467 647.195 246.84C647.195 247.24 647.302 247.587 647.515 247.88C647.728 248.147 648.062 248.347 648.515 248.48C648.968 248.587 649.555 248.64 650.275 248.64H655.755C658.262 248.64 660.115 249.053 661.315 249.88C662.515 250.68 663.115 251.973 663.115 253.76C663.115 254.667 662.968 255.493 662.675 256.24C662.382 257.013 661.942 257.693 661.355 258.28C660.795 258.893 660.075 259.413 659.195 259.84C658.315 260.293 657.288 260.627 656.115 260.84C654.942 261.08 653.635 261.2 652.195 261.2ZM652.555 259.32C653.888 259.32 655.035 259.133 655.995 258.76C656.982 258.413 657.742 257.92 658.275 257.28C658.835 256.667 659.115 255.933 659.115 255.08C659.115 254.12 658.782 253.413 658.115 252.96C657.475 252.507 656.528 252.28 655.275 252.28H648.475C647.915 252.707 647.475 253.2 647.155 253.76C646.862 254.347 646.715 254.973 646.715 255.64C646.715 256.92 647.182 257.853 648.115 258.44C649.048 259.027 650.528 259.32 652.555 259.32ZM652.315 243.44C653.675 243.44 654.702 242.987 655.395 242.08C656.115 241.147 656.475 239.84 656.475 238.16C656.475 236.4 656.088 235.04 655.315 234.08C654.568 233.12 653.488 232.64 652.075 232.64C650.742 232.64 649.742 233.107 649.075 234.04C648.408 234.947 648.075 236.28 648.075 238.04C648.075 239.693 648.448 241.013 649.195 242C649.968 242.96 651.008 243.44 652.315 243.44ZM675.585 252V250.56L677.545 250.28C678.079 250.2 678.412 250.027 678.545 249.76C678.705 249.493 678.785 248.987 678.785 248.24V225.64C678.785 224.733 678.692 224.133 678.505 223.84C678.319 223.547 677.892 223.36 677.225 223.28L675.425 223.04L675.585 221.56L682.545 221.36L682.945 221.72V248.4C682.945 248.96 683.012 249.4 683.145 249.72C683.279 250.013 683.625 250.2 684.185 250.28L686.265 250.6V252H675.585ZM704.907 252.56C703.173 252.56 701.8 252.08 700.787 251.12C699.773 250.133 699.267 248.813 699.267 247.16C699.267 245.72 699.627 244.56 700.347 243.68C701.067 242.8 702.253 242.133 703.907 241.68C705.587 241.2 707.84 240.893 710.667 240.76V237.16C710.667 236.067 710.52 235.187 710.227 234.52C709.96 233.853 709.52 233.36 708.907 233.04C708.32 232.72 707.547 232.56 706.587 232.56C705.813 232.56 705.04 232.68 704.267 232.92C703.52 233.16 702.96 233.467 702.587 233.84C702.933 234.32 703.213 234.733 703.427 235.08C703.64 235.427 703.787 235.72 703.867 235.96C703.947 236.2 703.987 236.4 703.987 236.56C703.987 237.067 703.773 237.507 703.347 237.88C702.947 238.227 702.4 238.4 701.707 238.4C700.96 238.4 700.387 238.213 699.987 237.84C699.587 237.467 699.387 236.933 699.387 236.24C699.387 235.333 699.733 234.48 700.427 233.68C701.147 232.88 702.093 232.24 703.267 231.76C704.467 231.28 705.76 231.04 707.147 231.04C708.88 231.04 710.307 231.307 711.427 231.84C712.573 232.347 713.427 233.147 713.987 234.24C714.547 235.307 714.827 236.667 714.827 238.32V248.24C714.827 248.907 714.973 249.387 715.267 249.68C715.587 249.973 716.013 250.12 716.547 250.12C716.84 250.12 717.133 250.093 717.427 250.04C717.747 249.96 718.093 249.853 718.467 249.72L718.787 250.8C718.227 251.387 717.6 251.827 716.907 252.12C716.213 252.413 715.533 252.56 714.867 252.56C713.667 252.56 712.747 252.253 712.107 251.64C711.493 251 711.12 250.08 710.987 248.88C710.507 249.733 709.973 250.427 709.387 250.96C708.8 251.493 708.133 251.893 707.387 252.16C706.667 252.427 705.84 252.56 704.907 252.56ZM706.667 250.16C707.44 250.16 708.12 249.987 708.707 249.64C709.32 249.267 709.8 248.773 710.147 248.16C710.493 247.52 710.667 246.8 710.667 246V242.28C709.013 242.28 707.653 242.44 706.587 242.76C705.52 243.053 704.733 243.52 704.227 244.16C703.747 244.8 703.507 245.64 703.507 246.68C703.507 247.773 703.787 248.627 704.347 249.24C704.907 249.853 705.68 250.16 706.667 250.16ZM730.347 252V250.64L742.387 233.2H737.147C736.107 233.2 735.294 233.333 734.707 233.6C734.147 233.867 733.681 234.373 733.307 235.12C732.961 235.867 732.587 236.933 732.187 238.32L730.547 238.44L731.027 231.6H746.907V233L735.027 250.32H740.067C740.894 250.32 741.587 250.253 742.147 250.12C742.707 249.96 743.174 249.68 743.547 249.28C743.921 248.88 744.267 248.307 744.587 247.56C744.907 246.813 745.254 245.827 745.627 244.6H747.227L746.667 252H730.347ZM769.678 252.56C767.758 252.56 766.078 252.147 764.638 251.32C763.225 250.493 762.132 249.307 761.358 247.76C760.585 246.187 760.198 244.32 760.198 242.16C760.198 239.84 760.612 237.853 761.438 236.2C762.265 234.52 763.425 233.24 764.918 232.36C766.412 231.48 768.145 231.04 770.118 231.04C771.612 231.04 772.918 231.333 774.038 231.92C775.158 232.507 776.025 233.347 776.638 234.44C777.278 235.507 777.598 236.773 777.598 238.24C777.598 238.747 777.558 239.267 777.478 239.8C777.425 240.333 777.345 240.893 777.238 241.48H764.638C764.638 243.24 764.892 244.72 765.398 245.92C765.932 247.093 766.665 247.987 767.598 248.6C768.532 249.187 769.625 249.48 770.878 249.48C771.972 249.48 772.998 249.28 773.958 248.88C774.945 248.48 775.892 247.853 776.798 247L777.838 248C776.852 249.52 775.652 250.667 774.238 251.44C772.852 252.187 771.332 252.56 769.678 252.56ZM764.638 239.8H773.358C773.385 239.533 773.398 239.24 773.398 238.92C773.425 238.6 773.438 238.267 773.438 237.92C773.438 236.053 773.132 234.707 772.518 233.88C771.905 233.053 770.972 232.64 769.718 232.64C768.732 232.64 767.878 232.893 767.158 233.4C766.465 233.907 765.905 234.693 765.478 235.76C765.052 236.8 764.772 238.147 764.638 239.8Z" fill="#BAC2DE"/>
<g opacity="0.8">
<path d="M358.488 304.388C361.74 304.388 363.612 305.564 363.708 308.06L361.644 308.204C361.488 306.8 360.408 306.08 358.332 306.08C356.46 306.08 355.284 306.632 355.284 307.796C355.284 308.852 356.28 309.284 359.028 309.848C362.316 310.52 363.852 311.276 363.852 313.424C363.852 315.74 362.016 317.276 358.392 317.276C354.984 317.276 353.04 316.304 352.488 313.424L354.576 313.16C355.152 315.32 356.724 315.524 358.5 315.524C360.708 315.524 361.584 314.648 361.584 313.676C361.584 312.596 360.552 312.212 357.624 311.612C354.66 311 353.112 310.112 353.112 308C353.112 305.804 354.78 304.388 358.488 304.388ZM375.435 304.388C378.447 304.388 380.211 305.384 380.211 308.288V314.396C380.211 315.284 380.547 315.512 381.675 315.344V317C381.111 317.168 380.595 317.24 380.139 317.24C378.651 317.24 378.159 316.448 378.075 315.464H377.859C376.863 316.364 375.603 317.288 373.611 317.288C371.331 317.288 369.879 316.064 369.879 313.964C369.879 310.52 373.755 310.076 377.943 310.1V308.42C377.943 306.44 376.827 305.996 375.195 306.008C373.635 306.02 372.447 306.464 372.423 308.108V308.636H370.299V307.988C370.299 305.876 371.751 304.388 375.435 304.388ZM372.255 313.688C372.255 314.912 373.143 315.572 374.631 315.572C375.927 315.572 376.935 315.068 377.943 314.336V311.432C377.559 311.396 377.163 311.372 376.803 311.372C373.971 311.372 372.255 311.996 372.255 313.688ZM398.178 317H395.91V308.78C395.91 306.776 394.866 306.248 393.618 306.248C392.178 306.248 391.026 306.956 390.102 308.024V317H387.834V304.676H389.754L389.958 306.44H390.258C391.23 305.396 392.514 304.388 394.602 304.388C396.798 304.388 398.178 305.504 398.178 308.18V317ZM404.276 310.82C404.276 306.656 406.76 304.388 410.552 304.388C414.044 304.388 416.084 306.212 416.084 309.836V310.916H406.604C406.64 313.916 408.068 315.428 410.48 315.428C412.052 315.428 413.24 314.792 413.828 313.388L416.036 313.76C415.196 316.064 413.18 317.288 410.468 317.288C406.784 317.288 404.276 315.056 404.276 310.82ZM406.724 309.404H413.864C413.852 307.208 412.412 306.248 410.48 306.248C408.464 306.248 407.12 307.316 406.724 309.404ZM438.842 310.868C438.842 306.848 440.666 304.388 443.774 304.388C445.586 304.388 446.81 305.216 447.602 306.308H447.758V298.64H450.026V317H448.106L447.926 315.38H447.614C446.726 316.472 445.466 317.3 443.678 317.3C440.558 317.3 438.842 314.78 438.842 310.868ZM441.182 310.868C441.182 313.844 442.37 315.368 444.602 315.368C445.706 315.368 446.726 314.984 447.758 313.952V307.712C446.75 306.68 445.718 306.308 444.638 306.308C442.442 306.308 441.182 307.796 441.182 310.868ZM456.125 310.82C456.125 306.656 458.609 304.388 462.401 304.388C465.893 304.388 467.933 306.212 467.933 309.836V310.916H458.453C458.489 313.916 459.917 315.428 462.329 315.428C463.901 315.428 465.089 314.792 465.677 313.388L467.885 313.76C467.045 316.064 465.029 317.288 462.317 317.288C458.633 317.288 456.125 315.056 456.125 310.82ZM458.573 309.404H465.713C465.701 307.208 464.261 306.248 462.329 306.248C460.313 306.248 458.969 307.316 458.573 309.404ZM485.432 300.092C484.508 299.876 483.68 299.744 482.684 299.744C480.596 299.744 479.384 300.32 479.384 303.284V304.676H484.988V306.512H479.384V315.164H483.752V317H473.852V315.164H477.116V306.512H473.156V304.676H477.116V303.488C477.116 299.216 479.192 297.728 482.624 297.728C483.596 297.728 484.532 297.848 485.432 298.112V300.092ZM496.414 304.388C499.426 304.388 501.19 305.384 501.19 308.288V314.396C501.19 315.284 501.526 315.512 502.654 315.344V317C502.09 317.168 501.574 317.24 501.118 317.24C499.63 317.24 499.138 316.448 499.054 315.464H498.838C497.842 316.364 496.582 317.288 494.59 317.288C492.31 317.288 490.858 316.064 490.858 313.964C490.858 310.52 494.734 310.076 498.922 310.1V308.42C498.922 306.44 497.806 305.996 496.174 306.008C494.614 306.02 493.426 306.464 493.402 308.108V308.636H491.278V307.988C491.278 305.876 492.73 304.388 496.414 304.388ZM493.234 313.688C493.234 314.912 494.122 315.572 495.61 315.572C496.906 315.572 497.914 315.068 498.922 314.336V311.432C498.538 311.396 498.142 311.372 497.782 311.372C494.95 311.372 493.234 311.996 493.234 313.688ZM508.813 304.676H511.081V312.884C511.081 314.9 512.125 315.416 513.373 315.416C514.813 315.416 515.965 314.72 516.889 313.652V304.676H519.157V317H517.237L517.033 315.236H516.733C515.761 316.268 514.477 317.276 512.389 317.276C510.193 317.276 508.813 316.16 508.813 313.496V304.676ZM525.76 317V315.164H530.128L530.14 300.44H525.76V298.64L532.108 298.376L532.408 298.652V315.164H536.776V317H525.76ZM545.863 312.884V306.512H542.287V304.676H545.863V300.812H548.143V304.676H553.807V306.512H548.143V313.028C548.143 314.732 548.887 315.488 550.147 315.488C551.467 315.488 552.175 314.66 552.175 313.028V312.428H553.891V312.872C553.891 315.752 552.727 317.276 549.871 317.276C547.207 317.276 545.863 315.968 545.863 312.884ZM565.882 304.388C569.134 304.388 571.006 305.564 571.102 308.06L569.038 308.204C568.882 306.8 567.802 306.08 565.726 306.08C563.854 306.08 562.678 306.632 562.678 307.796C562.678 308.852 563.674 309.284 566.422 309.848C569.71 310.52 571.246 311.276 571.246 313.424C571.246 315.74 569.41 317.276 565.786 317.276C562.378 317.276 560.434 316.304 559.882 313.424L561.97 313.16C562.546 315.32 564.118 315.524 565.894 315.524C568.102 315.524 568.978 314.648 568.978 313.676C568.978 312.596 567.946 312.212 565.018 311.612C562.054 311 560.506 310.112 560.506 308C560.506 305.804 562.174 304.388 565.882 304.388Z" fill="#A6E3A1"/>
<path d="M589.452 311.396C588.132 311.396 587.064 310.52 587.064 309.08C587.064 307.628 588.132 306.776 589.452 306.776C590.76 306.776 591.816 307.628 591.816 309.08C591.816 310.52 590.76 311.396 589.452 311.396Z" fill="#BAC2DE"/>
<path d="M606.932 317V315.164H611.3V306.476H606.932V304.676L613.28 304.4L613.58 304.688V315.164H617.948V317H606.932ZM610.316 300.02C610.316 299.06 611 298.484 611.996 298.484C612.98 298.484 613.664 299.06 613.664 300.02C613.664 300.98 612.98 301.568 611.996 301.568C611 301.568 610.316 300.98 610.316 300.02ZM634.895 317H632.627V308.78C632.627 306.776 631.583 306.248 630.335 306.248C628.895 306.248 627.743 306.956 626.819 308.024V317H624.551V304.676H626.471L626.675 306.44H626.975C627.947 305.396 629.231 304.388 631.319 304.388C633.515 304.388 634.895 305.504 634.895 308.18V317ZM647.054 304.388C650.306 304.388 652.178 305.564 652.274 308.06L650.21 308.204C650.054 306.8 648.974 306.08 646.898 306.08C645.026 306.08 643.85 306.632 643.85 307.796C643.85 308.852 644.846 309.284 647.594 309.848C650.882 310.52 652.418 311.276 652.418 313.424C652.418 315.74 650.582 317.276 646.958 317.276C643.55 317.276 641.606 316.304 641.054 313.424L643.142 313.16C643.718 315.32 645.29 315.524 647.066 315.524C649.274 315.524 650.15 314.648 650.15 313.676C650.15 312.596 649.118 312.212 646.19 311.612C643.226 311 641.678 310.112 641.678 308C641.678 305.804 643.346 304.388 647.054 304.388ZM664 304.388C667.012 304.388 668.776 305.384 668.776 308.288V314.396C668.776 315.284 669.112 315.512 670.24 315.344V317C669.676 317.168 669.16 317.24 668.704 317.24C667.216 317.24 666.724 316.448 666.64 315.464H666.424C665.428 316.364 664.168 317.288 662.176 317.288C659.896 317.288 658.444 316.064 658.444 313.964C658.444 310.52 662.32 310.076 666.508 310.1V308.42C666.508 306.44 665.392 305.996 663.76 306.008C662.2 306.02 661.012 306.464 660.988 308.108V308.636H658.864V307.988C658.864 305.876 660.316 304.388 664 304.388ZM660.82 313.688C660.82 314.912 661.708 315.572 663.196 315.572C664.492 315.572 665.5 315.068 666.508 314.336V311.432C666.124 311.396 665.728 311.372 665.368 311.372C662.536 311.372 660.82 311.996 660.82 313.688ZM686.743 317H684.475V308.78C684.475 306.776 683.431 306.248 682.183 306.248C680.743 306.248 679.591 306.956 678.667 308.024V317H676.399V304.676H678.319L678.523 306.44H678.823C679.795 305.396 681.079 304.388 683.167 304.388C685.363 304.388 686.743 305.504 686.743 308.18V317ZM692.842 310.82C692.842 306.656 695.326 304.388 699.118 304.388C702.61 304.388 704.65 306.212 704.65 309.836V310.916H695.17C695.206 313.916 696.634 315.428 699.046 315.428C700.618 315.428 701.806 314.792 702.394 313.388L704.602 313.76C703.762 316.064 701.746 317.288 699.034 317.288C695.35 317.288 692.842 315.056 692.842 310.82ZM695.29 309.404H702.43C702.418 307.208 700.978 306.248 699.046 306.248C697.03 306.248 695.686 307.316 695.29 309.404ZM739.3 313.244C738.616 315.968 736.372 317.288 733.564 317.288C729.928 317.288 727.408 315.08 727.408 310.808C727.408 306.512 729.976 304.388 733.684 304.388C736.696 304.388 738.988 305.792 739.3 308.756L737.056 308.948C736.768 307.052 735.424 306.248 733.624 306.248C731.08 306.248 729.748 307.856 729.748 310.808C729.748 313.928 731.236 315.428 733.576 315.428C735.364 315.428 736.6 314.564 737.104 312.896L739.3 313.244ZM745.53 304.676H747.798V312.884C747.798 314.9 748.842 315.416 750.09 315.416C751.53 315.416 752.682 314.72 753.606 313.652V304.676H755.874V317H753.954L753.75 315.236H753.45C752.478 316.268 751.194 317.276 749.106 317.276C746.91 317.276 745.53 316.16 745.53 313.496V304.676ZM768.033 304.388C771.285 304.388 773.157 305.564 773.253 308.06L771.189 308.204C771.033 306.8 769.953 306.08 767.877 306.08C766.005 306.08 764.829 306.632 764.829 307.796C764.829 308.852 765.825 309.284 768.573 309.848C771.861 310.52 773.397 311.276 773.397 313.424C773.397 315.74 771.561 317.276 767.937 317.276C764.529 317.276 762.585 316.304 762.033 313.424L764.121 313.16C764.697 315.32 766.269 315.524 768.045 315.524C770.253 315.524 771.129 314.648 771.129 313.676C771.129 312.596 770.097 312.212 767.169 311.612C764.205 311 762.657 310.112 762.657 308C762.657 305.804 764.325 304.388 768.033 304.388ZM782.58 312.884V306.512H779.004V304.676H782.58V300.812H784.86V304.676H790.524V306.512H784.86V313.028C784.86 314.732 785.604 315.488 786.864 315.488C788.184 315.488 788.892 314.66 788.892 313.028V312.428H790.608V312.872C790.608 315.752 789.444 317.276 786.588 317.276C783.924 317.276 782.58 315.968 782.58 312.884ZM808.563 310.856C808.563 315.176 805.863 317.288 802.551 317.288C799.251 317.288 796.539 315.176 796.539 310.856C796.539 306.548 799.251 304.388 802.551 304.388C805.863 304.388 808.563 306.548 808.563 310.856ZM798.867 310.856C798.867 314 800.391 315.428 802.551 315.428C804.711 315.428 806.223 314 806.223 310.856C806.223 307.712 804.711 306.248 802.551 306.248C800.391 306.248 798.867 307.712 798.867 310.856ZM821.91 317H819.774V307.856C819.774 306.632 819.102 306.308 818.418 306.308C817.53 306.308 816.822 306.872 816.318 307.676V317H814.206V304.676H815.982L816.162 306.452H816.342C816.942 305.252 818.01 304.4 819.438 304.4C820.746 304.4 821.634 305.06 821.838 306.452H821.934C822.534 305.252 823.566 304.4 825.006 304.4C826.494 304.4 827.454 305.264 827.466 307.124L827.478 317H825.342V307.856C825.342 306.632 824.67 306.308 823.974 306.308C823.086 306.308 822.39 306.86 821.886 307.652L821.91 317ZM833.745 317V315.176H837.045V306.476H833.745V304.676L839.025 304.4L839.325 304.688V315.176H842.625V317H833.745ZM836.073 300.068C836.073 299.108 836.757 298.532 837.753 298.532C838.737 298.532 839.421 299.108 839.421 300.068C839.421 301.028 838.737 301.616 837.753 301.616C836.757 301.616 836.073 301.028 836.073 300.068ZM849.023 304.676H859.307V306.008L852.119 315.164H859.775V317H849.023V315.656L856.199 306.512H849.023V304.676ZM871.394 304.388C874.406 304.388 876.17 305.384 876.17 308.288V314.396C876.17 315.284 876.506 315.512 877.634 315.344V317C877.07 317.168 876.554 317.24 876.098 317.24C874.61 317.24 874.118 316.448 874.034 315.464H873.818C872.822 316.364 871.562 317.288 869.57 317.288C867.29 317.288 865.838 316.064 865.838 313.964C865.838 310.52 869.714 310.076 873.902 310.1V308.42C873.902 306.44 872.786 305.996 871.154 306.008C869.594 306.02 868.406 306.464 868.382 308.108V308.636H866.258V307.988C866.258 305.876 867.71 304.388 871.394 304.388ZM868.214 313.688C868.214 314.912 869.102 315.572 870.59 315.572C871.886 315.572 872.894 315.068 873.902 314.336V311.432C873.518 311.396 873.122 311.372 872.762 311.372C869.93 311.372 868.214 311.996 868.214 313.688ZM886.277 312.884V306.512H882.701V304.676H886.277V300.812H888.557V304.676H894.221V306.512H888.557V313.028C888.557 314.732 889.301 315.488 890.561 315.488C891.881 315.488 892.589 314.66 892.589 313.028V312.428H894.305V312.872C894.305 315.752 893.141 317.276 890.285 317.276C887.621 317.276 886.277 315.968 886.277 312.884ZM900.74 317V315.164H905.108V306.476H900.74V304.676L907.088 304.4L907.388 304.688V315.164H911.756V317H900.74ZM904.124 300.02C904.124 299.06 904.808 298.484 905.804 298.484C906.788 298.484 907.472 299.06 907.472 300.02C907.472 300.98 906.788 301.568 905.804 301.568C904.808 301.568 904.124 300.98 904.124 300.02ZM929.543 310.856C929.543 315.176 926.843 317.288 923.531 317.288C920.231 317.288 917.519 315.176 917.519 310.856C917.519 306.548 920.231 304.388 923.531 304.388C926.843 304.388 929.543 306.548 929.543 310.856ZM919.847 310.856C919.847 314 921.371 315.428 923.531 315.428C925.691 315.428 927.203 314 927.203 310.856C927.203 307.712 925.691 306.248 923.531 306.248C921.371 306.248 919.847 307.712 919.847 310.856ZM945.985 317H943.717V308.78C943.717 306.776 942.673 306.248 941.425 306.248C939.985 306.248 938.833 306.956 937.909 308.024V317H935.641V304.676H937.561L937.765 306.44H938.065C939.037 305.396 940.321 304.388 942.409 304.388C944.605 304.388 945.985 305.504 945.985 308.18V317Z" fill="#94E2D5"/>
</g>
</svg>
