<svg width="1300" height="350" viewBox="0 0 1300 350" fill="none" xmlns="http://www.w3.org/2000/svg">
<path d="M613.955 144.5V86.3184H627.409V90.7729H619.045V140.046H627.409V144.5H613.955Z" fill="#32C572"/>
<path d="M653.929 130.046V126.814L658.249 125.054V106.462C658.249 102.398 656.137 100.99 653.321 100.99C651.113 100.99 648.105 101.694 644.681 103.582V125.118L648.905 126.814V130.046H634.409V126.814L638.729 125.054V103.134L633.129 102.27V98.7176L643.497 96.3176L644.329 96.6696V100.35C648.521 97.6936 652.361 96.1576 656.105 96.1576C661.577 96.1576 664.201 99.2616 664.201 105.214V125.118L668.425 126.814V130.046H653.929Z" fill="#2A2D3F"/>
<path d="M686.045 86.3184V144.5H672.591V140.046H680.955V90.7729H672.591V86.3184H686.045Z" fill="#32C572"/>
<path d="M638.473 88.4138C639.081 82.2378 641.385 79.1338 645.097 79.1338C650.121 79.1338 651.721 84.7658 654.921 84.7658C656.809 84.7658 658.345 82.8778 658.857 79.4538L661.833 80.4778C661.225 86.6538 658.889 89.7898 655.177 89.7898C650.153 89.7898 648.617 84.1258 645.385 84.1258C643.529 84.1258 641.961 86.0138 641.449 89.4698L638.473 88.4138Z" fill="#FE640B"/>
<path d="M521.92 252V250.6L523.8 250.32C524.227 250.24 524.507 250.08 524.64 249.84C524.773 249.573 524.84 249.093 524.84 248.4V235.84C524.84 234.907 524.76 234.28 524.6 233.96C524.44 233.64 524.067 233.453 523.48 233.4L521.56 233.16L521.76 231.76L528.12 231.32L528.48 231.6L528.64 235.32H528.72C529.387 233.96 530.347 232.907 531.6 232.16C532.853 231.413 534.2 231.04 535.64 231.04C537.053 231.04 538.24 231.307 539.2 231.84C540.16 232.347 540.88 233.12 541.36 234.16C541.84 235.173 542.08 236.427 542.08 237.92V248.68C542.08 249.293 542.16 249.707 542.32 249.92C542.48 250.133 542.813 250.28 543.32 250.36L545.12 250.6V252H535.08V250.64L536.76 250.4C537.267 250.293 537.587 250.133 537.72 249.92C537.88 249.707 537.96 249.307 537.96 248.72V238.56C537.96 237.307 537.84 236.32 537.6 235.6C537.36 234.853 536.96 234.32 536.4 234C535.867 233.68 535.12 233.52 534.16 233.52C533.147 233.52 532.24 233.747 531.44 234.2C530.667 234.627 530.053 235.253 529.6 236.08C529.173 236.88 528.96 237.84 528.96 238.96V248.56C528.96 249.147 529.027 249.56 529.16 249.8C529.293 250.04 529.56 250.2 529.96 250.28L531.96 250.64V252H521.92ZM567.656 252.56C565.656 252.56 563.909 252.147 562.416 251.32C560.949 250.467 559.816 249.28 559.016 247.76C558.216 246.213 557.816 244.373 557.816 242.24C557.816 239.893 558.242 237.893 559.096 236.24C559.949 234.56 561.149 233.28 562.696 232.4C564.269 231.493 566.109 231.04 568.216 231.04C570.162 231.04 571.856 231.453 573.296 232.28C574.736 233.08 575.842 234.253 576.616 235.8C577.416 237.32 577.816 239.147 577.816 241.28C577.816 243.573 577.389 245.573 576.536 247.28C575.709 248.96 574.536 250.267 573.016 251.2C571.496 252.107 569.709 252.56 567.656 252.56ZM568.256 250.72C569.349 250.72 570.269 250.413 571.016 249.8C571.789 249.187 572.362 248.253 572.736 247C573.109 245.747 573.296 244.147 573.296 242.2C573.296 240.653 573.162 239.293 572.896 238.12C572.656 236.92 572.282 235.933 571.776 235.16C571.269 234.387 570.656 233.813 569.936 233.44C569.242 233.04 568.442 232.84 567.536 232.84C566.416 232.84 565.469 233.133 564.696 233.72C563.922 234.28 563.322 235.173 562.896 236.4C562.496 237.6 562.296 239.147 562.296 241.04C562.296 243.2 562.536 245 563.016 246.44C563.522 247.853 564.216 248.92 565.096 249.64C565.976 250.36 567.029 250.72 568.256 250.72ZM591.139 252V250.6L593.019 250.28C593.445 250.2 593.725 250.04 593.859 249.8C593.992 249.533 594.059 249.053 594.059 248.36V235.88C594.059 234.947 593.979 234.32 593.819 234C593.659 233.653 593.285 233.453 592.699 233.4L590.779 233.2L590.979 231.76L597.259 231.32L597.619 231.6L597.899 235.36H597.979C598.645 233.973 599.499 232.907 600.539 232.16C601.579 231.413 602.699 231.04 603.899 231.04C605.179 231.04 606.192 231.387 606.939 232.08C607.685 232.747 608.059 233.64 608.059 234.76C608.059 235.427 607.952 236 607.739 236.48C607.552 236.933 607.245 237.293 606.819 237.56C606.419 237.8 605.912 237.92 605.299 237.92C604.499 237.92 603.885 237.747 603.459 237.4C603.059 237.053 602.859 236.613 602.859 236.08C602.859 235.84 602.899 235.6 602.979 235.36C603.059 235.12 603.179 234.84 603.339 234.52C603.499 234.2 603.699 233.84 603.939 233.44C603.325 233.2 602.672 233.173 601.979 233.36C601.312 233.547 600.685 233.92 600.099 234.48C599.539 235.013 599.072 235.693 598.699 236.52C598.352 237.32 598.179 238.187 598.179 239.12V248.44C598.179 249.08 598.245 249.52 598.379 249.76C598.512 249.973 598.792 250.107 599.219 250.16L602.539 250.6V252H591.139ZM620.076 252V250.56L622.236 250.24C622.716 250.187 623.022 250.027 623.156 249.76C623.289 249.493 623.356 249 623.356 248.28V235.96C623.356 235 623.276 234.36 623.116 234.04C622.956 233.72 622.569 233.52 621.956 233.44L620.076 233.24L620.236 231.76L627.116 231.44L627.516 231.64V248.44C627.516 249 627.582 249.427 627.716 249.72C627.849 249.987 628.169 250.16 628.676 250.24L630.836 250.6V252H620.076ZM624.876 227.28C624.049 227.28 623.369 227.027 622.836 226.52C622.302 226.013 622.036 225.347 622.036 224.52C622.036 223.72 622.302 223.067 622.836 222.56C623.369 222.027 624.049 221.76 624.876 221.76C625.756 221.76 626.449 222.013 626.956 222.52C627.489 223.027 627.756 223.693 627.756 224.52C627.756 225.32 627.489 225.987 626.956 226.52C626.422 227.027 625.729 227.28 624.876 227.28ZM652.195 261.2C650.648 261.2 649.288 261.093 648.115 260.88C646.942 260.667 645.968 260.347 645.195 259.92C644.448 259.52 643.875 259.013 643.475 258.4C643.102 257.787 642.915 257.067 642.915 256.24C642.915 255.547 643.048 254.92 643.315 254.36C643.608 253.8 644.048 253.307 644.635 252.88C645.248 252.453 645.995 252.093 646.875 251.8V251.64C646.022 251.427 645.355 251.027 644.875 250.44C644.422 249.827 644.195 249.16 644.195 248.44C644.195 247.72 644.382 247.04 644.755 246.4C645.128 245.76 645.822 244.92 646.835 243.88V243.76C645.848 243.253 645.102 242.547 644.595 241.64C644.088 240.733 643.835 239.6 643.835 238.24C643.835 236.747 644.182 235.467 644.875 234.4C645.595 233.333 646.595 232.507 647.875 231.92C649.182 231.333 650.675 231.04 652.355 231.04C652.995 231.04 653.635 231.093 654.275 231.2C654.915 231.307 655.528 231.467 656.115 231.68C656.728 231.893 657.275 232.147 657.755 232.44C658.208 231.187 658.768 230.2 659.435 229.48C660.102 228.76 660.902 228.4 661.835 228.4C662.368 228.4 662.835 228.493 663.235 228.68C663.662 228.867 663.995 229.12 664.235 229.44C664.475 229.76 664.595 230.16 664.595 230.64C664.595 231.227 664.368 231.76 663.915 232.24C663.462 232.72 662.915 232.96 662.275 232.96C661.902 232.96 661.582 232.867 661.315 232.68C661.048 232.467 660.808 232.187 660.595 231.84L660.035 230.84C659.795 231.187 659.582 231.56 659.395 231.96C659.235 232.333 659.062 232.787 658.875 233.32C659.408 233.933 659.835 234.653 660.155 235.48C660.502 236.28 660.675 237.133 660.675 238.04C660.675 239.48 660.328 240.733 659.635 241.8C658.968 242.84 658.022 243.653 656.795 244.24C655.568 244.827 654.102 245.12 652.395 245.12C651.622 245.12 650.888 245.067 650.195 244.96C649.502 244.827 648.928 244.667 648.475 244.48C647.995 245.013 647.662 245.453 647.475 245.8C647.288 246.12 647.195 246.467 647.195 246.84C647.195 247.24 647.302 247.587 647.515 247.88C647.728 248.147 648.062 248.347 648.515 248.48C648.968 248.587 649.555 248.64 650.275 248.64H655.755C658.262 248.64 660.115 249.053 661.315 249.88C662.515 250.68 663.115 251.973 663.115 253.76C663.115 254.667 662.968 255.493 662.675 256.24C662.382 257.013 661.942 257.693 661.355 258.28C660.795 258.893 660.075 259.413 659.195 259.84C658.315 260.293 657.288 260.627 656.115 260.84C654.942 261.08 653.635 261.2 652.195 261.2ZM652.555 259.32C653.888 259.32 655.035 259.133 655.995 258.76C656.982 258.413 657.742 257.92 658.275 257.28C658.835 256.667 659.115 255.933 659.115 255.08C659.115 254.12 658.782 253.413 658.115 252.96C657.475 252.507 656.528 252.28 655.275 252.28H648.475C647.915 252.707 647.475 253.2 647.155 253.76C646.862 254.347 646.715 254.973 646.715 255.64C646.715 256.92 647.182 257.853 648.115 258.44C649.048 259.027 650.528 259.32 652.555 259.32ZM652.315 243.44C653.675 243.44 654.702 242.987 655.395 242.08C656.115 241.147 656.475 239.84 656.475 238.16C656.475 236.4 656.088 235.04 655.315 234.08C654.568 233.12 653.488 232.64 652.075 232.64C650.742 232.64 649.742 233.107 649.075 234.04C648.408 234.947 648.075 236.28 648.075 238.04C648.075 239.693 648.448 241.013 649.195 242C649.968 242.96 651.008 243.44 652.315 243.44ZM675.585 252V250.56L677.545 250.28C678.079 250.2 678.412 250.027 678.545 249.76C678.705 249.493 678.785 248.987 678.785 248.24V225.64C678.785 224.733 678.692 224.133 678.505 223.84C678.319 223.547 677.892 223.36 677.225 223.28L675.425 223.04L675.585 221.56L682.545 221.36L682.945 221.72V248.4C682.945 248.96 683.012 249.4 683.145 249.72C683.279 250.013 683.625 250.2 684.185 250.28L686.265 250.6V252H675.585ZM704.907 252.56C703.173 252.56 701.8 252.08 700.787 251.12C699.773 250.133 699.267 248.813 699.267 247.16C699.267 245.72 699.627 244.56 700.347 243.68C701.067 242.8 702.253 242.133 703.907 241.68C705.587 241.2 707.84 240.893 710.667 240.76V237.16C710.667 236.067 710.52 235.187 710.227 234.52C709.96 233.853 709.52 233.36 708.907 233.04C708.32 232.72 707.547 232.56 706.587 232.56C705.813 232.56 705.04 232.68 704.267 232.92C703.52 233.16 702.96 233.467 702.587 233.84C702.933 234.32 703.213 234.733 703.427 235.08C703.64 235.427 703.787 235.72 703.867 235.96C703.947 236.2 703.987 236.4 703.987 236.56C703.987 237.067 703.773 237.507 703.347 237.88C702.947 238.227 702.4 238.4 701.707 238.4C700.96 238.4 700.387 238.213 699.987 237.84C699.587 237.467 699.387 236.933 699.387 236.24C699.387 235.333 699.733 234.48 700.427 233.68C701.147 232.88 702.093 232.24 703.267 231.76C704.467 231.28 705.76 231.04 707.147 231.04C708.88 231.04 710.307 231.307 711.427 231.84C712.573 232.347 713.427 233.147 713.987 234.24C714.547 235.307 714.827 236.667 714.827 238.32V248.24C714.827 248.907 714.973 249.387 715.267 249.68C715.587 249.973 716.013 250.12 716.547 250.12C716.84 250.12 717.133 250.093 717.427 250.04C717.747 249.96 718.093 249.853 718.467 249.72L718.787 250.8C718.227 251.387 717.6 251.827 716.907 252.12C716.213 252.413 715.533 252.56 714.867 252.56C713.667 252.56 712.747 252.253 712.107 251.64C711.493 251 711.12 250.08 710.987 248.88C710.507 249.733 709.973 250.427 709.387 250.96C708.8 251.493 708.133 251.893 707.387 252.16C706.667 252.427 705.84 252.56 704.907 252.56ZM706.667 250.16C707.44 250.16 708.12 249.987 708.707 249.64C709.32 249.267 709.8 248.773 710.147 248.16C710.493 247.52 710.667 246.8 710.667 246V242.28C709.013 242.28 707.653 242.44 706.587 242.76C705.52 243.053 704.733 243.52 704.227 244.16C703.747 244.8 703.507 245.64 703.507 246.68C703.507 247.773 703.787 248.627 704.347 249.24C704.907 249.853 705.68 250.16 706.667 250.16ZM730.347 252V250.64L742.387 233.2H737.147C736.107 233.2 735.294 233.333 734.707 233.6C734.147 233.867 733.681 234.373 733.307 235.12C732.961 235.867 732.587 236.933 732.187 238.32L730.547 238.44L731.027 231.6H746.907V233L735.027 250.32H740.067C740.894 250.32 741.587 250.253 742.147 250.12C742.707 249.96 743.174 249.68 743.547 249.28C743.921 248.88 744.267 248.307 744.587 247.56C744.907 246.813 745.254 245.827 745.627 244.6H747.227L746.667 252H730.347ZM769.678 252.56C767.758 252.56 766.078 252.147 764.638 251.32C763.225 250.493 762.132 249.307 761.358 247.76C760.585 246.187 760.198 244.32 760.198 242.16C760.198 239.84 760.612 237.853 761.438 236.2C762.265 234.52 763.425 233.24 764.918 232.36C766.412 231.48 768.145 231.04 770.118 231.04C771.612 231.04 772.918 231.333 774.038 231.92C775.158 232.507 776.025 233.347 776.638 234.44C777.278 235.507 777.598 236.773 777.598 238.24C777.598 238.747 777.558 239.267 777.478 239.8C777.425 240.333 777.345 240.893 777.238 241.48H764.638C764.638 243.24 764.892 244.72 765.398 245.92C765.932 247.093 766.665 247.987 767.598 248.6C768.532 249.187 769.625 249.48 770.878 249.48C771.972 249.48 772.998 249.28 773.958 248.88C774.945 248.48 775.892 247.853 776.798 247L777.838 248C776.852 249.52 775.652 250.667 774.238 251.44C772.852 252.187 771.332 252.56 769.678 252.56ZM764.638 239.8H773.358C773.385 239.533 773.398 239.24 773.398 238.92C773.425 238.6 773.438 238.267 773.438 237.92C773.438 236.053 773.132 234.707 772.518 233.88C771.905 233.053 770.972 232.64 769.718 232.64C768.732 232.64 767.878 232.893 767.158 233.4C766.465 233.907 765.905 234.693 765.478 235.76C765.052 236.8 764.772 238.147 764.638 239.8Z" fill="#5C5F77"/>
<path d="M521.92 252V250.6L523.8 250.32C524.227 250.24 524.507 250.08 524.64 249.84C524.773 249.573 524.84 249.093 524.84 248.4V235.84C524.84 234.907 524.76 234.28 524.6 233.96C524.44 233.64 524.067 233.453 523.48 233.4L521.56 233.16L521.76 231.76L528.12 231.32L528.48 231.6L528.64 235.32H528.72C529.387 233.96 530.347 232.907 531.6 232.16C532.853 231.413 534.2 231.04 535.64 231.04C537.053 231.04 538.24 231.307 539.2 231.84C540.16 232.347 540.88 233.12 541.36 234.16C541.84 235.173 542.08 236.427 542.08 237.92V248.68C542.08 249.293 542.16 249.707 542.32 249.92C542.48 250.133 542.813 250.28 543.32 250.36L545.12 250.6V252H535.08V250.64L536.76 250.4C537.267 250.293 537.587 250.133 537.72 249.92C537.88 249.707 537.96 249.307 537.96 248.72V238.56C537.96 237.307 537.84 236.32 537.6 235.6C537.36 234.853 536.96 234.32 536.4 234C535.867 233.68 535.12 233.52 534.16 233.52C533.147 233.52 532.24 233.747 531.44 234.2C530.667 234.627 530.053 235.253 529.6 236.08C529.173 236.88 528.96 237.84 528.96 238.96V248.56C528.96 249.147 529.027 249.56 529.16 249.8C529.293 250.04 529.56 250.2 529.96 250.28L531.96 250.64V252H521.92ZM567.656 252.56C565.656 252.56 563.909 252.147 562.416 251.32C560.949 250.467 559.816 249.28 559.016 247.76C558.216 246.213 557.816 244.373 557.816 242.24C557.816 239.893 558.242 237.893 559.096 236.24C559.949 234.56 561.149 233.28 562.696 232.4C564.269 231.493 566.109 231.04 568.216 231.04C570.162 231.04 571.856 231.453 573.296 232.28C574.736 233.08 575.842 234.253 576.616 235.8C577.416 237.32 577.816 239.147 577.816 241.28C577.816 243.573 577.389 245.573 576.536 247.28C575.709 248.96 574.536 250.267 573.016 251.2C571.496 252.107 569.709 252.56 567.656 252.56ZM568.256 250.72C569.349 250.72 570.269 250.413 571.016 249.8C571.789 249.187 572.362 248.253 572.736 247C573.109 245.747 573.296 244.147 573.296 242.2C573.296 240.653 573.162 239.293 572.896 238.12C572.656 236.92 572.282 235.933 571.776 235.16C571.269 234.387 570.656 233.813 569.936 233.44C569.242 233.04 568.442 232.84 567.536 232.84C566.416 232.84 565.469 233.133 564.696 233.72C563.922 234.28 563.322 235.173 562.896 236.4C562.496 237.6 562.296 239.147 562.296 241.04C562.296 243.2 562.536 245 563.016 246.44C563.522 247.853 564.216 248.92 565.096 249.64C565.976 250.36 567.029 250.72 568.256 250.72ZM591.139 252V250.6L593.019 250.28C593.445 250.2 593.725 250.04 593.859 249.8C593.992 249.533 594.059 249.053 594.059 248.36V235.88C594.059 234.947 593.979 234.32 593.819 234C593.659 233.653 593.285 233.453 592.699 233.4L590.779 233.2L590.979 231.76L597.259 231.32L597.619 231.6L597.899 235.36H597.979C598.645 233.973 599.499 232.907 600.539 232.16C601.579 231.413 602.699 231.04 603.899 231.04C605.179 231.04 606.192 231.387 606.939 232.08C607.685 232.747 608.059 233.64 608.059 234.76C608.059 235.427 607.952 236 607.739 236.48C607.552 236.933 607.245 237.293 606.819 237.56C606.419 237.8 605.912 237.92 605.299 237.92C604.499 237.92 603.885 237.747 603.459 237.4C603.059 237.053 602.859 236.613 602.859 236.08C602.859 235.84 602.899 235.6 602.979 235.36C603.059 235.12 603.179 234.84 603.339 234.52C603.499 234.2 603.699 233.84 603.939 233.44C603.325 233.2 602.672 233.173 601.979 233.36C601.312 233.547 600.685 233.92 600.099 234.48C599.539 235.013 599.072 235.693 598.699 236.52C598.352 237.32 598.179 238.187 598.179 239.12V248.44C598.179 249.08 598.245 249.52 598.379 249.76C598.512 249.973 598.792 250.107 599.219 250.16L602.539 250.6V252H591.139ZM620.076 252V250.56L622.236 250.24C622.716 250.187 623.022 250.027 623.156 249.76C623.289 249.493 623.356 249 623.356 248.28V235.96C623.356 235 623.276 234.36 623.116 234.04C622.956 233.72 622.569 233.52 621.956 233.44L620.076 233.24L620.236 231.76L627.116 231.44L627.516 231.64V248.44C627.516 249 627.582 249.427 627.716 249.72C627.849 249.987 628.169 250.16 628.676 250.24L630.836 250.6V252H620.076ZM624.876 227.28C624.049 227.28 623.369 227.027 622.836 226.52C622.302 226.013 622.036 225.347 622.036 224.52C622.036 223.72 622.302 223.067 622.836 222.56C623.369 222.027 624.049 221.76 624.876 221.76C625.756 221.76 626.449 222.013 626.956 222.52C627.489 223.027 627.756 223.693 627.756 224.52C627.756 225.32 627.489 225.987 626.956 226.52C626.422 227.027 625.729 227.28 624.876 227.28ZM652.195 261.2C650.648 261.2 649.288 261.093 648.115 260.88C646.942 260.667 645.968 260.347 645.195 259.92C644.448 259.52 643.875 259.013 643.475 258.4C643.102 257.787 642.915 257.067 642.915 256.24C642.915 255.547 643.048 254.92 643.315 254.36C643.608 253.8 644.048 253.307 644.635 252.88C645.248 252.453 645.995 252.093 646.875 251.8V251.64C646.022 251.427 645.355 251.027 644.875 250.44C644.422 249.827 644.195 249.16 644.195 248.44C644.195 247.72 644.382 247.04 644.755 246.4C645.128 245.76 645.822 244.92 646.835 243.88V243.76C645.848 243.253 645.102 242.547 644.595 241.64C644.088 240.733 643.835 239.6 643.835 238.24C643.835 236.747 644.182 235.467 644.875 234.4C645.595 233.333 646.595 232.507 647.875 231.92C649.182 231.333 650.675 231.04 652.355 231.04C652.995 231.04 653.635 231.093 654.275 231.2C654.915 231.307 655.528 231.467 656.115 231.68C656.728 231.893 657.275 232.147 657.755 232.44C658.208 231.187 658.768 230.2 659.435 229.48C660.102 228.76 660.902 228.4 661.835 228.4C662.368 228.4 662.835 228.493 663.235 228.68C663.662 228.867 663.995 229.12 664.235 229.44C664.475 229.76 664.595 230.16 664.595 230.64C664.595 231.227 664.368 231.76 663.915 232.24C663.462 232.72 662.915 232.96 662.275 232.96C661.902 232.96 661.582 232.867 661.315 232.68C661.048 232.467 660.808 232.187 660.595 231.84L660.035 230.84C659.795 231.187 659.582 231.56 659.395 231.96C659.235 232.333 659.062 232.787 658.875 233.32C659.408 233.933 659.835 234.653 660.155 235.48C660.502 236.28 660.675 237.133 660.675 238.04C660.675 239.48 660.328 240.733 659.635 241.8C658.968 242.84 658.022 243.653 656.795 244.24C655.568 244.827 654.102 245.12 652.395 245.12C651.622 245.12 650.888 245.067 650.195 244.96C649.502 244.827 648.928 244.667 648.475 244.48C647.995 245.013 647.662 245.453 647.475 245.8C647.288 246.12 647.195 246.467 647.195 246.84C647.195 247.24 647.302 247.587 647.515 247.88C647.728 248.147 648.062 248.347 648.515 248.48C648.968 248.587 649.555 248.64 650.275 248.64H655.755C658.262 248.64 660.115 249.053 661.315 249.88C662.515 250.68 663.115 251.973 663.115 253.76C663.115 254.667 662.968 255.493 662.675 256.24C662.382 257.013 661.942 257.693 661.355 258.28C660.795 258.893 660.075 259.413 659.195 259.84C658.315 260.293 657.288 260.627 656.115 260.84C654.942 261.08 653.635 261.2 652.195 261.2ZM652.555 259.32C653.888 259.32 655.035 259.133 655.995 258.76C656.982 258.413 657.742 257.92 658.275 257.28C658.835 256.667 659.115 255.933 659.115 255.08C659.115 254.12 658.782 253.413 658.115 252.96C657.475 252.507 656.528 252.28 655.275 252.28H648.475C647.915 252.707 647.475 253.2 647.155 253.76C646.862 254.347 646.715 254.973 646.715 255.64C646.715 256.92 647.182 257.853 648.115 258.44C649.048 259.027 650.528 259.32 652.555 259.32ZM652.315 243.44C653.675 243.44 654.702 242.987 655.395 242.08C656.115 241.147 656.475 239.84 656.475 238.16C656.475 236.4 656.088 235.04 655.315 234.08C654.568 233.12 653.488 232.64 652.075 232.64C650.742 232.64 649.742 233.107 649.075 234.04C648.408 234.947 648.075 236.28 648.075 238.04C648.075 239.693 648.448 241.013 649.195 242C649.968 242.96 651.008 243.44 652.315 243.44ZM675.585 252V250.56L677.545 250.28C678.079 250.2 678.412 250.027 678.545 249.76C678.705 249.493 678.785 248.987 678.785 248.24V225.64C678.785 224.733 678.692 224.133 678.505 223.84C678.319 223.547 677.892 223.36 677.225 223.28L675.425 223.04L675.585 221.56L682.545 221.36L682.945 221.72V248.4C682.945 248.96 683.012 249.4 683.145 249.72C683.279 250.013 683.625 250.2 684.185 250.28L686.265 250.6V252H675.585ZM704.907 252.56C703.173 252.56 701.8 252.08 700.787 251.12C699.773 250.133 699.267 248.813 699.267 247.16C699.267 245.72 699.627 244.56 700.347 243.68C701.067 242.8 702.253 242.133 703.907 241.68C705.587 241.2 707.84 240.893 710.667 240.76V237.16C710.667 236.067 710.52 235.187 710.227 234.52C709.96 233.853 709.52 233.36 708.907 233.04C708.32 232.72 707.547 232.56 706.587 232.56C705.813 232.56 705.04 232.68 704.267 232.92C703.52 233.16 702.96 233.467 702.587 233.84C702.933 234.32 703.213 234.733 703.427 235.08C703.64 235.427 703.787 235.72 703.867 235.96C703.947 236.2 703.987 236.4 703.987 236.56C703.987 237.067 703.773 237.507 703.347 237.88C702.947 238.227 702.4 238.4 701.707 238.4C700.96 238.4 700.387 238.213 699.987 237.84C699.587 237.467 699.387 236.933 699.387 236.24C699.387 235.333 699.733 234.48 700.427 233.68C701.147 232.88 702.093 232.24 703.267 231.76C704.467 231.28 705.76 231.04 707.147 231.04C708.88 231.04 710.307 231.307 711.427 231.84C712.573 232.347 713.427 233.147 713.987 234.24C714.547 235.307 714.827 236.667 714.827 238.32V248.24C714.827 248.907 714.973 249.387 715.267 249.68C715.587 249.973 716.013 250.12 716.547 250.12C716.84 250.12 717.133 250.093 717.427 250.04C717.747 249.96 718.093 249.853 718.467 249.72L718.787 250.8C718.227 251.387 717.6 251.827 716.907 252.12C716.213 252.413 715.533 252.56 714.867 252.56C713.667 252.56 712.747 252.253 712.107 251.64C711.493 251 711.12 250.08 710.987 248.88C710.507 249.733 709.973 250.427 709.387 250.96C708.8 251.493 708.133 251.893 707.387 252.16C706.667 252.427 705.84 252.56 704.907 252.56ZM706.667 250.16C707.44 250.16 708.12 249.987 708.707 249.64C709.32 249.267 709.8 248.773 710.147 248.16C710.493 247.52 710.667 246.8 710.667 246V242.28C709.013 242.28 707.653 242.44 706.587 242.76C705.52 243.053 704.733 243.52 704.227 244.16C703.747 244.8 703.507 245.64 703.507 246.68C703.507 247.773 703.787 248.627 704.347 249.24C704.907 249.853 705.68 250.16 706.667 250.16ZM730.347 252V250.64L742.387 233.2H737.147C736.107 233.2 735.294 233.333 734.707 233.6C734.147 233.867 733.681 234.373 733.307 235.12C732.961 235.867 732.587 236.933 732.187 238.32L730.547 238.44L731.027 231.6H746.907V233L735.027 250.32H740.067C740.894 250.32 741.587 250.253 742.147 250.12C742.707 249.96 743.174 249.68 743.547 249.28C743.921 248.88 744.267 248.307 744.587 247.56C744.907 246.813 745.254 245.827 745.627 244.6H747.227L746.667 252H730.347ZM769.678 252.56C767.758 252.56 766.078 252.147 764.638 251.32C763.225 250.493 762.132 249.307 761.358 247.76C760.585 246.187 760.198 244.32 760.198 242.16C760.198 239.84 760.612 237.853 761.438 236.2C762.265 234.52 763.425 233.24 764.918 232.36C766.412 231.48 768.145 231.04 770.118 231.04C771.612 231.04 772.918 231.333 774.038 231.92C775.158 232.507 776.025 233.347 776.638 234.44C777.278 235.507 777.598 236.773 777.598 238.24C777.598 238.747 777.558 239.267 777.478 239.8C777.425 240.333 777.345 240.893 777.238 241.48H764.638C764.638 243.24 764.892 244.72 765.398 245.92C765.932 247.093 766.665 247.987 767.598 248.6C768.532 249.187 769.625 249.48 770.878 249.48C771.972 249.48 772.998 249.28 773.958 248.88C774.945 248.48 775.892 247.853 776.798 247L777.838 248C776.852 249.52 775.652 250.667 774.238 251.44C772.852 252.187 771.332 252.56 769.678 252.56ZM764.638 239.8H773.358C773.385 239.533 773.398 239.24 773.398 238.92C773.425 238.6 773.438 238.267 773.438 237.92C773.438 236.053 773.132 234.707 772.518 233.88C771.905 233.053 770.972 232.64 769.718 232.64C768.732 232.64 767.878 232.893 767.158 233.4C766.465 233.907 765.905 234.693 765.478 235.76C765.052 236.8 764.772 238.147 764.638 239.8Z" fill="black" fill-opacity="0.25"/>
<g opacity="0.8">
<path d="M358.512 304.22C361.86 304.22 363.756 305.444 363.78 307.952L361.368 308.132C361.224 306.812 360.264 306.152 358.332 306.152C356.592 306.152 355.536 306.668 355.536 307.712C355.536 308.72 356.556 309.092 359.196 309.668C362.268 310.328 363.984 311.048 363.984 313.328C363.984 315.728 362.052 317.276 358.308 317.276C354.852 317.276 352.956 316.256 352.428 313.4L354.876 313.1C355.38 315.02 356.712 315.296 358.44 315.296C360.504 315.296 361.308 314.516 361.308 313.628C361.308 312.608 360.252 312.26 357.468 311.66C354.636 311.06 352.992 310.136 352.992 307.928C352.992 305.648 354.744 304.22 358.512 304.22ZM375.375 304.22C378.483 304.22 380.355 305.24 380.355 308.156V314.132C380.355 314.984 380.655 315.2 381.735 315.068V317C381.123 317.168 380.559 317.252 380.043 317.252C378.459 317.252 377.955 316.472 377.859 315.464H377.595C376.647 316.412 375.363 317.288 373.467 317.288C371.223 317.288 369.771 316.028 369.771 313.928C369.771 310.424 373.779 309.956 377.691 310.004V308.3C377.691 306.512 376.659 306.068 375.171 306.08C373.707 306.08 372.639 306.548 372.627 308L372.615 308.504H370.191V307.868C370.191 305.732 371.643 304.22 375.375 304.22ZM372.543 313.58C372.543 314.696 373.371 315.32 374.739 315.32C375.867 315.32 376.815 314.888 377.691 314.252V311.492C377.355 311.456 377.019 311.432 376.683 311.432C374.079 311.432 372.543 312.056 372.543 313.58ZM398.37 317H395.706V308.672C395.706 306.86 394.782 306.38 393.63 306.38C392.31 306.38 391.218 307.028 390.306 308V317H387.642V304.508H389.934L390.126 306.32H390.474C391.542 305.18 392.826 304.22 394.866 304.22C397.062 304.22 398.37 305.324 398.37 307.976V317ZM404.156 310.736C404.156 306.452 406.724 304.22 410.552 304.22C414.104 304.22 416.18 306.08 416.18 309.824V310.964H406.868C406.94 313.736 408.224 315.152 410.456 315.152C411.884 315.152 412.988 314.576 413.552 313.28L416.132 313.676C415.268 316.148 413.084 317.288 410.444 317.288C406.724 317.288 404.156 315.044 404.156 310.736ZM407 309.284H413.576C413.576 307.256 412.28 306.344 410.468 306.344C408.644 306.344 407.384 307.292 407 309.284ZM438.722 310.784C438.722 306.824 440.426 304.232 443.618 304.232C445.442 304.232 446.654 305.06 447.398 306.116H447.554V298.64H450.218V317H447.926L447.746 315.404H447.41C446.558 316.46 445.322 317.3 443.522 317.3C440.354 317.3 438.722 314.672 438.722 310.784ZM441.446 310.784C441.446 313.664 442.55 315.056 444.686 315.056C445.682 315.056 446.63 314.756 447.554 313.94V307.568C446.63 306.752 445.67 306.452 444.71 306.452C442.598 306.452 441.446 307.844 441.446 310.784ZM456.005 310.736C456.005 306.452 458.573 304.22 462.401 304.22C465.953 304.22 468.029 306.08 468.029 309.824V310.964H458.717C458.789 313.736 460.073 315.152 462.305 315.152C463.733 315.152 464.837 314.576 465.401 313.28L467.981 313.676C467.117 316.148 464.933 317.288 462.293 317.288C458.573 317.288 456.005 315.044 456.005 310.736ZM458.849 309.284H465.425C465.425 307.256 464.129 306.344 462.317 306.344C460.493 306.344 459.233 307.292 458.849 309.284ZM485.504 300.344C484.568 300.128 483.728 299.996 482.756 299.996C480.692 299.996 479.672 300.596 479.672 303.272V304.508H485.084V306.668H479.672V314.84H483.836V317H473.876V314.84H477.008V306.668H473.156V304.508H477.008V303.692C477.008 299.276 479.012 297.668 482.66 297.668C483.68 297.668 484.616 297.8 485.504 298.052V300.344ZM496.354 304.22C499.462 304.22 501.334 305.24 501.334 308.156V314.132C501.334 314.984 501.634 315.2 502.714 315.068V317C502.102 317.168 501.538 317.252 501.022 317.252C499.438 317.252 498.934 316.472 498.838 315.464H498.574C497.626 316.412 496.342 317.288 494.446 317.288C492.202 317.288 490.75 316.028 490.75 313.928C490.75 310.424 494.758 309.956 498.67 310.004V308.3C498.67 306.512 497.638 306.068 496.15 306.08C494.686 306.08 493.618 306.548 493.606 308L493.594 308.504H491.17V307.868C491.17 305.732 492.622 304.22 496.354 304.22ZM493.522 313.58C493.522 314.696 494.35 315.32 495.718 315.32C496.846 315.32 497.794 314.888 498.67 314.252V311.492C498.334 311.456 497.998 311.432 497.662 311.432C495.058 311.432 493.522 312.056 493.522 313.58ZM508.621 304.508H511.285V312.824C511.285 314.648 512.209 315.128 513.361 315.128C514.693 315.128 515.785 314.492 516.685 313.508V304.508H519.349V317H517.057L516.865 315.176H516.517C515.461 316.328 514.177 317.276 512.137 317.276C509.929 317.276 508.621 316.172 508.621 313.532V304.508ZM525.664 317V314.84H529.936L529.948 300.776H525.676V298.64L532.276 298.352L532.612 298.676L532.6 314.84H536.872V317H525.664ZM545.719 312.92V306.668H542.287V304.508H545.719V300.764H548.383V304.508H553.807V306.668H548.383V313.028C548.383 314.564 549.103 315.2 550.183 315.2C551.299 315.2 551.995 314.516 551.995 313.04V312.368H553.939V312.908C553.939 315.812 552.655 317.276 549.811 317.276C547.087 317.276 545.719 315.968 545.719 312.92ZM565.906 304.22C569.254 304.22 571.15 305.444 571.174 307.952L568.762 308.132C568.618 306.812 567.658 306.152 565.726 306.152C563.986 306.152 562.93 306.668 562.93 307.712C562.93 308.72 563.95 309.092 566.59 309.668C569.662 310.328 571.378 311.048 571.378 313.328C571.378 315.728 569.446 317.276 565.702 317.276C562.246 317.276 560.35 316.256 559.822 313.4L562.27 313.1C562.774 315.02 564.106 315.296 565.834 315.296C567.898 315.296 568.702 314.516 568.702 313.628C568.702 312.608 567.646 312.26 564.862 311.66C562.03 311.06 560.386 310.136 560.386 307.928C560.386 305.648 562.138 304.22 565.906 304.22Z" fill="#40A02B"/>
<path d="M589.452 311.396C588.132 311.396 587.064 310.52 587.064 309.08C587.064 307.628 588.132 306.776 589.452 306.776C590.76 306.776 591.816 307.628 591.816 309.08C591.816 310.52 590.76 311.396 589.452 311.396Z" fill="#BAC2DE"/>
<path d="M606.836 317V314.84H611.108V306.644H606.836V304.508L613.448 304.22L613.772 304.544V314.84H618.044V317H606.836ZM610.088 299.996C610.088 298.928 610.856 298.28 611.96 298.28C613.076 298.28 613.832 298.928 613.832 299.996C613.832 301.064 613.076 301.736 611.96 301.736C610.856 301.736 610.088 301.064 610.088 299.996ZM635.087 317H632.423V308.672C632.423 306.86 631.499 306.38 630.347 306.38C629.027 306.38 627.935 307.028 627.023 308V317H624.359V304.508H626.651L626.843 306.32H627.191C628.259 305.18 629.543 304.22 631.583 304.22C633.779 304.22 635.087 305.324 635.087 307.976V317ZM647.078 304.22C650.426 304.22 652.322 305.444 652.346 307.952L649.934 308.132C649.79 306.812 648.83 306.152 646.898 306.152C645.158 306.152 644.102 306.668 644.102 307.712C644.102 308.72 645.122 309.092 647.762 309.668C650.834 310.328 652.55 311.048 652.55 313.328C652.55 315.728 650.618 317.276 646.874 317.276C643.418 317.276 641.522 316.256 640.994 313.4L643.442 313.1C643.946 315.02 645.278 315.296 647.006 315.296C649.07 315.296 649.874 314.516 649.874 313.628C649.874 312.608 648.818 312.26 646.034 311.66C643.202 311.06 641.558 310.136 641.558 307.928C641.558 305.648 643.31 304.22 647.078 304.22ZM663.94 304.22C667.048 304.22 668.92 305.24 668.92 308.156V314.132C668.92 314.984 669.22 315.2 670.3 315.068V317C669.688 317.168 669.124 317.252 668.608 317.252C667.024 317.252 666.52 316.472 666.424 315.464H666.16C665.212 316.412 663.928 317.288 662.032 317.288C659.788 317.288 658.336 316.028 658.336 313.928C658.336 310.424 662.344 309.956 666.256 310.004V308.3C666.256 306.512 665.224 306.068 663.736 306.08C662.272 306.08 661.204 306.548 661.192 308L661.18 308.504H658.756V307.868C658.756 305.732 660.208 304.22 663.94 304.22ZM661.108 313.58C661.108 314.696 661.936 315.32 663.304 315.32C664.432 315.32 665.38 314.888 666.256 314.252V311.492C665.92 311.456 665.584 311.432 665.248 311.432C662.644 311.432 661.108 312.056 661.108 313.58ZM686.935 317H684.271V308.672C684.271 306.86 683.347 306.38 682.195 306.38C680.875 306.38 679.783 307.028 678.871 308V317H676.207V304.508H678.499L678.691 306.32H679.039C680.107 305.18 681.391 304.22 683.431 304.22C685.627 304.22 686.935 305.324 686.935 307.976V317ZM692.722 310.736C692.722 306.452 695.29 304.22 699.118 304.22C702.67 304.22 704.746 306.08 704.746 309.824V310.964H695.434C695.506 313.736 696.79 315.152 699.022 315.152C700.45 315.152 701.554 314.576 702.118 313.28L704.698 313.676C703.834 316.148 701.65 317.288 699.01 317.288C695.29 317.288 692.722 315.044 692.722 310.736ZM695.566 309.284H702.142C702.142 307.256 700.846 306.344 699.034 306.344C697.21 306.344 695.95 307.292 695.566 309.284ZM739.396 313.136C738.688 316.028 736.312 317.288 733.528 317.288C729.796 317.288 727.288 315.044 727.288 310.736C727.288 306.308 729.964 304.22 733.66 304.22C736.768 304.22 739.096 305.66 739.396 308.708L736.792 308.936C736.516 307.184 735.304 306.344 733.588 306.344C731.236 306.344 730.012 307.892 730.012 310.736C730.012 313.724 731.356 315.152 733.552 315.152C735.256 315.152 736.36 314.3 736.828 312.764L739.396 313.136ZM745.338 304.508H748.002V312.824C748.002 314.648 748.926 315.128 750.078 315.128C751.41 315.128 752.502 314.492 753.402 313.508V304.508H756.066V317H753.774L753.582 315.176H753.234C752.178 316.328 750.894 317.276 748.854 317.276C746.646 317.276 745.338 316.172 745.338 313.532V304.508ZM768.057 304.22C771.405 304.22 773.301 305.444 773.325 307.952L770.913 308.132C770.769 306.812 769.809 306.152 767.877 306.152C766.137 306.152 765.081 306.668 765.081 307.712C765.081 308.72 766.101 309.092 768.741 309.668C771.813 310.328 773.529 311.048 773.529 313.328C773.529 315.728 771.597 317.276 767.853 317.276C764.397 317.276 762.501 316.256 761.973 313.4L764.421 313.1C764.925 315.02 766.257 315.296 767.985 315.296C770.049 315.296 770.853 314.516 770.853 313.628C770.853 312.608 769.797 312.26 767.013 311.66C764.181 311.06 762.537 310.136 762.537 307.928C762.537 305.648 764.289 304.22 768.057 304.22ZM782.436 312.92V306.668H779.004V304.508H782.436V300.764H785.1V304.508H790.524V306.668H785.1V313.028C785.1 314.564 785.82 315.2 786.9 315.2C788.016 315.2 788.712 314.516 788.712 313.04V312.368H790.656V312.908C790.656 315.812 789.372 317.276 786.528 317.276C783.804 317.276 782.436 315.968 782.436 312.92ZM808.683 310.784C808.683 315.224 805.923 317.288 802.551 317.288C799.191 317.288 796.419 315.224 796.419 310.784C796.419 306.344 799.191 304.22 802.551 304.22C805.923 304.22 808.683 306.344 808.683 310.784ZM799.131 310.784C799.131 313.892 800.559 315.152 802.551 315.152C804.555 315.152 805.971 313.892 805.971 310.784C805.971 307.664 804.555 306.344 802.551 306.344C800.559 306.344 799.131 307.664 799.131 310.784ZM822.042 317H819.594V307.868C819.594 306.764 819.006 306.452 818.358 306.452C817.578 306.452 816.942 306.92 816.462 307.568V317H814.026V304.508H816.102L816.282 306.368H816.486C817.074 305.144 818.154 304.232 819.618 304.232C820.938 304.232 821.802 304.916 821.994 306.368H822.102C822.678 305.144 823.722 304.232 825.186 304.232C826.698 304.232 827.61 305.12 827.61 307.028L827.622 317H825.174V307.868C825.174 306.764 824.586 306.452 823.926 306.452C823.146 306.452 822.51 306.908 822.03 307.544L822.042 317ZM833.613 317V314.84H836.841V306.644H833.613V304.508L839.169 304.22L839.505 304.544V314.84H842.721V317H833.613ZM835.833 300.068C835.833 299 836.601 298.352 837.705 298.352C838.821 298.352 839.577 299 839.577 300.068C839.577 301.136 838.821 301.808 837.705 301.808C836.601 301.808 835.833 301.136 835.833 300.068ZM848.915 304.508H859.463V306.092L852.539 314.84H859.895V317H848.915V315.404L855.827 306.668H848.915V304.508ZM871.334 304.22C874.442 304.22 876.314 305.24 876.314 308.156V314.132C876.314 314.984 876.614 315.2 877.694 315.068V317C877.082 317.168 876.518 317.252 876.002 317.252C874.418 317.252 873.914 316.472 873.818 315.464H873.554C872.606 316.412 871.322 317.288 869.426 317.288C867.182 317.288 865.73 316.028 865.73 313.928C865.73 310.424 869.738 309.956 873.65 310.004V308.3C873.65 306.512 872.618 306.068 871.13 306.08C869.666 306.08 868.598 306.548 868.586 308L868.574 308.504H866.15V307.868C866.15 305.732 867.602 304.22 871.334 304.22ZM868.502 313.58C868.502 314.696 869.33 315.32 870.698 315.32C871.826 315.32 872.774 314.888 873.65 314.252V311.492C873.314 311.456 872.978 311.432 872.642 311.432C870.038 311.432 868.502 312.056 868.502 313.58ZM886.133 312.92V306.668H882.701V304.508H886.133V300.764H888.797V304.508H894.221V306.668H888.797V313.028C888.797 314.564 889.517 315.2 890.597 315.2C891.713 315.2 892.409 314.516 892.409 313.04V312.368H894.353V312.908C894.353 315.812 893.069 317.276 890.225 317.276C887.501 317.276 886.133 315.968 886.133 312.92ZM900.644 317V314.84H904.916V306.644H900.644V304.508L907.256 304.22L907.58 304.544V314.84H911.852V317H900.644ZM903.896 299.996C903.896 298.928 904.664 298.28 905.768 298.28C906.884 298.28 907.64 298.928 907.64 299.996C907.64 301.064 906.884 301.736 905.768 301.736C904.664 301.736 903.896 301.064 903.896 299.996ZM929.663 310.784C929.663 315.224 926.903 317.288 923.531 317.288C920.171 317.288 917.399 315.224 917.399 310.784C917.399 306.344 920.171 304.22 923.531 304.22C926.903 304.22 929.663 306.344 929.663 310.784ZM920.111 310.784C920.111 313.892 921.539 315.152 923.531 315.152C925.535 315.152 926.951 313.892 926.951 310.784C926.951 307.664 925.535 306.344 923.531 306.344C921.539 306.344 920.111 307.664 920.111 310.784ZM946.177 317H943.513V308.672C943.513 306.86 942.589 306.38 941.437 306.38C940.117 306.38 939.025 307.028 938.113 308V317H935.449V304.508H937.741L937.933 306.32H938.281C939.349 305.18 940.633 304.22 942.673 304.22C944.869 304.22 946.177 305.324 946.177 307.976V317Z" fill="#179299"/>
</g>
</svg>
