<svg width="180" height="180" viewBox="0 0 180 180" fill="none" xmlns="http://www.w3.org/2000/svg">
<path d="M53.5455 118.705V60.5227H67V64.9773H58.6364V114.25H67V118.705H53.5455Z" fill="#32C572"/>
<path d="M93.52 104.25V101.018L97.84 99.258V80.666C97.84 76.602 95.728 75.194 92.912 75.194C90.704 75.194 87.696 75.898 84.272 77.786V99.322L88.496 101.018V104.25H74V101.018L78.32 99.258V77.338L72.72 76.474V72.922L83.088 70.522L83.92 70.874V74.554C88.112 71.898 91.952 70.362 95.696 70.362C101.168 70.362 103.792 73.466 103.792 79.418V99.322L108.016 101.018V104.25H93.52Z" fill="#282A3B"/>
<path d="M125.636 60.5227V118.705H112.182V114.25H120.545V64.9773H112.182V60.5227H125.636Z" fill="#32C572"/>
<path d="M163.172 18.1094L163.172 40.6406L158.891 40.6406L158.891 22.4219L128.984 22.4219L128.984 18.1094L163.172 18.1094Z" fill="#32C572"/>
<path d="M158.891 40.6406L163.172 40.6406L163.172 75.5781L158.891 75.5781L158.891 40.6406Z" fill="#32C572"/>
<path d="M158.891 75.5781L163.172 75.5781L163.172 110.516L158.891 110.516L158.891 75.5781Z" fill="#32C572"/>
<path d="M158.891 110.516L163.172 110.516L163.172 145.453L158.891 145.453L158.891 110.516Z" fill="#32C572"/>
<path d="M158.891 145.453L163.172 145.453L163.172 162.172L128.984 162.172L128.984 157.859L158.891 157.859L158.891 145.453Z" fill="#32C572"/>
<path d="M121.984 18.1094L121.984 22.4219L57.9844 22.4219L57.9844 18.1094L121.984 18.1094Z" fill="#32C572"/>
<path d="M121.984 157.859L121.984 162.172L57.9844 162.172L57.9844 157.859L121.984 157.859Z" fill="#32C572"/>
<path d="M50.9844 18.1094L50.9844 22.4219L21.1719 22.4219L21.1719 40.6406L16.8906 40.6406L16.8906 18.1094L50.9844 18.1094Z" fill="#32C572"/>
<path d="M16.8906 40.6406L21.1719 40.6406L21.1719 75.5781L16.8906 75.5781L16.8906 40.6406Z" fill="#32C572"/>
<path d="M16.8906 75.5781L21.1719 75.5781L21.1719 110.516L16.8906 110.516L16.8906 75.5781Z" fill="#32C572"/>
<path d="M16.8906 110.516L21.1719 110.516L21.1719 145.453L16.8906 145.453L16.8906 110.516Z" fill="#32C572"/>
<path d="M16.8906 145.453L21.1719 145.453L21.1719 157.859L50.9844 157.859L50.9844 162.172L16.8906 162.172L16.8906 145.453Z" fill="#32C572"/>
</svg>
