<svg width="180" height="180" viewBox="0 0 180 180" fill="none" xmlns="http://www.w3.org/2000/svg">
<path d="M53.5455 118.705V60.5227H67V64.9773H58.6364V114.25H67V118.705H53.5455Z" fill="#32C572"/>
<path d="M125.636 60.5227V118.705H112.182V114.25H120.545V64.9773H112.182V60.5227H125.636Z" fill="#32C572"/>
<path d="M90.352 98.704C88.048 98.704 86.064 97.904 84.4 96.304C82.8 94.64 82 92.656 82 90.352C82 88.048 82.8 86.096 84.4 84.496C86.064 82.832 88.048 82 90.352 82C92.656 82 94.608 82.832 96.208 84.496C97.872 86.096 98.704 88.048 98.704 90.352C98.704 92.656 97.872 94.64 96.208 96.304C94.608 97.904 92.656 98.704 90.352 98.704ZM90.352 95.152C91.632 95.152 92.752 94.672 93.712 93.712C94.672 92.752 95.152 91.632 95.152 90.352C95.152 89.072 94.672 87.952 93.712 86.992C92.752 86.032 91.632 85.552 90.352 85.552C89.072 85.552 87.952 86.032 86.992 86.992C86.032 87.952 85.552 89.072 85.552 90.352C85.552 91.632 86.032 92.752 86.992 93.712C87.952 94.672 89.072 95.152 90.352 95.152Z" fill="#E6EBF9"/>
</svg>
