<svg width="180" height="180" viewBox="0 0 180 180" fill="none" xmlns="http://www.w3.org/2000/svg">
<path d="M53.9545 119.5V61.3184H67.4091V65.7729H59.0455V115.046H67.4091V119.5H53.9545Z" fill="#32C572"/>
<path d="M93.9291 105.046V101.814L98.2491 100.054V81.4616C98.2491 77.3976 96.1371 75.9896 93.3211 75.9896C91.1131 75.9896 88.1051 76.6936 84.6811 78.5816V100.118L88.9051 101.814V105.046H74.4091V101.814L78.7291 100.054V78.1336L73.1291 77.2696V73.7176L83.4971 71.3176L84.3291 71.6696V75.3496C88.5211 72.6936 92.3611 71.1576 96.1051 71.1576C101.577 71.1576 104.201 74.2616 104.201 80.2136V100.118L108.425 101.814V105.046H93.9291Z" fill="#2A2D3F"/>
<path d="M126.045 61.3184V119.5H112.591V115.046H120.955V65.7729H112.591V61.3184H126.045Z" fill="#32C572"/>
<path d="M78.4731 63.4138C79.0811 57.2378 81.3851 54.1338 85.0971 54.1338C90.1211 54.1338 91.7211 59.7658 94.9211 59.7658C96.8091 59.7658 98.3451 57.8778 98.8571 54.4538L101.833 55.4778C101.225 61.6538 98.8891 64.7898 95.1771 64.7898C90.1531 64.7898 88.6171 59.1258 85.3851 59.1258C83.5291 59.1258 81.9611 61.0138 81.4491 64.4698L78.4731 63.4138Z" fill="#FE640B"/>
</svg>
