<svg width="180" height="180" viewBox="0 0 180 180" fill="none" xmlns="http://www.w3.org/2000/svg">
<path d="M30.5455 100.614V42.4319H44V46.8865H35.6364V96.1592H44V100.614H30.5455Z" fill="#32C572"/>
<path d="M70.52 86.1592V82.9272L74.84 81.1672V62.5752C74.84 58.5112 72.728 57.1032 69.912 57.1032C67.704 57.1032 64.696 57.8072 61.272 59.6952V81.2312L65.496 82.9272V86.1592H51V82.9272L55.32 81.1672V59.2472L49.72 58.3832V54.8312L60.088 52.4312L60.92 52.7832V56.4632C65.112 53.8072 68.952 52.2712 72.696 52.2712C78.168 52.2712 80.792 55.3752 80.792 61.3272V81.2312L85.016 82.9272V86.1592H70.52Z" fill="#E6EBF9"/>
<path d="M102.636 42.4319V100.614H89.1818V96.1592H97.5455V46.8865H89.1818V42.4319H102.636ZM117.733 100.614V42.4319H131.188V46.8865H122.824V96.1592H131.188V100.614H117.733ZM149.011 42.4319V100.614H135.557V96.1592H143.92V46.8865H135.557V42.4319H149.011Z" fill="#32C572"/>
<path d="M35.8577 132.886H44.2209V137.341H30.7668V114.841H35.8577V132.886Z" fill="#32C572"/>
<path d="M102.858 137.341H89.4026V132.886H97.7668V114.841H102.858V137.341Z" fill="#32C572"/>
<path d="M123.045 132.886H131.408V137.341H117.954V114.841H123.045V132.886Z" fill="#32C572"/>
<path d="M149.233 137.341H135.778V132.886H144.142V114.841H149.233V137.341Z" fill="#32C572"/>
<path d="M44.2214 113.613H35.8582L35.8577 114.841H30.7668L30.7673 109.159H44.2214V113.613Z" fill="#32C572"/>
<path d="M102.858 114.841H97.7668L97.7673 113.613H89.4031V109.159H102.858L102.858 114.841Z" fill="#32C572"/>
<path d="M131.409 113.613H123.046L123.045 114.841H117.954L117.955 109.159H131.409V113.613Z" fill="#32C572"/>
<path d="M149.233 114.841H144.142L144.142 113.613H135.778V109.159H149.233L149.233 114.841Z" fill="#32C572"/>
</svg>
