<svg width="1300" height="350" viewBox="0 0 1300 350" fill="none" xmlns="http://www.w3.org/2000/svg">
<path d="M613.545 132.977V74.7957H627V79.2502H618.636V128.523H627V132.977H613.545Z" fill="#32C572"/>
<path d="M653.52 118.523V115.291L657.84 113.531V94.9389C657.84 90.8749 655.728 89.4669 652.912 89.4669C650.704 89.4669 647.696 90.1709 644.272 92.0589V113.595L648.496 115.291V118.523H634V115.291L638.32 113.531V91.6109L632.72 90.7469V87.1949L643.088 84.7949L643.92 85.1469V88.8269C648.112 86.1709 651.952 84.6349 655.696 84.6349C661.168 84.6349 663.792 87.7389 663.792 93.6909V113.595L668.016 115.291V118.523H653.52Z" fill="#E6EBF9"/>
<path d="M685.636 74.7957V132.977H672.182V128.523H680.545V79.2502H672.182V74.7957H685.636Z" fill="#32C572"/>
<path d="M602.16 149.886H650.705V154.977H597.705V141.523H602.16V149.886Z" fill="#179299"/>
<path d="M702.295 154.977H650.114V149.886H697.841V141.523H702.295V154.977Z" fill="#179299"/>
<path d="M544.92 252V250.6L546.8 250.32C547.227 250.24 547.507 250.08 547.64 249.84C547.773 249.573 547.84 249.093 547.84 248.4V235.84C547.84 234.907 547.76 234.28 547.6 233.96C547.44 233.64 547.067 233.453 546.48 233.4L544.56 233.16L544.76 231.76L551.12 231.32L551.48 231.6L551.64 235.32H551.72C552.387 233.96 553.347 232.907 554.6 232.16C555.853 231.413 557.2 231.04 558.64 231.04C560.053 231.04 561.24 231.307 562.2 231.84C563.16 232.347 563.88 233.12 564.36 234.16C564.84 235.173 565.08 236.427 565.08 237.92V248.68C565.08 249.293 565.16 249.707 565.32 249.92C565.48 250.133 565.813 250.28 566.32 250.36L568.12 250.6V252H558.08V250.64L559.76 250.4C560.267 250.293 560.587 250.133 560.72 249.92C560.88 249.707 560.96 249.307 560.96 248.72V238.56C560.96 237.307 560.84 236.32 560.6 235.6C560.36 234.853 559.96 234.32 559.4 234C558.867 233.68 558.12 233.52 557.16 233.52C556.147 233.52 555.24 233.747 554.44 234.2C553.667 234.627 553.053 235.253 552.6 236.08C552.173 236.88 551.96 237.84 551.96 238.96V248.56C551.96 249.147 552.027 249.56 552.16 249.8C552.293 250.04 552.56 250.2 552.96 250.28L554.96 250.64V252H544.92ZM590.656 252.56C588.656 252.56 586.909 252.147 585.416 251.32C583.949 250.467 582.816 249.28 582.016 247.76C581.216 246.213 580.816 244.373 580.816 242.24C580.816 239.893 581.242 237.893 582.096 236.24C582.949 234.56 584.149 233.28 585.696 232.4C587.269 231.493 589.109 231.04 591.216 231.04C593.162 231.04 594.856 231.453 596.296 232.28C597.736 233.08 598.842 234.253 599.616 235.8C600.416 237.32 600.816 239.147 600.816 241.28C600.816 243.573 600.389 245.573 599.536 247.28C598.709 248.96 597.536 250.267 596.016 251.2C594.496 252.107 592.709 252.56 590.656 252.56ZM591.256 250.72C592.349 250.72 593.269 250.413 594.016 249.8C594.789 249.187 595.362 248.253 595.736 247C596.109 245.747 596.296 244.147 596.296 242.2C596.296 240.653 596.162 239.293 595.896 238.12C595.656 236.92 595.282 235.933 594.776 235.16C594.269 234.387 593.656 233.813 592.936 233.44C592.242 233.04 591.442 232.84 590.536 232.84C589.416 232.84 588.469 233.133 587.696 233.72C586.922 234.28 586.322 235.173 585.896 236.4C585.496 237.6 585.296 239.147 585.296 241.04C585.296 243.2 585.536 245 586.016 246.44C586.522 247.853 587.216 248.92 588.096 249.64C588.976 250.36 590.029 250.72 591.256 250.72ZM614.139 252V250.6L616.019 250.28C616.445 250.2 616.725 250.04 616.859 249.8C616.992 249.533 617.059 249.053 617.059 248.36V235.88C617.059 234.947 616.979 234.32 616.819 234C616.659 233.653 616.285 233.453 615.699 233.4L613.779 233.2L613.979 231.76L620.259 231.32L620.619 231.6L620.899 235.36H620.979C621.645 233.973 622.499 232.907 623.539 232.16C624.579 231.413 625.699 231.04 626.899 231.04C628.179 231.04 629.192 231.387 629.939 232.08C630.685 232.747 631.059 233.64 631.059 234.76C631.059 235.427 630.952 236 630.739 236.48C630.552 236.933 630.245 237.293 629.819 237.56C629.419 237.8 628.912 237.92 628.299 237.92C627.499 237.92 626.885 237.747 626.459 237.4C626.059 237.053 625.859 236.613 625.859 236.08C625.859 235.84 625.899 235.6 625.979 235.36C626.059 235.12 626.179 234.84 626.339 234.52C626.499 234.2 626.699 233.84 626.939 233.44C626.325 233.2 625.672 233.173 624.979 233.36C624.312 233.547 623.685 233.92 623.099 234.48C622.539 235.013 622.072 235.693 621.699 236.52C621.352 237.32 621.179 238.187 621.179 239.12V248.44C621.179 249.08 621.245 249.52 621.379 249.76C621.512 249.973 621.792 250.107 622.219 250.16L625.539 250.6V252H614.139ZM643.076 252V250.56L645.236 250.24C645.716 250.187 646.022 250.027 646.156 249.76C646.289 249.493 646.356 249 646.356 248.28V235.96C646.356 235 646.276 234.36 646.116 234.04C645.956 233.72 645.569 233.52 644.956 233.44L643.076 233.24L643.236 231.76L650.116 231.44L650.516 231.64V248.44C650.516 249 650.582 249.427 650.716 249.72C650.849 249.987 651.169 250.16 651.676 250.24L653.836 250.6V252H643.076ZM647.876 227.28C647.049 227.28 646.369 227.027 645.836 226.52C645.302 226.013 645.036 225.347 645.036 224.52C645.036 223.72 645.302 223.067 645.836 222.56C646.369 222.027 647.049 221.76 647.876 221.76C648.756 221.76 649.449 222.013 649.956 222.52C650.489 223.027 650.756 223.693 650.756 224.52C650.756 225.32 650.489 225.987 649.956 226.52C649.422 227.027 648.729 227.28 647.876 227.28ZM666.235 260.64V259.24L668.115 258.96C668.488 258.907 668.755 258.747 668.915 258.48C669.102 258.24 669.195 257.773 669.195 257.08V235.92C669.195 234.907 669.102 234.24 668.915 233.92C668.755 233.6 668.382 233.413 667.795 233.36L665.955 233.16L666.155 231.72L672.475 231.32L672.915 231.56L673.035 235H673.155C673.715 234.067 674.328 233.32 674.995 232.76C675.688 232.173 676.448 231.747 677.275 231.48C678.128 231.187 679.035 231.04 679.995 231.04C681.675 231.04 683.102 231.427 684.275 232.2C685.475 232.973 686.395 234.107 687.035 235.6C687.702 237.093 688.035 238.933 688.035 241.12C688.035 243.467 687.662 245.507 686.915 247.24C686.195 248.947 685.115 250.267 683.675 251.2C682.235 252.107 680.488 252.56 678.435 252.56C677.528 252.56 676.608 252.44 675.675 252.2C674.742 251.987 673.968 251.68 673.355 251.28V257.04C673.355 257.68 673.435 258.133 673.595 258.4C673.782 258.693 674.128 258.867 674.635 258.92L677.075 259.24V260.64H666.235ZM678.195 250.6C679.315 250.6 680.275 250.293 681.075 249.68C681.902 249.067 682.528 248.093 682.955 246.76C683.382 245.427 683.595 243.693 683.595 241.56C683.595 239.667 683.395 238.12 682.995 236.92C682.622 235.72 682.062 234.84 681.315 234.28C680.595 233.72 679.702 233.44 678.635 233.44C677.542 233.44 676.595 233.667 675.795 234.12C675.022 234.573 674.422 235.213 673.995 236.04C673.568 236.867 673.355 237.853 673.355 239V248.84C673.862 249.32 674.555 249.733 675.435 250.08C676.342 250.427 677.262 250.6 678.195 250.6ZM707.594 252.56C705.861 252.56 704.487 252.08 703.474 251.12C702.461 250.133 701.954 248.813 701.954 247.16C701.954 245.72 702.314 244.56 703.034 243.68C703.754 242.8 704.941 242.133 706.594 241.68C708.274 241.2 710.527 240.893 713.354 240.76V237.16C713.354 236.067 713.207 235.187 712.914 234.52C712.647 233.853 712.207 233.36 711.594 233.04C711.007 232.72 710.234 232.56 709.274 232.56C708.501 232.56 707.727 232.68 706.954 232.92C706.207 233.16 705.647 233.467 705.274 233.84C705.621 234.32 705.901 234.733 706.114 235.08C706.327 235.427 706.474 235.72 706.554 235.96C706.634 236.2 706.674 236.4 706.674 236.56C706.674 237.067 706.461 237.507 706.034 237.88C705.634 238.227 705.087 238.4 704.394 238.4C703.647 238.4 703.074 238.213 702.674 237.84C702.274 237.467 702.074 236.933 702.074 236.24C702.074 235.333 702.421 234.48 703.114 233.68C703.834 232.88 704.781 232.24 705.954 231.76C707.154 231.28 708.447 231.04 709.834 231.04C711.567 231.04 712.994 231.307 714.114 231.84C715.261 232.347 716.114 233.147 716.674 234.24C717.234 235.307 717.514 236.667 717.514 238.32V248.24C717.514 248.907 717.661 249.387 717.954 249.68C718.274 249.973 718.701 250.12 719.234 250.12C719.527 250.12 719.821 250.093 720.114 250.04C720.434 249.96 720.781 249.853 721.154 249.72L721.474 250.8C720.914 251.387 720.287 251.827 719.594 252.12C718.901 252.413 718.221 252.56 717.554 252.56C716.354 252.56 715.434 252.253 714.794 251.64C714.181 251 713.807 250.08 713.674 248.88C713.194 249.733 712.661 250.427 712.074 250.96C711.487 251.493 710.821 251.893 710.074 252.16C709.354 252.427 708.527 252.56 707.594 252.56ZM709.354 250.16C710.127 250.16 710.807 249.987 711.394 249.64C712.007 249.267 712.487 248.773 712.834 248.16C713.181 247.52 713.354 246.8 713.354 246V242.28C711.701 242.28 710.341 242.44 709.274 242.76C708.207 243.053 707.421 243.52 706.914 244.16C706.434 244.8 706.194 245.64 706.194 246.68C706.194 247.773 706.474 248.627 707.034 249.24C707.594 249.853 708.367 250.16 709.354 250.16ZM741.44 252.56C739.707 252.56 738.227 252.173 737 251.4C735.774 250.627 734.827 249.48 734.16 247.96C733.52 246.44 733.2 244.587 733.2 242.4C733.2 240.053 733.587 238.04 734.36 236.36C735.16 234.653 736.294 233.347 737.76 232.44C739.227 231.507 740.96 231.04 742.96 231.04C743.867 231.04 744.76 231.16 745.64 231.4C746.52 231.613 747.267 231.92 747.88 232.32V225.56C747.88 224.653 747.774 224.053 747.56 223.76C747.374 223.467 746.907 223.293 746.16 223.24L744.36 223L744.52 221.56L751.64 221.36L752 221.72V248.6C752 249.24 752.08 249.68 752.24 249.92C752.427 250.16 752.787 250.32 753.32 250.4L755.2 250.68V252.08L748.56 252.36L748.12 249.04H748C747.494 249.813 746.907 250.467 746.24 251C745.6 251.507 744.88 251.893 744.08 252.16C743.28 252.427 742.4 252.56 741.44 252.56ZM742.76 250.16C743.8 250.16 744.694 249.933 745.44 249.48C746.187 249.027 746.774 248.373 747.2 247.52C747.654 246.667 747.88 245.653 747.88 244.48V234.72C747.214 234.187 746.454 233.773 745.6 233.48C744.774 233.16 743.907 233 743 233C741.774 233 740.76 233.32 739.96 233.96C739.16 234.573 738.56 235.547 738.16 236.88C737.787 238.187 737.6 239.867 737.6 241.92C737.6 243.787 737.8 245.333 738.2 246.56C738.6 247.76 739.187 248.667 739.96 249.28C740.734 249.867 741.667 250.16 742.76 250.16Z" fill="#BAC2DE"/>
<g opacity="0.8">
<path d="M358.488 304.388C361.74 304.388 363.612 305.564 363.708 308.06L361.644 308.204C361.488 306.8 360.408 306.08 358.332 306.08C356.46 306.08 355.284 306.632 355.284 307.796C355.284 308.852 356.28 309.284 359.028 309.848C362.316 310.52 363.852 311.276 363.852 313.424C363.852 315.74 362.016 317.276 358.392 317.276C354.984 317.276 353.04 316.304 352.488 313.424L354.576 313.16C355.152 315.32 356.724 315.524 358.5 315.524C360.708 315.524 361.584 314.648 361.584 313.676C361.584 312.596 360.552 312.212 357.624 311.612C354.66 311 353.112 310.112 353.112 308C353.112 305.804 354.78 304.388 358.488 304.388ZM375.435 304.388C378.447 304.388 380.211 305.384 380.211 308.288V314.396C380.211 315.284 380.547 315.512 381.675 315.344V317C381.111 317.168 380.595 317.24 380.139 317.24C378.651 317.24 378.159 316.448 378.075 315.464H377.859C376.863 316.364 375.603 317.288 373.611 317.288C371.331 317.288 369.879 316.064 369.879 313.964C369.879 310.52 373.755 310.076 377.943 310.1V308.42C377.943 306.44 376.827 305.996 375.195 306.008C373.635 306.02 372.447 306.464 372.423 308.108V308.636H370.299V307.988C370.299 305.876 371.751 304.388 375.435 304.388ZM372.255 313.688C372.255 314.912 373.143 315.572 374.631 315.572C375.927 315.572 376.935 315.068 377.943 314.336V311.432C377.559 311.396 377.163 311.372 376.803 311.372C373.971 311.372 372.255 311.996 372.255 313.688ZM398.178 317H395.91V308.78C395.91 306.776 394.866 306.248 393.618 306.248C392.178 306.248 391.026 306.956 390.102 308.024V317H387.834V304.676H389.754L389.958 306.44H390.258C391.23 305.396 392.514 304.388 394.602 304.388C396.798 304.388 398.178 305.504 398.178 308.18V317ZM404.276 310.82C404.276 306.656 406.76 304.388 410.552 304.388C414.044 304.388 416.084 306.212 416.084 309.836V310.916H406.604C406.64 313.916 408.068 315.428 410.48 315.428C412.052 315.428 413.24 314.792 413.828 313.388L416.036 313.76C415.196 316.064 413.18 317.288 410.468 317.288C406.784 317.288 404.276 315.056 404.276 310.82ZM406.724 309.404H413.864C413.852 307.208 412.412 306.248 410.48 306.248C408.464 306.248 407.12 307.316 406.724 309.404ZM438.842 310.868C438.842 306.848 440.666 304.388 443.774 304.388C445.586 304.388 446.81 305.216 447.602 306.308H447.758V298.64H450.026V317H448.106L447.926 315.38H447.614C446.726 316.472 445.466 317.3 443.678 317.3C440.558 317.3 438.842 314.78 438.842 310.868ZM441.182 310.868C441.182 313.844 442.37 315.368 444.602 315.368C445.706 315.368 446.726 314.984 447.758 313.952V307.712C446.75 306.68 445.718 306.308 444.638 306.308C442.442 306.308 441.182 307.796 441.182 310.868ZM456.125 310.82C456.125 306.656 458.609 304.388 462.401 304.388C465.893 304.388 467.933 306.212 467.933 309.836V310.916H458.453C458.489 313.916 459.917 315.428 462.329 315.428C463.901 315.428 465.089 314.792 465.677 313.388L467.885 313.76C467.045 316.064 465.029 317.288 462.317 317.288C458.633 317.288 456.125 315.056 456.125 310.82ZM458.573 309.404H465.713C465.701 307.208 464.261 306.248 462.329 306.248C460.313 306.248 458.969 307.316 458.573 309.404ZM485.432 300.092C484.508 299.876 483.68 299.744 482.684 299.744C480.596 299.744 479.384 300.32 479.384 303.284V304.676H484.988V306.512H479.384V315.164H483.752V317H473.852V315.164H477.116V306.512H473.156V304.676H477.116V303.488C477.116 299.216 479.192 297.728 482.624 297.728C483.596 297.728 484.532 297.848 485.432 298.112V300.092ZM496.414 304.388C499.426 304.388 501.19 305.384 501.19 308.288V314.396C501.19 315.284 501.526 315.512 502.654 315.344V317C502.09 317.168 501.574 317.24 501.118 317.24C499.63 317.24 499.138 316.448 499.054 315.464H498.838C497.842 316.364 496.582 317.288 494.59 317.288C492.31 317.288 490.858 316.064 490.858 313.964C490.858 310.52 494.734 310.076 498.922 310.1V308.42C498.922 306.44 497.806 305.996 496.174 306.008C494.614 306.02 493.426 306.464 493.402 308.108V308.636H491.278V307.988C491.278 305.876 492.73 304.388 496.414 304.388ZM493.234 313.688C493.234 314.912 494.122 315.572 495.61 315.572C496.906 315.572 497.914 315.068 498.922 314.336V311.432C498.538 311.396 498.142 311.372 497.782 311.372C494.95 311.372 493.234 311.996 493.234 313.688ZM508.813 304.676H511.081V312.884C511.081 314.9 512.125 315.416 513.373 315.416C514.813 315.416 515.965 314.72 516.889 313.652V304.676H519.157V317H517.237L517.033 315.236H516.733C515.761 316.268 514.477 317.276 512.389 317.276C510.193 317.276 508.813 316.16 508.813 313.496V304.676ZM525.76 317V315.164H530.128L530.14 300.44H525.76V298.64L532.108 298.376L532.408 298.652V315.164H536.776V317H525.76ZM545.863 312.884V306.512H542.287V304.676H545.863V300.812H548.143V304.676H553.807V306.512H548.143V313.028C548.143 314.732 548.887 315.488 550.147 315.488C551.467 315.488 552.175 314.66 552.175 313.028V312.428H553.891V312.872C553.891 315.752 552.727 317.276 549.871 317.276C547.207 317.276 545.863 315.968 545.863 312.884ZM565.882 304.388C569.134 304.388 571.006 305.564 571.102 308.06L569.038 308.204C568.882 306.8 567.802 306.08 565.726 306.08C563.854 306.08 562.678 306.632 562.678 307.796C562.678 308.852 563.674 309.284 566.422 309.848C569.71 310.52 571.246 311.276 571.246 313.424C571.246 315.74 569.41 317.276 565.786 317.276C562.378 317.276 560.434 316.304 559.882 313.424L561.97 313.16C562.546 315.32 564.118 315.524 565.894 315.524C568.102 315.524 568.978 314.648 568.978 313.676C568.978 312.596 567.946 312.212 565.018 311.612C562.054 311 560.506 310.112 560.506 308C560.506 305.804 562.174 304.388 565.882 304.388Z" fill="#A6E3A1"/>
<path d="M589.452 311.396C588.132 311.396 587.064 310.52 587.064 309.08C587.064 307.628 588.132 306.776 589.452 306.776C590.76 306.776 591.816 307.628 591.816 309.08C591.816 310.52 590.76 311.396 589.452 311.396Z" fill="#BAC2DE"/>
<path d="M606.932 317V315.164H611.3V306.476H606.932V304.676L613.28 304.4L613.58 304.688V315.164H617.948V317H606.932ZM610.316 300.02C610.316 299.06 611 298.484 611.996 298.484C612.98 298.484 613.664 299.06 613.664 300.02C613.664 300.98 612.98 301.568 611.996 301.568C611 301.568 610.316 300.98 610.316 300.02ZM634.895 317H632.627V308.78C632.627 306.776 631.583 306.248 630.335 306.248C628.895 306.248 627.743 306.956 626.819 308.024V317H624.551V304.676H626.471L626.675 306.44H626.975C627.947 305.396 629.231 304.388 631.319 304.388C633.515 304.388 634.895 305.504 634.895 308.18V317ZM647.054 304.388C650.306 304.388 652.178 305.564 652.274 308.06L650.21 308.204C650.054 306.8 648.974 306.08 646.898 306.08C645.026 306.08 643.85 306.632 643.85 307.796C643.85 308.852 644.846 309.284 647.594 309.848C650.882 310.52 652.418 311.276 652.418 313.424C652.418 315.74 650.582 317.276 646.958 317.276C643.55 317.276 641.606 316.304 641.054 313.424L643.142 313.16C643.718 315.32 645.29 315.524 647.066 315.524C649.274 315.524 650.15 314.648 650.15 313.676C650.15 312.596 649.118 312.212 646.19 311.612C643.226 311 641.678 310.112 641.678 308C641.678 305.804 643.346 304.388 647.054 304.388ZM664 304.388C667.012 304.388 668.776 305.384 668.776 308.288V314.396C668.776 315.284 669.112 315.512 670.24 315.344V317C669.676 317.168 669.16 317.24 668.704 317.24C667.216 317.24 666.724 316.448 666.64 315.464H666.424C665.428 316.364 664.168 317.288 662.176 317.288C659.896 317.288 658.444 316.064 658.444 313.964C658.444 310.52 662.32 310.076 666.508 310.1V308.42C666.508 306.44 665.392 305.996 663.76 306.008C662.2 306.02 661.012 306.464 660.988 308.108V308.636H658.864V307.988C658.864 305.876 660.316 304.388 664 304.388ZM660.82 313.688C660.82 314.912 661.708 315.572 663.196 315.572C664.492 315.572 665.5 315.068 666.508 314.336V311.432C666.124 311.396 665.728 311.372 665.368 311.372C662.536 311.372 660.82 311.996 660.82 313.688ZM686.743 317H684.475V308.78C684.475 306.776 683.431 306.248 682.183 306.248C680.743 306.248 679.591 306.956 678.667 308.024V317H676.399V304.676H678.319L678.523 306.44H678.823C679.795 305.396 681.079 304.388 683.167 304.388C685.363 304.388 686.743 305.504 686.743 308.18V317ZM692.842 310.82C692.842 306.656 695.326 304.388 699.118 304.388C702.61 304.388 704.65 306.212 704.65 309.836V310.916H695.17C695.206 313.916 696.634 315.428 699.046 315.428C700.618 315.428 701.806 314.792 702.394 313.388L704.602 313.76C703.762 316.064 701.746 317.288 699.034 317.288C695.35 317.288 692.842 315.056 692.842 310.82ZM695.29 309.404H702.43C702.418 307.208 700.978 306.248 699.046 306.248C697.03 306.248 695.686 307.316 695.29 309.404ZM739.3 313.244C738.616 315.968 736.372 317.288 733.564 317.288C729.928 317.288 727.408 315.08 727.408 310.808C727.408 306.512 729.976 304.388 733.684 304.388C736.696 304.388 738.988 305.792 739.3 308.756L737.056 308.948C736.768 307.052 735.424 306.248 733.624 306.248C731.08 306.248 729.748 307.856 729.748 310.808C729.748 313.928 731.236 315.428 733.576 315.428C735.364 315.428 736.6 314.564 737.104 312.896L739.3 313.244ZM745.53 304.676H747.798V312.884C747.798 314.9 748.842 315.416 750.09 315.416C751.53 315.416 752.682 314.72 753.606 313.652V304.676H755.874V317H753.954L753.75 315.236H753.45C752.478 316.268 751.194 317.276 749.106 317.276C746.91 317.276 745.53 316.16 745.53 313.496V304.676ZM768.033 304.388C771.285 304.388 773.157 305.564 773.253 308.06L771.189 308.204C771.033 306.8 769.953 306.08 767.877 306.08C766.005 306.08 764.829 306.632 764.829 307.796C764.829 308.852 765.825 309.284 768.573 309.848C771.861 310.52 773.397 311.276 773.397 313.424C773.397 315.74 771.561 317.276 767.937 317.276C764.529 317.276 762.585 316.304 762.033 313.424L764.121 313.16C764.697 315.32 766.269 315.524 768.045 315.524C770.253 315.524 771.129 314.648 771.129 313.676C771.129 312.596 770.097 312.212 767.169 311.612C764.205 311 762.657 310.112 762.657 308C762.657 305.804 764.325 304.388 768.033 304.388ZM782.58 312.884V306.512H779.004V304.676H782.58V300.812H784.86V304.676H790.524V306.512H784.86V313.028C784.86 314.732 785.604 315.488 786.864 315.488C788.184 315.488 788.892 314.66 788.892 313.028V312.428H790.608V312.872C790.608 315.752 789.444 317.276 786.588 317.276C783.924 317.276 782.58 315.968 782.58 312.884ZM808.563 310.856C808.563 315.176 805.863 317.288 802.551 317.288C799.251 317.288 796.539 315.176 796.539 310.856C796.539 306.548 799.251 304.388 802.551 304.388C805.863 304.388 808.563 306.548 808.563 310.856ZM798.867 310.856C798.867 314 800.391 315.428 802.551 315.428C804.711 315.428 806.223 314 806.223 310.856C806.223 307.712 804.711 306.248 802.551 306.248C800.391 306.248 798.867 307.712 798.867 310.856ZM821.91 317H819.774V307.856C819.774 306.632 819.102 306.308 818.418 306.308C817.53 306.308 816.822 306.872 816.318 307.676V317H814.206V304.676H815.982L816.162 306.452H816.342C816.942 305.252 818.01 304.4 819.438 304.4C820.746 304.4 821.634 305.06 821.838 306.452H821.934C822.534 305.252 823.566 304.4 825.006 304.4C826.494 304.4 827.454 305.264 827.466 307.124L827.478 317H825.342V307.856C825.342 306.632 824.67 306.308 823.974 306.308C823.086 306.308 822.39 306.86 821.886 307.652L821.91 317ZM833.745 317V315.176H837.045V306.476H833.745V304.676L839.025 304.4L839.325 304.688V315.176H842.625V317H833.745ZM836.073 300.068C836.073 299.108 836.757 298.532 837.753 298.532C838.737 298.532 839.421 299.108 839.421 300.068C839.421 301.028 838.737 301.616 837.753 301.616C836.757 301.616 836.073 301.028 836.073 300.068ZM849.023 304.676H859.307V306.008L852.119 315.164H859.775V317H849.023V315.656L856.199 306.512H849.023V304.676ZM871.394 304.388C874.406 304.388 876.17 305.384 876.17 308.288V314.396C876.17 315.284 876.506 315.512 877.634 315.344V317C877.07 317.168 876.554 317.24 876.098 317.24C874.61 317.24 874.118 316.448 874.034 315.464H873.818C872.822 316.364 871.562 317.288 869.57 317.288C867.29 317.288 865.838 316.064 865.838 313.964C865.838 310.52 869.714 310.076 873.902 310.1V308.42C873.902 306.44 872.786 305.996 871.154 306.008C869.594 306.02 868.406 306.464 868.382 308.108V308.636H866.258V307.988C866.258 305.876 867.71 304.388 871.394 304.388ZM868.214 313.688C868.214 314.912 869.102 315.572 870.59 315.572C871.886 315.572 872.894 315.068 873.902 314.336V311.432C873.518 311.396 873.122 311.372 872.762 311.372C869.93 311.372 868.214 311.996 868.214 313.688ZM886.277 312.884V306.512H882.701V304.676H886.277V300.812H888.557V304.676H894.221V306.512H888.557V313.028C888.557 314.732 889.301 315.488 890.561 315.488C891.881 315.488 892.589 314.66 892.589 313.028V312.428H894.305V312.872C894.305 315.752 893.141 317.276 890.285 317.276C887.621 317.276 886.277 315.968 886.277 312.884ZM900.74 317V315.164H905.108V306.476H900.74V304.676L907.088 304.4L907.388 304.688V315.164H911.756V317H900.74ZM904.124 300.02C904.124 299.06 904.808 298.484 905.804 298.484C906.788 298.484 907.472 299.06 907.472 300.02C907.472 300.98 906.788 301.568 905.804 301.568C904.808 301.568 904.124 300.98 904.124 300.02ZM929.543 310.856C929.543 315.176 926.843 317.288 923.531 317.288C920.231 317.288 917.519 315.176 917.519 310.856C917.519 306.548 920.231 304.388 923.531 304.388C926.843 304.388 929.543 306.548 929.543 310.856ZM919.847 310.856C919.847 314 921.371 315.428 923.531 315.428C925.691 315.428 927.203 314 927.203 310.856C927.203 307.712 925.691 306.248 923.531 306.248C921.371 306.248 919.847 307.712 919.847 310.856ZM945.985 317H943.717V308.78C943.717 306.776 942.673 306.248 941.425 306.248C939.985 306.248 938.833 306.956 937.909 308.024V317H935.641V304.676H937.561L937.765 306.44H938.065C939.037 305.396 940.321 304.388 942.409 304.388C944.605 304.388 945.985 305.504 945.985 308.18V317Z" fill="#94E2D5"/>
</g>
</svg>
