<svg width="1300" height="350" viewBox="0 0 1300 350" fill="none" xmlns="http://www.w3.org/2000/svg">
<path d="M579.045 143.705V85.5227H592.5V89.9773H584.136V139.25H592.5V143.705H579.045Z" fill="#32C572"/>
<path d="M619.02 129.25V126.018L623.34 124.258V105.666C623.34 101.602 621.228 100.194 618.412 100.194C616.204 100.194 613.196 100.898 609.772 102.786V124.322L613.996 126.018V129.25H599.5V126.018L603.82 124.258V102.338L598.22 101.474V97.922L608.588 95.522L609.42 95.874V99.554C613.612 96.898 617.452 95.362 621.196 95.362C626.668 95.362 629.292 98.466 629.292 104.418V124.322L633.516 126.018V129.25H619.02Z" fill="#2A2D3F"/>
<path d="M651.636 85.5227V143.705H638.182V139.25H646.545V89.9773H638.182V85.5227H651.636Z" fill="#32C572"/>
<path d="M721.199 85.5227V143.705H707.744V139.25H716.108V89.9773H707.744V85.5227H721.199Z" fill="#32C572"/>
<path d="M674.824 143.705H661.369V139.25H674.824V143.705Z" fill="#32C572"/>
<path d="M674.824 89.9773H661.369V85.5227H674.824V89.9773Z" fill="#32C572"/>
<path d="M698.011 89.9773H684.557V85.5227H698.011V89.9773Z" fill="#32C572"/>
<path d="M698.011 143.705H684.557V139.25H698.011V143.705Z" fill="#32C572"/>
<path d="M548.42 252V250.6L550.3 250.32C550.727 250.24 551.007 250.08 551.14 249.84C551.273 249.573 551.34 249.093 551.34 248.4V235.84C551.34 234.907 551.26 234.28 551.1 233.96C550.94 233.64 550.567 233.453 549.98 233.4L548.06 233.16L548.26 231.76L554.62 231.32L554.98 231.6L555.14 235.32H555.22C555.887 233.96 556.847 232.907 558.1 232.16C559.353 231.413 560.7 231.04 562.14 231.04C563.553 231.04 564.74 231.307 565.7 231.84C566.66 232.347 567.38 233.12 567.86 234.16C568.34 235.173 568.58 236.427 568.58 237.92V248.68C568.58 249.293 568.66 249.707 568.82 249.92C568.98 250.133 569.313 250.28 569.82 250.36L571.62 250.6V252H561.58V250.64L563.26 250.4C563.767 250.293 564.087 250.133 564.22 249.92C564.38 249.707 564.46 249.307 564.46 248.72V238.56C564.46 237.307 564.34 236.32 564.1 235.6C563.86 234.853 563.46 234.32 562.9 234C562.367 233.68 561.62 233.52 560.66 233.52C559.647 233.52 558.74 233.747 557.94 234.2C557.167 234.627 556.553 235.253 556.1 236.08C555.673 236.88 555.46 237.84 555.46 238.96V248.56C555.46 249.147 555.527 249.56 555.66 249.8C555.793 250.04 556.06 250.2 556.46 250.28L558.46 250.64V252H548.42ZM594.156 252.56C592.156 252.56 590.409 252.147 588.916 251.32C587.449 250.467 586.316 249.28 585.516 247.76C584.716 246.213 584.316 244.373 584.316 242.24C584.316 239.893 584.742 237.893 585.596 236.24C586.449 234.56 587.649 233.28 589.196 232.4C590.769 231.493 592.609 231.04 594.716 231.04C596.662 231.04 598.356 231.453 599.796 232.28C601.236 233.08 602.342 234.253 603.116 235.8C603.916 237.32 604.316 239.147 604.316 241.28C604.316 243.573 603.889 245.573 603.036 247.28C602.209 248.96 601.036 250.267 599.516 251.2C597.996 252.107 596.209 252.56 594.156 252.56ZM594.756 250.72C595.849 250.72 596.769 250.413 597.516 249.8C598.289 249.187 598.862 248.253 599.236 247C599.609 245.747 599.796 244.147 599.796 242.2C599.796 240.653 599.662 239.293 599.396 238.12C599.156 236.92 598.782 235.933 598.276 235.16C597.769 234.387 597.156 233.813 596.436 233.44C595.742 233.04 594.942 232.84 594.036 232.84C592.916 232.84 591.969 233.133 591.196 233.72C590.422 234.28 589.822 235.173 589.396 236.4C588.996 237.6 588.796 239.147 588.796 241.04C588.796 243.2 589.036 245 589.516 246.44C590.022 247.853 590.716 248.92 591.596 249.64C592.476 250.36 593.529 250.72 594.756 250.72ZM617.639 252V250.6L619.519 250.28C619.945 250.2 620.225 250.04 620.359 249.8C620.492 249.533 620.559 249.053 620.559 248.36V235.88C620.559 234.947 620.479 234.32 620.319 234C620.159 233.653 619.785 233.453 619.199 233.4L617.279 233.2L617.479 231.76L623.759 231.32L624.119 231.6L624.399 235.36H624.479C625.145 233.973 625.999 232.907 627.039 232.16C628.079 231.413 629.199 231.04 630.399 231.04C631.679 231.04 632.692 231.387 633.439 232.08C634.185 232.747 634.559 233.64 634.559 234.76C634.559 235.427 634.452 236 634.239 236.48C634.052 236.933 633.745 237.293 633.319 237.56C632.919 237.8 632.412 237.92 631.799 237.92C630.999 237.92 630.385 237.747 629.959 237.4C629.559 237.053 629.359 236.613 629.359 236.08C629.359 235.84 629.399 235.6 629.479 235.36C629.559 235.12 629.679 234.84 629.839 234.52C629.999 234.2 630.199 233.84 630.439 233.44C629.825 233.2 629.172 233.173 628.479 233.36C627.812 233.547 627.185 233.92 626.599 234.48C626.039 235.013 625.572 235.693 625.199 236.52C624.852 237.32 624.679 238.187 624.679 239.12V248.44C624.679 249.08 624.745 249.52 624.879 249.76C625.012 249.973 625.292 250.107 625.719 250.16L629.039 250.6V252H617.639ZM646.576 252V250.56L648.736 250.24C649.216 250.187 649.522 250.027 649.656 249.76C649.789 249.493 649.856 249 649.856 248.28V235.96C649.856 235 649.776 234.36 649.616 234.04C649.456 233.72 649.069 233.52 648.456 233.44L646.576 233.24L646.736 231.76L653.616 231.44L654.016 231.64V248.44C654.016 249 654.082 249.427 654.216 249.72C654.349 249.987 654.669 250.16 655.176 250.24L657.336 250.6V252H646.576ZM651.376 227.28C650.549 227.28 649.869 227.027 649.336 226.52C648.802 226.013 648.536 225.347 648.536 224.52C648.536 223.72 648.802 223.067 649.336 222.56C649.869 222.027 650.549 221.76 651.376 221.76C652.256 221.76 652.949 222.013 653.456 222.52C653.989 223.027 654.256 223.693 654.256 224.52C654.256 225.32 653.989 225.987 653.456 226.52C652.922 227.027 652.229 227.28 651.376 227.28ZM672.751 252.52L671.751 252.28V225.68C671.751 224.8 671.671 224.2 671.511 223.88C671.351 223.533 670.898 223.32 670.151 223.24L668.391 223.04L668.551 221.56L675.511 221.36L675.911 221.68V234.56L675.951 234.72C676.484 233.84 677.071 233.133 677.711 232.6C678.378 232.04 679.111 231.64 679.911 231.4C680.738 231.16 681.618 231.04 682.551 231.04C684.204 231.04 685.618 231.427 686.791 232.2C687.991 232.973 688.911 234.093 689.551 235.56C690.191 237.027 690.511 238.853 690.511 241.04C690.511 243.44 690.138 245.507 689.391 247.24C688.644 248.947 687.551 250.267 686.111 251.2C684.698 252.107 682.978 252.56 680.951 252.56C679.831 252.56 678.764 252.4 677.751 252.08C676.738 251.787 675.831 251.36 675.031 250.8L672.751 252.52ZM680.631 250.68C681.778 250.68 682.751 250.373 683.551 249.76C684.378 249.12 685.004 248.147 685.431 246.84C685.858 245.507 686.071 243.8 686.071 241.72C686.071 239.8 685.884 238.24 685.511 237.04C685.138 235.813 684.578 234.907 683.831 234.32C683.111 233.733 682.191 233.44 681.071 233.44C680.031 233.44 679.111 233.667 678.311 234.12C677.538 234.547 676.938 235.173 676.511 236C676.111 236.827 675.911 237.84 675.911 239.04V248.84C676.498 249.373 677.191 249.813 677.991 250.16C678.818 250.507 679.698 250.68 680.631 250.68ZM710.078 252.56C708.345 252.56 706.972 252.08 705.958 251.12C704.945 250.133 704.438 248.813 704.438 247.16C704.438 245.72 704.798 244.56 705.518 243.68C706.238 242.8 707.425 242.133 709.078 241.68C710.758 241.2 713.012 240.893 715.838 240.76V237.16C715.838 236.067 715.692 235.187 715.398 234.52C715.132 233.853 714.692 233.36 714.078 233.04C713.492 232.72 712.718 232.56 711.758 232.56C710.985 232.56 710.212 232.68 709.438 232.92C708.692 233.16 708.132 233.467 707.758 233.84C708.105 234.32 708.385 234.733 708.598 235.08C708.812 235.427 708.958 235.72 709.038 235.96C709.118 236.2 709.158 236.4 709.158 236.56C709.158 237.067 708.945 237.507 708.518 237.88C708.118 238.227 707.572 238.4 706.878 238.4C706.132 238.4 705.558 238.213 705.158 237.84C704.758 237.467 704.558 236.933 704.558 236.24C704.558 235.333 704.905 234.48 705.598 233.68C706.318 232.88 707.265 232.24 708.438 231.76C709.638 231.28 710.932 231.04 712.318 231.04C714.052 231.04 715.478 231.307 716.598 231.84C717.745 232.347 718.598 233.147 719.158 234.24C719.718 235.307 719.998 236.667 719.998 238.32V248.24C719.998 248.907 720.145 249.387 720.438 249.68C720.758 249.973 721.185 250.12 721.718 250.12C722.012 250.12 722.305 250.093 722.598 250.04C722.918 249.96 723.265 249.853 723.638 249.72L723.958 250.8C723.398 251.387 722.772 251.827 722.078 252.12C721.385 252.413 720.705 252.56 720.038 252.56C718.838 252.56 717.918 252.253 717.278 251.64C716.665 251 716.292 250.08 716.158 248.88C715.678 249.733 715.145 250.427 714.558 250.96C713.972 251.493 713.305 251.893 712.558 252.16C711.838 252.427 711.012 252.56 710.078 252.56ZM711.838 250.16C712.612 250.16 713.292 249.987 713.878 249.64C714.492 249.267 714.972 248.773 715.318 248.16C715.665 247.52 715.838 246.8 715.838 246V242.28C714.185 242.28 712.825 242.44 711.758 242.76C710.692 243.053 709.905 243.52 709.398 244.16C708.918 244.8 708.678 245.64 708.678 246.68C708.678 247.773 708.958 248.627 709.518 249.24C710.078 249.853 710.852 250.16 711.838 250.16ZM735.647 252V250.6L737.527 250.28C737.953 250.2 738.233 250.04 738.367 249.8C738.5 249.533 738.567 249.053 738.567 248.36V235.88C738.567 234.947 738.487 234.32 738.327 234C738.167 233.653 737.793 233.453 737.207 233.4L735.287 233.2L735.487 231.76L741.767 231.32L742.127 231.6L742.407 235.36H742.487C743.153 233.973 744.007 232.907 745.047 232.16C746.087 231.413 747.207 231.04 748.407 231.04C749.687 231.04 750.7 231.387 751.447 232.08C752.193 232.747 752.567 233.64 752.567 234.76C752.567 235.427 752.46 236 752.247 236.48C752.06 236.933 751.753 237.293 751.327 237.56C750.927 237.8 750.42 237.92 749.807 237.92C749.007 237.92 748.393 237.747 747.967 237.4C747.567 237.053 747.367 236.613 747.367 236.08C747.367 235.84 747.407 235.6 747.487 235.36C747.567 235.12 747.687 234.84 747.847 234.52C748.007 234.2 748.207 233.84 748.447 233.44C747.833 233.2 747.18 233.173 746.487 233.36C745.82 233.547 745.193 233.92 744.607 234.48C744.047 235.013 743.58 235.693 743.207 236.52C742.86 237.32 742.687 238.187 742.687 239.12V248.44C742.687 249.08 742.753 249.52 742.887 249.76C743.02 249.973 743.3 250.107 743.727 250.16L747.047 250.6V252H735.647Z" fill="#5C5F77"/>
<path d="M548.42 252V250.6L550.3 250.32C550.727 250.24 551.007 250.08 551.14 249.84C551.273 249.573 551.34 249.093 551.34 248.4V235.84C551.34 234.907 551.26 234.28 551.1 233.96C550.94 233.64 550.567 233.453 549.98 233.4L548.06 233.16L548.26 231.76L554.62 231.32L554.98 231.6L555.14 235.32H555.22C555.887 233.96 556.847 232.907 558.1 232.16C559.353 231.413 560.7 231.04 562.14 231.04C563.553 231.04 564.74 231.307 565.7 231.84C566.66 232.347 567.38 233.12 567.86 234.16C568.34 235.173 568.58 236.427 568.58 237.92V248.68C568.58 249.293 568.66 249.707 568.82 249.92C568.98 250.133 569.313 250.28 569.82 250.36L571.62 250.6V252H561.58V250.64L563.26 250.4C563.767 250.293 564.087 250.133 564.22 249.92C564.38 249.707 564.46 249.307 564.46 248.72V238.56C564.46 237.307 564.34 236.32 564.1 235.6C563.86 234.853 563.46 234.32 562.9 234C562.367 233.68 561.62 233.52 560.66 233.52C559.647 233.52 558.74 233.747 557.94 234.2C557.167 234.627 556.553 235.253 556.1 236.08C555.673 236.88 555.46 237.84 555.46 238.96V248.56C555.46 249.147 555.527 249.56 555.66 249.8C555.793 250.04 556.06 250.2 556.46 250.28L558.46 250.64V252H548.42ZM594.156 252.56C592.156 252.56 590.409 252.147 588.916 251.32C587.449 250.467 586.316 249.28 585.516 247.76C584.716 246.213 584.316 244.373 584.316 242.24C584.316 239.893 584.742 237.893 585.596 236.24C586.449 234.56 587.649 233.28 589.196 232.4C590.769 231.493 592.609 231.04 594.716 231.04C596.662 231.04 598.356 231.453 599.796 232.28C601.236 233.08 602.342 234.253 603.116 235.8C603.916 237.32 604.316 239.147 604.316 241.28C604.316 243.573 603.889 245.573 603.036 247.28C602.209 248.96 601.036 250.267 599.516 251.2C597.996 252.107 596.209 252.56 594.156 252.56ZM594.756 250.72C595.849 250.72 596.769 250.413 597.516 249.8C598.289 249.187 598.862 248.253 599.236 247C599.609 245.747 599.796 244.147 599.796 242.2C599.796 240.653 599.662 239.293 599.396 238.12C599.156 236.92 598.782 235.933 598.276 235.16C597.769 234.387 597.156 233.813 596.436 233.44C595.742 233.04 594.942 232.84 594.036 232.84C592.916 232.84 591.969 233.133 591.196 233.72C590.422 234.28 589.822 235.173 589.396 236.4C588.996 237.6 588.796 239.147 588.796 241.04C588.796 243.2 589.036 245 589.516 246.44C590.022 247.853 590.716 248.92 591.596 249.64C592.476 250.36 593.529 250.72 594.756 250.72ZM617.639 252V250.6L619.519 250.28C619.945 250.2 620.225 250.04 620.359 249.8C620.492 249.533 620.559 249.053 620.559 248.36V235.88C620.559 234.947 620.479 234.32 620.319 234C620.159 233.653 619.785 233.453 619.199 233.4L617.279 233.2L617.479 231.76L623.759 231.32L624.119 231.6L624.399 235.36H624.479C625.145 233.973 625.999 232.907 627.039 232.16C628.079 231.413 629.199 231.04 630.399 231.04C631.679 231.04 632.692 231.387 633.439 232.08C634.185 232.747 634.559 233.64 634.559 234.76C634.559 235.427 634.452 236 634.239 236.48C634.052 236.933 633.745 237.293 633.319 237.56C632.919 237.8 632.412 237.92 631.799 237.92C630.999 237.92 630.385 237.747 629.959 237.4C629.559 237.053 629.359 236.613 629.359 236.08C629.359 235.84 629.399 235.6 629.479 235.36C629.559 235.12 629.679 234.84 629.839 234.52C629.999 234.2 630.199 233.84 630.439 233.44C629.825 233.2 629.172 233.173 628.479 233.36C627.812 233.547 627.185 233.92 626.599 234.48C626.039 235.013 625.572 235.693 625.199 236.52C624.852 237.32 624.679 238.187 624.679 239.12V248.44C624.679 249.08 624.745 249.52 624.879 249.76C625.012 249.973 625.292 250.107 625.719 250.16L629.039 250.6V252H617.639ZM646.576 252V250.56L648.736 250.24C649.216 250.187 649.522 250.027 649.656 249.76C649.789 249.493 649.856 249 649.856 248.28V235.96C649.856 235 649.776 234.36 649.616 234.04C649.456 233.72 649.069 233.52 648.456 233.44L646.576 233.24L646.736 231.76L653.616 231.44L654.016 231.64V248.44C654.016 249 654.082 249.427 654.216 249.72C654.349 249.987 654.669 250.16 655.176 250.24L657.336 250.6V252H646.576ZM651.376 227.28C650.549 227.28 649.869 227.027 649.336 226.52C648.802 226.013 648.536 225.347 648.536 224.52C648.536 223.72 648.802 223.067 649.336 222.56C649.869 222.027 650.549 221.76 651.376 221.76C652.256 221.76 652.949 222.013 653.456 222.52C653.989 223.027 654.256 223.693 654.256 224.52C654.256 225.32 653.989 225.987 653.456 226.52C652.922 227.027 652.229 227.28 651.376 227.28ZM672.751 252.52L671.751 252.28V225.68C671.751 224.8 671.671 224.2 671.511 223.88C671.351 223.533 670.898 223.32 670.151 223.24L668.391 223.04L668.551 221.56L675.511 221.36L675.911 221.68V234.56L675.951 234.72C676.484 233.84 677.071 233.133 677.711 232.6C678.378 232.04 679.111 231.64 679.911 231.4C680.738 231.16 681.618 231.04 682.551 231.04C684.204 231.04 685.618 231.427 686.791 232.2C687.991 232.973 688.911 234.093 689.551 235.56C690.191 237.027 690.511 238.853 690.511 241.04C690.511 243.44 690.138 245.507 689.391 247.24C688.644 248.947 687.551 250.267 686.111 251.2C684.698 252.107 682.978 252.56 680.951 252.56C679.831 252.56 678.764 252.4 677.751 252.08C676.738 251.787 675.831 251.36 675.031 250.8L672.751 252.52ZM680.631 250.68C681.778 250.68 682.751 250.373 683.551 249.76C684.378 249.12 685.004 248.147 685.431 246.84C685.858 245.507 686.071 243.8 686.071 241.72C686.071 239.8 685.884 238.24 685.511 237.04C685.138 235.813 684.578 234.907 683.831 234.32C683.111 233.733 682.191 233.44 681.071 233.44C680.031 233.44 679.111 233.667 678.311 234.12C677.538 234.547 676.938 235.173 676.511 236C676.111 236.827 675.911 237.84 675.911 239.04V248.84C676.498 249.373 677.191 249.813 677.991 250.16C678.818 250.507 679.698 250.68 680.631 250.68ZM710.078 252.56C708.345 252.56 706.972 252.08 705.958 251.12C704.945 250.133 704.438 248.813 704.438 247.16C704.438 245.72 704.798 244.56 705.518 243.68C706.238 242.8 707.425 242.133 709.078 241.68C710.758 241.2 713.012 240.893 715.838 240.76V237.16C715.838 236.067 715.692 235.187 715.398 234.52C715.132 233.853 714.692 233.36 714.078 233.04C713.492 232.72 712.718 232.56 711.758 232.56C710.985 232.56 710.212 232.68 709.438 232.92C708.692 233.16 708.132 233.467 707.758 233.84C708.105 234.32 708.385 234.733 708.598 235.08C708.812 235.427 708.958 235.72 709.038 235.96C709.118 236.2 709.158 236.4 709.158 236.56C709.158 237.067 708.945 237.507 708.518 237.88C708.118 238.227 707.572 238.4 706.878 238.4C706.132 238.4 705.558 238.213 705.158 237.84C704.758 237.467 704.558 236.933 704.558 236.24C704.558 235.333 704.905 234.48 705.598 233.68C706.318 232.88 707.265 232.24 708.438 231.76C709.638 231.28 710.932 231.04 712.318 231.04C714.052 231.04 715.478 231.307 716.598 231.84C717.745 232.347 718.598 233.147 719.158 234.24C719.718 235.307 719.998 236.667 719.998 238.32V248.24C719.998 248.907 720.145 249.387 720.438 249.68C720.758 249.973 721.185 250.12 721.718 250.12C722.012 250.12 722.305 250.093 722.598 250.04C722.918 249.96 723.265 249.853 723.638 249.72L723.958 250.8C723.398 251.387 722.772 251.827 722.078 252.12C721.385 252.413 720.705 252.56 720.038 252.56C718.838 252.56 717.918 252.253 717.278 251.64C716.665 251 716.292 250.08 716.158 248.88C715.678 249.733 715.145 250.427 714.558 250.96C713.972 251.493 713.305 251.893 712.558 252.16C711.838 252.427 711.012 252.56 710.078 252.56ZM711.838 250.16C712.612 250.16 713.292 249.987 713.878 249.64C714.492 249.267 714.972 248.773 715.318 248.16C715.665 247.52 715.838 246.8 715.838 246V242.28C714.185 242.28 712.825 242.44 711.758 242.76C710.692 243.053 709.905 243.52 709.398 244.16C708.918 244.8 708.678 245.64 708.678 246.68C708.678 247.773 708.958 248.627 709.518 249.24C710.078 249.853 710.852 250.16 711.838 250.16ZM735.647 252V250.6L737.527 250.28C737.953 250.2 738.233 250.04 738.367 249.8C738.5 249.533 738.567 249.053 738.567 248.36V235.88C738.567 234.947 738.487 234.32 738.327 234C738.167 233.653 737.793 233.453 737.207 233.4L735.287 233.2L735.487 231.76L741.767 231.32L742.127 231.6L742.407 235.36H742.487C743.153 233.973 744.007 232.907 745.047 232.16C746.087 231.413 747.207 231.04 748.407 231.04C749.687 231.04 750.7 231.387 751.447 232.08C752.193 232.747 752.567 233.64 752.567 234.76C752.567 235.427 752.46 236 752.247 236.48C752.06 236.933 751.753 237.293 751.327 237.56C750.927 237.8 750.42 237.92 749.807 237.92C749.007 237.92 748.393 237.747 747.967 237.4C747.567 237.053 747.367 236.613 747.367 236.08C747.367 235.84 747.407 235.6 747.487 235.36C747.567 235.12 747.687 234.84 747.847 234.52C748.007 234.2 748.207 233.84 748.447 233.44C747.833 233.2 747.18 233.173 746.487 233.36C745.82 233.547 745.193 233.92 744.607 234.48C744.047 235.013 743.58 235.693 743.207 236.52C742.86 237.32 742.687 238.187 742.687 239.12V248.44C742.687 249.08 742.753 249.52 742.887 249.76C743.02 249.973 743.3 250.107 743.727 250.16L747.047 250.6V252H735.647Z" fill="black" fill-opacity="0.25"/>
<g opacity="0.8">
<path d="M358.512 304.22C361.86 304.22 363.756 305.444 363.78 307.952L361.368 308.132C361.224 306.812 360.264 306.152 358.332 306.152C356.592 306.152 355.536 306.668 355.536 307.712C355.536 308.72 356.556 309.092 359.196 309.668C362.268 310.328 363.984 311.048 363.984 313.328C363.984 315.728 362.052 317.276 358.308 317.276C354.852 317.276 352.956 316.256 352.428 313.4L354.876 313.1C355.38 315.02 356.712 315.296 358.44 315.296C360.504 315.296 361.308 314.516 361.308 313.628C361.308 312.608 360.252 312.26 357.468 311.66C354.636 311.06 352.992 310.136 352.992 307.928C352.992 305.648 354.744 304.22 358.512 304.22ZM375.375 304.22C378.483 304.22 380.355 305.24 380.355 308.156V314.132C380.355 314.984 380.655 315.2 381.735 315.068V317C381.123 317.168 380.559 317.252 380.043 317.252C378.459 317.252 377.955 316.472 377.859 315.464H377.595C376.647 316.412 375.363 317.288 373.467 317.288C371.223 317.288 369.771 316.028 369.771 313.928C369.771 310.424 373.779 309.956 377.691 310.004V308.3C377.691 306.512 376.659 306.068 375.171 306.08C373.707 306.08 372.639 306.548 372.627 308L372.615 308.504H370.191V307.868C370.191 305.732 371.643 304.22 375.375 304.22ZM372.543 313.58C372.543 314.696 373.371 315.32 374.739 315.32C375.867 315.32 376.815 314.888 377.691 314.252V311.492C377.355 311.456 377.019 311.432 376.683 311.432C374.079 311.432 372.543 312.056 372.543 313.58ZM398.37 317H395.706V308.672C395.706 306.86 394.782 306.38 393.63 306.38C392.31 306.38 391.218 307.028 390.306 308V317H387.642V304.508H389.934L390.126 306.32H390.474C391.542 305.18 392.826 304.22 394.866 304.22C397.062 304.22 398.37 305.324 398.37 307.976V317ZM404.156 310.736C404.156 306.452 406.724 304.22 410.552 304.22C414.104 304.22 416.18 306.08 416.18 309.824V310.964H406.868C406.94 313.736 408.224 315.152 410.456 315.152C411.884 315.152 412.988 314.576 413.552 313.28L416.132 313.676C415.268 316.148 413.084 317.288 410.444 317.288C406.724 317.288 404.156 315.044 404.156 310.736ZM407 309.284H413.576C413.576 307.256 412.28 306.344 410.468 306.344C408.644 306.344 407.384 307.292 407 309.284ZM438.722 310.784C438.722 306.824 440.426 304.232 443.618 304.232C445.442 304.232 446.654 305.06 447.398 306.116H447.554V298.64H450.218V317H447.926L447.746 315.404H447.41C446.558 316.46 445.322 317.3 443.522 317.3C440.354 317.3 438.722 314.672 438.722 310.784ZM441.446 310.784C441.446 313.664 442.55 315.056 444.686 315.056C445.682 315.056 446.63 314.756 447.554 313.94V307.568C446.63 306.752 445.67 306.452 444.71 306.452C442.598 306.452 441.446 307.844 441.446 310.784ZM456.005 310.736C456.005 306.452 458.573 304.22 462.401 304.22C465.953 304.22 468.029 306.08 468.029 309.824V310.964H458.717C458.789 313.736 460.073 315.152 462.305 315.152C463.733 315.152 464.837 314.576 465.401 313.28L467.981 313.676C467.117 316.148 464.933 317.288 462.293 317.288C458.573 317.288 456.005 315.044 456.005 310.736ZM458.849 309.284H465.425C465.425 307.256 464.129 306.344 462.317 306.344C460.493 306.344 459.233 307.292 458.849 309.284ZM485.504 300.344C484.568 300.128 483.728 299.996 482.756 299.996C480.692 299.996 479.672 300.596 479.672 303.272V304.508H485.084V306.668H479.672V314.84H483.836V317H473.876V314.84H477.008V306.668H473.156V304.508H477.008V303.692C477.008 299.276 479.012 297.668 482.66 297.668C483.68 297.668 484.616 297.8 485.504 298.052V300.344ZM496.354 304.22C499.462 304.22 501.334 305.24 501.334 308.156V314.132C501.334 314.984 501.634 315.2 502.714 315.068V317C502.102 317.168 501.538 317.252 501.022 317.252C499.438 317.252 498.934 316.472 498.838 315.464H498.574C497.626 316.412 496.342 317.288 494.446 317.288C492.202 317.288 490.75 316.028 490.75 313.928C490.75 310.424 494.758 309.956 498.67 310.004V308.3C498.67 306.512 497.638 306.068 496.15 306.08C494.686 306.08 493.618 306.548 493.606 308L493.594 308.504H491.17V307.868C491.17 305.732 492.622 304.22 496.354 304.22ZM493.522 313.58C493.522 314.696 494.35 315.32 495.718 315.32C496.846 315.32 497.794 314.888 498.67 314.252V311.492C498.334 311.456 497.998 311.432 497.662 311.432C495.058 311.432 493.522 312.056 493.522 313.58ZM508.621 304.508H511.285V312.824C511.285 314.648 512.209 315.128 513.361 315.128C514.693 315.128 515.785 314.492 516.685 313.508V304.508H519.349V317H517.057L516.865 315.176H516.517C515.461 316.328 514.177 317.276 512.137 317.276C509.929 317.276 508.621 316.172 508.621 313.532V304.508ZM525.664 317V314.84H529.936L529.948 300.776H525.676V298.64L532.276 298.352L532.612 298.676L532.6 314.84H536.872V317H525.664ZM545.719 312.92V306.668H542.287V304.508H545.719V300.764H548.383V304.508H553.807V306.668H548.383V313.028C548.383 314.564 549.103 315.2 550.183 315.2C551.299 315.2 551.995 314.516 551.995 313.04V312.368H553.939V312.908C553.939 315.812 552.655 317.276 549.811 317.276C547.087 317.276 545.719 315.968 545.719 312.92ZM565.906 304.22C569.254 304.22 571.15 305.444 571.174 307.952L568.762 308.132C568.618 306.812 567.658 306.152 565.726 306.152C563.986 306.152 562.93 306.668 562.93 307.712C562.93 308.72 563.95 309.092 566.59 309.668C569.662 310.328 571.378 311.048 571.378 313.328C571.378 315.728 569.446 317.276 565.702 317.276C562.246 317.276 560.35 316.256 559.822 313.4L562.27 313.1C562.774 315.02 564.106 315.296 565.834 315.296C567.898 315.296 568.702 314.516 568.702 313.628C568.702 312.608 567.646 312.26 564.862 311.66C562.03 311.06 560.386 310.136 560.386 307.928C560.386 305.648 562.138 304.22 565.906 304.22Z" fill="#40A02B"/>
<path d="M589.452 311.396C588.132 311.396 587.064 310.52 587.064 309.08C587.064 307.628 588.132 306.776 589.452 306.776C590.76 306.776 591.816 307.628 591.816 309.08C591.816 310.52 590.76 311.396 589.452 311.396Z" fill="#BAC2DE"/>
<path d="M606.836 317V314.84H611.108V306.644H606.836V304.508L613.448 304.22L613.772 304.544V314.84H618.044V317H606.836ZM610.088 299.996C610.088 298.928 610.856 298.28 611.96 298.28C613.076 298.28 613.832 298.928 613.832 299.996C613.832 301.064 613.076 301.736 611.96 301.736C610.856 301.736 610.088 301.064 610.088 299.996ZM635.087 317H632.423V308.672C632.423 306.86 631.499 306.38 630.347 306.38C629.027 306.38 627.935 307.028 627.023 308V317H624.359V304.508H626.651L626.843 306.32H627.191C628.259 305.18 629.543 304.22 631.583 304.22C633.779 304.22 635.087 305.324 635.087 307.976V317ZM647.078 304.22C650.426 304.22 652.322 305.444 652.346 307.952L649.934 308.132C649.79 306.812 648.83 306.152 646.898 306.152C645.158 306.152 644.102 306.668 644.102 307.712C644.102 308.72 645.122 309.092 647.762 309.668C650.834 310.328 652.55 311.048 652.55 313.328C652.55 315.728 650.618 317.276 646.874 317.276C643.418 317.276 641.522 316.256 640.994 313.4L643.442 313.1C643.946 315.02 645.278 315.296 647.006 315.296C649.07 315.296 649.874 314.516 649.874 313.628C649.874 312.608 648.818 312.26 646.034 311.66C643.202 311.06 641.558 310.136 641.558 307.928C641.558 305.648 643.31 304.22 647.078 304.22ZM663.94 304.22C667.048 304.22 668.92 305.24 668.92 308.156V314.132C668.92 314.984 669.22 315.2 670.3 315.068V317C669.688 317.168 669.124 317.252 668.608 317.252C667.024 317.252 666.52 316.472 666.424 315.464H666.16C665.212 316.412 663.928 317.288 662.032 317.288C659.788 317.288 658.336 316.028 658.336 313.928C658.336 310.424 662.344 309.956 666.256 310.004V308.3C666.256 306.512 665.224 306.068 663.736 306.08C662.272 306.08 661.204 306.548 661.192 308L661.18 308.504H658.756V307.868C658.756 305.732 660.208 304.22 663.94 304.22ZM661.108 313.58C661.108 314.696 661.936 315.32 663.304 315.32C664.432 315.32 665.38 314.888 666.256 314.252V311.492C665.92 311.456 665.584 311.432 665.248 311.432C662.644 311.432 661.108 312.056 661.108 313.58ZM686.935 317H684.271V308.672C684.271 306.86 683.347 306.38 682.195 306.38C680.875 306.38 679.783 307.028 678.871 308V317H676.207V304.508H678.499L678.691 306.32H679.039C680.107 305.18 681.391 304.22 683.431 304.22C685.627 304.22 686.935 305.324 686.935 307.976V317ZM692.722 310.736C692.722 306.452 695.29 304.22 699.118 304.22C702.67 304.22 704.746 306.08 704.746 309.824V310.964H695.434C695.506 313.736 696.79 315.152 699.022 315.152C700.45 315.152 701.554 314.576 702.118 313.28L704.698 313.676C703.834 316.148 701.65 317.288 699.01 317.288C695.29 317.288 692.722 315.044 692.722 310.736ZM695.566 309.284H702.142C702.142 307.256 700.846 306.344 699.034 306.344C697.21 306.344 695.95 307.292 695.566 309.284ZM739.396 313.136C738.688 316.028 736.312 317.288 733.528 317.288C729.796 317.288 727.288 315.044 727.288 310.736C727.288 306.308 729.964 304.22 733.66 304.22C736.768 304.22 739.096 305.66 739.396 308.708L736.792 308.936C736.516 307.184 735.304 306.344 733.588 306.344C731.236 306.344 730.012 307.892 730.012 310.736C730.012 313.724 731.356 315.152 733.552 315.152C735.256 315.152 736.36 314.3 736.828 312.764L739.396 313.136ZM745.338 304.508H748.002V312.824C748.002 314.648 748.926 315.128 750.078 315.128C751.41 315.128 752.502 314.492 753.402 313.508V304.508H756.066V317H753.774L753.582 315.176H753.234C752.178 316.328 750.894 317.276 748.854 317.276C746.646 317.276 745.338 316.172 745.338 313.532V304.508ZM768.057 304.22C771.405 304.22 773.301 305.444 773.325 307.952L770.913 308.132C770.769 306.812 769.809 306.152 767.877 306.152C766.137 306.152 765.081 306.668 765.081 307.712C765.081 308.72 766.101 309.092 768.741 309.668C771.813 310.328 773.529 311.048 773.529 313.328C773.529 315.728 771.597 317.276 767.853 317.276C764.397 317.276 762.501 316.256 761.973 313.4L764.421 313.1C764.925 315.02 766.257 315.296 767.985 315.296C770.049 315.296 770.853 314.516 770.853 313.628C770.853 312.608 769.797 312.26 767.013 311.66C764.181 311.06 762.537 310.136 762.537 307.928C762.537 305.648 764.289 304.22 768.057 304.22ZM782.436 312.92V306.668H779.004V304.508H782.436V300.764H785.1V304.508H790.524V306.668H785.1V313.028C785.1 314.564 785.82 315.2 786.9 315.2C788.016 315.2 788.712 314.516 788.712 313.04V312.368H790.656V312.908C790.656 315.812 789.372 317.276 786.528 317.276C783.804 317.276 782.436 315.968 782.436 312.92ZM808.683 310.784C808.683 315.224 805.923 317.288 802.551 317.288C799.191 317.288 796.419 315.224 796.419 310.784C796.419 306.344 799.191 304.22 802.551 304.22C805.923 304.22 808.683 306.344 808.683 310.784ZM799.131 310.784C799.131 313.892 800.559 315.152 802.551 315.152C804.555 315.152 805.971 313.892 805.971 310.784C805.971 307.664 804.555 306.344 802.551 306.344C800.559 306.344 799.131 307.664 799.131 310.784ZM822.042 317H819.594V307.868C819.594 306.764 819.006 306.452 818.358 306.452C817.578 306.452 816.942 306.92 816.462 307.568V317H814.026V304.508H816.102L816.282 306.368H816.486C817.074 305.144 818.154 304.232 819.618 304.232C820.938 304.232 821.802 304.916 821.994 306.368H822.102C822.678 305.144 823.722 304.232 825.186 304.232C826.698 304.232 827.61 305.12 827.61 307.028L827.622 317H825.174V307.868C825.174 306.764 824.586 306.452 823.926 306.452C823.146 306.452 822.51 306.908 822.03 307.544L822.042 317ZM833.613 317V314.84H836.841V306.644H833.613V304.508L839.169 304.22L839.505 304.544V314.84H842.721V317H833.613ZM835.833 300.068C835.833 299 836.601 298.352 837.705 298.352C838.821 298.352 839.577 299 839.577 300.068C839.577 301.136 838.821 301.808 837.705 301.808C836.601 301.808 835.833 301.136 835.833 300.068ZM848.915 304.508H859.463V306.092L852.539 314.84H859.895V317H848.915V315.404L855.827 306.668H848.915V304.508ZM871.334 304.22C874.442 304.22 876.314 305.24 876.314 308.156V314.132C876.314 314.984 876.614 315.2 877.694 315.068V317C877.082 317.168 876.518 317.252 876.002 317.252C874.418 317.252 873.914 316.472 873.818 315.464H873.554C872.606 316.412 871.322 317.288 869.426 317.288C867.182 317.288 865.73 316.028 865.73 313.928C865.73 310.424 869.738 309.956 873.65 310.004V308.3C873.65 306.512 872.618 306.068 871.13 306.08C869.666 306.08 868.598 306.548 868.586 308L868.574 308.504H866.15V307.868C866.15 305.732 867.602 304.22 871.334 304.22ZM868.502 313.58C868.502 314.696 869.33 315.32 870.698 315.32C871.826 315.32 872.774 314.888 873.65 314.252V311.492C873.314 311.456 872.978 311.432 872.642 311.432C870.038 311.432 868.502 312.056 868.502 313.58ZM886.133 312.92V306.668H882.701V304.508H886.133V300.764H888.797V304.508H894.221V306.668H888.797V313.028C888.797 314.564 889.517 315.2 890.597 315.2C891.713 315.2 892.409 314.516 892.409 313.04V312.368H894.353V312.908C894.353 315.812 893.069 317.276 890.225 317.276C887.501 317.276 886.133 315.968 886.133 312.92ZM900.644 317V314.84H904.916V306.644H900.644V304.508L907.256 304.22L907.58 304.544V314.84H911.852V317H900.644ZM903.896 299.996C903.896 298.928 904.664 298.28 905.768 298.28C906.884 298.28 907.64 298.928 907.64 299.996C907.64 301.064 906.884 301.736 905.768 301.736C904.664 301.736 903.896 301.064 903.896 299.996ZM929.663 310.784C929.663 315.224 926.903 317.288 923.531 317.288C920.171 317.288 917.399 315.224 917.399 310.784C917.399 306.344 920.171 304.22 923.531 304.22C926.903 304.22 929.663 306.344 929.663 310.784ZM920.111 310.784C920.111 313.892 921.539 315.152 923.531 315.152C925.535 315.152 926.951 313.892 926.951 310.784C926.951 307.664 925.535 306.344 923.531 306.344C921.539 306.344 920.111 307.664 920.111 310.784ZM946.177 317H943.513V308.672C943.513 306.86 942.589 306.38 941.437 306.38C940.117 306.38 939.025 307.028 938.113 308V317H935.449V304.508H937.741L937.933 306.32H938.281C939.349 305.18 940.633 304.22 942.673 304.22C944.869 304.22 946.177 305.324 946.177 307.976V317Z" fill="#179299"/>
</g>
</svg>
