<svg width="180" height="180" viewBox="0 0 180 180" fill="none" xmlns="http://www.w3.org/2000/svg">
<path d="M31.0455 118.705V60.5227H44.5V64.9773H36.1364V114.25H44.5V118.705H31.0455Z" fill="#32C572"/>
<path d="M71.02 104.25V101.018L75.34 99.258V80.666C75.34 76.602 73.228 75.194 70.412 75.194C68.204 75.194 65.196 75.898 61.772 77.786V99.322L65.996 101.018V104.25H51.5V101.018L55.82 99.258V77.338L50.22 76.474V72.922L60.588 70.522L61.42 70.874V74.554C65.612 71.898 69.452 70.362 73.196 70.362C78.668 70.362 81.292 73.466 81.292 79.418V99.322L85.516 101.018V104.25H71.02Z" fill="#E6EBF9"/>
<path d="M103.136 60.5227V118.705H89.6818V114.25H98.0455V64.9773H89.6818V60.5227H103.136Z" fill="#32C572"/>
<path d="M124.227 50.7046V127.25H119.682V50.7046H124.227Z" fill="#E6EBF9"/>
<path d="M148.136 60.5227V118.705H134.682V114.25H143.045V64.9773H134.682V60.5227H148.136Z" fill="#32C572"/>
</svg>
