<svg width="1300" height="350" viewBox="0 0 1300 350" fill="none" xmlns="http://www.w3.org/2000/svg">
<path d="M585.364 114.705V111.886C587.894 111.886 589.659 111.356 590.659 110.295C591.674 109.235 592.182 107.462 592.182 104.977V97.7045C592.182 95.6136 592.379 93.803 592.773 92.2727C593.182 90.7424 593.841 89.4773 594.75 88.4773C595.659 87.4773 596.871 86.7348 598.386 86.25C599.902 85.7651 601.773 85.5227 604 85.5227V89.9773C602.242 89.9773 600.856 90.25 599.841 90.7955C598.841 91.3409 598.129 92.1894 597.705 93.3409C597.295 94.4773 597.091 95.9318 597.091 97.7045V106.795C597.091 107.977 596.932 109.053 596.614 110.023C596.311 110.992 595.742 111.826 594.909 112.523C594.076 113.22 592.886 113.758 591.341 114.136C589.811 114.515 587.818 114.705 585.364 114.705ZM604 143.705C601.773 143.705 599.902 143.462 598.386 142.977C596.871 142.492 595.659 141.75 594.75 140.75C593.841 139.75 593.182 138.485 592.773 136.955C592.379 135.424 592.182 133.614 592.182 131.523V124.25C592.182 121.765 591.674 119.992 590.659 118.932C589.659 117.871 587.894 117.341 585.364 117.341V114.523C587.818 114.523 589.811 114.712 591.341 115.091C592.886 115.47 594.076 116.008 594.909 116.705C595.742 117.402 596.311 118.235 596.614 119.205C596.932 120.174 597.091 121.25 597.091 122.432V131.523C597.091 133.295 597.295 134.75 597.705 135.886C598.129 137.023 598.841 137.864 599.841 138.409C600.856 138.97 602.242 139.25 604 139.25V143.705ZM585.364 117.341V111.886H590.727V117.341H585.364Z" fill="#E6EBF9"/>
<path d="M613.733 143.705V85.5227H627.188V89.9773H618.824V139.25H627.188V143.705H613.733Z" fill="#32C572"/>
<path d="M653.52 129.25V126.018L657.84 124.258V105.666C657.84 101.602 655.728 100.194 652.912 100.194C650.704 100.194 647.696 100.898 644.272 102.786V124.322L648.496 126.018V129.25H634V126.018L638.32 124.258V102.338L632.72 101.474V97.922L643.088 95.522L643.92 95.874V99.554C648.112 96.898 651.952 95.362 655.696 95.362C661.168 95.362 663.792 98.466 663.792 104.418V124.322L668.016 126.018V129.25H653.52Z" fill="#E6EBF9"/>
<path d="M685.636 85.5227V143.705H672.182V139.25H680.545V89.9773H672.182V85.5227H685.636Z" fill="#32C572"/>
<path d="M714.006 114.523V117.341C711.475 117.341 709.703 117.871 708.688 118.932C707.688 119.992 707.188 121.765 707.188 124.25V131.523C707.188 133.614 706.983 135.424 706.574 136.955C706.18 138.485 705.528 139.75 704.619 140.75C703.71 141.75 702.498 142.492 700.983 142.977C699.468 143.462 697.597 143.705 695.369 143.705V139.25C697.127 139.25 698.506 138.97 699.506 138.409C700.521 137.864 701.233 137.023 701.642 135.886C702.066 134.75 702.278 133.295 702.278 131.523V122.432C702.278 121.25 702.43 120.174 702.733 119.205C703.051 118.235 703.627 117.402 704.46 116.705C705.294 116.008 706.475 115.47 708.006 115.091C709.551 114.712 711.551 114.523 714.006 114.523ZM695.369 85.5227C697.597 85.5227 699.468 85.7651 700.983 86.25C702.498 86.7348 703.71 87.4773 704.619 88.4773C705.528 89.4773 706.18 90.7424 706.574 92.2727C706.983 93.803 707.188 95.6136 707.188 97.7045V104.977C707.188 107.462 707.688 109.235 708.688 110.295C709.703 111.356 711.475 111.886 714.006 111.886V114.705C711.551 114.705 709.551 114.515 708.006 114.136C706.475 113.758 705.294 113.22 704.46 112.523C703.627 111.826 703.051 110.992 702.733 110.023C702.43 109.053 702.278 107.977 702.278 106.795V97.7045C702.278 95.9318 702.066 94.4773 701.642 93.3409C701.233 92.1894 700.521 91.3409 699.506 90.7955C698.506 90.25 697.127 89.9773 695.369 89.9773V85.5227ZM714.006 111.886V117.341H708.642V111.886H714.006Z" fill="#E6EBF9"/>
<path d="M649 58.1816L651.818 58.1816C651.818 60.7119 652.348 62.4847 653.409 63.4998C654.47 64.4998 656.242 64.9998 658.727 64.9998H666C668.091 64.9998 669.902 65.2044 671.432 65.6135C672.962 66.0074 674.227 66.6589 675.227 67.568C676.227 68.4771 676.97 69.6892 677.455 71.2044C677.939 72.7195 678.182 74.5907 678.182 76.818H673.727C673.727 75.0604 673.447 73.6816 672.886 72.6816C672.341 71.6665 671.5 70.9544 670.364 70.5453C669.227 70.121 667.773 69.9089 666 69.9089L656.909 69.9089C655.727 69.9089 654.652 69.7574 653.682 69.4544C652.712 69.1362 651.879 68.5604 651.182 67.7271C650.485 66.8938 649.947 65.7119 649.568 64.1816C649.189 62.6362 649 60.6362 649 58.1816ZM620 76.818C620 74.5907 620.242 72.7195 620.727 71.2044C621.212 69.6892 621.955 68.4771 622.955 67.568C623.955 66.6589 625.22 66.0074 626.75 65.6135C628.28 65.2044 630.091 64.9998 632.182 64.9998L639.455 64.9998C641.939 64.9998 643.712 64.4998 644.773 63.4998C645.833 62.4847 646.364 60.7119 646.364 58.1816L649.182 58.1816C649.182 60.6362 648.992 62.6362 648.614 64.1816C648.235 65.7119 647.697 66.8938 647 67.7271C646.303 68.5604 645.47 69.1362 644.5 69.4544C643.53 69.7574 642.455 69.9089 641.273 69.9089L632.182 69.9089C630.409 69.9089 628.955 70.121 627.818 70.5453C626.667 70.9544 625.818 71.6665 625.273 72.6816C624.727 73.6816 624.455 75.0604 624.455 76.818H620ZM646.364 58.1816L651.818 58.1816V63.5453L646.364 63.5453V58.1816Z" fill="#E6EBF9"/>
<path d="M650.182 171.818L647.364 171.818C647.364 169.288 646.833 167.515 645.773 166.5C644.712 165.5 642.939 165 640.455 165L633.182 165C631.091 165 629.28 164.795 627.75 164.386C626.22 163.992 624.955 163.341 623.955 162.432C622.955 161.523 622.212 160.31 621.727 158.795C621.242 157.28 621 155.409 621 153.182L625.455 153.182C625.455 154.939 625.735 156.318 626.295 157.318C626.841 158.333 627.682 159.045 628.818 159.454C629.955 159.879 631.409 160.091 633.182 160.091H642.273C643.455 160.091 644.53 160.242 645.5 160.545C646.47 160.863 647.303 161.439 648 162.273C648.697 163.106 649.235 164.288 649.614 165.818C649.992 167.363 650.182 169.363 650.182 171.818ZM679.182 153.182C679.182 155.409 678.939 157.28 678.455 158.795C677.97 160.31 677.227 161.523 676.227 162.432C675.227 163.341 673.962 163.992 672.432 164.386C670.902 164.795 669.091 165 667 165H659.727C657.242 165 655.47 165.5 654.409 166.5C653.348 167.515 652.818 169.288 652.818 171.818H650C650 169.363 650.189 167.363 650.568 165.818C650.947 164.288 651.485 163.106 652.182 162.273C652.879 161.439 653.712 160.863 654.682 160.545C655.652 160.242 656.727 160.091 657.909 160.091L667 160.091C668.773 160.091 670.227 159.879 671.364 159.454C672.515 159.045 673.364 158.333 673.909 157.318C674.455 156.318 674.727 154.939 674.727 153.182L679.182 153.182ZM652.818 171.818L647.364 171.818V166.454H652.818V171.818Z" fill="#E6EBF9"/>
<path d="M553.42 252V250.6L555.3 250.32C555.727 250.24 556.007 250.08 556.14 249.84C556.273 249.573 556.34 249.093 556.34 248.4V235.84C556.34 234.907 556.26 234.28 556.1 233.96C555.94 233.64 555.567 233.453 554.98 233.4L553.06 233.16L553.26 231.76L559.62 231.32L559.98 231.6L560.14 235.32H560.22C560.887 233.96 561.847 232.907 563.1 232.16C564.353 231.413 565.7 231.04 567.14 231.04C568.553 231.04 569.74 231.307 570.7 231.84C571.66 232.347 572.38 233.12 572.86 234.16C573.34 235.173 573.58 236.427 573.58 237.92V248.68C573.58 249.293 573.66 249.707 573.82 249.92C573.98 250.133 574.313 250.28 574.82 250.36L576.62 250.6V252H566.58V250.64L568.26 250.4C568.767 250.293 569.087 250.133 569.22 249.92C569.38 249.707 569.46 249.307 569.46 248.72V238.56C569.46 237.307 569.34 236.32 569.1 235.6C568.86 234.853 568.46 234.32 567.9 234C567.367 233.68 566.62 233.52 565.66 233.52C564.647 233.52 563.74 233.747 562.94 234.2C562.167 234.627 561.553 235.253 561.1 236.08C560.673 236.88 560.46 237.84 560.46 238.96V248.56C560.46 249.147 560.527 249.56 560.66 249.8C560.793 250.04 561.06 250.2 561.46 250.28L563.46 250.64V252H553.42ZM599.156 252.56C597.156 252.56 595.409 252.147 593.916 251.32C592.449 250.467 591.316 249.28 590.516 247.76C589.716 246.213 589.316 244.373 589.316 242.24C589.316 239.893 589.742 237.893 590.596 236.24C591.449 234.56 592.649 233.28 594.196 232.4C595.769 231.493 597.609 231.04 599.716 231.04C601.662 231.04 603.356 231.453 604.796 232.28C606.236 233.08 607.342 234.253 608.116 235.8C608.916 237.32 609.316 239.147 609.316 241.28C609.316 243.573 608.889 245.573 608.036 247.28C607.209 248.96 606.036 250.267 604.516 251.2C602.996 252.107 601.209 252.56 599.156 252.56ZM599.756 250.72C600.849 250.72 601.769 250.413 602.516 249.8C603.289 249.187 603.862 248.253 604.236 247C604.609 245.747 604.796 244.147 604.796 242.2C604.796 240.653 604.662 239.293 604.396 238.12C604.156 236.92 603.782 235.933 603.276 235.16C602.769 234.387 602.156 233.813 601.436 233.44C600.742 233.04 599.942 232.84 599.036 232.84C597.916 232.84 596.969 233.133 596.196 233.72C595.422 234.28 594.822 235.173 594.396 236.4C593.996 237.6 593.796 239.147 593.796 241.04C593.796 243.2 594.036 245 594.516 246.44C595.022 247.853 595.716 248.92 596.596 249.64C597.476 250.36 598.529 250.72 599.756 250.72ZM622.639 252V250.6L624.519 250.28C624.945 250.2 625.225 250.04 625.359 249.8C625.492 249.533 625.559 249.053 625.559 248.36V235.88C625.559 234.947 625.479 234.32 625.319 234C625.159 233.653 624.785 233.453 624.199 233.4L622.279 233.2L622.479 231.76L628.759 231.32L629.119 231.6L629.399 235.36H629.479C630.145 233.973 630.999 232.907 632.039 232.16C633.079 231.413 634.199 231.04 635.399 231.04C636.679 231.04 637.692 231.387 638.439 232.08C639.185 232.747 639.559 233.64 639.559 234.76C639.559 235.427 639.452 236 639.239 236.48C639.052 236.933 638.745 237.293 638.319 237.56C637.919 237.8 637.412 237.92 636.799 237.92C635.999 237.92 635.385 237.747 634.959 237.4C634.559 237.053 634.359 236.613 634.359 236.08C634.359 235.84 634.399 235.6 634.479 235.36C634.559 235.12 634.679 234.84 634.839 234.52C634.999 234.2 635.199 233.84 635.439 233.44C634.825 233.2 634.172 233.173 633.479 233.36C632.812 233.547 632.185 233.92 631.599 234.48C631.039 235.013 630.572 235.693 630.199 236.52C629.852 237.32 629.679 238.187 629.679 239.12V248.44C629.679 249.08 629.745 249.52 629.879 249.76C630.012 249.973 630.292 250.107 630.719 250.16L634.039 250.6V252H622.639ZM651.576 252V250.56L653.736 250.24C654.216 250.187 654.522 250.027 654.656 249.76C654.789 249.493 654.856 249 654.856 248.28V235.96C654.856 235 654.776 234.36 654.616 234.04C654.456 233.72 654.069 233.52 653.456 233.44L651.576 233.24L651.736 231.76L658.616 231.44L659.016 231.64V248.44C659.016 249 659.082 249.427 659.216 249.72C659.349 249.987 659.669 250.16 660.176 250.24L662.336 250.6V252H651.576ZM656.376 227.28C655.549 227.28 654.869 227.027 654.336 226.52C653.802 226.013 653.536 225.347 653.536 224.52C653.536 223.72 653.802 223.067 654.336 222.56C654.869 222.027 655.549 221.76 656.376 221.76C657.256 221.76 657.949 222.013 658.456 222.52C658.989 223.027 659.256 223.693 659.256 224.52C659.256 225.32 658.989 225.987 658.456 226.52C657.922 227.027 657.229 227.28 656.376 227.28ZM675.895 252.56L675.295 245.48L676.975 245.36C677.348 246.64 677.828 247.68 678.415 248.48C679.002 249.253 679.668 249.827 680.415 250.2C681.188 250.547 682.028 250.72 682.935 250.72C684.215 250.72 685.202 250.4 685.895 249.76C686.615 249.093 686.975 248.2 686.975 247.08C686.975 246.387 686.788 245.827 686.415 245.4C686.068 244.947 685.535 244.573 684.815 244.28C684.122 243.96 683.202 243.64 682.055 243.32C681.122 243.053 680.255 242.76 679.455 242.44C678.655 242.093 677.975 241.693 677.415 241.24C676.855 240.76 676.428 240.2 676.135 239.56C675.842 238.893 675.695 238.08 675.695 237.12C675.695 235.92 675.975 234.867 676.535 233.96C677.095 233.027 677.895 232.307 678.935 231.8C679.975 231.293 681.202 231.04 682.615 231.04C683.628 231.04 684.535 231.187 685.335 231.48C686.162 231.773 686.815 232.107 687.295 232.48L687.735 231.04H689.055L689.535 237.52L687.855 237.4C687.455 235.933 686.815 234.787 685.935 233.96C685.082 233.107 684.002 232.68 682.695 232.68C681.522 232.68 680.602 232.947 679.935 233.48C679.295 234.013 678.975 234.787 678.975 235.8C678.975 236.493 679.148 237.067 679.495 237.52C679.842 237.947 680.375 238.32 681.095 238.64C681.815 238.933 682.695 239.227 683.735 239.52C684.748 239.813 685.655 240.147 686.455 240.52C687.282 240.867 687.975 241.28 688.535 241.76C689.122 242.213 689.562 242.787 689.855 243.48C690.148 244.147 690.295 244.947 690.295 245.88C690.295 247.213 689.975 248.387 689.335 249.4C688.722 250.387 687.868 251.16 686.775 251.72C685.682 252.28 684.388 252.56 682.895 252.56C681.855 252.56 680.882 252.427 679.975 252.16C679.095 251.893 678.322 251.507 677.655 251L677.175 252.56H675.895ZM712.897 252.56C710.977 252.56 709.297 252.147 707.857 251.32C706.444 250.493 705.351 249.307 704.577 247.76C703.804 246.187 703.417 244.32 703.417 242.16C703.417 239.84 703.831 237.853 704.657 236.2C705.484 234.52 706.644 233.24 708.137 232.36C709.631 231.48 711.364 231.04 713.337 231.04C714.831 231.04 716.137 231.333 717.257 231.92C718.377 232.507 719.244 233.347 719.857 234.44C720.497 235.507 720.817 236.773 720.817 238.24C720.817 238.747 720.777 239.267 720.697 239.8C720.644 240.333 720.564 240.893 720.457 241.48H707.857C707.857 243.24 708.111 244.72 708.617 245.92C709.151 247.093 709.884 247.987 710.817 248.6C711.751 249.187 712.844 249.48 714.097 249.48C715.191 249.48 716.217 249.28 717.177 248.88C718.164 248.48 719.111 247.853 720.017 247L721.057 248C720.071 249.52 718.871 250.667 717.457 251.44C716.071 252.187 714.551 252.56 712.897 252.56ZM707.857 239.8H716.577C716.604 239.533 716.617 239.24 716.617 238.92C716.644 238.6 716.657 238.267 716.657 237.92C716.657 236.053 716.351 234.707 715.737 233.88C715.124 233.053 714.191 232.64 712.937 232.64C711.951 232.64 711.097 232.893 710.377 233.4C709.684 233.907 709.124 234.693 708.697 235.76C708.271 236.8 707.991 238.147 707.857 239.8ZM741.57 252.56C740.423 252.56 739.45 252.36 738.65 251.96C737.876 251.533 737.29 250.88 736.89 250C736.49 249.12 736.29 247.987 736.29 246.6V233.44H733.29V231.96C734.276 231.853 735.076 231.573 735.69 231.12C736.33 230.667 736.823 229.96 737.17 229C737.516 228.04 737.743 226.773 737.85 225.2L740.01 224.92L740.45 225.16V231.6H746.45V233.44H740.45V246.2C740.45 247.373 740.65 248.253 741.05 248.84C741.476 249.4 742.183 249.68 743.17 249.68C743.836 249.68 744.476 249.56 745.09 249.32C745.73 249.08 746.343 248.72 746.93 248.24L747.65 249.32C746.823 250.36 745.903 251.16 744.89 251.72C743.903 252.28 742.796 252.56 741.57 252.56Z" fill="#BAC2DE"/>
<g opacity="0.8">
<path d="M358.488 304.388C361.74 304.388 363.612 305.564 363.708 308.06L361.644 308.204C361.488 306.8 360.408 306.08 358.332 306.08C356.46 306.08 355.284 306.632 355.284 307.796C355.284 308.852 356.28 309.284 359.028 309.848C362.316 310.52 363.852 311.276 363.852 313.424C363.852 315.74 362.016 317.276 358.392 317.276C354.984 317.276 353.04 316.304 352.488 313.424L354.576 313.16C355.152 315.32 356.724 315.524 358.5 315.524C360.708 315.524 361.584 314.648 361.584 313.676C361.584 312.596 360.552 312.212 357.624 311.612C354.66 311 353.112 310.112 353.112 308C353.112 305.804 354.78 304.388 358.488 304.388ZM375.435 304.388C378.447 304.388 380.211 305.384 380.211 308.288V314.396C380.211 315.284 380.547 315.512 381.675 315.344V317C381.111 317.168 380.595 317.24 380.139 317.24C378.651 317.24 378.159 316.448 378.075 315.464H377.859C376.863 316.364 375.603 317.288 373.611 317.288C371.331 317.288 369.879 316.064 369.879 313.964C369.879 310.52 373.755 310.076 377.943 310.1V308.42C377.943 306.44 376.827 305.996 375.195 306.008C373.635 306.02 372.447 306.464 372.423 308.108V308.636H370.299V307.988C370.299 305.876 371.751 304.388 375.435 304.388ZM372.255 313.688C372.255 314.912 373.143 315.572 374.631 315.572C375.927 315.572 376.935 315.068 377.943 314.336V311.432C377.559 311.396 377.163 311.372 376.803 311.372C373.971 311.372 372.255 311.996 372.255 313.688ZM398.178 317H395.91V308.78C395.91 306.776 394.866 306.248 393.618 306.248C392.178 306.248 391.026 306.956 390.102 308.024V317H387.834V304.676H389.754L389.958 306.44H390.258C391.23 305.396 392.514 304.388 394.602 304.388C396.798 304.388 398.178 305.504 398.178 308.18V317ZM404.276 310.82C404.276 306.656 406.76 304.388 410.552 304.388C414.044 304.388 416.084 306.212 416.084 309.836V310.916H406.604C406.64 313.916 408.068 315.428 410.48 315.428C412.052 315.428 413.24 314.792 413.828 313.388L416.036 313.76C415.196 316.064 413.18 317.288 410.468 317.288C406.784 317.288 404.276 315.056 404.276 310.82ZM406.724 309.404H413.864C413.852 307.208 412.412 306.248 410.48 306.248C408.464 306.248 407.12 307.316 406.724 309.404ZM438.842 310.868C438.842 306.848 440.666 304.388 443.774 304.388C445.586 304.388 446.81 305.216 447.602 306.308H447.758V298.64H450.026V317H448.106L447.926 315.38H447.614C446.726 316.472 445.466 317.3 443.678 317.3C440.558 317.3 438.842 314.78 438.842 310.868ZM441.182 310.868C441.182 313.844 442.37 315.368 444.602 315.368C445.706 315.368 446.726 314.984 447.758 313.952V307.712C446.75 306.68 445.718 306.308 444.638 306.308C442.442 306.308 441.182 307.796 441.182 310.868ZM456.125 310.82C456.125 306.656 458.609 304.388 462.401 304.388C465.893 304.388 467.933 306.212 467.933 309.836V310.916H458.453C458.489 313.916 459.917 315.428 462.329 315.428C463.901 315.428 465.089 314.792 465.677 313.388L467.885 313.76C467.045 316.064 465.029 317.288 462.317 317.288C458.633 317.288 456.125 315.056 456.125 310.82ZM458.573 309.404H465.713C465.701 307.208 464.261 306.248 462.329 306.248C460.313 306.248 458.969 307.316 458.573 309.404ZM485.432 300.092C484.508 299.876 483.68 299.744 482.684 299.744C480.596 299.744 479.384 300.32 479.384 303.284V304.676H484.988V306.512H479.384V315.164H483.752V317H473.852V315.164H477.116V306.512H473.156V304.676H477.116V303.488C477.116 299.216 479.192 297.728 482.624 297.728C483.596 297.728 484.532 297.848 485.432 298.112V300.092ZM496.414 304.388C499.426 304.388 501.19 305.384 501.19 308.288V314.396C501.19 315.284 501.526 315.512 502.654 315.344V317C502.09 317.168 501.574 317.24 501.118 317.24C499.63 317.24 499.138 316.448 499.054 315.464H498.838C497.842 316.364 496.582 317.288 494.59 317.288C492.31 317.288 490.858 316.064 490.858 313.964C490.858 310.52 494.734 310.076 498.922 310.1V308.42C498.922 306.44 497.806 305.996 496.174 306.008C494.614 306.02 493.426 306.464 493.402 308.108V308.636H491.278V307.988C491.278 305.876 492.73 304.388 496.414 304.388ZM493.234 313.688C493.234 314.912 494.122 315.572 495.61 315.572C496.906 315.572 497.914 315.068 498.922 314.336V311.432C498.538 311.396 498.142 311.372 497.782 311.372C494.95 311.372 493.234 311.996 493.234 313.688ZM508.813 304.676H511.081V312.884C511.081 314.9 512.125 315.416 513.373 315.416C514.813 315.416 515.965 314.72 516.889 313.652V304.676H519.157V317H517.237L517.033 315.236H516.733C515.761 316.268 514.477 317.276 512.389 317.276C510.193 317.276 508.813 316.16 508.813 313.496V304.676ZM525.76 317V315.164H530.128L530.14 300.44H525.76V298.64L532.108 298.376L532.408 298.652V315.164H536.776V317H525.76ZM545.863 312.884V306.512H542.287V304.676H545.863V300.812H548.143V304.676H553.807V306.512H548.143V313.028C548.143 314.732 548.887 315.488 550.147 315.488C551.467 315.488 552.175 314.66 552.175 313.028V312.428H553.891V312.872C553.891 315.752 552.727 317.276 549.871 317.276C547.207 317.276 545.863 315.968 545.863 312.884ZM565.882 304.388C569.134 304.388 571.006 305.564 571.102 308.06L569.038 308.204C568.882 306.8 567.802 306.08 565.726 306.08C563.854 306.08 562.678 306.632 562.678 307.796C562.678 308.852 563.674 309.284 566.422 309.848C569.71 310.52 571.246 311.276 571.246 313.424C571.246 315.74 569.41 317.276 565.786 317.276C562.378 317.276 560.434 316.304 559.882 313.424L561.97 313.16C562.546 315.32 564.118 315.524 565.894 315.524C568.102 315.524 568.978 314.648 568.978 313.676C568.978 312.596 567.946 312.212 565.018 311.612C562.054 311 560.506 310.112 560.506 308C560.506 305.804 562.174 304.388 565.882 304.388Z" fill="#A6E3A1"/>
<path d="M589.452 311.396C588.132 311.396 587.064 310.52 587.064 309.08C587.064 307.628 588.132 306.776 589.452 306.776C590.76 306.776 591.816 307.628 591.816 309.08C591.816 310.52 590.76 311.396 589.452 311.396Z" fill="#BAC2DE"/>
<path d="M606.932 317V315.164H611.3V306.476H606.932V304.676L613.28 304.4L613.58 304.688V315.164H617.948V317H606.932ZM610.316 300.02C610.316 299.06 611 298.484 611.996 298.484C612.98 298.484 613.664 299.06 613.664 300.02C613.664 300.98 612.98 301.568 611.996 301.568C611 301.568 610.316 300.98 610.316 300.02ZM634.895 317H632.627V308.78C632.627 306.776 631.583 306.248 630.335 306.248C628.895 306.248 627.743 306.956 626.819 308.024V317H624.551V304.676H626.471L626.675 306.44H626.975C627.947 305.396 629.231 304.388 631.319 304.388C633.515 304.388 634.895 305.504 634.895 308.18V317ZM647.054 304.388C650.306 304.388 652.178 305.564 652.274 308.06L650.21 308.204C650.054 306.8 648.974 306.08 646.898 306.08C645.026 306.08 643.85 306.632 643.85 307.796C643.85 308.852 644.846 309.284 647.594 309.848C650.882 310.52 652.418 311.276 652.418 313.424C652.418 315.74 650.582 317.276 646.958 317.276C643.55 317.276 641.606 316.304 641.054 313.424L643.142 313.16C643.718 315.32 645.29 315.524 647.066 315.524C649.274 315.524 650.15 314.648 650.15 313.676C650.15 312.596 649.118 312.212 646.19 311.612C643.226 311 641.678 310.112 641.678 308C641.678 305.804 643.346 304.388 647.054 304.388ZM664 304.388C667.012 304.388 668.776 305.384 668.776 308.288V314.396C668.776 315.284 669.112 315.512 670.24 315.344V317C669.676 317.168 669.16 317.24 668.704 317.24C667.216 317.24 666.724 316.448 666.64 315.464H666.424C665.428 316.364 664.168 317.288 662.176 317.288C659.896 317.288 658.444 316.064 658.444 313.964C658.444 310.52 662.32 310.076 666.508 310.1V308.42C666.508 306.44 665.392 305.996 663.76 306.008C662.2 306.02 661.012 306.464 660.988 308.108V308.636H658.864V307.988C658.864 305.876 660.316 304.388 664 304.388ZM660.82 313.688C660.82 314.912 661.708 315.572 663.196 315.572C664.492 315.572 665.5 315.068 666.508 314.336V311.432C666.124 311.396 665.728 311.372 665.368 311.372C662.536 311.372 660.82 311.996 660.82 313.688ZM686.743 317H684.475V308.78C684.475 306.776 683.431 306.248 682.183 306.248C680.743 306.248 679.591 306.956 678.667 308.024V317H676.399V304.676H678.319L678.523 306.44H678.823C679.795 305.396 681.079 304.388 683.167 304.388C685.363 304.388 686.743 305.504 686.743 308.18V317ZM692.842 310.82C692.842 306.656 695.326 304.388 699.118 304.388C702.61 304.388 704.65 306.212 704.65 309.836V310.916H695.17C695.206 313.916 696.634 315.428 699.046 315.428C700.618 315.428 701.806 314.792 702.394 313.388L704.602 313.76C703.762 316.064 701.746 317.288 699.034 317.288C695.35 317.288 692.842 315.056 692.842 310.82ZM695.29 309.404H702.43C702.418 307.208 700.978 306.248 699.046 306.248C697.03 306.248 695.686 307.316 695.29 309.404ZM739.3 313.244C738.616 315.968 736.372 317.288 733.564 317.288C729.928 317.288 727.408 315.08 727.408 310.808C727.408 306.512 729.976 304.388 733.684 304.388C736.696 304.388 738.988 305.792 739.3 308.756L737.056 308.948C736.768 307.052 735.424 306.248 733.624 306.248C731.08 306.248 729.748 307.856 729.748 310.808C729.748 313.928 731.236 315.428 733.576 315.428C735.364 315.428 736.6 314.564 737.104 312.896L739.3 313.244ZM745.53 304.676H747.798V312.884C747.798 314.9 748.842 315.416 750.09 315.416C751.53 315.416 752.682 314.72 753.606 313.652V304.676H755.874V317H753.954L753.75 315.236H753.45C752.478 316.268 751.194 317.276 749.106 317.276C746.91 317.276 745.53 316.16 745.53 313.496V304.676ZM768.033 304.388C771.285 304.388 773.157 305.564 773.253 308.06L771.189 308.204C771.033 306.8 769.953 306.08 767.877 306.08C766.005 306.08 764.829 306.632 764.829 307.796C764.829 308.852 765.825 309.284 768.573 309.848C771.861 310.52 773.397 311.276 773.397 313.424C773.397 315.74 771.561 317.276 767.937 317.276C764.529 317.276 762.585 316.304 762.033 313.424L764.121 313.16C764.697 315.32 766.269 315.524 768.045 315.524C770.253 315.524 771.129 314.648 771.129 313.676C771.129 312.596 770.097 312.212 767.169 311.612C764.205 311 762.657 310.112 762.657 308C762.657 305.804 764.325 304.388 768.033 304.388ZM782.58 312.884V306.512H779.004V304.676H782.58V300.812H784.86V304.676H790.524V306.512H784.86V313.028C784.86 314.732 785.604 315.488 786.864 315.488C788.184 315.488 788.892 314.66 788.892 313.028V312.428H790.608V312.872C790.608 315.752 789.444 317.276 786.588 317.276C783.924 317.276 782.58 315.968 782.58 312.884ZM808.563 310.856C808.563 315.176 805.863 317.288 802.551 317.288C799.251 317.288 796.539 315.176 796.539 310.856C796.539 306.548 799.251 304.388 802.551 304.388C805.863 304.388 808.563 306.548 808.563 310.856ZM798.867 310.856C798.867 314 800.391 315.428 802.551 315.428C804.711 315.428 806.223 314 806.223 310.856C806.223 307.712 804.711 306.248 802.551 306.248C800.391 306.248 798.867 307.712 798.867 310.856ZM821.91 317H819.774V307.856C819.774 306.632 819.102 306.308 818.418 306.308C817.53 306.308 816.822 306.872 816.318 307.676V317H814.206V304.676H815.982L816.162 306.452H816.342C816.942 305.252 818.01 304.4 819.438 304.4C820.746 304.4 821.634 305.06 821.838 306.452H821.934C822.534 305.252 823.566 304.4 825.006 304.4C826.494 304.4 827.454 305.264 827.466 307.124L827.478 317H825.342V307.856C825.342 306.632 824.67 306.308 823.974 306.308C823.086 306.308 822.39 306.86 821.886 307.652L821.91 317ZM833.745 317V315.176H837.045V306.476H833.745V304.676L839.025 304.4L839.325 304.688V315.176H842.625V317H833.745ZM836.073 300.068C836.073 299.108 836.757 298.532 837.753 298.532C838.737 298.532 839.421 299.108 839.421 300.068C839.421 301.028 838.737 301.616 837.753 301.616C836.757 301.616 836.073 301.028 836.073 300.068ZM849.023 304.676H859.307V306.008L852.119 315.164H859.775V317H849.023V315.656L856.199 306.512H849.023V304.676ZM871.394 304.388C874.406 304.388 876.17 305.384 876.17 308.288V314.396C876.17 315.284 876.506 315.512 877.634 315.344V317C877.07 317.168 876.554 317.24 876.098 317.24C874.61 317.24 874.118 316.448 874.034 315.464H873.818C872.822 316.364 871.562 317.288 869.57 317.288C867.29 317.288 865.838 316.064 865.838 313.964C865.838 310.52 869.714 310.076 873.902 310.1V308.42C873.902 306.44 872.786 305.996 871.154 306.008C869.594 306.02 868.406 306.464 868.382 308.108V308.636H866.258V307.988C866.258 305.876 867.71 304.388 871.394 304.388ZM868.214 313.688C868.214 314.912 869.102 315.572 870.59 315.572C871.886 315.572 872.894 315.068 873.902 314.336V311.432C873.518 311.396 873.122 311.372 872.762 311.372C869.93 311.372 868.214 311.996 868.214 313.688ZM886.277 312.884V306.512H882.701V304.676H886.277V300.812H888.557V304.676H894.221V306.512H888.557V313.028C888.557 314.732 889.301 315.488 890.561 315.488C891.881 315.488 892.589 314.66 892.589 313.028V312.428H894.305V312.872C894.305 315.752 893.141 317.276 890.285 317.276C887.621 317.276 886.277 315.968 886.277 312.884ZM900.74 317V315.164H905.108V306.476H900.74V304.676L907.088 304.4L907.388 304.688V315.164H911.756V317H900.74ZM904.124 300.02C904.124 299.06 904.808 298.484 905.804 298.484C906.788 298.484 907.472 299.06 907.472 300.02C907.472 300.98 906.788 301.568 905.804 301.568C904.808 301.568 904.124 300.98 904.124 300.02ZM929.543 310.856C929.543 315.176 926.843 317.288 923.531 317.288C920.231 317.288 917.519 315.176 917.519 310.856C917.519 306.548 920.231 304.388 923.531 304.388C926.843 304.388 929.543 306.548 929.543 310.856ZM919.847 310.856C919.847 314 921.371 315.428 923.531 315.428C925.691 315.428 927.203 314 927.203 310.856C927.203 307.712 925.691 306.248 923.531 306.248C921.371 306.248 919.847 307.712 919.847 310.856ZM945.985 317H943.717V308.78C943.717 306.776 942.673 306.248 941.425 306.248C939.985 306.248 938.833 306.956 937.909 308.024V317H935.641V304.676H937.561L937.765 306.44H938.065C939.037 305.396 940.321 304.388 942.409 304.388C944.605 304.388 945.985 305.504 945.985 308.18V317Z" fill="#94E2D5"/>
</g>
</svg>
