<svg width="1300" height="350" viewBox="0 0 1300 350" fill="none" xmlns="http://www.w3.org/2000/svg">
<path d="M585.364 114.705V111.886C587.894 111.886 589.659 111.356 590.659 110.295C591.674 109.235 592.182 107.462 592.182 104.977V97.7045C592.182 95.6136 592.379 93.803 592.773 92.2727C593.182 90.7424 593.841 89.4773 594.75 88.4773C595.659 87.4773 596.871 86.7348 598.386 86.25C599.902 85.7651 601.773 85.5227 604 85.5227V89.9773C602.242 89.9773 600.856 90.25 599.841 90.7955C598.841 91.3409 598.129 92.1894 597.705 93.3409C597.295 94.4773 597.091 95.9318 597.091 97.7045V106.795C597.091 107.977 596.932 109.053 596.614 110.023C596.311 110.992 595.742 111.826 594.909 112.523C594.076 113.22 592.886 113.758 591.341 114.136C589.811 114.515 587.818 114.705 585.364 114.705ZM604 143.705C601.773 143.705 599.902 143.462 598.386 142.977C596.871 142.492 595.659 141.75 594.75 140.75C593.841 139.75 593.182 138.485 592.773 136.955C592.379 135.424 592.182 133.614 592.182 131.523V124.25C592.182 121.765 591.674 119.992 590.659 118.932C589.659 117.871 587.894 117.341 585.364 117.341V114.523C587.818 114.523 589.811 114.712 591.341 115.091C592.886 115.47 594.076 116.008 594.909 116.705C595.742 117.402 596.311 118.235 596.614 119.205C596.932 120.174 597.091 121.25 597.091 122.432V131.523C597.091 133.295 597.295 134.75 597.705 135.886C598.129 137.023 598.841 137.864 599.841 138.409C600.856 138.97 602.242 139.25 604 139.25V143.705ZM585.364 117.341V111.886H590.727V117.341H585.364Z" fill="#2A2D3F"/>
<path d="M613.733 143.705V85.5227H627.188V89.9773H618.824V139.25H627.188V143.705H613.733Z" fill="#32C572"/>
<path d="M653.52 129.25V126.018L657.84 124.258V105.666C657.84 101.602 655.728 100.194 652.912 100.194C650.704 100.194 647.696 100.898 644.272 102.786V124.322L648.496 126.018V129.25H634V126.018L638.32 124.258V102.338L632.72 101.474V97.922L643.088 95.522L643.92 95.874V99.554C648.112 96.898 651.952 95.362 655.696 95.362C661.168 95.362 663.792 98.466 663.792 104.418V124.322L668.016 126.018V129.25H653.52Z" fill="#2A2D3F"/>
<path d="M685.636 85.5227V143.705H672.182V139.25H680.545V89.9773H672.182V85.5227H685.636Z" fill="#32C572"/>
<path d="M714.006 114.523V117.341C711.475 117.341 709.703 117.871 708.688 118.932C707.688 119.992 707.188 121.765 707.188 124.25V131.523C707.188 133.614 706.983 135.424 706.574 136.955C706.18 138.485 705.528 139.75 704.619 140.75C703.71 141.75 702.498 142.492 700.983 142.977C699.468 143.462 697.597 143.705 695.369 143.705V139.25C697.127 139.25 698.506 138.97 699.506 138.409C700.521 137.864 701.233 137.023 701.642 135.886C702.066 134.75 702.278 133.295 702.278 131.523V122.432C702.278 121.25 702.43 120.174 702.733 119.205C703.051 118.235 703.627 117.402 704.46 116.705C705.294 116.008 706.475 115.47 708.006 115.091C709.551 114.712 711.551 114.523 714.006 114.523ZM695.369 85.5227C697.597 85.5227 699.468 85.7651 700.983 86.25C702.498 86.7348 703.71 87.4773 704.619 88.4773C705.528 89.4773 706.18 90.7424 706.574 92.2727C706.983 93.803 707.188 95.6136 707.188 97.7045V104.977C707.188 107.462 707.688 109.235 708.688 110.295C709.703 111.356 711.475 111.886 714.006 111.886V114.705C711.551 114.705 709.551 114.515 708.006 114.136C706.475 113.758 705.294 113.22 704.46 112.523C703.627 111.826 703.051 110.992 702.733 110.023C702.43 109.053 702.278 107.977 702.278 106.795V97.7045C702.278 95.9318 702.066 94.4773 701.642 93.3409C701.233 92.1894 700.521 91.3409 699.506 90.7955C698.506 90.25 697.127 89.9773 695.369 89.9773V85.5227ZM714.006 111.886V117.341H708.642V111.886H714.006Z" fill="#2A2D3F"/>
<path d="M649 58.1816L651.818 58.1816C651.818 60.7119 652.348 62.4847 653.409 63.4998C654.47 64.4998 656.242 64.9998 658.727 64.9998H666C668.091 64.9998 669.902 65.2044 671.432 65.6135C672.962 66.0074 674.227 66.6589 675.227 67.568C676.227 68.4771 676.97 69.6892 677.455 71.2044C677.939 72.7195 678.182 74.5907 678.182 76.818H673.727C673.727 75.0604 673.447 73.6816 672.886 72.6816C672.341 71.6665 671.5 70.9544 670.364 70.5453C669.227 70.121 667.773 69.9089 666 69.9089L656.909 69.9089C655.727 69.9089 654.652 69.7574 653.682 69.4544C652.712 69.1362 651.879 68.5604 651.182 67.7271C650.485 66.8938 649.947 65.7119 649.568 64.1816C649.189 62.6362 649 60.6362 649 58.1816ZM620 76.818C620 74.5907 620.242 72.7195 620.727 71.2044C621.212 69.6892 621.955 68.4771 622.955 67.568C623.955 66.6589 625.22 66.0074 626.75 65.6135C628.28 65.2044 630.091 64.9998 632.182 64.9998L639.455 64.9998C641.939 64.9998 643.712 64.4998 644.773 63.4998C645.833 62.4847 646.364 60.7119 646.364 58.1816L649.182 58.1816C649.182 60.6362 648.992 62.6362 648.614 64.1816C648.235 65.7119 647.697 66.8938 647 67.7271C646.303 68.5604 645.47 69.1362 644.5 69.4544C643.53 69.7574 642.455 69.9089 641.273 69.9089L632.182 69.9089C630.409 69.9089 628.955 70.121 627.818 70.5453C626.667 70.9544 625.818 71.6665 625.273 72.6816C624.727 73.6816 624.455 75.0604 624.455 76.818H620ZM646.364 58.1816L651.818 58.1816V63.5453L646.364 63.5453V58.1816Z" fill="#2A2D3F"/>
<path d="M650.182 171.818L647.364 171.818C647.364 169.288 646.833 167.515 645.773 166.5C644.712 165.5 642.939 165 640.455 165L633.182 165C631.091 165 629.28 164.795 627.75 164.386C626.22 163.992 624.955 163.341 623.955 162.432C622.955 161.523 622.212 160.31 621.727 158.795C621.242 157.28 621 155.409 621 153.182L625.455 153.182C625.455 154.939 625.735 156.318 626.295 157.318C626.841 158.333 627.682 159.045 628.818 159.454C629.955 159.879 631.409 160.091 633.182 160.091H642.273C643.455 160.091 644.53 160.242 645.5 160.545C646.47 160.863 647.303 161.439 648 162.273C648.697 163.106 649.235 164.288 649.614 165.818C649.992 167.363 650.182 169.363 650.182 171.818ZM679.182 153.182C679.182 155.409 678.939 157.28 678.455 158.795C677.97 160.31 677.227 161.523 676.227 162.432C675.227 163.341 673.962 163.992 672.432 164.386C670.902 164.795 669.091 165 667 165H659.727C657.242 165 655.47 165.5 654.409 166.5C653.348 167.515 652.818 169.288 652.818 171.818H650C650 169.363 650.189 167.363 650.568 165.818C650.947 164.288 651.485 163.106 652.182 162.273C652.879 161.439 653.712 160.863 654.682 160.545C655.652 160.242 656.727 160.091 657.909 160.091L667 160.091C668.773 160.091 670.227 159.879 671.364 159.454C672.515 159.045 673.364 158.333 673.909 157.318C674.455 156.318 674.727 154.939 674.727 153.182L679.182 153.182ZM652.818 171.818L647.364 171.818V166.454H652.818V171.818Z" fill="#2A2D3F"/>
<path d="M553.42 252V250.6L555.3 250.32C555.727 250.24 556.007 250.08 556.14 249.84C556.273 249.573 556.34 249.093 556.34 248.4V235.84C556.34 234.907 556.26 234.28 556.1 233.96C555.94 233.64 555.567 233.453 554.98 233.4L553.06 233.16L553.26 231.76L559.62 231.32L559.98 231.6L560.14 235.32H560.22C560.887 233.96 561.847 232.907 563.1 232.16C564.353 231.413 565.7 231.04 567.14 231.04C568.553 231.04 569.74 231.307 570.7 231.84C571.66 232.347 572.38 233.12 572.86 234.16C573.34 235.173 573.58 236.427 573.58 237.92V248.68C573.58 249.293 573.66 249.707 573.82 249.92C573.98 250.133 574.313 250.28 574.82 250.36L576.62 250.6V252H566.58V250.64L568.26 250.4C568.767 250.293 569.087 250.133 569.22 249.92C569.38 249.707 569.46 249.307 569.46 248.72V238.56C569.46 237.307 569.34 236.32 569.1 235.6C568.86 234.853 568.46 234.32 567.9 234C567.367 233.68 566.62 233.52 565.66 233.52C564.647 233.52 563.74 233.747 562.94 234.2C562.167 234.627 561.553 235.253 561.1 236.08C560.673 236.88 560.46 237.84 560.46 238.96V248.56C560.46 249.147 560.527 249.56 560.66 249.8C560.793 250.04 561.06 250.2 561.46 250.28L563.46 250.64V252H553.42ZM599.156 252.56C597.156 252.56 595.409 252.147 593.916 251.32C592.449 250.467 591.316 249.28 590.516 247.76C589.716 246.213 589.316 244.373 589.316 242.24C589.316 239.893 589.742 237.893 590.596 236.24C591.449 234.56 592.649 233.28 594.196 232.4C595.769 231.493 597.609 231.04 599.716 231.04C601.662 231.04 603.356 231.453 604.796 232.28C606.236 233.08 607.342 234.253 608.116 235.8C608.916 237.32 609.316 239.147 609.316 241.28C609.316 243.573 608.889 245.573 608.036 247.28C607.209 248.96 606.036 250.267 604.516 251.2C602.996 252.107 601.209 252.56 599.156 252.56ZM599.756 250.72C600.849 250.72 601.769 250.413 602.516 249.8C603.289 249.187 603.862 248.253 604.236 247C604.609 245.747 604.796 244.147 604.796 242.2C604.796 240.653 604.662 239.293 604.396 238.12C604.156 236.92 603.782 235.933 603.276 235.16C602.769 234.387 602.156 233.813 601.436 233.44C600.742 233.04 599.942 232.84 599.036 232.84C597.916 232.84 596.969 233.133 596.196 233.72C595.422 234.28 594.822 235.173 594.396 236.4C593.996 237.6 593.796 239.147 593.796 241.04C593.796 243.2 594.036 245 594.516 246.44C595.022 247.853 595.716 248.92 596.596 249.64C597.476 250.36 598.529 250.72 599.756 250.72ZM622.639 252V250.6L624.519 250.28C624.945 250.2 625.225 250.04 625.359 249.8C625.492 249.533 625.559 249.053 625.559 248.36V235.88C625.559 234.947 625.479 234.32 625.319 234C625.159 233.653 624.785 233.453 624.199 233.4L622.279 233.2L622.479 231.76L628.759 231.32L629.119 231.6L629.399 235.36H629.479C630.145 233.973 630.999 232.907 632.039 232.16C633.079 231.413 634.199 231.04 635.399 231.04C636.679 231.04 637.692 231.387 638.439 232.08C639.185 232.747 639.559 233.64 639.559 234.76C639.559 235.427 639.452 236 639.239 236.48C639.052 236.933 638.745 237.293 638.319 237.56C637.919 237.8 637.412 237.92 636.799 237.92C635.999 237.92 635.385 237.747 634.959 237.4C634.559 237.053 634.359 236.613 634.359 236.08C634.359 235.84 634.399 235.6 634.479 235.36C634.559 235.12 634.679 234.84 634.839 234.52C634.999 234.2 635.199 233.84 635.439 233.44C634.825 233.2 634.172 233.173 633.479 233.36C632.812 233.547 632.185 233.92 631.599 234.48C631.039 235.013 630.572 235.693 630.199 236.52C629.852 237.32 629.679 238.187 629.679 239.12V248.44C629.679 249.08 629.745 249.52 629.879 249.76C630.012 249.973 630.292 250.107 630.719 250.16L634.039 250.6V252H622.639ZM651.576 252V250.56L653.736 250.24C654.216 250.187 654.522 250.027 654.656 249.76C654.789 249.493 654.856 249 654.856 248.28V235.96C654.856 235 654.776 234.36 654.616 234.04C654.456 233.72 654.069 233.52 653.456 233.44L651.576 233.24L651.736 231.76L658.616 231.44L659.016 231.64V248.44C659.016 249 659.082 249.427 659.216 249.72C659.349 249.987 659.669 250.16 660.176 250.24L662.336 250.6V252H651.576ZM656.376 227.28C655.549 227.28 654.869 227.027 654.336 226.52C653.802 226.013 653.536 225.347 653.536 224.52C653.536 223.72 653.802 223.067 654.336 222.56C654.869 222.027 655.549 221.76 656.376 221.76C657.256 221.76 657.949 222.013 658.456 222.52C658.989 223.027 659.256 223.693 659.256 224.52C659.256 225.32 658.989 225.987 658.456 226.52C657.922 227.027 657.229 227.28 656.376 227.28ZM675.895 252.56L675.295 245.48L676.975 245.36C677.348 246.64 677.828 247.68 678.415 248.48C679.002 249.253 679.668 249.827 680.415 250.2C681.188 250.547 682.028 250.72 682.935 250.72C684.215 250.72 685.202 250.4 685.895 249.76C686.615 249.093 686.975 248.2 686.975 247.08C686.975 246.387 686.788 245.827 686.415 245.4C686.068 244.947 685.535 244.573 684.815 244.28C684.122 243.96 683.202 243.64 682.055 243.32C681.122 243.053 680.255 242.76 679.455 242.44C678.655 242.093 677.975 241.693 677.415 241.24C676.855 240.76 676.428 240.2 676.135 239.56C675.842 238.893 675.695 238.08 675.695 237.12C675.695 235.92 675.975 234.867 676.535 233.96C677.095 233.027 677.895 232.307 678.935 231.8C679.975 231.293 681.202 231.04 682.615 231.04C683.628 231.04 684.535 231.187 685.335 231.48C686.162 231.773 686.815 232.107 687.295 232.48L687.735 231.04H689.055L689.535 237.52L687.855 237.4C687.455 235.933 686.815 234.787 685.935 233.96C685.082 233.107 684.002 232.68 682.695 232.68C681.522 232.68 680.602 232.947 679.935 233.48C679.295 234.013 678.975 234.787 678.975 235.8C678.975 236.493 679.148 237.067 679.495 237.52C679.842 237.947 680.375 238.32 681.095 238.64C681.815 238.933 682.695 239.227 683.735 239.52C684.748 239.813 685.655 240.147 686.455 240.52C687.282 240.867 687.975 241.28 688.535 241.76C689.122 242.213 689.562 242.787 689.855 243.48C690.148 244.147 690.295 244.947 690.295 245.88C690.295 247.213 689.975 248.387 689.335 249.4C688.722 250.387 687.868 251.16 686.775 251.72C685.682 252.28 684.388 252.56 682.895 252.56C681.855 252.56 680.882 252.427 679.975 252.16C679.095 251.893 678.322 251.507 677.655 251L677.175 252.56H675.895ZM712.897 252.56C710.977 252.56 709.297 252.147 707.857 251.32C706.444 250.493 705.351 249.307 704.577 247.76C703.804 246.187 703.417 244.32 703.417 242.16C703.417 239.84 703.831 237.853 704.657 236.2C705.484 234.52 706.644 233.24 708.137 232.36C709.631 231.48 711.364 231.04 713.337 231.04C714.831 231.04 716.137 231.333 717.257 231.92C718.377 232.507 719.244 233.347 719.857 234.44C720.497 235.507 720.817 236.773 720.817 238.24C720.817 238.747 720.777 239.267 720.697 239.8C720.644 240.333 720.564 240.893 720.457 241.48H707.857C707.857 243.24 708.111 244.72 708.617 245.92C709.151 247.093 709.884 247.987 710.817 248.6C711.751 249.187 712.844 249.48 714.097 249.48C715.191 249.48 716.217 249.28 717.177 248.88C718.164 248.48 719.111 247.853 720.017 247L721.057 248C720.071 249.52 718.871 250.667 717.457 251.44C716.071 252.187 714.551 252.56 712.897 252.56ZM707.857 239.8H716.577C716.604 239.533 716.617 239.24 716.617 238.92C716.644 238.6 716.657 238.267 716.657 237.92C716.657 236.053 716.351 234.707 715.737 233.88C715.124 233.053 714.191 232.64 712.937 232.64C711.951 232.64 711.097 232.893 710.377 233.4C709.684 233.907 709.124 234.693 708.697 235.76C708.271 236.8 707.991 238.147 707.857 239.8ZM741.57 252.56C740.423 252.56 739.45 252.36 738.65 251.96C737.876 251.533 737.29 250.88 736.89 250C736.49 249.12 736.29 247.987 736.29 246.6V233.44H733.29V231.96C734.276 231.853 735.076 231.573 735.69 231.12C736.33 230.667 736.823 229.96 737.17 229C737.516 228.04 737.743 226.773 737.85 225.2L740.01 224.92L740.45 225.16V231.6H746.45V233.44H740.45V246.2C740.45 247.373 740.65 248.253 741.05 248.84C741.476 249.4 742.183 249.68 743.17 249.68C743.836 249.68 744.476 249.56 745.09 249.32C745.73 249.08 746.343 248.72 746.93 248.24L747.65 249.32C746.823 250.36 745.903 251.16 744.89 251.72C743.903 252.28 742.796 252.56 741.57 252.56Z" fill="#5C5F77"/>
<path d="M553.42 252V250.6L555.3 250.32C555.727 250.24 556.007 250.08 556.14 249.84C556.273 249.573 556.34 249.093 556.34 248.4V235.84C556.34 234.907 556.26 234.28 556.1 233.96C555.94 233.64 555.567 233.453 554.98 233.4L553.06 233.16L553.26 231.76L559.62 231.32L559.98 231.6L560.14 235.32H560.22C560.887 233.96 561.847 232.907 563.1 232.16C564.353 231.413 565.7 231.04 567.14 231.04C568.553 231.04 569.74 231.307 570.7 231.84C571.66 232.347 572.38 233.12 572.86 234.16C573.34 235.173 573.58 236.427 573.58 237.92V248.68C573.58 249.293 573.66 249.707 573.82 249.92C573.98 250.133 574.313 250.28 574.82 250.36L576.62 250.6V252H566.58V250.64L568.26 250.4C568.767 250.293 569.087 250.133 569.22 249.92C569.38 249.707 569.46 249.307 569.46 248.72V238.56C569.46 237.307 569.34 236.32 569.1 235.6C568.86 234.853 568.46 234.32 567.9 234C567.367 233.68 566.62 233.52 565.66 233.52C564.647 233.52 563.74 233.747 562.94 234.2C562.167 234.627 561.553 235.253 561.1 236.08C560.673 236.88 560.46 237.84 560.46 238.96V248.56C560.46 249.147 560.527 249.56 560.66 249.8C560.793 250.04 561.06 250.2 561.46 250.28L563.46 250.64V252H553.42ZM599.156 252.56C597.156 252.56 595.409 252.147 593.916 251.32C592.449 250.467 591.316 249.28 590.516 247.76C589.716 246.213 589.316 244.373 589.316 242.24C589.316 239.893 589.742 237.893 590.596 236.24C591.449 234.56 592.649 233.28 594.196 232.4C595.769 231.493 597.609 231.04 599.716 231.04C601.662 231.04 603.356 231.453 604.796 232.28C606.236 233.08 607.342 234.253 608.116 235.8C608.916 237.32 609.316 239.147 609.316 241.28C609.316 243.573 608.889 245.573 608.036 247.28C607.209 248.96 606.036 250.267 604.516 251.2C602.996 252.107 601.209 252.56 599.156 252.56ZM599.756 250.72C600.849 250.72 601.769 250.413 602.516 249.8C603.289 249.187 603.862 248.253 604.236 247C604.609 245.747 604.796 244.147 604.796 242.2C604.796 240.653 604.662 239.293 604.396 238.12C604.156 236.92 603.782 235.933 603.276 235.16C602.769 234.387 602.156 233.813 601.436 233.44C600.742 233.04 599.942 232.84 599.036 232.84C597.916 232.84 596.969 233.133 596.196 233.72C595.422 234.28 594.822 235.173 594.396 236.4C593.996 237.6 593.796 239.147 593.796 241.04C593.796 243.2 594.036 245 594.516 246.44C595.022 247.853 595.716 248.92 596.596 249.64C597.476 250.36 598.529 250.72 599.756 250.72ZM622.639 252V250.6L624.519 250.28C624.945 250.2 625.225 250.04 625.359 249.8C625.492 249.533 625.559 249.053 625.559 248.36V235.88C625.559 234.947 625.479 234.32 625.319 234C625.159 233.653 624.785 233.453 624.199 233.4L622.279 233.2L622.479 231.76L628.759 231.32L629.119 231.6L629.399 235.36H629.479C630.145 233.973 630.999 232.907 632.039 232.16C633.079 231.413 634.199 231.04 635.399 231.04C636.679 231.04 637.692 231.387 638.439 232.08C639.185 232.747 639.559 233.64 639.559 234.76C639.559 235.427 639.452 236 639.239 236.48C639.052 236.933 638.745 237.293 638.319 237.56C637.919 237.8 637.412 237.92 636.799 237.92C635.999 237.92 635.385 237.747 634.959 237.4C634.559 237.053 634.359 236.613 634.359 236.08C634.359 235.84 634.399 235.6 634.479 235.36C634.559 235.12 634.679 234.84 634.839 234.52C634.999 234.2 635.199 233.84 635.439 233.44C634.825 233.2 634.172 233.173 633.479 233.36C632.812 233.547 632.185 233.92 631.599 234.48C631.039 235.013 630.572 235.693 630.199 236.52C629.852 237.32 629.679 238.187 629.679 239.12V248.44C629.679 249.08 629.745 249.52 629.879 249.76C630.012 249.973 630.292 250.107 630.719 250.16L634.039 250.6V252H622.639ZM651.576 252V250.56L653.736 250.24C654.216 250.187 654.522 250.027 654.656 249.76C654.789 249.493 654.856 249 654.856 248.28V235.96C654.856 235 654.776 234.36 654.616 234.04C654.456 233.72 654.069 233.52 653.456 233.44L651.576 233.24L651.736 231.76L658.616 231.44L659.016 231.64V248.44C659.016 249 659.082 249.427 659.216 249.72C659.349 249.987 659.669 250.16 660.176 250.24L662.336 250.6V252H651.576ZM656.376 227.28C655.549 227.28 654.869 227.027 654.336 226.52C653.802 226.013 653.536 225.347 653.536 224.52C653.536 223.72 653.802 223.067 654.336 222.56C654.869 222.027 655.549 221.76 656.376 221.76C657.256 221.76 657.949 222.013 658.456 222.52C658.989 223.027 659.256 223.693 659.256 224.52C659.256 225.32 658.989 225.987 658.456 226.52C657.922 227.027 657.229 227.28 656.376 227.28ZM675.895 252.56L675.295 245.48L676.975 245.36C677.348 246.64 677.828 247.68 678.415 248.48C679.002 249.253 679.668 249.827 680.415 250.2C681.188 250.547 682.028 250.72 682.935 250.72C684.215 250.72 685.202 250.4 685.895 249.76C686.615 249.093 686.975 248.2 686.975 247.08C686.975 246.387 686.788 245.827 686.415 245.4C686.068 244.947 685.535 244.573 684.815 244.28C684.122 243.96 683.202 243.64 682.055 243.32C681.122 243.053 680.255 242.76 679.455 242.44C678.655 242.093 677.975 241.693 677.415 241.24C676.855 240.76 676.428 240.2 676.135 239.56C675.842 238.893 675.695 238.08 675.695 237.12C675.695 235.92 675.975 234.867 676.535 233.96C677.095 233.027 677.895 232.307 678.935 231.8C679.975 231.293 681.202 231.04 682.615 231.04C683.628 231.04 684.535 231.187 685.335 231.48C686.162 231.773 686.815 232.107 687.295 232.48L687.735 231.04H689.055L689.535 237.52L687.855 237.4C687.455 235.933 686.815 234.787 685.935 233.96C685.082 233.107 684.002 232.68 682.695 232.68C681.522 232.68 680.602 232.947 679.935 233.48C679.295 234.013 678.975 234.787 678.975 235.8C678.975 236.493 679.148 237.067 679.495 237.52C679.842 237.947 680.375 238.32 681.095 238.64C681.815 238.933 682.695 239.227 683.735 239.52C684.748 239.813 685.655 240.147 686.455 240.52C687.282 240.867 687.975 241.28 688.535 241.76C689.122 242.213 689.562 242.787 689.855 243.48C690.148 244.147 690.295 244.947 690.295 245.88C690.295 247.213 689.975 248.387 689.335 249.4C688.722 250.387 687.868 251.16 686.775 251.72C685.682 252.28 684.388 252.56 682.895 252.56C681.855 252.56 680.882 252.427 679.975 252.16C679.095 251.893 678.322 251.507 677.655 251L677.175 252.56H675.895ZM712.897 252.56C710.977 252.56 709.297 252.147 707.857 251.32C706.444 250.493 705.351 249.307 704.577 247.76C703.804 246.187 703.417 244.32 703.417 242.16C703.417 239.84 703.831 237.853 704.657 236.2C705.484 234.52 706.644 233.24 708.137 232.36C709.631 231.48 711.364 231.04 713.337 231.04C714.831 231.04 716.137 231.333 717.257 231.92C718.377 232.507 719.244 233.347 719.857 234.44C720.497 235.507 720.817 236.773 720.817 238.24C720.817 238.747 720.777 239.267 720.697 239.8C720.644 240.333 720.564 240.893 720.457 241.48H707.857C707.857 243.24 708.111 244.72 708.617 245.92C709.151 247.093 709.884 247.987 710.817 248.6C711.751 249.187 712.844 249.48 714.097 249.48C715.191 249.48 716.217 249.28 717.177 248.88C718.164 248.48 719.111 247.853 720.017 247L721.057 248C720.071 249.52 718.871 250.667 717.457 251.44C716.071 252.187 714.551 252.56 712.897 252.56ZM707.857 239.8H716.577C716.604 239.533 716.617 239.24 716.617 238.92C716.644 238.6 716.657 238.267 716.657 237.92C716.657 236.053 716.351 234.707 715.737 233.88C715.124 233.053 714.191 232.64 712.937 232.64C711.951 232.64 711.097 232.893 710.377 233.4C709.684 233.907 709.124 234.693 708.697 235.76C708.271 236.8 707.991 238.147 707.857 239.8ZM741.57 252.56C740.423 252.56 739.45 252.36 738.65 251.96C737.876 251.533 737.29 250.88 736.89 250C736.49 249.12 736.29 247.987 736.29 246.6V233.44H733.29V231.96C734.276 231.853 735.076 231.573 735.69 231.12C736.33 230.667 736.823 229.96 737.17 229C737.516 228.04 737.743 226.773 737.85 225.2L740.01 224.92L740.45 225.16V231.6H746.45V233.44H740.45V246.2C740.45 247.373 740.65 248.253 741.05 248.84C741.476 249.4 742.183 249.68 743.17 249.68C743.836 249.68 744.476 249.56 745.09 249.32C745.73 249.08 746.343 248.72 746.93 248.24L747.65 249.32C746.823 250.36 745.903 251.16 744.89 251.72C743.903 252.28 742.796 252.56 741.57 252.56Z" fill="black" fill-opacity="0.25"/>
<g opacity="0.8">
<path d="M358.512 304.22C361.86 304.22 363.756 305.444 363.78 307.952L361.368 308.132C361.224 306.812 360.264 306.152 358.332 306.152C356.592 306.152 355.536 306.668 355.536 307.712C355.536 308.72 356.556 309.092 359.196 309.668C362.268 310.328 363.984 311.048 363.984 313.328C363.984 315.728 362.052 317.276 358.308 317.276C354.852 317.276 352.956 316.256 352.428 313.4L354.876 313.1C355.38 315.02 356.712 315.296 358.44 315.296C360.504 315.296 361.308 314.516 361.308 313.628C361.308 312.608 360.252 312.26 357.468 311.66C354.636 311.06 352.992 310.136 352.992 307.928C352.992 305.648 354.744 304.22 358.512 304.22ZM375.375 304.22C378.483 304.22 380.355 305.24 380.355 308.156V314.132C380.355 314.984 380.655 315.2 381.735 315.068V317C381.123 317.168 380.559 317.252 380.043 317.252C378.459 317.252 377.955 316.472 377.859 315.464H377.595C376.647 316.412 375.363 317.288 373.467 317.288C371.223 317.288 369.771 316.028 369.771 313.928C369.771 310.424 373.779 309.956 377.691 310.004V308.3C377.691 306.512 376.659 306.068 375.171 306.08C373.707 306.08 372.639 306.548 372.627 308L372.615 308.504H370.191V307.868C370.191 305.732 371.643 304.22 375.375 304.22ZM372.543 313.58C372.543 314.696 373.371 315.32 374.739 315.32C375.867 315.32 376.815 314.888 377.691 314.252V311.492C377.355 311.456 377.019 311.432 376.683 311.432C374.079 311.432 372.543 312.056 372.543 313.58ZM398.37 317H395.706V308.672C395.706 306.86 394.782 306.38 393.63 306.38C392.31 306.38 391.218 307.028 390.306 308V317H387.642V304.508H389.934L390.126 306.32H390.474C391.542 305.18 392.826 304.22 394.866 304.22C397.062 304.22 398.37 305.324 398.37 307.976V317ZM404.156 310.736C404.156 306.452 406.724 304.22 410.552 304.22C414.104 304.22 416.18 306.08 416.18 309.824V310.964H406.868C406.94 313.736 408.224 315.152 410.456 315.152C411.884 315.152 412.988 314.576 413.552 313.28L416.132 313.676C415.268 316.148 413.084 317.288 410.444 317.288C406.724 317.288 404.156 315.044 404.156 310.736ZM407 309.284H413.576C413.576 307.256 412.28 306.344 410.468 306.344C408.644 306.344 407.384 307.292 407 309.284ZM438.722 310.784C438.722 306.824 440.426 304.232 443.618 304.232C445.442 304.232 446.654 305.06 447.398 306.116H447.554V298.64H450.218V317H447.926L447.746 315.404H447.41C446.558 316.46 445.322 317.3 443.522 317.3C440.354 317.3 438.722 314.672 438.722 310.784ZM441.446 310.784C441.446 313.664 442.55 315.056 444.686 315.056C445.682 315.056 446.63 314.756 447.554 313.94V307.568C446.63 306.752 445.67 306.452 444.71 306.452C442.598 306.452 441.446 307.844 441.446 310.784ZM456.005 310.736C456.005 306.452 458.573 304.22 462.401 304.22C465.953 304.22 468.029 306.08 468.029 309.824V310.964H458.717C458.789 313.736 460.073 315.152 462.305 315.152C463.733 315.152 464.837 314.576 465.401 313.28L467.981 313.676C467.117 316.148 464.933 317.288 462.293 317.288C458.573 317.288 456.005 315.044 456.005 310.736ZM458.849 309.284H465.425C465.425 307.256 464.129 306.344 462.317 306.344C460.493 306.344 459.233 307.292 458.849 309.284ZM485.504 300.344C484.568 300.128 483.728 299.996 482.756 299.996C480.692 299.996 479.672 300.596 479.672 303.272V304.508H485.084V306.668H479.672V314.84H483.836V317H473.876V314.84H477.008V306.668H473.156V304.508H477.008V303.692C477.008 299.276 479.012 297.668 482.66 297.668C483.68 297.668 484.616 297.8 485.504 298.052V300.344ZM496.354 304.22C499.462 304.22 501.334 305.24 501.334 308.156V314.132C501.334 314.984 501.634 315.2 502.714 315.068V317C502.102 317.168 501.538 317.252 501.022 317.252C499.438 317.252 498.934 316.472 498.838 315.464H498.574C497.626 316.412 496.342 317.288 494.446 317.288C492.202 317.288 490.75 316.028 490.75 313.928C490.75 310.424 494.758 309.956 498.67 310.004V308.3C498.67 306.512 497.638 306.068 496.15 306.08C494.686 306.08 493.618 306.548 493.606 308L493.594 308.504H491.17V307.868C491.17 305.732 492.622 304.22 496.354 304.22ZM493.522 313.58C493.522 314.696 494.35 315.32 495.718 315.32C496.846 315.32 497.794 314.888 498.67 314.252V311.492C498.334 311.456 497.998 311.432 497.662 311.432C495.058 311.432 493.522 312.056 493.522 313.58ZM508.621 304.508H511.285V312.824C511.285 314.648 512.209 315.128 513.361 315.128C514.693 315.128 515.785 314.492 516.685 313.508V304.508H519.349V317H517.057L516.865 315.176H516.517C515.461 316.328 514.177 317.276 512.137 317.276C509.929 317.276 508.621 316.172 508.621 313.532V304.508ZM525.664 317V314.84H529.936L529.948 300.776H525.676V298.64L532.276 298.352L532.612 298.676L532.6 314.84H536.872V317H525.664ZM545.719 312.92V306.668H542.287V304.508H545.719V300.764H548.383V304.508H553.807V306.668H548.383V313.028C548.383 314.564 549.103 315.2 550.183 315.2C551.299 315.2 551.995 314.516 551.995 313.04V312.368H553.939V312.908C553.939 315.812 552.655 317.276 549.811 317.276C547.087 317.276 545.719 315.968 545.719 312.92ZM565.906 304.22C569.254 304.22 571.15 305.444 571.174 307.952L568.762 308.132C568.618 306.812 567.658 306.152 565.726 306.152C563.986 306.152 562.93 306.668 562.93 307.712C562.93 308.72 563.95 309.092 566.59 309.668C569.662 310.328 571.378 311.048 571.378 313.328C571.378 315.728 569.446 317.276 565.702 317.276C562.246 317.276 560.35 316.256 559.822 313.4L562.27 313.1C562.774 315.02 564.106 315.296 565.834 315.296C567.898 315.296 568.702 314.516 568.702 313.628C568.702 312.608 567.646 312.26 564.862 311.66C562.03 311.06 560.386 310.136 560.386 307.928C560.386 305.648 562.138 304.22 565.906 304.22Z" fill="#40A02B"/>
<path d="M589.452 311.396C588.132 311.396 587.064 310.52 587.064 309.08C587.064 307.628 588.132 306.776 589.452 306.776C590.76 306.776 591.816 307.628 591.816 309.08C591.816 310.52 590.76 311.396 589.452 311.396Z" fill="#BAC2DE"/>
<path d="M606.836 317V314.84H611.108V306.644H606.836V304.508L613.448 304.22L613.772 304.544V314.84H618.044V317H606.836ZM610.088 299.996C610.088 298.928 610.856 298.28 611.96 298.28C613.076 298.28 613.832 298.928 613.832 299.996C613.832 301.064 613.076 301.736 611.96 301.736C610.856 301.736 610.088 301.064 610.088 299.996ZM635.087 317H632.423V308.672C632.423 306.86 631.499 306.38 630.347 306.38C629.027 306.38 627.935 307.028 627.023 308V317H624.359V304.508H626.651L626.843 306.32H627.191C628.259 305.18 629.543 304.22 631.583 304.22C633.779 304.22 635.087 305.324 635.087 307.976V317ZM647.078 304.22C650.426 304.22 652.322 305.444 652.346 307.952L649.934 308.132C649.79 306.812 648.83 306.152 646.898 306.152C645.158 306.152 644.102 306.668 644.102 307.712C644.102 308.72 645.122 309.092 647.762 309.668C650.834 310.328 652.55 311.048 652.55 313.328C652.55 315.728 650.618 317.276 646.874 317.276C643.418 317.276 641.522 316.256 640.994 313.4L643.442 313.1C643.946 315.02 645.278 315.296 647.006 315.296C649.07 315.296 649.874 314.516 649.874 313.628C649.874 312.608 648.818 312.26 646.034 311.66C643.202 311.06 641.558 310.136 641.558 307.928C641.558 305.648 643.31 304.22 647.078 304.22ZM663.94 304.22C667.048 304.22 668.92 305.24 668.92 308.156V314.132C668.92 314.984 669.22 315.2 670.3 315.068V317C669.688 317.168 669.124 317.252 668.608 317.252C667.024 317.252 666.52 316.472 666.424 315.464H666.16C665.212 316.412 663.928 317.288 662.032 317.288C659.788 317.288 658.336 316.028 658.336 313.928C658.336 310.424 662.344 309.956 666.256 310.004V308.3C666.256 306.512 665.224 306.068 663.736 306.08C662.272 306.08 661.204 306.548 661.192 308L661.18 308.504H658.756V307.868C658.756 305.732 660.208 304.22 663.94 304.22ZM661.108 313.58C661.108 314.696 661.936 315.32 663.304 315.32C664.432 315.32 665.38 314.888 666.256 314.252V311.492C665.92 311.456 665.584 311.432 665.248 311.432C662.644 311.432 661.108 312.056 661.108 313.58ZM686.935 317H684.271V308.672C684.271 306.86 683.347 306.38 682.195 306.38C680.875 306.38 679.783 307.028 678.871 308V317H676.207V304.508H678.499L678.691 306.32H679.039C680.107 305.18 681.391 304.22 683.431 304.22C685.627 304.22 686.935 305.324 686.935 307.976V317ZM692.722 310.736C692.722 306.452 695.29 304.22 699.118 304.22C702.67 304.22 704.746 306.08 704.746 309.824V310.964H695.434C695.506 313.736 696.79 315.152 699.022 315.152C700.45 315.152 701.554 314.576 702.118 313.28L704.698 313.676C703.834 316.148 701.65 317.288 699.01 317.288C695.29 317.288 692.722 315.044 692.722 310.736ZM695.566 309.284H702.142C702.142 307.256 700.846 306.344 699.034 306.344C697.21 306.344 695.95 307.292 695.566 309.284ZM739.396 313.136C738.688 316.028 736.312 317.288 733.528 317.288C729.796 317.288 727.288 315.044 727.288 310.736C727.288 306.308 729.964 304.22 733.66 304.22C736.768 304.22 739.096 305.66 739.396 308.708L736.792 308.936C736.516 307.184 735.304 306.344 733.588 306.344C731.236 306.344 730.012 307.892 730.012 310.736C730.012 313.724 731.356 315.152 733.552 315.152C735.256 315.152 736.36 314.3 736.828 312.764L739.396 313.136ZM745.338 304.508H748.002V312.824C748.002 314.648 748.926 315.128 750.078 315.128C751.41 315.128 752.502 314.492 753.402 313.508V304.508H756.066V317H753.774L753.582 315.176H753.234C752.178 316.328 750.894 317.276 748.854 317.276C746.646 317.276 745.338 316.172 745.338 313.532V304.508ZM768.057 304.22C771.405 304.22 773.301 305.444 773.325 307.952L770.913 308.132C770.769 306.812 769.809 306.152 767.877 306.152C766.137 306.152 765.081 306.668 765.081 307.712C765.081 308.72 766.101 309.092 768.741 309.668C771.813 310.328 773.529 311.048 773.529 313.328C773.529 315.728 771.597 317.276 767.853 317.276C764.397 317.276 762.501 316.256 761.973 313.4L764.421 313.1C764.925 315.02 766.257 315.296 767.985 315.296C770.049 315.296 770.853 314.516 770.853 313.628C770.853 312.608 769.797 312.26 767.013 311.66C764.181 311.06 762.537 310.136 762.537 307.928C762.537 305.648 764.289 304.22 768.057 304.22ZM782.436 312.92V306.668H779.004V304.508H782.436V300.764H785.1V304.508H790.524V306.668H785.1V313.028C785.1 314.564 785.82 315.2 786.9 315.2C788.016 315.2 788.712 314.516 788.712 313.04V312.368H790.656V312.908C790.656 315.812 789.372 317.276 786.528 317.276C783.804 317.276 782.436 315.968 782.436 312.92ZM808.683 310.784C808.683 315.224 805.923 317.288 802.551 317.288C799.191 317.288 796.419 315.224 796.419 310.784C796.419 306.344 799.191 304.22 802.551 304.22C805.923 304.22 808.683 306.344 808.683 310.784ZM799.131 310.784C799.131 313.892 800.559 315.152 802.551 315.152C804.555 315.152 805.971 313.892 805.971 310.784C805.971 307.664 804.555 306.344 802.551 306.344C800.559 306.344 799.131 307.664 799.131 310.784ZM822.042 317H819.594V307.868C819.594 306.764 819.006 306.452 818.358 306.452C817.578 306.452 816.942 306.92 816.462 307.568V317H814.026V304.508H816.102L816.282 306.368H816.486C817.074 305.144 818.154 304.232 819.618 304.232C820.938 304.232 821.802 304.916 821.994 306.368H822.102C822.678 305.144 823.722 304.232 825.186 304.232C826.698 304.232 827.61 305.12 827.61 307.028L827.622 317H825.174V307.868C825.174 306.764 824.586 306.452 823.926 306.452C823.146 306.452 822.51 306.908 822.03 307.544L822.042 317ZM833.613 317V314.84H836.841V306.644H833.613V304.508L839.169 304.22L839.505 304.544V314.84H842.721V317H833.613ZM835.833 300.068C835.833 299 836.601 298.352 837.705 298.352C838.821 298.352 839.577 299 839.577 300.068C839.577 301.136 838.821 301.808 837.705 301.808C836.601 301.808 835.833 301.136 835.833 300.068ZM848.915 304.508H859.463V306.092L852.539 314.84H859.895V317H848.915V315.404L855.827 306.668H848.915V304.508ZM871.334 304.22C874.442 304.22 876.314 305.24 876.314 308.156V314.132C876.314 314.984 876.614 315.2 877.694 315.068V317C877.082 317.168 876.518 317.252 876.002 317.252C874.418 317.252 873.914 316.472 873.818 315.464H873.554C872.606 316.412 871.322 317.288 869.426 317.288C867.182 317.288 865.73 316.028 865.73 313.928C865.73 310.424 869.738 309.956 873.65 310.004V308.3C873.65 306.512 872.618 306.068 871.13 306.08C869.666 306.08 868.598 306.548 868.586 308L868.574 308.504H866.15V307.868C866.15 305.732 867.602 304.22 871.334 304.22ZM868.502 313.58C868.502 314.696 869.33 315.32 870.698 315.32C871.826 315.32 872.774 314.888 873.65 314.252V311.492C873.314 311.456 872.978 311.432 872.642 311.432C870.038 311.432 868.502 312.056 868.502 313.58ZM886.133 312.92V306.668H882.701V304.508H886.133V300.764H888.797V304.508H894.221V306.668H888.797V313.028C888.797 314.564 889.517 315.2 890.597 315.2C891.713 315.2 892.409 314.516 892.409 313.04V312.368H894.353V312.908C894.353 315.812 893.069 317.276 890.225 317.276C887.501 317.276 886.133 315.968 886.133 312.92ZM900.644 317V314.84H904.916V306.644H900.644V304.508L907.256 304.22L907.58 304.544V314.84H911.852V317H900.644ZM903.896 299.996C903.896 298.928 904.664 298.28 905.768 298.28C906.884 298.28 907.64 298.928 907.64 299.996C907.64 301.064 906.884 301.736 905.768 301.736C904.664 301.736 903.896 301.064 903.896 299.996ZM929.663 310.784C929.663 315.224 926.903 317.288 923.531 317.288C920.171 317.288 917.399 315.224 917.399 310.784C917.399 306.344 920.171 304.22 923.531 304.22C926.903 304.22 929.663 306.344 929.663 310.784ZM920.111 310.784C920.111 313.892 921.539 315.152 923.531 315.152C925.535 315.152 926.951 313.892 926.951 310.784C926.951 307.664 925.535 306.344 923.531 306.344C921.539 306.344 920.111 307.664 920.111 310.784ZM946.177 317H943.513V308.672C943.513 306.86 942.589 306.38 941.437 306.38C940.117 306.38 939.025 307.028 938.113 308V317H935.449V304.508H937.741L937.933 306.32H938.281C939.349 305.18 940.633 304.22 942.673 304.22C944.869 304.22 946.177 305.324 946.177 307.976V317Z" fill="#179299"/>
</g>
</svg>
