<svg width="180" height="180" viewBox="0 0 180 180" fill="none" xmlns="http://www.w3.org/2000/svg">
<path d="M25.3636 89.7045V86.8864C27.8939 86.8864 29.6591 86.3561 30.6591 85.2955C31.6742 84.2348 32.1818 82.4621 32.1818 79.9773V72.7045C32.1818 70.6136 32.3788 68.803 32.7727 67.2727C33.1818 65.7424 33.8409 64.4773 34.75 63.4773C35.6591 62.4773 36.8712 61.7348 38.3864 61.25C39.9015 60.7651 41.7727 60.5227 44 60.5227V64.9773C42.2424 64.9773 40.8561 65.25 39.8409 65.7955C38.8409 66.3409 38.1288 67.1894 37.7045 68.3409C37.2955 69.4773 37.0909 70.9318 37.0909 72.7045V81.7955C37.0909 82.9773 36.9318 84.053 36.6136 85.0227C36.3106 85.9924 35.7424 86.8258 34.9091 87.5227C34.0758 88.2197 32.8864 88.7576 31.3409 89.1364C29.8106 89.5152 27.8182 89.7045 25.3636 89.7045ZM44 118.705C41.7727 118.705 39.9015 118.462 38.3864 117.977C36.8712 117.492 35.6591 116.75 34.75 115.75C33.8409 114.75 33.1818 113.485 32.7727 111.955C32.3788 110.424 32.1818 108.614 32.1818 106.523V99.25C32.1818 96.7652 31.6742 94.9924 30.6591 93.9318C29.6591 92.8712 27.8939 92.3409 25.3636 92.3409V89.5227C27.8182 89.5227 29.8106 89.7121 31.3409 90.0909C32.8864 90.4697 34.0758 91.0076 34.9091 91.7045C35.7424 92.4015 36.3106 93.2348 36.6136 94.2045C36.9318 95.1742 37.0909 96.25 37.0909 97.4318V106.523C37.0909 108.295 37.2955 109.75 37.7045 110.886C38.1288 112.023 38.8409 112.864 39.8409 113.409C40.8561 113.97 42.2424 114.25 44 114.25V118.705ZM25.3636 92.3409V86.8864H30.7273V92.3409H25.3636Z" fill="#E6EBF9"/>
<path d="M53.733 118.705V60.5227H67.1875V64.9773H58.8239V114.25H67.1875V118.705H53.733Z" fill="#32C572"/>
<path d="M93.52 104.25V101.018L97.84 99.258V80.666C97.84 76.602 95.728 75.194 92.912 75.194C90.704 75.194 87.696 75.898 84.272 77.786V99.322L88.496 101.018V104.25H74V101.018L78.32 99.258V77.338L72.72 76.474V72.922L83.088 70.522L83.92 70.874V74.554C88.112 71.898 91.952 70.362 95.696 70.362C101.168 70.362 103.792 73.466 103.792 79.418V99.322L108.016 101.018V104.25H93.52Z" fill="#E6EBF9"/>
<path d="M125.636 60.5227V118.705H112.182V114.25H120.545V64.9773H112.182V60.5227H125.636Z" fill="#32C572"/>
<path d="M154.006 89.5227V92.3409C151.475 92.3409 149.703 92.8712 148.688 93.9318C147.688 94.9924 147.188 96.7652 147.188 99.25V106.523C147.188 108.614 146.983 110.424 146.574 111.955C146.18 113.485 145.528 114.75 144.619 115.75C143.71 116.75 142.498 117.492 140.983 117.977C139.468 118.462 137.597 118.705 135.369 118.705V114.25C137.127 114.25 138.506 113.97 139.506 113.409C140.521 112.864 141.233 112.023 141.642 110.886C142.066 109.75 142.278 108.295 142.278 106.523V97.4318C142.278 96.25 142.43 95.1742 142.733 94.2045C143.051 93.2348 143.627 92.4015 144.46 91.7045C145.294 91.0076 146.475 90.4697 148.006 90.0909C149.551 89.7121 151.551 89.5227 154.006 89.5227ZM135.369 60.5227C137.597 60.5227 139.468 60.7651 140.983 61.25C142.498 61.7348 143.71 62.4773 144.619 63.4773C145.528 64.4773 146.18 65.7424 146.574 67.2727C146.983 68.803 147.188 70.6136 147.188 72.7045V79.9773C147.188 82.4621 147.688 84.2348 148.688 85.2955C149.703 86.3561 151.475 86.8864 154.006 86.8864V89.7045C151.551 89.7045 149.551 89.5152 148.006 89.1364C146.475 88.7576 145.294 88.2197 144.46 87.5227C143.627 86.8258 143.051 85.9924 142.733 85.0227C142.43 84.053 142.278 82.9773 142.278 81.7955V72.7045C142.278 70.9318 142.066 69.4773 141.642 68.3409C141.233 67.1894 140.521 66.3409 139.506 65.7955C138.506 65.25 137.127 64.9773 135.369 64.9773V60.5227ZM154.006 86.8864V92.3409H148.642V86.8864H154.006Z" fill="#E6EBF9"/>
<path d="M89 33.1816L91.8182 33.1816C91.8182 35.7119 92.3485 37.4847 93.4091 38.4998C94.4697 39.4998 96.2424 39.9998 98.7273 39.9998H106C108.091 39.9998 109.902 40.2044 111.432 40.6135C112.962 41.0074 114.227 41.6589 115.227 42.568C116.227 43.4771 116.97 44.6892 117.455 46.2044C117.939 47.7195 118.182 49.5907 118.182 51.818H113.727C113.727 50.0604 113.447 48.6816 112.886 47.6816C112.341 46.6665 111.5 45.9544 110.364 45.5453C109.227 45.121 107.773 44.9089 106 44.9089L96.9091 44.9089C95.7273 44.9089 94.6515 44.7574 93.6818 44.4544C92.7121 44.1362 91.8788 43.5604 91.1818 42.7271C90.4849 41.8938 89.947 40.7119 89.5682 39.1816C89.1894 37.6362 89 35.6362 89 33.1816ZM60 51.818C60 49.5907 60.2424 47.7195 60.7273 46.2044C61.2121 44.6892 61.9545 43.4771 62.9545 42.568C63.9545 41.6589 65.2197 41.0074 66.75 40.6135C68.2803 40.2044 70.0909 39.9998 72.1818 39.9998L79.4545 39.9998C81.9394 39.9998 83.7121 39.4998 84.7727 38.4998C85.8333 37.4847 86.3636 35.7119 86.3636 33.1816L89.1818 33.1816C89.1818 35.6362 88.9924 37.6362 88.6136 39.1816C88.2349 40.7119 87.697 41.8938 87 42.7271C86.303 43.5604 85.4697 44.1362 84.5 44.4544C83.5303 44.7574 82.4545 44.9089 81.2727 44.9089L72.1818 44.9089C70.4091 44.9089 68.9545 45.121 67.8182 45.5453C66.6667 45.9544 65.8182 46.6665 65.2727 47.6816C64.7273 48.6816 64.4545 50.0604 64.4545 51.818H60ZM86.3636 33.1816L91.8182 33.1816V38.5453L86.3636 38.5453V33.1816Z" fill="#E6EBF9"/>
<path d="M90.1818 146.818L87.3636 146.818C87.3636 144.288 86.8333 142.515 85.7727 141.5C84.7121 140.5 82.9394 140 80.4545 140L73.1818 140C71.0909 140 69.2803 139.795 67.75 139.386C66.2197 138.992 64.9545 138.341 63.9545 137.432C62.9545 136.523 62.2121 135.31 61.7273 133.795C61.2424 132.28 61 130.409 61 128.182L65.4545 128.182C65.4545 129.939 65.7348 131.318 66.2955 132.318C66.8409 133.333 67.6818 134.045 68.8182 134.454C69.9545 134.879 71.4091 135.091 73.1818 135.091H82.2727C83.4545 135.091 84.5303 135.242 85.5 135.545C86.4697 135.863 87.303 136.439 88 137.273C88.697 138.106 89.2348 139.288 89.6136 140.818C89.9924 142.363 90.1818 144.363 90.1818 146.818ZM119.182 128.182C119.182 130.409 118.939 132.28 118.455 133.795C117.97 135.31 117.227 136.523 116.227 137.432C115.227 138.341 113.962 138.992 112.432 139.386C110.902 139.795 109.091 140 107 140H99.7273C97.2424 140 95.4697 140.5 94.4091 141.5C93.3485 142.515 92.8182 144.288 92.8182 146.818H90C90 144.363 90.1894 142.363 90.5682 140.818C90.947 139.288 91.4848 138.106 92.1818 137.273C92.8788 136.439 93.7121 135.863 94.6818 135.545C95.6515 135.242 96.7273 135.091 97.9091 135.091L107 135.091C108.773 135.091 110.227 134.879 111.364 134.454C112.515 134.045 113.364 133.333 113.909 132.318C114.455 131.318 114.727 129.939 114.727 128.182L119.182 128.182ZM92.8182 146.818L87.3636 146.818V141.454H92.8182V146.818Z" fill="#E6EBF9"/>
</svg>
